%TF.GenerationSoftware,KiCad,Pcbnew,(5.1.8)-1*%
%TF.CreationDate,2021-08-28T19:56:38+01:00*%
%TF.ProjectId,OSC21,4f534332-312e-46b6-9963-61645f706362,rev?*%
%TF.SameCoordinates,Original*%
%TF.FileFunction,Copper,L2,Bot*%
%TF.FilePolarity,Positive*%
%FSLAX46Y46*%
G04 Gerber Fmt 4.6, Leading zero omitted, Abs format (unit mm)*
G04 Created by KiCad (PCBNEW (5.1.8)-1) date 2021-08-28 19:56:38*
%MOMM*%
%LPD*%
G01*
G04 APERTURE LIST*
%TA.AperFunction,ComponentPad*%
%ADD10C,5.000000*%
%TD*%
%TA.AperFunction,ComponentPad*%
%ADD11C,1.500000*%
%TD*%
%TA.AperFunction,ComponentPad*%
%ADD12C,2.000000*%
%TD*%
%TA.AperFunction,ComponentPad*%
%ADD13O,2.000000X1.700000*%
%TD*%
%TA.AperFunction,ComponentPad*%
%ADD14C,2.600000*%
%TD*%
%TA.AperFunction,ComponentPad*%
%ADD15R,2.600000X2.600000*%
%TD*%
%TA.AperFunction,ComponentPad*%
%ADD16O,1.700000X1.950000*%
%TD*%
%TA.AperFunction,ComponentPad*%
%ADD17O,1.950000X1.700000*%
%TD*%
%TA.AperFunction,ComponentPad*%
%ADD18O,1.350000X1.350000*%
%TD*%
%TA.AperFunction,ComponentPad*%
%ADD19R,1.350000X1.350000*%
%TD*%
%TA.AperFunction,ComponentPad*%
%ADD20C,3.000000*%
%TD*%
%TA.AperFunction,ComponentPad*%
%ADD21R,3.000000X3.000000*%
%TD*%
%TA.AperFunction,ViaPad*%
%ADD22C,0.800000*%
%TD*%
%TA.AperFunction,Conductor*%
%ADD23C,0.350000*%
%TD*%
%TA.AperFunction,Conductor*%
%ADD24C,0.700000*%
%TD*%
%TA.AperFunction,Conductor*%
%ADD25C,0.254000*%
%TD*%
%TA.AperFunction,Conductor*%
%ADD26C,0.100000*%
%TD*%
G04 APERTURE END LIST*
D10*
%TO.P,H4,1*%
%TO.N,N/C*%
X176149000Y-119951500D03*
%TD*%
%TO.P,H3,1*%
%TO.N,N/C*%
X175260000Y-81597500D03*
%TD*%
%TO.P,H2,1*%
%TO.N,N/C*%
X105918000Y-120078500D03*
%TD*%
%TO.P,H1,1*%
%TO.N,N/C*%
X105664000Y-82105500D03*
%TD*%
D11*
%TO.P,Y1,2*%
%TO.N,XTAL2*%
X142802000Y-115252500D03*
%TO.P,Y1,1*%
%TO.N,XTAL1*%
X137922000Y-115252500D03*
%TD*%
D12*
%TO.P,SW1,1*%
%TO.N,GND*%
X126088000Y-122364500D03*
%TO.P,SW1,2*%
%TO.N,RST*%
X126088000Y-117864500D03*
%TO.P,SW1,1*%
%TO.N,GND*%
X132588000Y-122364500D03*
%TO.P,SW1,2*%
%TO.N,RST*%
X132588000Y-117864500D03*
%TD*%
D13*
%TO.P,J7,2*%
%TO.N,+5V*%
X169799000Y-85621500D03*
%TO.P,J7,1*%
%TO.N,GND*%
%TA.AperFunction,ComponentPad*%
G36*
G01*
X169049000Y-82271500D02*
X170549000Y-82271500D01*
G75*
G02*
X170799000Y-82521500I0J-250000D01*
G01*
X170799000Y-83721500D01*
G75*
G02*
X170549000Y-83971500I-250000J0D01*
G01*
X169049000Y-83971500D01*
G75*
G02*
X168799000Y-83721500I0J250000D01*
G01*
X168799000Y-82521500D01*
G75*
G02*
X169049000Y-82271500I250000J0D01*
G01*
G37*
%TD.AperFunction*%
%TD*%
D14*
%TO.P,J6,3*%
%TO.N,+5V*%
X167005000Y-92646500D03*
%TO.P,J6,2*%
%TO.N,Servo*%
X167005000Y-97726500D03*
D15*
%TO.P,J6,1*%
%TO.N,GND*%
X167005000Y-102806500D03*
%TD*%
D14*
%TO.P,J5,2*%
%TO.N,+12V*%
X169084000Y-118173500D03*
D15*
%TO.P,J5,1*%
%TO.N,Net-(D4-Pad2)*%
X164084000Y-118173500D03*
%TD*%
D16*
%TO.P,J4,3*%
%TO.N,IR_Sen*%
X158162000Y-80835500D03*
%TO.P,J4,2*%
%TO.N,GND*%
X155662000Y-80835500D03*
%TO.P,J4,1*%
%TO.N,+5V*%
%TA.AperFunction,ComponentPad*%
G36*
G01*
X152312000Y-81560500D02*
X152312000Y-80110500D01*
G75*
G02*
X152562000Y-79860500I250000J0D01*
G01*
X153762000Y-79860500D01*
G75*
G02*
X154012000Y-80110500I0J-250000D01*
G01*
X154012000Y-81560500D01*
G75*
G02*
X153762000Y-81810500I-250000J0D01*
G01*
X152562000Y-81810500D01*
G75*
G02*
X152312000Y-81560500I0J250000D01*
G01*
G37*
%TD.AperFunction*%
%TD*%
D17*
%TO.P,J3,4*%
%TO.N,GND*%
X116205000Y-102926500D03*
%TO.P,J3,3*%
%TO.N,RX_Rasp*%
X116205000Y-105426500D03*
%TO.P,J3,2*%
%TO.N,TX_Rasp*%
X116205000Y-107926500D03*
%TO.P,J3,1*%
%TO.N,+5V*%
%TA.AperFunction,ComponentPad*%
G36*
G01*
X116930000Y-111276500D02*
X115480000Y-111276500D01*
G75*
G02*
X115230000Y-111026500I0J250000D01*
G01*
X115230000Y-109826500D01*
G75*
G02*
X115480000Y-109576500I250000J0D01*
G01*
X116930000Y-109576500D01*
G75*
G02*
X117180000Y-109826500I0J-250000D01*
G01*
X117180000Y-111026500D01*
G75*
G02*
X116930000Y-111276500I-250000J0D01*
G01*
G37*
%TD.AperFunction*%
%TD*%
D18*
%TO.P,J2,6*%
%TO.N,GND*%
X154146000Y-101472500D03*
%TO.P,J2,5*%
%TO.N,RST*%
X152146000Y-101472500D03*
%TO.P,J2,4*%
%TO.N,MOSI*%
X154146000Y-99472500D03*
%TO.P,J2,3*%
%TO.N,SCK*%
X152146000Y-99472500D03*
%TO.P,J2,2*%
%TO.N,+5V*%
X154146000Y-97472500D03*
D19*
%TO.P,J2,1*%
%TO.N,MISO*%
X152146000Y-97472500D03*
%TD*%
D20*
%TO.P,J1,2*%
%TO.N,Net-(J1-Pad2)*%
X115697000Y-87613500D03*
D21*
%TO.P,J1,1*%
%TO.N,GND*%
X115697000Y-82613500D03*
%TD*%
D22*
%TO.N,GND*%
X134302500Y-101981000D03*
X125984000Y-92583000D03*
X148209000Y-88519000D03*
X146685000Y-88519000D03*
%TO.N,+5V*%
X133351500Y-103249500D03*
X128333500Y-109855000D03*
%TO.N,+12V*%
X130683000Y-90741500D03*
%TO.N,+3V3*%
X124587000Y-110553500D03*
X125984000Y-105727500D03*
%TO.N,RST*%
X133585000Y-104349500D03*
%TO.N,SCK*%
X141156000Y-99699500D03*
%TO.N,IR_Sen*%
X132461000Y-97599500D03*
%TD*%
D23*
%TO.N,+5V*%
X132809999Y-103791001D02*
X132809999Y-106839001D01*
X133351500Y-103249500D02*
X132809999Y-103791001D01*
X132809999Y-106839001D02*
X129794000Y-109855000D01*
X129794000Y-109855000D02*
X128333500Y-109855000D01*
X128333500Y-109855000D02*
X128333500Y-109855000D01*
D24*
%TO.N,+12V*%
X169084000Y-118173500D02*
X169084000Y-111108500D01*
X169084000Y-111108500D02*
X161290000Y-103314500D01*
X161290000Y-103314500D02*
X161290000Y-96964500D01*
X160572999Y-96247499D02*
X135210001Y-96247499D01*
X161290000Y-96964500D02*
X160572999Y-96247499D01*
X135210001Y-96247499D02*
X132461000Y-98996500D01*
X132461000Y-98996500D02*
X130937000Y-98996500D01*
X130683000Y-98742500D02*
X130683000Y-90741500D01*
X130937000Y-98996500D02*
X130683000Y-98742500D01*
D23*
%TO.N,+3V3*%
X124587000Y-110553500D02*
X124587000Y-107124500D01*
X124587000Y-107124500D02*
X125984000Y-105727500D01*
X125984000Y-105727500D02*
X125984000Y-105727500D01*
%TO.N,RST*%
X133585000Y-116867500D02*
X132588000Y-117864500D01*
X133585000Y-104349500D02*
X133585000Y-116867500D01*
X133585000Y-104349500D02*
X150984000Y-104349500D01*
X152146000Y-103187500D02*
X152146000Y-101472500D01*
X150984000Y-104349500D02*
X152146000Y-103187500D01*
%TO.N,SCK*%
X151919000Y-99699500D02*
X152146000Y-99472500D01*
X141156000Y-99699500D02*
X151919000Y-99699500D01*
%TO.N,IR_Sen*%
X158162000Y-80835500D02*
X143557000Y-95440500D01*
X143557000Y-95440500D02*
X134620000Y-95440500D01*
X134620000Y-95440500D02*
X132461000Y-97599500D01*
X132461000Y-97599500D02*
X132461000Y-97599500D01*
%TD*%
D25*
%TO.N,GND*%
X183641840Y-126619195D02*
X101028340Y-126745805D01*
X101024263Y-123499913D01*
X125132192Y-123499913D01*
X125227956Y-123764314D01*
X125517571Y-123905204D01*
X125829108Y-123986884D01*
X126150595Y-124006218D01*
X126469675Y-123962461D01*
X126774088Y-123857295D01*
X126948044Y-123764314D01*
X127043808Y-123499913D01*
X131632192Y-123499913D01*
X131727956Y-123764314D01*
X132017571Y-123905204D01*
X132329108Y-123986884D01*
X132650595Y-124006218D01*
X132969675Y-123962461D01*
X133274088Y-123857295D01*
X133448044Y-123764314D01*
X133543808Y-123499913D01*
X132588000Y-122544105D01*
X131632192Y-123499913D01*
X127043808Y-123499913D01*
X126088000Y-122544105D01*
X125132192Y-123499913D01*
X101024263Y-123499913D01*
X101019577Y-119769729D01*
X102783000Y-119769729D01*
X102783000Y-120387271D01*
X102903476Y-120992946D01*
X103139799Y-121563479D01*
X103482886Y-122076946D01*
X103919554Y-122513614D01*
X104433021Y-122856701D01*
X105003554Y-123093024D01*
X105609229Y-123213500D01*
X106226771Y-123213500D01*
X106832446Y-123093024D01*
X107402979Y-122856701D01*
X107916446Y-122513614D01*
X108002965Y-122427095D01*
X124446282Y-122427095D01*
X124490039Y-122746175D01*
X124595205Y-123050588D01*
X124688186Y-123224544D01*
X124952587Y-123320308D01*
X125908395Y-122364500D01*
X126267605Y-122364500D01*
X127223413Y-123320308D01*
X127487814Y-123224544D01*
X127628704Y-122934929D01*
X127710384Y-122623392D01*
X127722189Y-122427095D01*
X130946282Y-122427095D01*
X130990039Y-122746175D01*
X131095205Y-123050588D01*
X131188186Y-123224544D01*
X131452587Y-123320308D01*
X132408395Y-122364500D01*
X132767605Y-122364500D01*
X133723413Y-123320308D01*
X133987814Y-123224544D01*
X134128704Y-122934929D01*
X134210384Y-122623392D01*
X134229718Y-122301905D01*
X134185961Y-121982825D01*
X134080795Y-121678412D01*
X133987814Y-121504456D01*
X133723413Y-121408692D01*
X132767605Y-122364500D01*
X132408395Y-122364500D01*
X131452587Y-121408692D01*
X131188186Y-121504456D01*
X131047296Y-121794071D01*
X130965616Y-122105608D01*
X130946282Y-122427095D01*
X127722189Y-122427095D01*
X127729718Y-122301905D01*
X127685961Y-121982825D01*
X127580795Y-121678412D01*
X127487814Y-121504456D01*
X127223413Y-121408692D01*
X126267605Y-122364500D01*
X125908395Y-122364500D01*
X124952587Y-121408692D01*
X124688186Y-121504456D01*
X124547296Y-121794071D01*
X124465616Y-122105608D01*
X124446282Y-122427095D01*
X108002965Y-122427095D01*
X108353114Y-122076946D01*
X108696201Y-121563479D01*
X108834710Y-121229087D01*
X125132192Y-121229087D01*
X126088000Y-122184895D01*
X127043808Y-121229087D01*
X131632192Y-121229087D01*
X132588000Y-122184895D01*
X133543808Y-121229087D01*
X133448044Y-120964686D01*
X133158429Y-120823796D01*
X132846892Y-120742116D01*
X132525405Y-120722782D01*
X132206325Y-120766539D01*
X131901912Y-120871705D01*
X131727956Y-120964686D01*
X131632192Y-121229087D01*
X127043808Y-121229087D01*
X126948044Y-120964686D01*
X126658429Y-120823796D01*
X126346892Y-120742116D01*
X126025405Y-120722782D01*
X125706325Y-120766539D01*
X125401912Y-120871705D01*
X125227956Y-120964686D01*
X125132192Y-121229087D01*
X108834710Y-121229087D01*
X108932524Y-120992946D01*
X109053000Y-120387271D01*
X109053000Y-119769729D01*
X108932524Y-119164054D01*
X108696201Y-118593521D01*
X108353114Y-118080054D01*
X107976527Y-117703467D01*
X124453000Y-117703467D01*
X124453000Y-118025533D01*
X124515832Y-118341412D01*
X124639082Y-118638963D01*
X124818013Y-118906752D01*
X125045748Y-119134487D01*
X125313537Y-119313418D01*
X125611088Y-119436668D01*
X125926967Y-119499500D01*
X126249033Y-119499500D01*
X126564912Y-119436668D01*
X126862463Y-119313418D01*
X127130252Y-119134487D01*
X127357987Y-118906752D01*
X127536918Y-118638963D01*
X127660168Y-118341412D01*
X127723000Y-118025533D01*
X127723000Y-117703467D01*
X127660168Y-117387588D01*
X127536918Y-117090037D01*
X127357987Y-116822248D01*
X127130252Y-116594513D01*
X126862463Y-116415582D01*
X126564912Y-116292332D01*
X126249033Y-116229500D01*
X125926967Y-116229500D01*
X125611088Y-116292332D01*
X125313537Y-116415582D01*
X125045748Y-116594513D01*
X124818013Y-116822248D01*
X124639082Y-117090037D01*
X124515832Y-117387588D01*
X124453000Y-117703467D01*
X107976527Y-117703467D01*
X107916446Y-117643386D01*
X107402979Y-117300299D01*
X106832446Y-117063976D01*
X106226771Y-116943500D01*
X105609229Y-116943500D01*
X105003554Y-117063976D01*
X104433021Y-117300299D01*
X103919554Y-117643386D01*
X103482886Y-118080054D01*
X103139799Y-118593521D01*
X102903476Y-119164054D01*
X102783000Y-119769729D01*
X101019577Y-119769729D01*
X101001559Y-105426500D01*
X114587815Y-105426500D01*
X114616487Y-105717611D01*
X114701401Y-105997534D01*
X114839294Y-106255514D01*
X115024866Y-106481634D01*
X115250986Y-106667206D01*
X115268374Y-106676500D01*
X115250986Y-106685794D01*
X115024866Y-106871366D01*
X114839294Y-107097486D01*
X114701401Y-107355466D01*
X114616487Y-107635389D01*
X114587815Y-107926500D01*
X114616487Y-108217611D01*
X114701401Y-108497534D01*
X114839294Y-108755514D01*
X115024866Y-108981634D01*
X115088337Y-109033723D01*
X114986614Y-109088095D01*
X114852038Y-109198538D01*
X114741595Y-109333114D01*
X114659528Y-109486650D01*
X114608992Y-109653246D01*
X114591928Y-109826500D01*
X114591928Y-111026500D01*
X114608992Y-111199754D01*
X114659528Y-111366350D01*
X114741595Y-111519886D01*
X114852038Y-111654462D01*
X114986614Y-111764905D01*
X115140150Y-111846972D01*
X115306746Y-111897508D01*
X115480000Y-111914572D01*
X116930000Y-111914572D01*
X117103254Y-111897508D01*
X117269850Y-111846972D01*
X117423386Y-111764905D01*
X117557962Y-111654462D01*
X117668405Y-111519886D01*
X117750472Y-111366350D01*
X117801008Y-111199754D01*
X117818072Y-111026500D01*
X117818072Y-110451561D01*
X123552000Y-110451561D01*
X123552000Y-110655439D01*
X123591774Y-110855398D01*
X123669795Y-111043756D01*
X123783063Y-111213274D01*
X123927226Y-111357437D01*
X124096744Y-111470705D01*
X124285102Y-111548726D01*
X124485061Y-111588500D01*
X124688939Y-111588500D01*
X124888898Y-111548726D01*
X125077256Y-111470705D01*
X125246774Y-111357437D01*
X125390937Y-111213274D01*
X125504205Y-111043756D01*
X125582226Y-110855398D01*
X125622000Y-110655439D01*
X125622000Y-110451561D01*
X125582226Y-110251602D01*
X125504205Y-110063244D01*
X125397000Y-109902800D01*
X125397000Y-109753061D01*
X127298500Y-109753061D01*
X127298500Y-109956939D01*
X127338274Y-110156898D01*
X127416295Y-110345256D01*
X127529563Y-110514774D01*
X127673726Y-110658937D01*
X127843244Y-110772205D01*
X128031602Y-110850226D01*
X128231561Y-110890000D01*
X128435439Y-110890000D01*
X128635398Y-110850226D01*
X128823756Y-110772205D01*
X128984200Y-110665000D01*
X129754212Y-110665000D01*
X129794000Y-110668919D01*
X129833788Y-110665000D01*
X129833791Y-110665000D01*
X129952788Y-110653280D01*
X130105473Y-110606963D01*
X130246189Y-110531749D01*
X130369528Y-110430528D01*
X130394900Y-110399612D01*
X132775000Y-108019512D01*
X132775001Y-116234665D01*
X132749033Y-116229500D01*
X132426967Y-116229500D01*
X132111088Y-116292332D01*
X131813537Y-116415582D01*
X131545748Y-116594513D01*
X131318013Y-116822248D01*
X131139082Y-117090037D01*
X131015832Y-117387588D01*
X130953000Y-117703467D01*
X130953000Y-118025533D01*
X131015832Y-118341412D01*
X131139082Y-118638963D01*
X131318013Y-118906752D01*
X131545748Y-119134487D01*
X131813537Y-119313418D01*
X132111088Y-119436668D01*
X132426967Y-119499500D01*
X132749033Y-119499500D01*
X133064912Y-119436668D01*
X133362463Y-119313418D01*
X133630252Y-119134487D01*
X133857987Y-118906752D01*
X134036918Y-118638963D01*
X134160168Y-118341412D01*
X134223000Y-118025533D01*
X134223000Y-117703467D01*
X134169114Y-117432565D01*
X134209214Y-117383704D01*
X134261749Y-117319690D01*
X134336962Y-117178974D01*
X134336963Y-117178973D01*
X134383280Y-117026288D01*
X134395000Y-116907291D01*
X134395000Y-116907288D01*
X134398328Y-116873500D01*
X162145928Y-116873500D01*
X162145928Y-119473500D01*
X162158188Y-119597982D01*
X162194498Y-119717680D01*
X162253463Y-119827994D01*
X162332815Y-119924685D01*
X162429506Y-120004037D01*
X162539820Y-120063002D01*
X162659518Y-120099312D01*
X162784000Y-120111572D01*
X165384000Y-120111572D01*
X165508482Y-120099312D01*
X165628180Y-120063002D01*
X165738494Y-120004037D01*
X165835185Y-119924685D01*
X165914537Y-119827994D01*
X165973502Y-119717680D01*
X166009812Y-119597982D01*
X166022072Y-119473500D01*
X166022072Y-116873500D01*
X166009812Y-116749018D01*
X165973502Y-116629320D01*
X165914537Y-116519006D01*
X165835185Y-116422315D01*
X165738494Y-116342963D01*
X165628180Y-116283998D01*
X165508482Y-116247688D01*
X165384000Y-116235428D01*
X162784000Y-116235428D01*
X162659518Y-116247688D01*
X162539820Y-116283998D01*
X162429506Y-116342963D01*
X162332815Y-116422315D01*
X162253463Y-116519006D01*
X162194498Y-116629320D01*
X162158188Y-116749018D01*
X162145928Y-116873500D01*
X134398328Y-116873500D01*
X134398919Y-116867500D01*
X134395000Y-116827712D01*
X134395000Y-115116089D01*
X136537000Y-115116089D01*
X136537000Y-115388911D01*
X136590225Y-115656489D01*
X136694629Y-115908543D01*
X136846201Y-116135386D01*
X137039114Y-116328299D01*
X137265957Y-116479871D01*
X137518011Y-116584275D01*
X137785589Y-116637500D01*
X138058411Y-116637500D01*
X138325989Y-116584275D01*
X138578043Y-116479871D01*
X138804886Y-116328299D01*
X138997799Y-116135386D01*
X139149371Y-115908543D01*
X139253775Y-115656489D01*
X139307000Y-115388911D01*
X139307000Y-115116089D01*
X141417000Y-115116089D01*
X141417000Y-115388911D01*
X141470225Y-115656489D01*
X141574629Y-115908543D01*
X141726201Y-116135386D01*
X141919114Y-116328299D01*
X142145957Y-116479871D01*
X142398011Y-116584275D01*
X142665589Y-116637500D01*
X142938411Y-116637500D01*
X143205989Y-116584275D01*
X143458043Y-116479871D01*
X143684886Y-116328299D01*
X143877799Y-116135386D01*
X144029371Y-115908543D01*
X144133775Y-115656489D01*
X144187000Y-115388911D01*
X144187000Y-115116089D01*
X144133775Y-114848511D01*
X144029371Y-114596457D01*
X143877799Y-114369614D01*
X143684886Y-114176701D01*
X143458043Y-114025129D01*
X143205989Y-113920725D01*
X142938411Y-113867500D01*
X142665589Y-113867500D01*
X142398011Y-113920725D01*
X142145957Y-114025129D01*
X141919114Y-114176701D01*
X141726201Y-114369614D01*
X141574629Y-114596457D01*
X141470225Y-114848511D01*
X141417000Y-115116089D01*
X139307000Y-115116089D01*
X139253775Y-114848511D01*
X139149371Y-114596457D01*
X138997799Y-114369614D01*
X138804886Y-114176701D01*
X138578043Y-114025129D01*
X138325989Y-113920725D01*
X138058411Y-113867500D01*
X137785589Y-113867500D01*
X137518011Y-113920725D01*
X137265957Y-114025129D01*
X137039114Y-114176701D01*
X136846201Y-114369614D01*
X136694629Y-114596457D01*
X136590225Y-114848511D01*
X136537000Y-115116089D01*
X134395000Y-115116089D01*
X134395000Y-105159500D01*
X150944212Y-105159500D01*
X150984000Y-105163419D01*
X151023788Y-105159500D01*
X151023791Y-105159500D01*
X151142788Y-105147780D01*
X151295473Y-105101463D01*
X151436189Y-105026249D01*
X151559528Y-104925028D01*
X151584899Y-104894113D01*
X152690619Y-103788394D01*
X152721528Y-103763028D01*
X152795616Y-103672751D01*
X152822749Y-103639690D01*
X152876301Y-103539500D01*
X152897963Y-103498973D01*
X152944280Y-103346288D01*
X152956000Y-103227291D01*
X152956000Y-103227289D01*
X152959919Y-103187501D01*
X152956000Y-103147713D01*
X152956000Y-102506800D01*
X152981077Y-102490044D01*
X153150715Y-102320406D01*
X153167697Y-102343727D01*
X153356463Y-102517844D01*
X153575570Y-102651789D01*
X153816599Y-102740415D01*
X154019000Y-102617585D01*
X154019000Y-101599500D01*
X154273000Y-101599500D01*
X154273000Y-102617585D01*
X154475401Y-102740415D01*
X154716430Y-102651789D01*
X154935537Y-102517844D01*
X155124303Y-102343727D01*
X155275473Y-102136129D01*
X155383238Y-101903028D01*
X155413910Y-101801900D01*
X155290224Y-101599500D01*
X154273000Y-101599500D01*
X154019000Y-101599500D01*
X153999000Y-101599500D01*
X153999000Y-101345500D01*
X154019000Y-101345500D01*
X154019000Y-101325500D01*
X154273000Y-101325500D01*
X154273000Y-101345500D01*
X155290224Y-101345500D01*
X155413910Y-101143100D01*
X155383238Y-101041972D01*
X155275473Y-100808871D01*
X155124303Y-100601273D01*
X154991940Y-100479181D01*
X155163544Y-100307577D01*
X155306907Y-100093018D01*
X155405658Y-99854613D01*
X155456000Y-99601524D01*
X155456000Y-99343476D01*
X155405658Y-99090387D01*
X155306907Y-98851982D01*
X155163544Y-98637423D01*
X154998621Y-98472500D01*
X155163544Y-98307577D01*
X155306907Y-98093018D01*
X155405658Y-97854613D01*
X155456000Y-97601524D01*
X155456000Y-97343476D01*
X155433926Y-97232499D01*
X160164999Y-97232499D01*
X160305001Y-97372502D01*
X160305000Y-103266120D01*
X160300235Y-103314500D01*
X160305000Y-103362879D01*
X160319253Y-103507593D01*
X160375576Y-103693266D01*
X160467040Y-103864384D01*
X160590130Y-104014370D01*
X160627716Y-104045216D01*
X168099001Y-111516502D01*
X168099000Y-116504451D01*
X167850509Y-116670487D01*
X167580987Y-116940009D01*
X167369225Y-117256934D01*
X167223361Y-117609081D01*
X167149000Y-117982919D01*
X167149000Y-118364081D01*
X167223361Y-118737919D01*
X167369225Y-119090066D01*
X167580987Y-119406991D01*
X167850509Y-119676513D01*
X168167434Y-119888275D01*
X168519581Y-120034139D01*
X168893419Y-120108500D01*
X169274581Y-120108500D01*
X169648419Y-120034139D01*
X170000566Y-119888275D01*
X170317491Y-119676513D01*
X170351275Y-119642729D01*
X173014000Y-119642729D01*
X173014000Y-120260271D01*
X173134476Y-120865946D01*
X173370799Y-121436479D01*
X173713886Y-121949946D01*
X174150554Y-122386614D01*
X174664021Y-122729701D01*
X175234554Y-122966024D01*
X175840229Y-123086500D01*
X176457771Y-123086500D01*
X177063446Y-122966024D01*
X177633979Y-122729701D01*
X178147446Y-122386614D01*
X178584114Y-121949946D01*
X178927201Y-121436479D01*
X179163524Y-120865946D01*
X179284000Y-120260271D01*
X179284000Y-119642729D01*
X179163524Y-119037054D01*
X178927201Y-118466521D01*
X178584114Y-117953054D01*
X178147446Y-117516386D01*
X177633979Y-117173299D01*
X177063446Y-116936976D01*
X176457771Y-116816500D01*
X175840229Y-116816500D01*
X175234554Y-116936976D01*
X174664021Y-117173299D01*
X174150554Y-117516386D01*
X173713886Y-117953054D01*
X173370799Y-118466521D01*
X173134476Y-119037054D01*
X173014000Y-119642729D01*
X170351275Y-119642729D01*
X170587013Y-119406991D01*
X170798775Y-119090066D01*
X170944639Y-118737919D01*
X171019000Y-118364081D01*
X171019000Y-117982919D01*
X170944639Y-117609081D01*
X170798775Y-117256934D01*
X170587013Y-116940009D01*
X170317491Y-116670487D01*
X170069000Y-116504451D01*
X170069000Y-111156880D01*
X170073765Y-111108500D01*
X170054747Y-110915406D01*
X169998424Y-110729733D01*
X169906960Y-110558616D01*
X169814710Y-110446209D01*
X169783870Y-110408630D01*
X169746290Y-110377789D01*
X163475001Y-104106500D01*
X165066928Y-104106500D01*
X165079188Y-104230982D01*
X165115498Y-104350680D01*
X165174463Y-104460994D01*
X165253815Y-104557685D01*
X165350506Y-104637037D01*
X165460820Y-104696002D01*
X165580518Y-104732312D01*
X165705000Y-104744572D01*
X166719250Y-104741500D01*
X166878000Y-104582750D01*
X166878000Y-102933500D01*
X167132000Y-102933500D01*
X167132000Y-104582750D01*
X167290750Y-104741500D01*
X168305000Y-104744572D01*
X168429482Y-104732312D01*
X168549180Y-104696002D01*
X168659494Y-104637037D01*
X168756185Y-104557685D01*
X168835537Y-104460994D01*
X168894502Y-104350680D01*
X168930812Y-104230982D01*
X168943072Y-104106500D01*
X168940000Y-103092250D01*
X168781250Y-102933500D01*
X167132000Y-102933500D01*
X166878000Y-102933500D01*
X165228750Y-102933500D01*
X165070000Y-103092250D01*
X165066928Y-104106500D01*
X163475001Y-104106500D01*
X162275000Y-102906500D01*
X162275000Y-101506500D01*
X165066928Y-101506500D01*
X165070000Y-102520750D01*
X165228750Y-102679500D01*
X166878000Y-102679500D01*
X166878000Y-101030250D01*
X167132000Y-101030250D01*
X167132000Y-102679500D01*
X168781250Y-102679500D01*
X168940000Y-102520750D01*
X168943072Y-101506500D01*
X168930812Y-101382018D01*
X168894502Y-101262320D01*
X168835537Y-101152006D01*
X168756185Y-101055315D01*
X168659494Y-100975963D01*
X168549180Y-100916998D01*
X168429482Y-100880688D01*
X168305000Y-100868428D01*
X167290750Y-100871500D01*
X167132000Y-101030250D01*
X166878000Y-101030250D01*
X166719250Y-100871500D01*
X165705000Y-100868428D01*
X165580518Y-100880688D01*
X165460820Y-100916998D01*
X165350506Y-100975963D01*
X165253815Y-101055315D01*
X165174463Y-101152006D01*
X165115498Y-101262320D01*
X165079188Y-101382018D01*
X165066928Y-101506500D01*
X162275000Y-101506500D01*
X162275000Y-97535919D01*
X165070000Y-97535919D01*
X165070000Y-97917081D01*
X165144361Y-98290919D01*
X165290225Y-98643066D01*
X165501987Y-98959991D01*
X165771509Y-99229513D01*
X166088434Y-99441275D01*
X166440581Y-99587139D01*
X166814419Y-99661500D01*
X167195581Y-99661500D01*
X167569419Y-99587139D01*
X167921566Y-99441275D01*
X168238491Y-99229513D01*
X168508013Y-98959991D01*
X168719775Y-98643066D01*
X168865639Y-98290919D01*
X168940000Y-97917081D01*
X168940000Y-97535919D01*
X168865639Y-97162081D01*
X168719775Y-96809934D01*
X168508013Y-96493009D01*
X168238491Y-96223487D01*
X167921566Y-96011725D01*
X167569419Y-95865861D01*
X167195581Y-95791500D01*
X166814419Y-95791500D01*
X166440581Y-95865861D01*
X166088434Y-96011725D01*
X165771509Y-96223487D01*
X165501987Y-96493009D01*
X165290225Y-96809934D01*
X165144361Y-97162081D01*
X165070000Y-97535919D01*
X162275000Y-97535919D01*
X162275000Y-97012880D01*
X162279765Y-96964500D01*
X162260747Y-96771406D01*
X162204424Y-96585733D01*
X162112960Y-96414616D01*
X162020710Y-96302209D01*
X161989870Y-96264630D01*
X161952289Y-96233788D01*
X161303714Y-95585214D01*
X161272869Y-95547629D01*
X161122883Y-95424539D01*
X160951766Y-95333075D01*
X160766093Y-95276752D01*
X160621379Y-95262499D01*
X160572999Y-95257734D01*
X160524619Y-95262499D01*
X144880513Y-95262499D01*
X147687093Y-92455919D01*
X165070000Y-92455919D01*
X165070000Y-92837081D01*
X165144361Y-93210919D01*
X165290225Y-93563066D01*
X165501987Y-93879991D01*
X165771509Y-94149513D01*
X166088434Y-94361275D01*
X166440581Y-94507139D01*
X166814419Y-94581500D01*
X167195581Y-94581500D01*
X167569419Y-94507139D01*
X167921566Y-94361275D01*
X168238491Y-94149513D01*
X168508013Y-93879991D01*
X168719775Y-93563066D01*
X168865639Y-93210919D01*
X168940000Y-92837081D01*
X168940000Y-92455919D01*
X168865639Y-92082081D01*
X168719775Y-91729934D01*
X168508013Y-91413009D01*
X168238491Y-91143487D01*
X167921566Y-90931725D01*
X167569419Y-90785861D01*
X167195581Y-90711500D01*
X166814419Y-90711500D01*
X166440581Y-90785861D01*
X166088434Y-90931725D01*
X165771509Y-91143487D01*
X165501987Y-91413009D01*
X165290225Y-91729934D01*
X165144361Y-92082081D01*
X165070000Y-92455919D01*
X147687093Y-92455919D01*
X154521512Y-85621500D01*
X168156815Y-85621500D01*
X168185487Y-85912611D01*
X168270401Y-86192534D01*
X168408294Y-86450514D01*
X168593866Y-86676634D01*
X168819986Y-86862206D01*
X169077966Y-87000099D01*
X169357889Y-87085013D01*
X169576050Y-87106500D01*
X170021950Y-87106500D01*
X170240111Y-87085013D01*
X170520034Y-87000099D01*
X170778014Y-86862206D01*
X171004134Y-86676634D01*
X171189706Y-86450514D01*
X171327599Y-86192534D01*
X171412513Y-85912611D01*
X171441185Y-85621500D01*
X171412513Y-85330389D01*
X171327599Y-85050466D01*
X171189706Y-84792486D01*
X171008392Y-84571555D01*
X171043180Y-84561002D01*
X171153494Y-84502037D01*
X171250185Y-84422685D01*
X171329537Y-84325994D01*
X171388502Y-84215680D01*
X171424812Y-84095982D01*
X171437072Y-83971500D01*
X171434000Y-83407250D01*
X171275250Y-83248500D01*
X169926000Y-83248500D01*
X169926000Y-83268500D01*
X169672000Y-83268500D01*
X169672000Y-83248500D01*
X168322750Y-83248500D01*
X168164000Y-83407250D01*
X168160928Y-83971500D01*
X168173188Y-84095982D01*
X168209498Y-84215680D01*
X168268463Y-84325994D01*
X168347815Y-84422685D01*
X168444506Y-84502037D01*
X168554820Y-84561002D01*
X168589608Y-84571555D01*
X168408294Y-84792486D01*
X168270401Y-85050466D01*
X168185487Y-85330389D01*
X168156815Y-85621500D01*
X154521512Y-85621500D01*
X157754352Y-82388661D01*
X157870890Y-82424013D01*
X158162000Y-82452685D01*
X158453111Y-82424013D01*
X158733034Y-82339099D01*
X158859503Y-82271500D01*
X168160928Y-82271500D01*
X168164000Y-82835750D01*
X168322750Y-82994500D01*
X169672000Y-82994500D01*
X169672000Y-81795250D01*
X169926000Y-81795250D01*
X169926000Y-82994500D01*
X171275250Y-82994500D01*
X171434000Y-82835750D01*
X171437072Y-82271500D01*
X171424812Y-82147018D01*
X171388502Y-82027320D01*
X171329537Y-81917006D01*
X171250185Y-81820315D01*
X171153494Y-81740963D01*
X171043180Y-81681998D01*
X170923482Y-81645688D01*
X170799000Y-81633428D01*
X170084750Y-81636500D01*
X169926000Y-81795250D01*
X169672000Y-81795250D01*
X169513250Y-81636500D01*
X168799000Y-81633428D01*
X168674518Y-81645688D01*
X168554820Y-81681998D01*
X168444506Y-81740963D01*
X168347815Y-81820315D01*
X168268463Y-81917006D01*
X168209498Y-82027320D01*
X168173188Y-82147018D01*
X168160928Y-82271500D01*
X158859503Y-82271500D01*
X158991014Y-82201206D01*
X159217134Y-82015634D01*
X159402706Y-81789514D01*
X159540599Y-81531533D01*
X159614253Y-81288729D01*
X172125000Y-81288729D01*
X172125000Y-81906271D01*
X172245476Y-82511946D01*
X172481799Y-83082479D01*
X172824886Y-83595946D01*
X173261554Y-84032614D01*
X173775021Y-84375701D01*
X174345554Y-84612024D01*
X174951229Y-84732500D01*
X175568771Y-84732500D01*
X176174446Y-84612024D01*
X176744979Y-84375701D01*
X177258446Y-84032614D01*
X177695114Y-83595946D01*
X178038201Y-83082479D01*
X178274524Y-82511946D01*
X178395000Y-81906271D01*
X178395000Y-81288729D01*
X178274524Y-80683054D01*
X178038201Y-80112521D01*
X177695114Y-79599054D01*
X177258446Y-79162386D01*
X176744979Y-78819299D01*
X176174446Y-78582976D01*
X175568771Y-78462500D01*
X174951229Y-78462500D01*
X174345554Y-78582976D01*
X173775021Y-78819299D01*
X173261554Y-79162386D01*
X172824886Y-79599054D01*
X172481799Y-80112521D01*
X172245476Y-80683054D01*
X172125000Y-81288729D01*
X159614253Y-81288729D01*
X159625513Y-81251610D01*
X159647000Y-81033449D01*
X159647000Y-80637550D01*
X159625513Y-80419389D01*
X159540599Y-80139466D01*
X159402706Y-79881486D01*
X159217134Y-79655366D01*
X158991013Y-79469794D01*
X158733033Y-79331901D01*
X158453110Y-79246987D01*
X158162000Y-79218315D01*
X157870889Y-79246987D01*
X157590966Y-79331901D01*
X157332986Y-79469794D01*
X157106866Y-79655366D01*
X156921294Y-79881487D01*
X156907538Y-79907222D01*
X156751049Y-79701071D01*
X156533193Y-79508004D01*
X156281858Y-79361148D01*
X156018890Y-79269024D01*
X155789000Y-79390345D01*
X155789000Y-80708500D01*
X155809000Y-80708500D01*
X155809000Y-80962500D01*
X155789000Y-80962500D01*
X155789000Y-80982500D01*
X155535000Y-80982500D01*
X155535000Y-80962500D01*
X155515000Y-80962500D01*
X155515000Y-80708500D01*
X155535000Y-80708500D01*
X155535000Y-79390345D01*
X155305110Y-79269024D01*
X155042142Y-79361148D01*
X154790807Y-79508004D01*
X154572951Y-79701071D01*
X154556714Y-79722461D01*
X154500405Y-79617114D01*
X154389962Y-79482538D01*
X154255386Y-79372095D01*
X154101850Y-79290028D01*
X153935254Y-79239492D01*
X153762000Y-79222428D01*
X152562000Y-79222428D01*
X152388746Y-79239492D01*
X152222150Y-79290028D01*
X152068614Y-79372095D01*
X151934038Y-79482538D01*
X151823595Y-79617114D01*
X151741528Y-79770650D01*
X151690992Y-79937246D01*
X151673928Y-80110500D01*
X151673928Y-81560500D01*
X151690992Y-81733754D01*
X151741528Y-81900350D01*
X151823595Y-82053886D01*
X151934038Y-82188462D01*
X152068614Y-82298905D01*
X152222150Y-82380972D01*
X152388746Y-82431508D01*
X152562000Y-82448572D01*
X153762000Y-82448572D01*
X153935254Y-82431508D01*
X154101850Y-82380972D01*
X154255386Y-82298905D01*
X154389962Y-82188462D01*
X154500405Y-82053886D01*
X154556714Y-81948539D01*
X154572951Y-81969929D01*
X154790807Y-82162996D01*
X155042142Y-82309852D01*
X155305110Y-82401976D01*
X155534998Y-82280656D01*
X155534998Y-82316989D01*
X143221488Y-94630500D01*
X134659787Y-94630500D01*
X134619999Y-94626581D01*
X134580211Y-94630500D01*
X134580209Y-94630500D01*
X134461212Y-94642220D01*
X134308527Y-94688537D01*
X134243024Y-94723549D01*
X134167810Y-94763751D01*
X134112210Y-94809381D01*
X134044472Y-94864972D01*
X134019107Y-94895880D01*
X132348359Y-96566629D01*
X132159102Y-96604274D01*
X131970744Y-96682295D01*
X131801226Y-96795563D01*
X131668000Y-96928789D01*
X131668000Y-91068086D01*
X131678226Y-91043398D01*
X131718000Y-90843439D01*
X131718000Y-90639561D01*
X131678226Y-90439602D01*
X131600205Y-90251244D01*
X131486937Y-90081726D01*
X131342774Y-89937563D01*
X131173256Y-89824295D01*
X130984898Y-89746274D01*
X130784939Y-89706500D01*
X130581061Y-89706500D01*
X130381102Y-89746274D01*
X130192744Y-89824295D01*
X130023226Y-89937563D01*
X129879063Y-90081726D01*
X129765795Y-90251244D01*
X129687774Y-90439602D01*
X129648000Y-90639561D01*
X129648000Y-90843439D01*
X129687774Y-91043398D01*
X129698001Y-91068088D01*
X129698000Y-98694120D01*
X129693235Y-98742500D01*
X129698000Y-98790879D01*
X129712253Y-98935593D01*
X129768576Y-99121266D01*
X129860040Y-99292384D01*
X129983130Y-99442370D01*
X130020717Y-99473217D01*
X130206281Y-99658780D01*
X130237130Y-99696370D01*
X130387116Y-99819460D01*
X130558233Y-99910924D01*
X130708850Y-99956613D01*
X130743905Y-99967247D01*
X130936999Y-99986265D01*
X130985379Y-99981500D01*
X132412620Y-99981500D01*
X132461000Y-99986265D01*
X132509380Y-99981500D01*
X132654094Y-99967247D01*
X132839767Y-99910924D01*
X133010884Y-99819460D01*
X133160870Y-99696370D01*
X133191716Y-99658784D01*
X135618001Y-97232499D01*
X150832928Y-97232499D01*
X150832928Y-98147500D01*
X150845188Y-98271982D01*
X150881498Y-98391680D01*
X150940463Y-98501994D01*
X151019815Y-98598685D01*
X151106697Y-98669987D01*
X150985093Y-98851982D01*
X150969552Y-98889500D01*
X141806700Y-98889500D01*
X141646256Y-98782295D01*
X141457898Y-98704274D01*
X141257939Y-98664500D01*
X141054061Y-98664500D01*
X140854102Y-98704274D01*
X140665744Y-98782295D01*
X140496226Y-98895563D01*
X140352063Y-99039726D01*
X140238795Y-99209244D01*
X140160774Y-99397602D01*
X140121000Y-99597561D01*
X140121000Y-99801439D01*
X140160774Y-100001398D01*
X140238795Y-100189756D01*
X140352063Y-100359274D01*
X140496226Y-100503437D01*
X140665744Y-100616705D01*
X140854102Y-100694726D01*
X141054061Y-100734500D01*
X141257939Y-100734500D01*
X141457898Y-100694726D01*
X141646256Y-100616705D01*
X141806700Y-100509500D01*
X151256379Y-100509500D01*
X151128456Y-100637423D01*
X150985093Y-100851982D01*
X150886342Y-101090387D01*
X150836000Y-101343476D01*
X150836000Y-101601524D01*
X150886342Y-101854613D01*
X150985093Y-102093018D01*
X151128456Y-102307577D01*
X151310923Y-102490044D01*
X151336000Y-102506800D01*
X151336000Y-102851987D01*
X150648488Y-103539500D01*
X134349093Y-103539500D01*
X134386500Y-103351439D01*
X134386500Y-103147561D01*
X134346726Y-102947602D01*
X134268705Y-102759244D01*
X134155437Y-102589726D01*
X134011274Y-102445563D01*
X133841756Y-102332295D01*
X133653398Y-102254274D01*
X133453439Y-102214500D01*
X133249561Y-102214500D01*
X133049602Y-102254274D01*
X132861244Y-102332295D01*
X132691726Y-102445563D01*
X132547563Y-102589726D01*
X132434295Y-102759244D01*
X132356274Y-102947602D01*
X132318629Y-103136859D01*
X132265387Y-103190101D01*
X132234471Y-103215473D01*
X132178734Y-103283390D01*
X132133250Y-103338812D01*
X132120386Y-103362880D01*
X132058036Y-103479529D01*
X132011719Y-103632214D01*
X132001879Y-103732121D01*
X131996080Y-103791001D01*
X131999999Y-103830789D01*
X132000000Y-106503487D01*
X129458488Y-109045000D01*
X128984200Y-109045000D01*
X128823756Y-108937795D01*
X128635398Y-108859774D01*
X128435439Y-108820000D01*
X128231561Y-108820000D01*
X128031602Y-108859774D01*
X127843244Y-108937795D01*
X127673726Y-109051063D01*
X127529563Y-109195226D01*
X127416295Y-109364744D01*
X127338274Y-109553102D01*
X127298500Y-109753061D01*
X125397000Y-109753061D01*
X125397000Y-107460012D01*
X126096642Y-106760371D01*
X126285898Y-106722726D01*
X126474256Y-106644705D01*
X126643774Y-106531437D01*
X126787937Y-106387274D01*
X126901205Y-106217756D01*
X126979226Y-106029398D01*
X127019000Y-105829439D01*
X127019000Y-105625561D01*
X126979226Y-105425602D01*
X126901205Y-105237244D01*
X126787937Y-105067726D01*
X126643774Y-104923563D01*
X126474256Y-104810295D01*
X126285898Y-104732274D01*
X126085939Y-104692500D01*
X125882061Y-104692500D01*
X125682102Y-104732274D01*
X125493744Y-104810295D01*
X125324226Y-104923563D01*
X125180063Y-105067726D01*
X125066795Y-105237244D01*
X124988774Y-105425602D01*
X124951129Y-105614858D01*
X124042383Y-106523605D01*
X124011473Y-106548972D01*
X123986108Y-106579880D01*
X123910251Y-106672311D01*
X123835038Y-106813027D01*
X123788721Y-106965713D01*
X123773081Y-107124500D01*
X123777001Y-107164298D01*
X123777000Y-109902800D01*
X123669795Y-110063244D01*
X123591774Y-110251602D01*
X123552000Y-110451561D01*
X117818072Y-110451561D01*
X117818072Y-109826500D01*
X117801008Y-109653246D01*
X117750472Y-109486650D01*
X117668405Y-109333114D01*
X117557962Y-109198538D01*
X117423386Y-109088095D01*
X117321663Y-109033723D01*
X117385134Y-108981634D01*
X117570706Y-108755514D01*
X117708599Y-108497534D01*
X117793513Y-108217611D01*
X117822185Y-107926500D01*
X117793513Y-107635389D01*
X117708599Y-107355466D01*
X117570706Y-107097486D01*
X117385134Y-106871366D01*
X117159014Y-106685794D01*
X117141626Y-106676500D01*
X117159014Y-106667206D01*
X117385134Y-106481634D01*
X117570706Y-106255514D01*
X117708599Y-105997534D01*
X117793513Y-105717611D01*
X117822185Y-105426500D01*
X117793513Y-105135389D01*
X117708599Y-104855466D01*
X117570706Y-104597486D01*
X117385134Y-104371366D01*
X117159014Y-104185794D01*
X117133278Y-104172038D01*
X117339429Y-104015549D01*
X117532496Y-103797693D01*
X117679352Y-103546358D01*
X117771476Y-103283390D01*
X117650155Y-103053500D01*
X116332000Y-103053500D01*
X116332000Y-103073500D01*
X116078000Y-103073500D01*
X116078000Y-103053500D01*
X114759845Y-103053500D01*
X114638524Y-103283390D01*
X114730648Y-103546358D01*
X114877504Y-103797693D01*
X115070571Y-104015549D01*
X115276722Y-104172038D01*
X115250986Y-104185794D01*
X115024866Y-104371366D01*
X114839294Y-104597486D01*
X114701401Y-104855466D01*
X114616487Y-105135389D01*
X114587815Y-105426500D01*
X101001559Y-105426500D01*
X100997970Y-102569610D01*
X114638524Y-102569610D01*
X114759845Y-102799500D01*
X116078000Y-102799500D01*
X116078000Y-101600335D01*
X116332000Y-101600335D01*
X116332000Y-102799500D01*
X117650155Y-102799500D01*
X117771476Y-102569610D01*
X117679352Y-102306642D01*
X117532496Y-102055307D01*
X117339429Y-101837451D01*
X117107570Y-101661447D01*
X116845830Y-101534058D01*
X116564267Y-101460180D01*
X116332000Y-101600335D01*
X116078000Y-101600335D01*
X115845733Y-101460180D01*
X115564170Y-101534058D01*
X115302430Y-101661447D01*
X115070571Y-101837451D01*
X114877504Y-102055307D01*
X114730648Y-102306642D01*
X114638524Y-102569610D01*
X100997970Y-102569610D01*
X100978917Y-87403221D01*
X113562000Y-87403221D01*
X113562000Y-87823779D01*
X113644047Y-88236256D01*
X113804988Y-88624802D01*
X114038637Y-88974483D01*
X114336017Y-89271863D01*
X114685698Y-89505512D01*
X115074244Y-89666453D01*
X115486721Y-89748500D01*
X115907279Y-89748500D01*
X116319756Y-89666453D01*
X116708302Y-89505512D01*
X117057983Y-89271863D01*
X117355363Y-88974483D01*
X117589012Y-88624802D01*
X117749953Y-88236256D01*
X117832000Y-87823779D01*
X117832000Y-87403221D01*
X117749953Y-86990744D01*
X117589012Y-86602198D01*
X117355363Y-86252517D01*
X117057983Y-85955137D01*
X116708302Y-85721488D01*
X116319756Y-85560547D01*
X115907279Y-85478500D01*
X115486721Y-85478500D01*
X115074244Y-85560547D01*
X114685698Y-85721488D01*
X114336017Y-85955137D01*
X114038637Y-86252517D01*
X113804988Y-86602198D01*
X113644047Y-86990744D01*
X113562000Y-87403221D01*
X100978917Y-87403221D01*
X100971873Y-81796729D01*
X102529000Y-81796729D01*
X102529000Y-82414271D01*
X102649476Y-83019946D01*
X102885799Y-83590479D01*
X103228886Y-84103946D01*
X103665554Y-84540614D01*
X104179021Y-84883701D01*
X104749554Y-85120024D01*
X105355229Y-85240500D01*
X105972771Y-85240500D01*
X106578446Y-85120024D01*
X107148979Y-84883701D01*
X107662446Y-84540614D01*
X108089560Y-84113500D01*
X113558928Y-84113500D01*
X113571188Y-84237982D01*
X113607498Y-84357680D01*
X113666463Y-84467994D01*
X113745815Y-84564685D01*
X113842506Y-84644037D01*
X113952820Y-84703002D01*
X114072518Y-84739312D01*
X114197000Y-84751572D01*
X115411250Y-84748500D01*
X115570000Y-84589750D01*
X115570000Y-82740500D01*
X115824000Y-82740500D01*
X115824000Y-84589750D01*
X115982750Y-84748500D01*
X117197000Y-84751572D01*
X117321482Y-84739312D01*
X117441180Y-84703002D01*
X117551494Y-84644037D01*
X117648185Y-84564685D01*
X117727537Y-84467994D01*
X117786502Y-84357680D01*
X117822812Y-84237982D01*
X117835072Y-84113500D01*
X117832000Y-82899250D01*
X117673250Y-82740500D01*
X115824000Y-82740500D01*
X115570000Y-82740500D01*
X113720750Y-82740500D01*
X113562000Y-82899250D01*
X113558928Y-84113500D01*
X108089560Y-84113500D01*
X108099114Y-84103946D01*
X108442201Y-83590479D01*
X108678524Y-83019946D01*
X108799000Y-82414271D01*
X108799000Y-81796729D01*
X108678524Y-81191054D01*
X108646401Y-81113500D01*
X113558928Y-81113500D01*
X113562000Y-82327750D01*
X113720750Y-82486500D01*
X115570000Y-82486500D01*
X115570000Y-80637250D01*
X115824000Y-80637250D01*
X115824000Y-82486500D01*
X117673250Y-82486500D01*
X117832000Y-82327750D01*
X117835072Y-81113500D01*
X117822812Y-80989018D01*
X117786502Y-80869320D01*
X117727537Y-80759006D01*
X117648185Y-80662315D01*
X117551494Y-80582963D01*
X117441180Y-80523998D01*
X117321482Y-80487688D01*
X117197000Y-80475428D01*
X115982750Y-80478500D01*
X115824000Y-80637250D01*
X115570000Y-80637250D01*
X115411250Y-80478500D01*
X114197000Y-80475428D01*
X114072518Y-80487688D01*
X113952820Y-80523998D01*
X113842506Y-80582963D01*
X113745815Y-80662315D01*
X113666463Y-80759006D01*
X113607498Y-80869320D01*
X113571188Y-80989018D01*
X113558928Y-81113500D01*
X108646401Y-81113500D01*
X108442201Y-80620521D01*
X108099114Y-80107054D01*
X107662446Y-79670386D01*
X107148979Y-79327299D01*
X106578446Y-79090976D01*
X105972771Y-78970500D01*
X105355229Y-78970500D01*
X104749554Y-79090976D01*
X104179021Y-79327299D01*
X103665554Y-79670386D01*
X103228886Y-80107054D01*
X102885799Y-80620521D01*
X102649476Y-81191054D01*
X102529000Y-81796729D01*
X100971873Y-81796729D01*
X100965160Y-76453903D01*
X183578660Y-76390597D01*
X183641840Y-126619195D01*
%TA.AperFunction,Conductor*%
D26*
G36*
X183641840Y-126619195D02*
G01*
X101028340Y-126745805D01*
X101024263Y-123499913D01*
X125132192Y-123499913D01*
X125227956Y-123764314D01*
X125517571Y-123905204D01*
X125829108Y-123986884D01*
X126150595Y-124006218D01*
X126469675Y-123962461D01*
X126774088Y-123857295D01*
X126948044Y-123764314D01*
X127043808Y-123499913D01*
X131632192Y-123499913D01*
X131727956Y-123764314D01*
X132017571Y-123905204D01*
X132329108Y-123986884D01*
X132650595Y-124006218D01*
X132969675Y-123962461D01*
X133274088Y-123857295D01*
X133448044Y-123764314D01*
X133543808Y-123499913D01*
X132588000Y-122544105D01*
X131632192Y-123499913D01*
X127043808Y-123499913D01*
X126088000Y-122544105D01*
X125132192Y-123499913D01*
X101024263Y-123499913D01*
X101019577Y-119769729D01*
X102783000Y-119769729D01*
X102783000Y-120387271D01*
X102903476Y-120992946D01*
X103139799Y-121563479D01*
X103482886Y-122076946D01*
X103919554Y-122513614D01*
X104433021Y-122856701D01*
X105003554Y-123093024D01*
X105609229Y-123213500D01*
X106226771Y-123213500D01*
X106832446Y-123093024D01*
X107402979Y-122856701D01*
X107916446Y-122513614D01*
X108002965Y-122427095D01*
X124446282Y-122427095D01*
X124490039Y-122746175D01*
X124595205Y-123050588D01*
X124688186Y-123224544D01*
X124952587Y-123320308D01*
X125908395Y-122364500D01*
X126267605Y-122364500D01*
X127223413Y-123320308D01*
X127487814Y-123224544D01*
X127628704Y-122934929D01*
X127710384Y-122623392D01*
X127722189Y-122427095D01*
X130946282Y-122427095D01*
X130990039Y-122746175D01*
X131095205Y-123050588D01*
X131188186Y-123224544D01*
X131452587Y-123320308D01*
X132408395Y-122364500D01*
X132767605Y-122364500D01*
X133723413Y-123320308D01*
X133987814Y-123224544D01*
X134128704Y-122934929D01*
X134210384Y-122623392D01*
X134229718Y-122301905D01*
X134185961Y-121982825D01*
X134080795Y-121678412D01*
X133987814Y-121504456D01*
X133723413Y-121408692D01*
X132767605Y-122364500D01*
X132408395Y-122364500D01*
X131452587Y-121408692D01*
X131188186Y-121504456D01*
X131047296Y-121794071D01*
X130965616Y-122105608D01*
X130946282Y-122427095D01*
X127722189Y-122427095D01*
X127729718Y-122301905D01*
X127685961Y-121982825D01*
X127580795Y-121678412D01*
X127487814Y-121504456D01*
X127223413Y-121408692D01*
X126267605Y-122364500D01*
X125908395Y-122364500D01*
X124952587Y-121408692D01*
X124688186Y-121504456D01*
X124547296Y-121794071D01*
X124465616Y-122105608D01*
X124446282Y-122427095D01*
X108002965Y-122427095D01*
X108353114Y-122076946D01*
X108696201Y-121563479D01*
X108834710Y-121229087D01*
X125132192Y-121229087D01*
X126088000Y-122184895D01*
X127043808Y-121229087D01*
X131632192Y-121229087D01*
X132588000Y-122184895D01*
X133543808Y-121229087D01*
X133448044Y-120964686D01*
X133158429Y-120823796D01*
X132846892Y-120742116D01*
X132525405Y-120722782D01*
X132206325Y-120766539D01*
X131901912Y-120871705D01*
X131727956Y-120964686D01*
X131632192Y-121229087D01*
X127043808Y-121229087D01*
X126948044Y-120964686D01*
X126658429Y-120823796D01*
X126346892Y-120742116D01*
X126025405Y-120722782D01*
X125706325Y-120766539D01*
X125401912Y-120871705D01*
X125227956Y-120964686D01*
X125132192Y-121229087D01*
X108834710Y-121229087D01*
X108932524Y-120992946D01*
X109053000Y-120387271D01*
X109053000Y-119769729D01*
X108932524Y-119164054D01*
X108696201Y-118593521D01*
X108353114Y-118080054D01*
X107976527Y-117703467D01*
X124453000Y-117703467D01*
X124453000Y-118025533D01*
X124515832Y-118341412D01*
X124639082Y-118638963D01*
X124818013Y-118906752D01*
X125045748Y-119134487D01*
X125313537Y-119313418D01*
X125611088Y-119436668D01*
X125926967Y-119499500D01*
X126249033Y-119499500D01*
X126564912Y-119436668D01*
X126862463Y-119313418D01*
X127130252Y-119134487D01*
X127357987Y-118906752D01*
X127536918Y-118638963D01*
X127660168Y-118341412D01*
X127723000Y-118025533D01*
X127723000Y-117703467D01*
X127660168Y-117387588D01*
X127536918Y-117090037D01*
X127357987Y-116822248D01*
X127130252Y-116594513D01*
X126862463Y-116415582D01*
X126564912Y-116292332D01*
X126249033Y-116229500D01*
X125926967Y-116229500D01*
X125611088Y-116292332D01*
X125313537Y-116415582D01*
X125045748Y-116594513D01*
X124818013Y-116822248D01*
X124639082Y-117090037D01*
X124515832Y-117387588D01*
X124453000Y-117703467D01*
X107976527Y-117703467D01*
X107916446Y-117643386D01*
X107402979Y-117300299D01*
X106832446Y-117063976D01*
X106226771Y-116943500D01*
X105609229Y-116943500D01*
X105003554Y-117063976D01*
X104433021Y-117300299D01*
X103919554Y-117643386D01*
X103482886Y-118080054D01*
X103139799Y-118593521D01*
X102903476Y-119164054D01*
X102783000Y-119769729D01*
X101019577Y-119769729D01*
X101001559Y-105426500D01*
X114587815Y-105426500D01*
X114616487Y-105717611D01*
X114701401Y-105997534D01*
X114839294Y-106255514D01*
X115024866Y-106481634D01*
X115250986Y-106667206D01*
X115268374Y-106676500D01*
X115250986Y-106685794D01*
X115024866Y-106871366D01*
X114839294Y-107097486D01*
X114701401Y-107355466D01*
X114616487Y-107635389D01*
X114587815Y-107926500D01*
X114616487Y-108217611D01*
X114701401Y-108497534D01*
X114839294Y-108755514D01*
X115024866Y-108981634D01*
X115088337Y-109033723D01*
X114986614Y-109088095D01*
X114852038Y-109198538D01*
X114741595Y-109333114D01*
X114659528Y-109486650D01*
X114608992Y-109653246D01*
X114591928Y-109826500D01*
X114591928Y-111026500D01*
X114608992Y-111199754D01*
X114659528Y-111366350D01*
X114741595Y-111519886D01*
X114852038Y-111654462D01*
X114986614Y-111764905D01*
X115140150Y-111846972D01*
X115306746Y-111897508D01*
X115480000Y-111914572D01*
X116930000Y-111914572D01*
X117103254Y-111897508D01*
X117269850Y-111846972D01*
X117423386Y-111764905D01*
X117557962Y-111654462D01*
X117668405Y-111519886D01*
X117750472Y-111366350D01*
X117801008Y-111199754D01*
X117818072Y-111026500D01*
X117818072Y-110451561D01*
X123552000Y-110451561D01*
X123552000Y-110655439D01*
X123591774Y-110855398D01*
X123669795Y-111043756D01*
X123783063Y-111213274D01*
X123927226Y-111357437D01*
X124096744Y-111470705D01*
X124285102Y-111548726D01*
X124485061Y-111588500D01*
X124688939Y-111588500D01*
X124888898Y-111548726D01*
X125077256Y-111470705D01*
X125246774Y-111357437D01*
X125390937Y-111213274D01*
X125504205Y-111043756D01*
X125582226Y-110855398D01*
X125622000Y-110655439D01*
X125622000Y-110451561D01*
X125582226Y-110251602D01*
X125504205Y-110063244D01*
X125397000Y-109902800D01*
X125397000Y-109753061D01*
X127298500Y-109753061D01*
X127298500Y-109956939D01*
X127338274Y-110156898D01*
X127416295Y-110345256D01*
X127529563Y-110514774D01*
X127673726Y-110658937D01*
X127843244Y-110772205D01*
X128031602Y-110850226D01*
X128231561Y-110890000D01*
X128435439Y-110890000D01*
X128635398Y-110850226D01*
X128823756Y-110772205D01*
X128984200Y-110665000D01*
X129754212Y-110665000D01*
X129794000Y-110668919D01*
X129833788Y-110665000D01*
X129833791Y-110665000D01*
X129952788Y-110653280D01*
X130105473Y-110606963D01*
X130246189Y-110531749D01*
X130369528Y-110430528D01*
X130394900Y-110399612D01*
X132775000Y-108019512D01*
X132775001Y-116234665D01*
X132749033Y-116229500D01*
X132426967Y-116229500D01*
X132111088Y-116292332D01*
X131813537Y-116415582D01*
X131545748Y-116594513D01*
X131318013Y-116822248D01*
X131139082Y-117090037D01*
X131015832Y-117387588D01*
X130953000Y-117703467D01*
X130953000Y-118025533D01*
X131015832Y-118341412D01*
X131139082Y-118638963D01*
X131318013Y-118906752D01*
X131545748Y-119134487D01*
X131813537Y-119313418D01*
X132111088Y-119436668D01*
X132426967Y-119499500D01*
X132749033Y-119499500D01*
X133064912Y-119436668D01*
X133362463Y-119313418D01*
X133630252Y-119134487D01*
X133857987Y-118906752D01*
X134036918Y-118638963D01*
X134160168Y-118341412D01*
X134223000Y-118025533D01*
X134223000Y-117703467D01*
X134169114Y-117432565D01*
X134209214Y-117383704D01*
X134261749Y-117319690D01*
X134336962Y-117178974D01*
X134336963Y-117178973D01*
X134383280Y-117026288D01*
X134395000Y-116907291D01*
X134395000Y-116907288D01*
X134398328Y-116873500D01*
X162145928Y-116873500D01*
X162145928Y-119473500D01*
X162158188Y-119597982D01*
X162194498Y-119717680D01*
X162253463Y-119827994D01*
X162332815Y-119924685D01*
X162429506Y-120004037D01*
X162539820Y-120063002D01*
X162659518Y-120099312D01*
X162784000Y-120111572D01*
X165384000Y-120111572D01*
X165508482Y-120099312D01*
X165628180Y-120063002D01*
X165738494Y-120004037D01*
X165835185Y-119924685D01*
X165914537Y-119827994D01*
X165973502Y-119717680D01*
X166009812Y-119597982D01*
X166022072Y-119473500D01*
X166022072Y-116873500D01*
X166009812Y-116749018D01*
X165973502Y-116629320D01*
X165914537Y-116519006D01*
X165835185Y-116422315D01*
X165738494Y-116342963D01*
X165628180Y-116283998D01*
X165508482Y-116247688D01*
X165384000Y-116235428D01*
X162784000Y-116235428D01*
X162659518Y-116247688D01*
X162539820Y-116283998D01*
X162429506Y-116342963D01*
X162332815Y-116422315D01*
X162253463Y-116519006D01*
X162194498Y-116629320D01*
X162158188Y-116749018D01*
X162145928Y-116873500D01*
X134398328Y-116873500D01*
X134398919Y-116867500D01*
X134395000Y-116827712D01*
X134395000Y-115116089D01*
X136537000Y-115116089D01*
X136537000Y-115388911D01*
X136590225Y-115656489D01*
X136694629Y-115908543D01*
X136846201Y-116135386D01*
X137039114Y-116328299D01*
X137265957Y-116479871D01*
X137518011Y-116584275D01*
X137785589Y-116637500D01*
X138058411Y-116637500D01*
X138325989Y-116584275D01*
X138578043Y-116479871D01*
X138804886Y-116328299D01*
X138997799Y-116135386D01*
X139149371Y-115908543D01*
X139253775Y-115656489D01*
X139307000Y-115388911D01*
X139307000Y-115116089D01*
X141417000Y-115116089D01*
X141417000Y-115388911D01*
X141470225Y-115656489D01*
X141574629Y-115908543D01*
X141726201Y-116135386D01*
X141919114Y-116328299D01*
X142145957Y-116479871D01*
X142398011Y-116584275D01*
X142665589Y-116637500D01*
X142938411Y-116637500D01*
X143205989Y-116584275D01*
X143458043Y-116479871D01*
X143684886Y-116328299D01*
X143877799Y-116135386D01*
X144029371Y-115908543D01*
X144133775Y-115656489D01*
X144187000Y-115388911D01*
X144187000Y-115116089D01*
X144133775Y-114848511D01*
X144029371Y-114596457D01*
X143877799Y-114369614D01*
X143684886Y-114176701D01*
X143458043Y-114025129D01*
X143205989Y-113920725D01*
X142938411Y-113867500D01*
X142665589Y-113867500D01*
X142398011Y-113920725D01*
X142145957Y-114025129D01*
X141919114Y-114176701D01*
X141726201Y-114369614D01*
X141574629Y-114596457D01*
X141470225Y-114848511D01*
X141417000Y-115116089D01*
X139307000Y-115116089D01*
X139253775Y-114848511D01*
X139149371Y-114596457D01*
X138997799Y-114369614D01*
X138804886Y-114176701D01*
X138578043Y-114025129D01*
X138325989Y-113920725D01*
X138058411Y-113867500D01*
X137785589Y-113867500D01*
X137518011Y-113920725D01*
X137265957Y-114025129D01*
X137039114Y-114176701D01*
X136846201Y-114369614D01*
X136694629Y-114596457D01*
X136590225Y-114848511D01*
X136537000Y-115116089D01*
X134395000Y-115116089D01*
X134395000Y-105159500D01*
X150944212Y-105159500D01*
X150984000Y-105163419D01*
X151023788Y-105159500D01*
X151023791Y-105159500D01*
X151142788Y-105147780D01*
X151295473Y-105101463D01*
X151436189Y-105026249D01*
X151559528Y-104925028D01*
X151584899Y-104894113D01*
X152690619Y-103788394D01*
X152721528Y-103763028D01*
X152795616Y-103672751D01*
X152822749Y-103639690D01*
X152876301Y-103539500D01*
X152897963Y-103498973D01*
X152944280Y-103346288D01*
X152956000Y-103227291D01*
X152956000Y-103227289D01*
X152959919Y-103187501D01*
X152956000Y-103147713D01*
X152956000Y-102506800D01*
X152981077Y-102490044D01*
X153150715Y-102320406D01*
X153167697Y-102343727D01*
X153356463Y-102517844D01*
X153575570Y-102651789D01*
X153816599Y-102740415D01*
X154019000Y-102617585D01*
X154019000Y-101599500D01*
X154273000Y-101599500D01*
X154273000Y-102617585D01*
X154475401Y-102740415D01*
X154716430Y-102651789D01*
X154935537Y-102517844D01*
X155124303Y-102343727D01*
X155275473Y-102136129D01*
X155383238Y-101903028D01*
X155413910Y-101801900D01*
X155290224Y-101599500D01*
X154273000Y-101599500D01*
X154019000Y-101599500D01*
X153999000Y-101599500D01*
X153999000Y-101345500D01*
X154019000Y-101345500D01*
X154019000Y-101325500D01*
X154273000Y-101325500D01*
X154273000Y-101345500D01*
X155290224Y-101345500D01*
X155413910Y-101143100D01*
X155383238Y-101041972D01*
X155275473Y-100808871D01*
X155124303Y-100601273D01*
X154991940Y-100479181D01*
X155163544Y-100307577D01*
X155306907Y-100093018D01*
X155405658Y-99854613D01*
X155456000Y-99601524D01*
X155456000Y-99343476D01*
X155405658Y-99090387D01*
X155306907Y-98851982D01*
X155163544Y-98637423D01*
X154998621Y-98472500D01*
X155163544Y-98307577D01*
X155306907Y-98093018D01*
X155405658Y-97854613D01*
X155456000Y-97601524D01*
X155456000Y-97343476D01*
X155433926Y-97232499D01*
X160164999Y-97232499D01*
X160305001Y-97372502D01*
X160305000Y-103266120D01*
X160300235Y-103314500D01*
X160305000Y-103362879D01*
X160319253Y-103507593D01*
X160375576Y-103693266D01*
X160467040Y-103864384D01*
X160590130Y-104014370D01*
X160627716Y-104045216D01*
X168099001Y-111516502D01*
X168099000Y-116504451D01*
X167850509Y-116670487D01*
X167580987Y-116940009D01*
X167369225Y-117256934D01*
X167223361Y-117609081D01*
X167149000Y-117982919D01*
X167149000Y-118364081D01*
X167223361Y-118737919D01*
X167369225Y-119090066D01*
X167580987Y-119406991D01*
X167850509Y-119676513D01*
X168167434Y-119888275D01*
X168519581Y-120034139D01*
X168893419Y-120108500D01*
X169274581Y-120108500D01*
X169648419Y-120034139D01*
X170000566Y-119888275D01*
X170317491Y-119676513D01*
X170351275Y-119642729D01*
X173014000Y-119642729D01*
X173014000Y-120260271D01*
X173134476Y-120865946D01*
X173370799Y-121436479D01*
X173713886Y-121949946D01*
X174150554Y-122386614D01*
X174664021Y-122729701D01*
X175234554Y-122966024D01*
X175840229Y-123086500D01*
X176457771Y-123086500D01*
X177063446Y-122966024D01*
X177633979Y-122729701D01*
X178147446Y-122386614D01*
X178584114Y-121949946D01*
X178927201Y-121436479D01*
X179163524Y-120865946D01*
X179284000Y-120260271D01*
X179284000Y-119642729D01*
X179163524Y-119037054D01*
X178927201Y-118466521D01*
X178584114Y-117953054D01*
X178147446Y-117516386D01*
X177633979Y-117173299D01*
X177063446Y-116936976D01*
X176457771Y-116816500D01*
X175840229Y-116816500D01*
X175234554Y-116936976D01*
X174664021Y-117173299D01*
X174150554Y-117516386D01*
X173713886Y-117953054D01*
X173370799Y-118466521D01*
X173134476Y-119037054D01*
X173014000Y-119642729D01*
X170351275Y-119642729D01*
X170587013Y-119406991D01*
X170798775Y-119090066D01*
X170944639Y-118737919D01*
X171019000Y-118364081D01*
X171019000Y-117982919D01*
X170944639Y-117609081D01*
X170798775Y-117256934D01*
X170587013Y-116940009D01*
X170317491Y-116670487D01*
X170069000Y-116504451D01*
X170069000Y-111156880D01*
X170073765Y-111108500D01*
X170054747Y-110915406D01*
X169998424Y-110729733D01*
X169906960Y-110558616D01*
X169814710Y-110446209D01*
X169783870Y-110408630D01*
X169746290Y-110377789D01*
X163475001Y-104106500D01*
X165066928Y-104106500D01*
X165079188Y-104230982D01*
X165115498Y-104350680D01*
X165174463Y-104460994D01*
X165253815Y-104557685D01*
X165350506Y-104637037D01*
X165460820Y-104696002D01*
X165580518Y-104732312D01*
X165705000Y-104744572D01*
X166719250Y-104741500D01*
X166878000Y-104582750D01*
X166878000Y-102933500D01*
X167132000Y-102933500D01*
X167132000Y-104582750D01*
X167290750Y-104741500D01*
X168305000Y-104744572D01*
X168429482Y-104732312D01*
X168549180Y-104696002D01*
X168659494Y-104637037D01*
X168756185Y-104557685D01*
X168835537Y-104460994D01*
X168894502Y-104350680D01*
X168930812Y-104230982D01*
X168943072Y-104106500D01*
X168940000Y-103092250D01*
X168781250Y-102933500D01*
X167132000Y-102933500D01*
X166878000Y-102933500D01*
X165228750Y-102933500D01*
X165070000Y-103092250D01*
X165066928Y-104106500D01*
X163475001Y-104106500D01*
X162275000Y-102906500D01*
X162275000Y-101506500D01*
X165066928Y-101506500D01*
X165070000Y-102520750D01*
X165228750Y-102679500D01*
X166878000Y-102679500D01*
X166878000Y-101030250D01*
X167132000Y-101030250D01*
X167132000Y-102679500D01*
X168781250Y-102679500D01*
X168940000Y-102520750D01*
X168943072Y-101506500D01*
X168930812Y-101382018D01*
X168894502Y-101262320D01*
X168835537Y-101152006D01*
X168756185Y-101055315D01*
X168659494Y-100975963D01*
X168549180Y-100916998D01*
X168429482Y-100880688D01*
X168305000Y-100868428D01*
X167290750Y-100871500D01*
X167132000Y-101030250D01*
X166878000Y-101030250D01*
X166719250Y-100871500D01*
X165705000Y-100868428D01*
X165580518Y-100880688D01*
X165460820Y-100916998D01*
X165350506Y-100975963D01*
X165253815Y-101055315D01*
X165174463Y-101152006D01*
X165115498Y-101262320D01*
X165079188Y-101382018D01*
X165066928Y-101506500D01*
X162275000Y-101506500D01*
X162275000Y-97535919D01*
X165070000Y-97535919D01*
X165070000Y-97917081D01*
X165144361Y-98290919D01*
X165290225Y-98643066D01*
X165501987Y-98959991D01*
X165771509Y-99229513D01*
X166088434Y-99441275D01*
X166440581Y-99587139D01*
X166814419Y-99661500D01*
X167195581Y-99661500D01*
X167569419Y-99587139D01*
X167921566Y-99441275D01*
X168238491Y-99229513D01*
X168508013Y-98959991D01*
X168719775Y-98643066D01*
X168865639Y-98290919D01*
X168940000Y-97917081D01*
X168940000Y-97535919D01*
X168865639Y-97162081D01*
X168719775Y-96809934D01*
X168508013Y-96493009D01*
X168238491Y-96223487D01*
X167921566Y-96011725D01*
X167569419Y-95865861D01*
X167195581Y-95791500D01*
X166814419Y-95791500D01*
X166440581Y-95865861D01*
X166088434Y-96011725D01*
X165771509Y-96223487D01*
X165501987Y-96493009D01*
X165290225Y-96809934D01*
X165144361Y-97162081D01*
X165070000Y-97535919D01*
X162275000Y-97535919D01*
X162275000Y-97012880D01*
X162279765Y-96964500D01*
X162260747Y-96771406D01*
X162204424Y-96585733D01*
X162112960Y-96414616D01*
X162020710Y-96302209D01*
X161989870Y-96264630D01*
X161952289Y-96233788D01*
X161303714Y-95585214D01*
X161272869Y-95547629D01*
X161122883Y-95424539D01*
X160951766Y-95333075D01*
X160766093Y-95276752D01*
X160621379Y-95262499D01*
X160572999Y-95257734D01*
X160524619Y-95262499D01*
X144880513Y-95262499D01*
X147687093Y-92455919D01*
X165070000Y-92455919D01*
X165070000Y-92837081D01*
X165144361Y-93210919D01*
X165290225Y-93563066D01*
X165501987Y-93879991D01*
X165771509Y-94149513D01*
X166088434Y-94361275D01*
X166440581Y-94507139D01*
X166814419Y-94581500D01*
X167195581Y-94581500D01*
X167569419Y-94507139D01*
X167921566Y-94361275D01*
X168238491Y-94149513D01*
X168508013Y-93879991D01*
X168719775Y-93563066D01*
X168865639Y-93210919D01*
X168940000Y-92837081D01*
X168940000Y-92455919D01*
X168865639Y-92082081D01*
X168719775Y-91729934D01*
X168508013Y-91413009D01*
X168238491Y-91143487D01*
X167921566Y-90931725D01*
X167569419Y-90785861D01*
X167195581Y-90711500D01*
X166814419Y-90711500D01*
X166440581Y-90785861D01*
X166088434Y-90931725D01*
X165771509Y-91143487D01*
X165501987Y-91413009D01*
X165290225Y-91729934D01*
X165144361Y-92082081D01*
X165070000Y-92455919D01*
X147687093Y-92455919D01*
X154521512Y-85621500D01*
X168156815Y-85621500D01*
X168185487Y-85912611D01*
X168270401Y-86192534D01*
X168408294Y-86450514D01*
X168593866Y-86676634D01*
X168819986Y-86862206D01*
X169077966Y-87000099D01*
X169357889Y-87085013D01*
X169576050Y-87106500D01*
X170021950Y-87106500D01*
X170240111Y-87085013D01*
X170520034Y-87000099D01*
X170778014Y-86862206D01*
X171004134Y-86676634D01*
X171189706Y-86450514D01*
X171327599Y-86192534D01*
X171412513Y-85912611D01*
X171441185Y-85621500D01*
X171412513Y-85330389D01*
X171327599Y-85050466D01*
X171189706Y-84792486D01*
X171008392Y-84571555D01*
X171043180Y-84561002D01*
X171153494Y-84502037D01*
X171250185Y-84422685D01*
X171329537Y-84325994D01*
X171388502Y-84215680D01*
X171424812Y-84095982D01*
X171437072Y-83971500D01*
X171434000Y-83407250D01*
X171275250Y-83248500D01*
X169926000Y-83248500D01*
X169926000Y-83268500D01*
X169672000Y-83268500D01*
X169672000Y-83248500D01*
X168322750Y-83248500D01*
X168164000Y-83407250D01*
X168160928Y-83971500D01*
X168173188Y-84095982D01*
X168209498Y-84215680D01*
X168268463Y-84325994D01*
X168347815Y-84422685D01*
X168444506Y-84502037D01*
X168554820Y-84561002D01*
X168589608Y-84571555D01*
X168408294Y-84792486D01*
X168270401Y-85050466D01*
X168185487Y-85330389D01*
X168156815Y-85621500D01*
X154521512Y-85621500D01*
X157754352Y-82388661D01*
X157870890Y-82424013D01*
X158162000Y-82452685D01*
X158453111Y-82424013D01*
X158733034Y-82339099D01*
X158859503Y-82271500D01*
X168160928Y-82271500D01*
X168164000Y-82835750D01*
X168322750Y-82994500D01*
X169672000Y-82994500D01*
X169672000Y-81795250D01*
X169926000Y-81795250D01*
X169926000Y-82994500D01*
X171275250Y-82994500D01*
X171434000Y-82835750D01*
X171437072Y-82271500D01*
X171424812Y-82147018D01*
X171388502Y-82027320D01*
X171329537Y-81917006D01*
X171250185Y-81820315D01*
X171153494Y-81740963D01*
X171043180Y-81681998D01*
X170923482Y-81645688D01*
X170799000Y-81633428D01*
X170084750Y-81636500D01*
X169926000Y-81795250D01*
X169672000Y-81795250D01*
X169513250Y-81636500D01*
X168799000Y-81633428D01*
X168674518Y-81645688D01*
X168554820Y-81681998D01*
X168444506Y-81740963D01*
X168347815Y-81820315D01*
X168268463Y-81917006D01*
X168209498Y-82027320D01*
X168173188Y-82147018D01*
X168160928Y-82271500D01*
X158859503Y-82271500D01*
X158991014Y-82201206D01*
X159217134Y-82015634D01*
X159402706Y-81789514D01*
X159540599Y-81531533D01*
X159614253Y-81288729D01*
X172125000Y-81288729D01*
X172125000Y-81906271D01*
X172245476Y-82511946D01*
X172481799Y-83082479D01*
X172824886Y-83595946D01*
X173261554Y-84032614D01*
X173775021Y-84375701D01*
X174345554Y-84612024D01*
X174951229Y-84732500D01*
X175568771Y-84732500D01*
X176174446Y-84612024D01*
X176744979Y-84375701D01*
X177258446Y-84032614D01*
X177695114Y-83595946D01*
X178038201Y-83082479D01*
X178274524Y-82511946D01*
X178395000Y-81906271D01*
X178395000Y-81288729D01*
X178274524Y-80683054D01*
X178038201Y-80112521D01*
X177695114Y-79599054D01*
X177258446Y-79162386D01*
X176744979Y-78819299D01*
X176174446Y-78582976D01*
X175568771Y-78462500D01*
X174951229Y-78462500D01*
X174345554Y-78582976D01*
X173775021Y-78819299D01*
X173261554Y-79162386D01*
X172824886Y-79599054D01*
X172481799Y-80112521D01*
X172245476Y-80683054D01*
X172125000Y-81288729D01*
X159614253Y-81288729D01*
X159625513Y-81251610D01*
X159647000Y-81033449D01*
X159647000Y-80637550D01*
X159625513Y-80419389D01*
X159540599Y-80139466D01*
X159402706Y-79881486D01*
X159217134Y-79655366D01*
X158991013Y-79469794D01*
X158733033Y-79331901D01*
X158453110Y-79246987D01*
X158162000Y-79218315D01*
X157870889Y-79246987D01*
X157590966Y-79331901D01*
X157332986Y-79469794D01*
X157106866Y-79655366D01*
X156921294Y-79881487D01*
X156907538Y-79907222D01*
X156751049Y-79701071D01*
X156533193Y-79508004D01*
X156281858Y-79361148D01*
X156018890Y-79269024D01*
X155789000Y-79390345D01*
X155789000Y-80708500D01*
X155809000Y-80708500D01*
X155809000Y-80962500D01*
X155789000Y-80962500D01*
X155789000Y-80982500D01*
X155535000Y-80982500D01*
X155535000Y-80962500D01*
X155515000Y-80962500D01*
X155515000Y-80708500D01*
X155535000Y-80708500D01*
X155535000Y-79390345D01*
X155305110Y-79269024D01*
X155042142Y-79361148D01*
X154790807Y-79508004D01*
X154572951Y-79701071D01*
X154556714Y-79722461D01*
X154500405Y-79617114D01*
X154389962Y-79482538D01*
X154255386Y-79372095D01*
X154101850Y-79290028D01*
X153935254Y-79239492D01*
X153762000Y-79222428D01*
X152562000Y-79222428D01*
X152388746Y-79239492D01*
X152222150Y-79290028D01*
X152068614Y-79372095D01*
X151934038Y-79482538D01*
X151823595Y-79617114D01*
X151741528Y-79770650D01*
X151690992Y-79937246D01*
X151673928Y-80110500D01*
X151673928Y-81560500D01*
X151690992Y-81733754D01*
X151741528Y-81900350D01*
X151823595Y-82053886D01*
X151934038Y-82188462D01*
X152068614Y-82298905D01*
X152222150Y-82380972D01*
X152388746Y-82431508D01*
X152562000Y-82448572D01*
X153762000Y-82448572D01*
X153935254Y-82431508D01*
X154101850Y-82380972D01*
X154255386Y-82298905D01*
X154389962Y-82188462D01*
X154500405Y-82053886D01*
X154556714Y-81948539D01*
X154572951Y-81969929D01*
X154790807Y-82162996D01*
X155042142Y-82309852D01*
X155305110Y-82401976D01*
X155534998Y-82280656D01*
X155534998Y-82316989D01*
X143221488Y-94630500D01*
X134659787Y-94630500D01*
X134619999Y-94626581D01*
X134580211Y-94630500D01*
X134580209Y-94630500D01*
X134461212Y-94642220D01*
X134308527Y-94688537D01*
X134243024Y-94723549D01*
X134167810Y-94763751D01*
X134112210Y-94809381D01*
X134044472Y-94864972D01*
X134019107Y-94895880D01*
X132348359Y-96566629D01*
X132159102Y-96604274D01*
X131970744Y-96682295D01*
X131801226Y-96795563D01*
X131668000Y-96928789D01*
X131668000Y-91068086D01*
X131678226Y-91043398D01*
X131718000Y-90843439D01*
X131718000Y-90639561D01*
X131678226Y-90439602D01*
X131600205Y-90251244D01*
X131486937Y-90081726D01*
X131342774Y-89937563D01*
X131173256Y-89824295D01*
X130984898Y-89746274D01*
X130784939Y-89706500D01*
X130581061Y-89706500D01*
X130381102Y-89746274D01*
X130192744Y-89824295D01*
X130023226Y-89937563D01*
X129879063Y-90081726D01*
X129765795Y-90251244D01*
X129687774Y-90439602D01*
X129648000Y-90639561D01*
X129648000Y-90843439D01*
X129687774Y-91043398D01*
X129698001Y-91068088D01*
X129698000Y-98694120D01*
X129693235Y-98742500D01*
X129698000Y-98790879D01*
X129712253Y-98935593D01*
X129768576Y-99121266D01*
X129860040Y-99292384D01*
X129983130Y-99442370D01*
X130020717Y-99473217D01*
X130206281Y-99658780D01*
X130237130Y-99696370D01*
X130387116Y-99819460D01*
X130558233Y-99910924D01*
X130708850Y-99956613D01*
X130743905Y-99967247D01*
X130936999Y-99986265D01*
X130985379Y-99981500D01*
X132412620Y-99981500D01*
X132461000Y-99986265D01*
X132509380Y-99981500D01*
X132654094Y-99967247D01*
X132839767Y-99910924D01*
X133010884Y-99819460D01*
X133160870Y-99696370D01*
X133191716Y-99658784D01*
X135618001Y-97232499D01*
X150832928Y-97232499D01*
X150832928Y-98147500D01*
X150845188Y-98271982D01*
X150881498Y-98391680D01*
X150940463Y-98501994D01*
X151019815Y-98598685D01*
X151106697Y-98669987D01*
X150985093Y-98851982D01*
X150969552Y-98889500D01*
X141806700Y-98889500D01*
X141646256Y-98782295D01*
X141457898Y-98704274D01*
X141257939Y-98664500D01*
X141054061Y-98664500D01*
X140854102Y-98704274D01*
X140665744Y-98782295D01*
X140496226Y-98895563D01*
X140352063Y-99039726D01*
X140238795Y-99209244D01*
X140160774Y-99397602D01*
X140121000Y-99597561D01*
X140121000Y-99801439D01*
X140160774Y-100001398D01*
X140238795Y-100189756D01*
X140352063Y-100359274D01*
X140496226Y-100503437D01*
X140665744Y-100616705D01*
X140854102Y-100694726D01*
X141054061Y-100734500D01*
X141257939Y-100734500D01*
X141457898Y-100694726D01*
X141646256Y-100616705D01*
X141806700Y-100509500D01*
X151256379Y-100509500D01*
X151128456Y-100637423D01*
X150985093Y-100851982D01*
X150886342Y-101090387D01*
X150836000Y-101343476D01*
X150836000Y-101601524D01*
X150886342Y-101854613D01*
X150985093Y-102093018D01*
X151128456Y-102307577D01*
X151310923Y-102490044D01*
X151336000Y-102506800D01*
X151336000Y-102851987D01*
X150648488Y-103539500D01*
X134349093Y-103539500D01*
X134386500Y-103351439D01*
X134386500Y-103147561D01*
X134346726Y-102947602D01*
X134268705Y-102759244D01*
X134155437Y-102589726D01*
X134011274Y-102445563D01*
X133841756Y-102332295D01*
X133653398Y-102254274D01*
X133453439Y-102214500D01*
X133249561Y-102214500D01*
X133049602Y-102254274D01*
X132861244Y-102332295D01*
X132691726Y-102445563D01*
X132547563Y-102589726D01*
X132434295Y-102759244D01*
X132356274Y-102947602D01*
X132318629Y-103136859D01*
X132265387Y-103190101D01*
X132234471Y-103215473D01*
X132178734Y-103283390D01*
X132133250Y-103338812D01*
X132120386Y-103362880D01*
X132058036Y-103479529D01*
X132011719Y-103632214D01*
X132001879Y-103732121D01*
X131996080Y-103791001D01*
X131999999Y-103830789D01*
X132000000Y-106503487D01*
X129458488Y-109045000D01*
X128984200Y-109045000D01*
X128823756Y-108937795D01*
X128635398Y-108859774D01*
X128435439Y-108820000D01*
X128231561Y-108820000D01*
X128031602Y-108859774D01*
X127843244Y-108937795D01*
X127673726Y-109051063D01*
X127529563Y-109195226D01*
X127416295Y-109364744D01*
X127338274Y-109553102D01*
X127298500Y-109753061D01*
X125397000Y-109753061D01*
X125397000Y-107460012D01*
X126096642Y-106760371D01*
X126285898Y-106722726D01*
X126474256Y-106644705D01*
X126643774Y-106531437D01*
X126787937Y-106387274D01*
X126901205Y-106217756D01*
X126979226Y-106029398D01*
X127019000Y-105829439D01*
X127019000Y-105625561D01*
X126979226Y-105425602D01*
X126901205Y-105237244D01*
X126787937Y-105067726D01*
X126643774Y-104923563D01*
X126474256Y-104810295D01*
X126285898Y-104732274D01*
X126085939Y-104692500D01*
X125882061Y-104692500D01*
X125682102Y-104732274D01*
X125493744Y-104810295D01*
X125324226Y-104923563D01*
X125180063Y-105067726D01*
X125066795Y-105237244D01*
X124988774Y-105425602D01*
X124951129Y-105614858D01*
X124042383Y-106523605D01*
X124011473Y-106548972D01*
X123986108Y-106579880D01*
X123910251Y-106672311D01*
X123835038Y-106813027D01*
X123788721Y-106965713D01*
X123773081Y-107124500D01*
X123777001Y-107164298D01*
X123777000Y-109902800D01*
X123669795Y-110063244D01*
X123591774Y-110251602D01*
X123552000Y-110451561D01*
X117818072Y-110451561D01*
X117818072Y-109826500D01*
X117801008Y-109653246D01*
X117750472Y-109486650D01*
X117668405Y-109333114D01*
X117557962Y-109198538D01*
X117423386Y-109088095D01*
X117321663Y-109033723D01*
X117385134Y-108981634D01*
X117570706Y-108755514D01*
X117708599Y-108497534D01*
X117793513Y-108217611D01*
X117822185Y-107926500D01*
X117793513Y-107635389D01*
X117708599Y-107355466D01*
X117570706Y-107097486D01*
X117385134Y-106871366D01*
X117159014Y-106685794D01*
X117141626Y-106676500D01*
X117159014Y-106667206D01*
X117385134Y-106481634D01*
X117570706Y-106255514D01*
X117708599Y-105997534D01*
X117793513Y-105717611D01*
X117822185Y-105426500D01*
X117793513Y-105135389D01*
X117708599Y-104855466D01*
X117570706Y-104597486D01*
X117385134Y-104371366D01*
X117159014Y-104185794D01*
X117133278Y-104172038D01*
X117339429Y-104015549D01*
X117532496Y-103797693D01*
X117679352Y-103546358D01*
X117771476Y-103283390D01*
X117650155Y-103053500D01*
X116332000Y-103053500D01*
X116332000Y-103073500D01*
X116078000Y-103073500D01*
X116078000Y-103053500D01*
X114759845Y-103053500D01*
X114638524Y-103283390D01*
X114730648Y-103546358D01*
X114877504Y-103797693D01*
X115070571Y-104015549D01*
X115276722Y-104172038D01*
X115250986Y-104185794D01*
X115024866Y-104371366D01*
X114839294Y-104597486D01*
X114701401Y-104855466D01*
X114616487Y-105135389D01*
X114587815Y-105426500D01*
X101001559Y-105426500D01*
X100997970Y-102569610D01*
X114638524Y-102569610D01*
X114759845Y-102799500D01*
X116078000Y-102799500D01*
X116078000Y-101600335D01*
X116332000Y-101600335D01*
X116332000Y-102799500D01*
X117650155Y-102799500D01*
X117771476Y-102569610D01*
X117679352Y-102306642D01*
X117532496Y-102055307D01*
X117339429Y-101837451D01*
X117107570Y-101661447D01*
X116845830Y-101534058D01*
X116564267Y-101460180D01*
X116332000Y-101600335D01*
X116078000Y-101600335D01*
X115845733Y-101460180D01*
X115564170Y-101534058D01*
X115302430Y-101661447D01*
X115070571Y-101837451D01*
X114877504Y-102055307D01*
X114730648Y-102306642D01*
X114638524Y-102569610D01*
X100997970Y-102569610D01*
X100978917Y-87403221D01*
X113562000Y-87403221D01*
X113562000Y-87823779D01*
X113644047Y-88236256D01*
X113804988Y-88624802D01*
X114038637Y-88974483D01*
X114336017Y-89271863D01*
X114685698Y-89505512D01*
X115074244Y-89666453D01*
X115486721Y-89748500D01*
X115907279Y-89748500D01*
X116319756Y-89666453D01*
X116708302Y-89505512D01*
X117057983Y-89271863D01*
X117355363Y-88974483D01*
X117589012Y-88624802D01*
X117749953Y-88236256D01*
X117832000Y-87823779D01*
X117832000Y-87403221D01*
X117749953Y-86990744D01*
X117589012Y-86602198D01*
X117355363Y-86252517D01*
X117057983Y-85955137D01*
X116708302Y-85721488D01*
X116319756Y-85560547D01*
X115907279Y-85478500D01*
X115486721Y-85478500D01*
X115074244Y-85560547D01*
X114685698Y-85721488D01*
X114336017Y-85955137D01*
X114038637Y-86252517D01*
X113804988Y-86602198D01*
X113644047Y-86990744D01*
X113562000Y-87403221D01*
X100978917Y-87403221D01*
X100971873Y-81796729D01*
X102529000Y-81796729D01*
X102529000Y-82414271D01*
X102649476Y-83019946D01*
X102885799Y-83590479D01*
X103228886Y-84103946D01*
X103665554Y-84540614D01*
X104179021Y-84883701D01*
X104749554Y-85120024D01*
X105355229Y-85240500D01*
X105972771Y-85240500D01*
X106578446Y-85120024D01*
X107148979Y-84883701D01*
X107662446Y-84540614D01*
X108089560Y-84113500D01*
X113558928Y-84113500D01*
X113571188Y-84237982D01*
X113607498Y-84357680D01*
X113666463Y-84467994D01*
X113745815Y-84564685D01*
X113842506Y-84644037D01*
X113952820Y-84703002D01*
X114072518Y-84739312D01*
X114197000Y-84751572D01*
X115411250Y-84748500D01*
X115570000Y-84589750D01*
X115570000Y-82740500D01*
X115824000Y-82740500D01*
X115824000Y-84589750D01*
X115982750Y-84748500D01*
X117197000Y-84751572D01*
X117321482Y-84739312D01*
X117441180Y-84703002D01*
X117551494Y-84644037D01*
X117648185Y-84564685D01*
X117727537Y-84467994D01*
X117786502Y-84357680D01*
X117822812Y-84237982D01*
X117835072Y-84113500D01*
X117832000Y-82899250D01*
X117673250Y-82740500D01*
X115824000Y-82740500D01*
X115570000Y-82740500D01*
X113720750Y-82740500D01*
X113562000Y-82899250D01*
X113558928Y-84113500D01*
X108089560Y-84113500D01*
X108099114Y-84103946D01*
X108442201Y-83590479D01*
X108678524Y-83019946D01*
X108799000Y-82414271D01*
X108799000Y-81796729D01*
X108678524Y-81191054D01*
X108646401Y-81113500D01*
X113558928Y-81113500D01*
X113562000Y-82327750D01*
X113720750Y-82486500D01*
X115570000Y-82486500D01*
X115570000Y-80637250D01*
X115824000Y-80637250D01*
X115824000Y-82486500D01*
X117673250Y-82486500D01*
X117832000Y-82327750D01*
X117835072Y-81113500D01*
X117822812Y-80989018D01*
X117786502Y-80869320D01*
X117727537Y-80759006D01*
X117648185Y-80662315D01*
X117551494Y-80582963D01*
X117441180Y-80523998D01*
X117321482Y-80487688D01*
X117197000Y-80475428D01*
X115982750Y-80478500D01*
X115824000Y-80637250D01*
X115570000Y-80637250D01*
X115411250Y-80478500D01*
X114197000Y-80475428D01*
X114072518Y-80487688D01*
X113952820Y-80523998D01*
X113842506Y-80582963D01*
X113745815Y-80662315D01*
X113666463Y-80759006D01*
X113607498Y-80869320D01*
X113571188Y-80989018D01*
X113558928Y-81113500D01*
X108646401Y-81113500D01*
X108442201Y-80620521D01*
X108099114Y-80107054D01*
X107662446Y-79670386D01*
X107148979Y-79327299D01*
X106578446Y-79090976D01*
X105972771Y-78970500D01*
X105355229Y-78970500D01*
X104749554Y-79090976D01*
X104179021Y-79327299D01*
X103665554Y-79670386D01*
X103228886Y-80107054D01*
X102885799Y-80620521D01*
X102649476Y-81191054D01*
X102529000Y-81796729D01*
X100971873Y-81796729D01*
X100965160Y-76453903D01*
X183578660Y-76390597D01*
X183641840Y-126619195D01*
G37*
%TD.AperFunction*%
%TD*%
M02*
