%TF.GenerationSoftware,KiCad,Pcbnew,(5.1.8)-1*%
%TF.CreationDate,2021-08-28T19:56:38+01:00*%
%TF.ProjectId,OSC21,4f534332-312e-46b6-9963-61645f706362,rev?*%
%TF.SameCoordinates,Original*%
%TF.FileFunction,Copper,L1,Top*%
%TF.FilePolarity,Positive*%
%FSLAX46Y46*%
G04 Gerber Fmt 4.6, Leading zero omitted, Abs format (unit mm)*
G04 Created by KiCad (PCBNEW (5.1.8)-1) date 2021-08-28 19:56:38*
%MOMM*%
%LPD*%
G01*
G04 APERTURE LIST*
%TA.AperFunction,ComponentPad*%
%ADD10C,5.000000*%
%TD*%
%TA.AperFunction,SMDPad,CuDef*%
%ADD11R,1.050000X1.500000*%
%TD*%
%TA.AperFunction,SMDPad,CuDef*%
%ADD12R,2.400000X1.500000*%
%TD*%
%TA.AperFunction,ComponentPad*%
%ADD13C,1.500000*%
%TD*%
%TA.AperFunction,SMDPad,CuDef*%
%ADD14R,1.500000X2.000000*%
%TD*%
%TA.AperFunction,SMDPad,CuDef*%
%ADD15R,3.800000X2.000000*%
%TD*%
%TA.AperFunction,SMDPad,CuDef*%
%ADD16R,0.400000X1.100000*%
%TD*%
%TA.AperFunction,SMDPad,CuDef*%
%ADD17R,10.800000X9.400000*%
%TD*%
%TA.AperFunction,SMDPad,CuDef*%
%ADD18R,1.100000X4.600000*%
%TD*%
%TA.AperFunction,SMDPad,CuDef*%
%ADD19R,1.600000X0.550000*%
%TD*%
%TA.AperFunction,SMDPad,CuDef*%
%ADD20R,0.550000X1.600000*%
%TD*%
%TA.AperFunction,ComponentPad*%
%ADD21C,2.000000*%
%TD*%
%TA.AperFunction,SMDPad,CuDef*%
%ADD22C,0.100000*%
%TD*%
%TA.AperFunction,SMDPad,CuDef*%
%ADD23R,1.300000X0.900000*%
%TD*%
%TA.AperFunction,ComponentPad*%
%ADD24O,2.000000X1.700000*%
%TD*%
%TA.AperFunction,ComponentPad*%
%ADD25C,2.600000*%
%TD*%
%TA.AperFunction,ComponentPad*%
%ADD26R,2.600000X2.600000*%
%TD*%
%TA.AperFunction,ComponentPad*%
%ADD27O,1.700000X1.950000*%
%TD*%
%TA.AperFunction,ComponentPad*%
%ADD28O,1.950000X1.700000*%
%TD*%
%TA.AperFunction,ComponentPad*%
%ADD29O,1.350000X1.350000*%
%TD*%
%TA.AperFunction,ComponentPad*%
%ADD30R,1.350000X1.350000*%
%TD*%
%TA.AperFunction,ComponentPad*%
%ADD31C,3.000000*%
%TD*%
%TA.AperFunction,ComponentPad*%
%ADD32R,3.000000X3.000000*%
%TD*%
%TA.AperFunction,SMDPad,CuDef*%
%ADD33R,1.200000X0.900000*%
%TD*%
%TA.AperFunction,SMDPad,CuDef*%
%ADD34R,0.900000X1.200000*%
%TD*%
%TA.AperFunction,ViaPad*%
%ADD35C,0.800000*%
%TD*%
%TA.AperFunction,Conductor*%
%ADD36C,0.350000*%
%TD*%
%TA.AperFunction,Conductor*%
%ADD37C,0.700000*%
%TD*%
%TA.AperFunction,Conductor*%
%ADD38C,0.254000*%
%TD*%
%TA.AperFunction,Conductor*%
%ADD39C,0.100000*%
%TD*%
G04 APERTURE END LIST*
D10*
%TO.P,H4,1*%
%TO.N,N/C*%
X176149000Y-119951500D03*
%TD*%
%TO.P,H3,1*%
%TO.N,N/C*%
X175260000Y-81597500D03*
%TD*%
%TO.P,H2,1*%
%TO.N,N/C*%
X105918000Y-120078500D03*
%TD*%
%TO.P,H1,1*%
%TO.N,N/C*%
X105664000Y-82105500D03*
%TD*%
D11*
%TO.P,D1,2*%
%TO.N,Net-(D1-Pad2)*%
X154941000Y-92519500D03*
D12*
%TO.P,D1,1*%
%TO.N,GND*%
X152566000Y-92519500D03*
%TD*%
D13*
%TO.P,Y1,2*%
%TO.N,XTAL2*%
X142802000Y-115252500D03*
%TO.P,Y1,1*%
%TO.N,XTAL1*%
X137922000Y-115252500D03*
%TD*%
D14*
%TO.P,U4,1*%
%TO.N,Net-(C10-Pad2)*%
X116727000Y-116039500D03*
%TO.P,U4,3*%
%TO.N,+5V*%
X112127000Y-116039500D03*
%TO.P,U4,2*%
%TO.N,+3V3*%
X114427000Y-116039500D03*
D15*
X114427000Y-122339500D03*
%TD*%
D16*
%TO.P,U3,8*%
%TO.N,TX*%
X127467000Y-108385500D03*
%TO.P,U3,7*%
%TO.N,+5V*%
X126817000Y-108385500D03*
%TO.P,U3,6*%
%TO.N,Net-(R6-Pad1)*%
X126167000Y-108385500D03*
%TO.P,U3,5*%
%TO.N,TX_Rasp*%
X125517000Y-108385500D03*
%TO.P,U3,4*%
%TO.N,RX_Rasp*%
X125517000Y-104085500D03*
%TO.P,U3,3*%
%TO.N,+3V3*%
X126167000Y-104085500D03*
%TO.P,U3,2*%
%TO.N,GND*%
X126817000Y-104085500D03*
%TO.P,U3,1*%
%TO.N,RX*%
X127467000Y-104085500D03*
%TD*%
D17*
%TO.P,U2,3*%
%TO.N,GND*%
X136525000Y-83683500D03*
D18*
%TO.P,U2,5*%
X139925000Y-92833500D03*
%TO.P,U2,4*%
%TO.N,Net-(C6-Pad1)*%
X138225000Y-92833500D03*
%TO.P,U2,3*%
%TO.N,GND*%
X136525000Y-92833500D03*
%TO.P,U2,2*%
%TO.N,Net-(D5-Pad1)*%
X134825000Y-92833500D03*
%TO.P,U2,1*%
%TO.N,+12V*%
X133125000Y-92833500D03*
%TD*%
D19*
%TO.P,U1,32*%
%TO.N,Net-(U1-Pad32)*%
X131005000Y-106749500D03*
%TO.P,U1,31*%
%TO.N,TX*%
X131005000Y-105949500D03*
%TO.P,U1,30*%
%TO.N,RX*%
X131005000Y-105149500D03*
%TO.P,U1,29*%
%TO.N,RST*%
X131005000Y-104349500D03*
%TO.P,U1,28*%
%TO.N,Net-(U1-Pad28)*%
X131005000Y-103549500D03*
%TO.P,U1,27*%
%TO.N,Net-(U1-Pad27)*%
X131005000Y-102749500D03*
%TO.P,U1,26*%
%TO.N,Net-(U1-Pad26)*%
X131005000Y-101949500D03*
%TO.P,U1,25*%
%TO.N,Net-(U1-Pad25)*%
X131005000Y-101149500D03*
D20*
%TO.P,U1,24*%
%TO.N,IR_Sen*%
X132455000Y-99699500D03*
%TO.P,U1,23*%
%TO.N,Net-(U1-Pad23)*%
X133255000Y-99699500D03*
%TO.P,U1,22*%
%TO.N,Net-(U1-Pad22)*%
X134055000Y-99699500D03*
%TO.P,U1,21*%
%TO.N,GND*%
X134855000Y-99699500D03*
%TO.P,U1,20*%
%TO.N,Net-(U1-Pad20)*%
X135655000Y-99699500D03*
%TO.P,U1,19*%
%TO.N,Net-(U1-Pad19)*%
X136455000Y-99699500D03*
%TO.P,U1,18*%
%TO.N,+5V*%
X137255000Y-99699500D03*
%TO.P,U1,17*%
%TO.N,SCK*%
X138055000Y-99699500D03*
D19*
%TO.P,U1,16*%
%TO.N,MISO*%
X139505000Y-101149500D03*
%TO.P,U1,15*%
%TO.N,MOSI*%
X139505000Y-101949500D03*
%TO.P,U1,14*%
%TO.N,Net-(U1-Pad14)*%
X139505000Y-102749500D03*
%TO.P,U1,13*%
%TO.N,Servo*%
X139505000Y-103549500D03*
%TO.P,U1,12*%
%TO.N,Net-(U1-Pad12)*%
X139505000Y-104349500D03*
%TO.P,U1,11*%
%TO.N,Net-(U1-Pad11)*%
X139505000Y-105149500D03*
%TO.P,U1,10*%
%TO.N,PB1*%
X139505000Y-105949500D03*
%TO.P,U1,9*%
%TO.N,Net-(U1-Pad9)*%
X139505000Y-106749500D03*
D20*
%TO.P,U1,8*%
%TO.N,XTAL2*%
X138055000Y-108199500D03*
%TO.P,U1,7*%
%TO.N,XTAL1*%
X137255000Y-108199500D03*
%TO.P,U1,6*%
%TO.N,+5V*%
X136455000Y-108199500D03*
%TO.P,U1,5*%
%TO.N,GND*%
X135655000Y-108199500D03*
%TO.P,U1,4*%
%TO.N,+5V*%
X134855000Y-108199500D03*
%TO.P,U1,3*%
%TO.N,GND*%
X134055000Y-108199500D03*
%TO.P,U1,2*%
%TO.N,Net-(U1-Pad2)*%
X133255000Y-108199500D03*
%TO.P,U1,1*%
%TO.N,Net-(U1-Pad1)*%
X132455000Y-108199500D03*
%TD*%
D21*
%TO.P,SW1,1*%
%TO.N,GND*%
X126088000Y-122364500D03*
%TO.P,SW1,2*%
%TO.N,RST*%
X126088000Y-117864500D03*
%TO.P,SW1,1*%
%TO.N,GND*%
X132588000Y-122364500D03*
%TO.P,SW1,2*%
%TO.N,RST*%
X132588000Y-117864500D03*
%TD*%
%TO.P,R7,2*%
%TO.N,+5V*%
%TA.AperFunction,SMDPad,CuDef*%
G36*
G01*
X154930001Y-86920500D02*
X153679999Y-86920500D01*
G75*
G02*
X153430000Y-86670501I0J249999D01*
G01*
X153430000Y-86045499D01*
G75*
G02*
X153679999Y-85795500I249999J0D01*
G01*
X154930001Y-85795500D01*
G75*
G02*
X155180000Y-86045499I0J-249999D01*
G01*
X155180000Y-86670501D01*
G75*
G02*
X154930001Y-86920500I-249999J0D01*
G01*
G37*
%TD.AperFunction*%
%TO.P,R7,1*%
%TO.N,Net-(D1-Pad2)*%
%TA.AperFunction,SMDPad,CuDef*%
G36*
G01*
X154930001Y-89845500D02*
X153679999Y-89845500D01*
G75*
G02*
X153430000Y-89595501I0J249999D01*
G01*
X153430000Y-88970499D01*
G75*
G02*
X153679999Y-88720500I249999J0D01*
G01*
X154930001Y-88720500D01*
G75*
G02*
X155180000Y-88970499I0J-249999D01*
G01*
X155180000Y-89595501D01*
G75*
G02*
X154930001Y-89845500I-249999J0D01*
G01*
G37*
%TD.AperFunction*%
%TD*%
%TO.P,R6,2*%
%TO.N,GND*%
%TA.AperFunction,SMDPad,CuDef*%
G36*
G01*
X121783001Y-105208500D02*
X120532999Y-105208500D01*
G75*
G02*
X120283000Y-104958501I0J249999D01*
G01*
X120283000Y-104333499D01*
G75*
G02*
X120532999Y-104083500I249999J0D01*
G01*
X121783001Y-104083500D01*
G75*
G02*
X122033000Y-104333499I0J-249999D01*
G01*
X122033000Y-104958501D01*
G75*
G02*
X121783001Y-105208500I-249999J0D01*
G01*
G37*
%TD.AperFunction*%
%TO.P,R6,1*%
%TO.N,Net-(R6-Pad1)*%
%TA.AperFunction,SMDPad,CuDef*%
G36*
G01*
X121783001Y-108133500D02*
X120532999Y-108133500D01*
G75*
G02*
X120283000Y-107883501I0J249999D01*
G01*
X120283000Y-107258499D01*
G75*
G02*
X120532999Y-107008500I249999J0D01*
G01*
X121783001Y-107008500D01*
G75*
G02*
X122033000Y-107258499I0J-249999D01*
G01*
X122033000Y-107883501D01*
G75*
G02*
X121783001Y-108133500I-249999J0D01*
G01*
G37*
%TD.AperFunction*%
%TD*%
%TO.P,R5,2*%
%TO.N,Net-(C6-Pad1)*%
%TA.AperFunction,SMDPad,CuDef*%
G36*
G01*
X147904500Y-82730501D02*
X147904500Y-81480499D01*
G75*
G02*
X148154499Y-81230500I249999J0D01*
G01*
X148779501Y-81230500D01*
G75*
G02*
X149029500Y-81480499I0J-249999D01*
G01*
X149029500Y-82730501D01*
G75*
G02*
X148779501Y-82980500I-249999J0D01*
G01*
X148154499Y-82980500D01*
G75*
G02*
X147904500Y-82730501I0J249999D01*
G01*
G37*
%TD.AperFunction*%
%TO.P,R5,1*%
%TO.N,GND*%
%TA.AperFunction,SMDPad,CuDef*%
G36*
G01*
X144979500Y-82730501D02*
X144979500Y-81480499D01*
G75*
G02*
X145229499Y-81230500I249999J0D01*
G01*
X145854501Y-81230500D01*
G75*
G02*
X146104500Y-81480499I0J-249999D01*
G01*
X146104500Y-82730501D01*
G75*
G02*
X145854501Y-82980500I-249999J0D01*
G01*
X145229499Y-82980500D01*
G75*
G02*
X144979500Y-82730501I0J249999D01*
G01*
G37*
%TD.AperFunction*%
%TD*%
%TO.P,R4,2*%
%TO.N,+5V*%
%TA.AperFunction,SMDPad,CuDef*%
G36*
G01*
X143900999Y-86561500D02*
X145151001Y-86561500D01*
G75*
G02*
X145401000Y-86811499I0J-249999D01*
G01*
X145401000Y-87436501D01*
G75*
G02*
X145151001Y-87686500I-249999J0D01*
G01*
X143900999Y-87686500D01*
G75*
G02*
X143651000Y-87436501I0J249999D01*
G01*
X143651000Y-86811499D01*
G75*
G02*
X143900999Y-86561500I249999J0D01*
G01*
G37*
%TD.AperFunction*%
%TO.P,R4,1*%
%TO.N,Net-(C6-Pad1)*%
%TA.AperFunction,SMDPad,CuDef*%
G36*
G01*
X143900999Y-83636500D02*
X145151001Y-83636500D01*
G75*
G02*
X145401000Y-83886499I0J-249999D01*
G01*
X145401000Y-84511501D01*
G75*
G02*
X145151001Y-84761500I-249999J0D01*
G01*
X143900999Y-84761500D01*
G75*
G02*
X143651000Y-84511501I0J249999D01*
G01*
X143651000Y-83886499D01*
G75*
G02*
X143900999Y-83636500I249999J0D01*
G01*
G37*
%TD.AperFunction*%
%TD*%
%TO.P,R3,2*%
%TO.N,PB1*%
%TA.AperFunction,SMDPad,CuDef*%
G36*
G01*
X143880000Y-106880499D02*
X143880000Y-108130501D01*
G75*
G02*
X143630001Y-108380500I-249999J0D01*
G01*
X143004999Y-108380500D01*
G75*
G02*
X142755000Y-108130501I0J249999D01*
G01*
X142755000Y-106880499D01*
G75*
G02*
X143004999Y-106630500I249999J0D01*
G01*
X143630001Y-106630500D01*
G75*
G02*
X143880000Y-106880499I0J-249999D01*
G01*
G37*
%TD.AperFunction*%
%TO.P,R3,1*%
%TO.N,Net-(Q2-Pad1)*%
%TA.AperFunction,SMDPad,CuDef*%
G36*
G01*
X146805000Y-106880499D02*
X146805000Y-108130501D01*
G75*
G02*
X146555001Y-108380500I-249999J0D01*
G01*
X145929999Y-108380500D01*
G75*
G02*
X145680000Y-108130501I0J249999D01*
G01*
X145680000Y-106880499D01*
G75*
G02*
X145929999Y-106630500I249999J0D01*
G01*
X146555001Y-106630500D01*
G75*
G02*
X146805000Y-106880499I0J-249999D01*
G01*
G37*
%TD.AperFunction*%
%TD*%
%TO.P,R1,2*%
%TO.N,RST*%
%TA.AperFunction,SMDPad,CuDef*%
G36*
G01*
X129043000Y-112956501D02*
X129043000Y-111706499D01*
G75*
G02*
X129292999Y-111456500I249999J0D01*
G01*
X129918001Y-111456500D01*
G75*
G02*
X130168000Y-111706499I0J-249999D01*
G01*
X130168000Y-112956501D01*
G75*
G02*
X129918001Y-113206500I-249999J0D01*
G01*
X129292999Y-113206500D01*
G75*
G02*
X129043000Y-112956501I0J249999D01*
G01*
G37*
%TD.AperFunction*%
%TO.P,R1,1*%
%TO.N,+5V*%
%TA.AperFunction,SMDPad,CuDef*%
G36*
G01*
X126118000Y-112956501D02*
X126118000Y-111706499D01*
G75*
G02*
X126367999Y-111456500I249999J0D01*
G01*
X126993001Y-111456500D01*
G75*
G02*
X127243000Y-111706499I0J-249999D01*
G01*
X127243000Y-112956501D01*
G75*
G02*
X126993001Y-113206500I-249999J0D01*
G01*
X126367999Y-113206500D01*
G75*
G02*
X126118000Y-112956501I0J249999D01*
G01*
G37*
%TD.AperFunction*%
%TD*%
D17*
%TO.P,Q2,2*%
%TO.N,Net-(D4-Pad2)*%
X154305000Y-118246500D03*
D18*
%TO.P,Q2,3*%
%TO.N,GND*%
X151765000Y-109096500D03*
%TO.P,Q2,1*%
%TO.N,Net-(Q2-Pad1)*%
X156845000Y-109096500D03*
%TD*%
%TA.AperFunction,SMDPad,CuDef*%
D22*
%TO.P,Q1,2*%
%TO.N,GND*%
G36*
X123430000Y-81366000D02*
G01*
X126555000Y-81366000D01*
X126555000Y-81782500D01*
X128030000Y-81782500D01*
X128030000Y-82682500D01*
X126555000Y-82682500D01*
X126555000Y-83099000D01*
X123430000Y-83099000D01*
X123430000Y-81366000D01*
G37*
%TD.AperFunction*%
D23*
%TO.P,Q1,3*%
%TO.N,Net-(J1-Pad2)*%
X127380000Y-80732500D03*
%TO.P,Q1,1*%
%TO.N,+12V*%
X127380000Y-83732500D03*
%TD*%
%TO.P,L1,2*%
%TO.N,+5V*%
%TA.AperFunction,SMDPad,CuDef*%
G36*
G01*
X126797000Y-99690501D02*
X126797000Y-97540499D01*
G75*
G02*
X127046999Y-97290500I249999J0D01*
G01*
X127897001Y-97290500D01*
G75*
G02*
X128147000Y-97540499I0J-249999D01*
G01*
X128147000Y-99690501D01*
G75*
G02*
X127897001Y-99940500I-249999J0D01*
G01*
X127046999Y-99940500D01*
G75*
G02*
X126797000Y-99690501I0J249999D01*
G01*
G37*
%TD.AperFunction*%
%TO.P,L1,1*%
%TO.N,Net-(D5-Pad1)*%
%TA.AperFunction,SMDPad,CuDef*%
G36*
G01*
X122297000Y-99690501D02*
X122297000Y-97540499D01*
G75*
G02*
X122546999Y-97290500I249999J0D01*
G01*
X123397001Y-97290500D01*
G75*
G02*
X123647000Y-97540499I0J-249999D01*
G01*
X123647000Y-99690501D01*
G75*
G02*
X123397001Y-99940500I-249999J0D01*
G01*
X122546999Y-99940500D01*
G75*
G02*
X122297000Y-99690501I0J249999D01*
G01*
G37*
%TD.AperFunction*%
%TD*%
D24*
%TO.P,J7,2*%
%TO.N,+5V*%
X169799000Y-85621500D03*
%TO.P,J7,1*%
%TO.N,GND*%
%TA.AperFunction,ComponentPad*%
G36*
G01*
X169049000Y-82271500D02*
X170549000Y-82271500D01*
G75*
G02*
X170799000Y-82521500I0J-250000D01*
G01*
X170799000Y-83721500D01*
G75*
G02*
X170549000Y-83971500I-250000J0D01*
G01*
X169049000Y-83971500D01*
G75*
G02*
X168799000Y-83721500I0J250000D01*
G01*
X168799000Y-82521500D01*
G75*
G02*
X169049000Y-82271500I250000J0D01*
G01*
G37*
%TD.AperFunction*%
%TD*%
D25*
%TO.P,J6,3*%
%TO.N,+5V*%
X167005000Y-92646500D03*
%TO.P,J6,2*%
%TO.N,Servo*%
X167005000Y-97726500D03*
D26*
%TO.P,J6,1*%
%TO.N,GND*%
X167005000Y-102806500D03*
%TD*%
D25*
%TO.P,J5,2*%
%TO.N,+12V*%
X169084000Y-118173500D03*
D26*
%TO.P,J5,1*%
%TO.N,Net-(D4-Pad2)*%
X164084000Y-118173500D03*
%TD*%
D27*
%TO.P,J4,3*%
%TO.N,IR_Sen*%
X158162000Y-80835500D03*
%TO.P,J4,2*%
%TO.N,GND*%
X155662000Y-80835500D03*
%TO.P,J4,1*%
%TO.N,+5V*%
%TA.AperFunction,ComponentPad*%
G36*
G01*
X152312000Y-81560500D02*
X152312000Y-80110500D01*
G75*
G02*
X152562000Y-79860500I250000J0D01*
G01*
X153762000Y-79860500D01*
G75*
G02*
X154012000Y-80110500I0J-250000D01*
G01*
X154012000Y-81560500D01*
G75*
G02*
X153762000Y-81810500I-250000J0D01*
G01*
X152562000Y-81810500D01*
G75*
G02*
X152312000Y-81560500I0J250000D01*
G01*
G37*
%TD.AperFunction*%
%TD*%
D28*
%TO.P,J3,4*%
%TO.N,GND*%
X116205000Y-102926500D03*
%TO.P,J3,3*%
%TO.N,RX_Rasp*%
X116205000Y-105426500D03*
%TO.P,J3,2*%
%TO.N,TX_Rasp*%
X116205000Y-107926500D03*
%TO.P,J3,1*%
%TO.N,+5V*%
%TA.AperFunction,ComponentPad*%
G36*
G01*
X116930000Y-111276500D02*
X115480000Y-111276500D01*
G75*
G02*
X115230000Y-111026500I0J250000D01*
G01*
X115230000Y-109826500D01*
G75*
G02*
X115480000Y-109576500I250000J0D01*
G01*
X116930000Y-109576500D01*
G75*
G02*
X117180000Y-109826500I0J-250000D01*
G01*
X117180000Y-111026500D01*
G75*
G02*
X116930000Y-111276500I-250000J0D01*
G01*
G37*
%TD.AperFunction*%
%TD*%
D29*
%TO.P,J2,6*%
%TO.N,GND*%
X154146000Y-101472500D03*
%TO.P,J2,5*%
%TO.N,RST*%
X152146000Y-101472500D03*
%TO.P,J2,4*%
%TO.N,MOSI*%
X154146000Y-99472500D03*
%TO.P,J2,3*%
%TO.N,SCK*%
X152146000Y-99472500D03*
%TO.P,J2,2*%
%TO.N,+5V*%
X154146000Y-97472500D03*
D30*
%TO.P,J2,1*%
%TO.N,MISO*%
X152146000Y-97472500D03*
%TD*%
D31*
%TO.P,J1,2*%
%TO.N,Net-(J1-Pad2)*%
X115697000Y-87613500D03*
D32*
%TO.P,J1,1*%
%TO.N,GND*%
X115697000Y-82613500D03*
%TD*%
D33*
%TO.P,D5,2*%
%TO.N,GND*%
X119634000Y-97090500D03*
%TO.P,D5,1*%
%TO.N,Net-(D5-Pad1)*%
X119634000Y-93790500D03*
%TD*%
D34*
%TO.P,D4,2*%
%TO.N,Net-(D4-Pad2)*%
X161292000Y-109410500D03*
%TO.P,D4,1*%
%TO.N,+12V*%
X164592000Y-109410500D03*
%TD*%
%TO.P,D3,2*%
%TO.N,GND*%
X127634000Y-88074500D03*
%TO.P,D3,1*%
%TO.N,+12V*%
X124334000Y-88074500D03*
%TD*%
%TO.P,C10,2*%
%TO.N,Net-(C10-Pad2)*%
%TA.AperFunction,SMDPad,CuDef*%
G36*
G01*
X121116000Y-114101500D02*
X122216000Y-114101500D01*
G75*
G02*
X122466000Y-114351500I0J-250000D01*
G01*
X122466000Y-116451500D01*
G75*
G02*
X122216000Y-116701500I-250000J0D01*
G01*
X121116000Y-116701500D01*
G75*
G02*
X120866000Y-116451500I0J250000D01*
G01*
X120866000Y-114351500D01*
G75*
G02*
X121116000Y-114101500I250000J0D01*
G01*
G37*
%TD.AperFunction*%
%TO.P,C10,1*%
%TO.N,+3V3*%
%TA.AperFunction,SMDPad,CuDef*%
G36*
G01*
X121116000Y-110501500D02*
X122216000Y-110501500D01*
G75*
G02*
X122466000Y-110751500I0J-250000D01*
G01*
X122466000Y-112851500D01*
G75*
G02*
X122216000Y-113101500I-250000J0D01*
G01*
X121116000Y-113101500D01*
G75*
G02*
X120866000Y-112851500I0J250000D01*
G01*
X120866000Y-110751500D01*
G75*
G02*
X121116000Y-110501500I250000J0D01*
G01*
G37*
%TD.AperFunction*%
%TD*%
%TO.P,C9,2*%
%TO.N,Net-(C10-Pad2)*%
%TA.AperFunction,SMDPad,CuDef*%
G36*
G01*
X121789000Y-118864500D02*
X121289000Y-118864500D01*
G75*
G02*
X121064000Y-118639500I0J225000D01*
G01*
X121064000Y-118189500D01*
G75*
G02*
X121289000Y-117964500I225000J0D01*
G01*
X121789000Y-117964500D01*
G75*
G02*
X122014000Y-118189500I0J-225000D01*
G01*
X122014000Y-118639500D01*
G75*
G02*
X121789000Y-118864500I-225000J0D01*
G01*
G37*
%TD.AperFunction*%
%TO.P,C9,1*%
%TO.N,+5V*%
%TA.AperFunction,SMDPad,CuDef*%
G36*
G01*
X121789000Y-120414500D02*
X121289000Y-120414500D01*
G75*
G02*
X121064000Y-120189500I0J225000D01*
G01*
X121064000Y-119739500D01*
G75*
G02*
X121289000Y-119514500I225000J0D01*
G01*
X121789000Y-119514500D01*
G75*
G02*
X122014000Y-119739500I0J-225000D01*
G01*
X122014000Y-120189500D01*
G75*
G02*
X121789000Y-120414500I-225000J0D01*
G01*
G37*
%TD.AperFunction*%
%TD*%
%TO.P,C8,2*%
%TO.N,+5V*%
%TA.AperFunction,SMDPad,CuDef*%
G36*
G01*
X123829000Y-93974500D02*
X124329000Y-93974500D01*
G75*
G02*
X124554000Y-94199500I0J-225000D01*
G01*
X124554000Y-94649500D01*
G75*
G02*
X124329000Y-94874500I-225000J0D01*
G01*
X123829000Y-94874500D01*
G75*
G02*
X123604000Y-94649500I0J225000D01*
G01*
X123604000Y-94199500D01*
G75*
G02*
X123829000Y-93974500I225000J0D01*
G01*
G37*
%TD.AperFunction*%
%TO.P,C8,1*%
%TO.N,GND*%
%TA.AperFunction,SMDPad,CuDef*%
G36*
G01*
X123829000Y-92424500D02*
X124329000Y-92424500D01*
G75*
G02*
X124554000Y-92649500I0J-225000D01*
G01*
X124554000Y-93099500D01*
G75*
G02*
X124329000Y-93324500I-225000J0D01*
G01*
X123829000Y-93324500D01*
G75*
G02*
X123604000Y-93099500I0J225000D01*
G01*
X123604000Y-92649500D01*
G75*
G02*
X123829000Y-92424500I225000J0D01*
G01*
G37*
%TD.AperFunction*%
%TD*%
%TO.P,C7,2*%
%TO.N,GND*%
%TA.AperFunction,SMDPad,CuDef*%
G36*
G01*
X121115000Y-122741500D02*
X121115000Y-122241500D01*
G75*
G02*
X121340000Y-122016500I225000J0D01*
G01*
X121790000Y-122016500D01*
G75*
G02*
X122015000Y-122241500I0J-225000D01*
G01*
X122015000Y-122741500D01*
G75*
G02*
X121790000Y-122966500I-225000J0D01*
G01*
X121340000Y-122966500D01*
G75*
G02*
X121115000Y-122741500I0J225000D01*
G01*
G37*
%TD.AperFunction*%
%TO.P,C7,1*%
%TO.N,+3V3*%
%TA.AperFunction,SMDPad,CuDef*%
G36*
G01*
X119565000Y-122741500D02*
X119565000Y-122241500D01*
G75*
G02*
X119790000Y-122016500I225000J0D01*
G01*
X120240000Y-122016500D01*
G75*
G02*
X120465000Y-122241500I0J-225000D01*
G01*
X120465000Y-122741500D01*
G75*
G02*
X120240000Y-122966500I-225000J0D01*
G01*
X119790000Y-122966500D01*
G75*
G02*
X119565000Y-122741500I0J225000D01*
G01*
G37*
%TD.AperFunction*%
%TD*%
%TO.P,C6,2*%
%TO.N,+5V*%
%TA.AperFunction,SMDPad,CuDef*%
G36*
G01*
X148721000Y-86748500D02*
X149221000Y-86748500D01*
G75*
G02*
X149446000Y-86973500I0J-225000D01*
G01*
X149446000Y-87423500D01*
G75*
G02*
X149221000Y-87648500I-225000J0D01*
G01*
X148721000Y-87648500D01*
G75*
G02*
X148496000Y-87423500I0J225000D01*
G01*
X148496000Y-86973500D01*
G75*
G02*
X148721000Y-86748500I225000J0D01*
G01*
G37*
%TD.AperFunction*%
%TO.P,C6,1*%
%TO.N,Net-(C6-Pad1)*%
%TA.AperFunction,SMDPad,CuDef*%
G36*
G01*
X148721000Y-85198500D02*
X149221000Y-85198500D01*
G75*
G02*
X149446000Y-85423500I0J-225000D01*
G01*
X149446000Y-85873500D01*
G75*
G02*
X149221000Y-86098500I-225000J0D01*
G01*
X148721000Y-86098500D01*
G75*
G02*
X148496000Y-85873500I0J225000D01*
G01*
X148496000Y-85423500D01*
G75*
G02*
X148721000Y-85198500I225000J0D01*
G01*
G37*
%TD.AperFunction*%
%TD*%
%TO.P,C5,2*%
%TO.N,GND*%
%TA.AperFunction,SMDPad,CuDef*%
G36*
G01*
X146135000Y-93527500D02*
X147235000Y-93527500D01*
G75*
G02*
X147485000Y-93777500I0J-250000D01*
G01*
X147485000Y-95877500D01*
G75*
G02*
X147235000Y-96127500I-250000J0D01*
G01*
X146135000Y-96127500D01*
G75*
G02*
X145885000Y-95877500I0J250000D01*
G01*
X145885000Y-93777500D01*
G75*
G02*
X146135000Y-93527500I250000J0D01*
G01*
G37*
%TD.AperFunction*%
%TO.P,C5,1*%
%TO.N,+5V*%
%TA.AperFunction,SMDPad,CuDef*%
G36*
G01*
X146135000Y-89927500D02*
X147235000Y-89927500D01*
G75*
G02*
X147485000Y-90177500I0J-250000D01*
G01*
X147485000Y-92277500D01*
G75*
G02*
X147235000Y-92527500I-250000J0D01*
G01*
X146135000Y-92527500D01*
G75*
G02*
X145885000Y-92277500I0J250000D01*
G01*
X145885000Y-90177500D01*
G75*
G02*
X146135000Y-89927500I250000J0D01*
G01*
G37*
%TD.AperFunction*%
%TD*%
%TO.P,C4,2*%
%TO.N,GND*%
%TA.AperFunction,SMDPad,CuDef*%
G36*
G01*
X112276000Y-94382500D02*
X112276000Y-95482500D01*
G75*
G02*
X112026000Y-95732500I-250000J0D01*
G01*
X109926000Y-95732500D01*
G75*
G02*
X109676000Y-95482500I0J250000D01*
G01*
X109676000Y-94382500D01*
G75*
G02*
X109926000Y-94132500I250000J0D01*
G01*
X112026000Y-94132500D01*
G75*
G02*
X112276000Y-94382500I0J-250000D01*
G01*
G37*
%TD.AperFunction*%
%TO.P,C4,1*%
%TO.N,+12V*%
%TA.AperFunction,SMDPad,CuDef*%
G36*
G01*
X115876000Y-94382500D02*
X115876000Y-95482500D01*
G75*
G02*
X115626000Y-95732500I-250000J0D01*
G01*
X113526000Y-95732500D01*
G75*
G02*
X113276000Y-95482500I0J250000D01*
G01*
X113276000Y-94382500D01*
G75*
G02*
X113526000Y-94132500I250000J0D01*
G01*
X115626000Y-94132500D01*
G75*
G02*
X115876000Y-94382500I0J-250000D01*
G01*
G37*
%TD.AperFunction*%
%TD*%
%TO.P,C3,2*%
%TO.N,+5V*%
%TA.AperFunction,SMDPad,CuDef*%
G36*
G01*
X127258000Y-93987500D02*
X127758000Y-93987500D01*
G75*
G02*
X127983000Y-94212500I0J-225000D01*
G01*
X127983000Y-94662500D01*
G75*
G02*
X127758000Y-94887500I-225000J0D01*
G01*
X127258000Y-94887500D01*
G75*
G02*
X127033000Y-94662500I0J225000D01*
G01*
X127033000Y-94212500D01*
G75*
G02*
X127258000Y-93987500I225000J0D01*
G01*
G37*
%TD.AperFunction*%
%TO.P,C3,1*%
%TO.N,GND*%
%TA.AperFunction,SMDPad,CuDef*%
G36*
G01*
X127258000Y-92437500D02*
X127758000Y-92437500D01*
G75*
G02*
X127983000Y-92662500I0J-225000D01*
G01*
X127983000Y-93112500D01*
G75*
G02*
X127758000Y-93337500I-225000J0D01*
G01*
X127258000Y-93337500D01*
G75*
G02*
X127033000Y-93112500I0J225000D01*
G01*
X127033000Y-92662500D01*
G75*
G02*
X127258000Y-92437500I225000J0D01*
G01*
G37*
%TD.AperFunction*%
%TD*%
%TO.P,C2,2*%
%TO.N,GND*%
%TA.AperFunction,SMDPad,CuDef*%
G36*
G01*
X140660000Y-110803500D02*
X140660000Y-110303500D01*
G75*
G02*
X140885000Y-110078500I225000J0D01*
G01*
X141335000Y-110078500D01*
G75*
G02*
X141560000Y-110303500I0J-225000D01*
G01*
X141560000Y-110803500D01*
G75*
G02*
X141335000Y-111028500I-225000J0D01*
G01*
X140885000Y-111028500D01*
G75*
G02*
X140660000Y-110803500I0J225000D01*
G01*
G37*
%TD.AperFunction*%
%TO.P,C2,1*%
%TO.N,XTAL2*%
%TA.AperFunction,SMDPad,CuDef*%
G36*
G01*
X139110000Y-110803500D02*
X139110000Y-110303500D01*
G75*
G02*
X139335000Y-110078500I225000J0D01*
G01*
X139785000Y-110078500D01*
G75*
G02*
X140010000Y-110303500I0J-225000D01*
G01*
X140010000Y-110803500D01*
G75*
G02*
X139785000Y-111028500I-225000J0D01*
G01*
X139335000Y-111028500D01*
G75*
G02*
X139110000Y-110803500I0J225000D01*
G01*
G37*
%TD.AperFunction*%
%TD*%
%TO.P,C1,2*%
%TO.N,GND*%
%TA.AperFunction,SMDPad,CuDef*%
G36*
G01*
X135946000Y-110176500D02*
X135946000Y-110676500D01*
G75*
G02*
X135721000Y-110901500I-225000J0D01*
G01*
X135271000Y-110901500D01*
G75*
G02*
X135046000Y-110676500I0J225000D01*
G01*
X135046000Y-110176500D01*
G75*
G02*
X135271000Y-109951500I225000J0D01*
G01*
X135721000Y-109951500D01*
G75*
G02*
X135946000Y-110176500I0J-225000D01*
G01*
G37*
%TD.AperFunction*%
%TO.P,C1,1*%
%TO.N,XTAL1*%
%TA.AperFunction,SMDPad,CuDef*%
G36*
G01*
X137496000Y-110176500D02*
X137496000Y-110676500D01*
G75*
G02*
X137271000Y-110901500I-225000J0D01*
G01*
X136821000Y-110901500D01*
G75*
G02*
X136596000Y-110676500I0J225000D01*
G01*
X136596000Y-110176500D01*
G75*
G02*
X136821000Y-109951500I225000J0D01*
G01*
X137271000Y-109951500D01*
G75*
G02*
X137496000Y-110176500I0J-225000D01*
G01*
G37*
%TD.AperFunction*%
%TD*%
D35*
%TO.N,GND*%
X134302500Y-101981000D03*
X125984000Y-92583000D03*
X148209000Y-88519000D03*
X146685000Y-88519000D03*
%TO.N,+5V*%
X133351500Y-103249500D03*
X128333500Y-109855000D03*
%TO.N,+12V*%
X130683000Y-90741500D03*
%TO.N,+3V3*%
X124587000Y-110553500D03*
X125984000Y-105727500D03*
%TO.N,RST*%
X133585000Y-104349500D03*
%TO.N,SCK*%
X141156000Y-99699500D03*
%TO.N,IR_Sen*%
X132461000Y-97599500D03*
%TD*%
D36*
%TO.N,GND*%
X116205000Y-102926500D02*
X126485000Y-102926500D01*
X126817000Y-103258500D02*
X126817000Y-104085500D01*
X126485000Y-102926500D02*
X126817000Y-103258500D01*
X134855000Y-101428500D02*
X134302500Y-101981000D01*
X134855000Y-99699500D02*
X134855000Y-101428500D01*
X126288500Y-92887500D02*
X125984000Y-92583000D01*
X127508000Y-92887500D02*
X126288500Y-92887500D01*
X138103000Y-82105500D02*
X136525000Y-83683500D01*
X145542000Y-82105500D02*
X138103000Y-82105500D01*
X135655000Y-110267500D02*
X135496000Y-110426500D01*
X135655000Y-108199500D02*
X135655000Y-110267500D01*
X135046000Y-110426500D02*
X135496000Y-110426500D01*
X134055000Y-109435500D02*
X135046000Y-110426500D01*
X134055000Y-108199500D02*
X134055000Y-109435500D01*
%TO.N,XTAL1*%
X137255000Y-110217500D02*
X137046000Y-110426500D01*
X137255000Y-108199500D02*
X137255000Y-110217500D01*
X137046000Y-110426500D02*
X137046000Y-110947500D01*
X137922000Y-111823500D02*
X137922000Y-115252500D01*
X137046000Y-110947500D02*
X137922000Y-111823500D01*
%TO.N,XTAL2*%
X139560000Y-110553500D02*
X138684000Y-110553500D01*
X138055000Y-109924500D02*
X138055000Y-108199500D01*
X138684000Y-110553500D02*
X138055000Y-109924500D01*
X139560000Y-110553500D02*
X139560000Y-113461500D01*
X141351000Y-115252500D02*
X142802000Y-115252500D01*
X139560000Y-113461500D02*
X141351000Y-115252500D01*
D37*
%TO.N,+5V*%
X127495000Y-94424500D02*
X127508000Y-94437500D01*
X124079000Y-94424500D02*
X127495000Y-94424500D01*
X127508000Y-98579500D02*
X127472000Y-98615500D01*
X127508000Y-94437500D02*
X127508000Y-98579500D01*
X148896500Y-87124000D02*
X148971000Y-87198500D01*
X144526000Y-87124000D02*
X148896500Y-87124000D01*
X146685000Y-91227500D02*
X145647000Y-91227500D01*
X144526000Y-90106500D02*
X144526000Y-87124000D01*
X145647000Y-91227500D02*
X144526000Y-90106500D01*
X153464500Y-87198500D02*
X154305000Y-86358000D01*
X148971000Y-87198500D02*
X153464500Y-87198500D01*
X154305000Y-86358000D02*
X154305000Y-85153500D01*
X153162000Y-84010500D02*
X153162000Y-80835500D01*
X154305000Y-85153500D02*
X153162000Y-84010500D01*
X169799000Y-89852500D02*
X167005000Y-92646500D01*
X169799000Y-85621500D02*
X169799000Y-89852500D01*
X154146000Y-97472500D02*
X154146000Y-96107500D01*
X157607000Y-92646500D02*
X167005000Y-92646500D01*
X154146000Y-96107500D02*
X157607000Y-92646500D01*
X160716500Y-86358000D02*
X167005000Y-92646500D01*
X154305000Y-86358000D02*
X160716500Y-86358000D01*
D36*
X112127000Y-116039500D02*
X112127000Y-115266500D01*
X112127000Y-116039500D02*
X112127000Y-113996500D01*
X115697000Y-110426500D02*
X116205000Y-110426500D01*
X112127000Y-113996500D02*
X115697000Y-110426500D01*
X126680500Y-112331500D02*
X124079000Y-114933000D01*
X124079000Y-114933000D02*
X124079000Y-118808500D01*
X122923000Y-119964500D02*
X121539000Y-119964500D01*
X124079000Y-118808500D02*
X122923000Y-119964500D01*
X126817000Y-112195000D02*
X126680500Y-112331500D01*
X136455000Y-101649500D02*
X136455000Y-108199500D01*
X137255000Y-99699500D02*
X137255000Y-100849500D01*
X134855000Y-103249500D02*
X136610000Y-101494500D01*
X134855000Y-108199500D02*
X134855000Y-103249500D01*
X136610000Y-101494500D02*
X136455000Y-101649500D01*
X137255000Y-100849500D02*
X136610000Y-101494500D01*
X137255000Y-98549500D02*
X135529999Y-96824499D01*
X137255000Y-99699500D02*
X137255000Y-98549500D01*
X129921000Y-98615500D02*
X127472000Y-98615500D01*
X131712001Y-96824499D02*
X129921000Y-98615500D01*
X116205000Y-110426500D02*
X119634000Y-110426500D01*
X126620999Y-109778499D02*
X126817000Y-109974500D01*
X120282001Y-109778499D02*
X126620999Y-109778499D01*
X119634000Y-110426500D02*
X120282001Y-109778499D01*
X126817000Y-109974500D02*
X126817000Y-112195000D01*
X126817000Y-108385500D02*
X126817000Y-109974500D01*
X141088001Y-96824499D02*
X135077501Y-96824499D01*
X146685000Y-91227500D02*
X141088001Y-96824499D01*
X135077501Y-96824499D02*
X131712001Y-96824499D01*
X135529999Y-96824499D02*
X135077501Y-96824499D01*
X134855000Y-103249500D02*
X133351500Y-103249500D01*
X133351500Y-103249500D02*
X133351500Y-103249500D01*
X128256999Y-109778499D02*
X128333500Y-109855000D01*
X126620999Y-109778499D02*
X128256999Y-109778499D01*
D37*
%TO.N,+12V*%
X124334000Y-88074500D02*
X124334000Y-85025500D01*
X124334000Y-85025500D02*
X125710490Y-83649010D01*
X127296510Y-83649010D02*
X127380000Y-83732500D01*
X125710490Y-83649010D02*
X127296510Y-83649010D01*
X114576000Y-94932500D02*
X114576000Y-93894500D01*
X120396000Y-88074500D02*
X124334000Y-88074500D01*
X124334000Y-88074500D02*
X124334000Y-89472500D01*
X124334000Y-89472500D02*
X125603000Y-90741500D01*
X133125000Y-91659500D02*
X133125000Y-92833500D01*
X132207000Y-90741500D02*
X133125000Y-91659500D01*
X120396000Y-88074500D02*
X116840000Y-91630500D01*
X116840000Y-91630500D02*
X116840000Y-91630500D01*
X116840000Y-91630500D02*
X114576000Y-93894500D01*
D36*
X164592000Y-109410500D02*
X166497000Y-109410500D01*
X169084000Y-111997500D02*
X169084000Y-118173500D01*
X166497000Y-109410500D02*
X169084000Y-111997500D01*
D37*
X132207000Y-90741500D02*
X130683000Y-90741500D01*
X130683000Y-90741500D02*
X130683000Y-90741500D01*
X130683000Y-90741500D02*
X125603000Y-90741500D01*
%TO.N,Net-(C6-Pad1)*%
X138225000Y-90693498D02*
X139319998Y-89598500D01*
X138225000Y-92833500D02*
X138225000Y-90693498D01*
X141700002Y-89598500D02*
X143002000Y-88296502D01*
X139319998Y-89598500D02*
X141700002Y-89598500D01*
X143002000Y-85723000D02*
X144526000Y-84199000D01*
X143002000Y-88296502D02*
X143002000Y-85723000D01*
X144526000Y-84199000D02*
X147893500Y-84199000D01*
X148467000Y-83625500D02*
X148467000Y-82105500D01*
X147893500Y-84199000D02*
X148467000Y-83625500D01*
X148467000Y-85144500D02*
X148971000Y-85648500D01*
X148467000Y-82105500D02*
X148467000Y-85144500D01*
D36*
%TO.N,+3V3*%
X119863000Y-122339500D02*
X120015000Y-122491500D01*
X114427000Y-122339500D02*
X119863000Y-122339500D01*
X114427000Y-116039500D02*
X114427000Y-122339500D01*
X114427000Y-116039500D02*
X114427000Y-114363500D01*
X114427000Y-114363500D02*
X116713000Y-112077500D01*
X121390000Y-112077500D02*
X121666000Y-111801500D01*
X116713000Y-112077500D02*
X121390000Y-112077500D01*
X121666000Y-111801500D02*
X123339000Y-111801500D01*
X123339000Y-111801500D02*
X124587000Y-110553500D01*
X124587000Y-110553500D02*
X124587000Y-110553500D01*
X126167000Y-105544500D02*
X125984000Y-105727500D01*
X126167000Y-104085500D02*
X126167000Y-105544500D01*
%TO.N,Net-(C10-Pad2)*%
X121028000Y-116039500D02*
X121666000Y-115401500D01*
X116727000Y-116039500D02*
X121028000Y-116039500D01*
X121539000Y-115528500D02*
X121666000Y-115401500D01*
X121539000Y-118414500D02*
X121539000Y-115528500D01*
D37*
%TO.N,Net-(D1-Pad2)*%
X154305000Y-89283000D02*
X155194000Y-90172000D01*
X155194000Y-92266500D02*
X154941000Y-92519500D01*
X155194000Y-90172000D02*
X155194000Y-92266500D01*
D36*
%TO.N,Net-(D4-Pad2)*%
X154378000Y-118173500D02*
X154305000Y-118246500D01*
X161292000Y-118171500D02*
X161290000Y-118173500D01*
X161292000Y-109410500D02*
X161292000Y-118171500D01*
X161290000Y-118173500D02*
X154378000Y-118173500D01*
X164084000Y-118173500D02*
X161290000Y-118173500D01*
D37*
%TO.N,Net-(D5-Pad1)*%
X122972000Y-98615500D02*
X122972000Y-96238500D01*
X120524000Y-93790500D02*
X119634000Y-93790500D01*
X122972000Y-96238500D02*
X120524000Y-93790500D01*
X134115001Y-95683501D02*
X130926001Y-95683501D01*
X134825000Y-94973502D02*
X134115001Y-95683501D01*
X134825000Y-92833500D02*
X134825000Y-94973502D01*
X130926001Y-95683501D02*
X129794000Y-94551500D01*
X129794000Y-93027500D02*
X128408010Y-91641510D01*
X129794000Y-94551500D02*
X129794000Y-93027500D01*
X121782990Y-91641510D02*
X119634000Y-93790500D01*
X128408010Y-91641510D02*
X121782990Y-91641510D01*
%TO.N,Net-(J1-Pad2)*%
X122578000Y-80732500D02*
X127380000Y-80732500D01*
X115697000Y-87613500D02*
X122578000Y-80732500D01*
D36*
%TO.N,RST*%
X126088000Y-117864500D02*
X132588000Y-117864500D01*
X129605500Y-112331500D02*
X130937000Y-112331500D01*
X132588000Y-113982500D02*
X132588000Y-117864500D01*
X130937000Y-112331500D02*
X132588000Y-113982500D01*
X131005000Y-104349500D02*
X133585000Y-104349500D01*
X133585000Y-104349500D02*
X133585000Y-104349500D01*
%TO.N,MOSI*%
X155196001Y-101976501D02*
X154239002Y-102933500D01*
X155196001Y-100522501D02*
X155196001Y-101976501D01*
X154146000Y-99472500D02*
X155196001Y-100522501D01*
X154239002Y-102933500D02*
X145542000Y-102933500D01*
X144558000Y-101949500D02*
X139505000Y-101949500D01*
X145542000Y-102933500D02*
X144558000Y-101949500D01*
%TO.N,SCK*%
X138055000Y-99699500D02*
X141156000Y-99699500D01*
X141156000Y-99699500D02*
X141156000Y-99699500D01*
%TO.N,MISO*%
X139505000Y-101149500D02*
X140976000Y-101149500D01*
X144653000Y-97472500D02*
X152146000Y-97472500D01*
X140976000Y-101149500D02*
X144653000Y-97472500D01*
%TO.N,TX_Rasp*%
X116205000Y-107926500D02*
X116205000Y-108267500D01*
X125393990Y-108508510D02*
X125517000Y-108385500D01*
X116446010Y-108508510D02*
X125393990Y-108508510D01*
X116205000Y-108267500D02*
X116446010Y-108508510D01*
%TO.N,RX_Rasp*%
X116205000Y-105426500D02*
X116887000Y-106108500D01*
X116887000Y-106108500D02*
X124206000Y-106108500D01*
X125517000Y-104797500D02*
X125517000Y-104085500D01*
X124206000Y-106108500D02*
X125517000Y-104797500D01*
%TO.N,IR_Sen*%
X132461000Y-99693500D02*
X132455000Y-99699500D01*
X132461000Y-97599500D02*
X132461000Y-99693500D01*
%TO.N,Servo*%
X167005000Y-97726500D02*
X161925000Y-97726500D01*
X156102000Y-103549500D02*
X139505000Y-103549500D01*
X161925000Y-97726500D02*
X156102000Y-103549500D01*
%TO.N,Net-(Q2-Pad1)*%
X146242500Y-107505500D02*
X146242500Y-108714000D01*
X146242500Y-108714000D02*
X149987000Y-112458500D01*
X149987000Y-112458500D02*
X156210000Y-112458500D01*
X156845000Y-111823500D02*
X156845000Y-109096500D01*
X156210000Y-112458500D02*
X156845000Y-111823500D01*
%TO.N,PB1*%
X142589000Y-105949500D02*
X143317500Y-106678000D01*
X143317500Y-106678000D02*
X143317500Y-107505500D01*
X139505000Y-105949500D02*
X142589000Y-105949500D01*
%TO.N,Net-(R6-Pad1)*%
X121268501Y-107460499D02*
X121158000Y-107571000D01*
X126017001Y-107460499D02*
X121268501Y-107460499D01*
X126167000Y-107610498D02*
X126017001Y-107460499D01*
X126167000Y-108385500D02*
X126167000Y-107610498D01*
%TO.N,TX*%
X131005000Y-105949500D02*
X128429000Y-105949500D01*
X127467000Y-106911500D02*
X127467000Y-108385500D01*
X128429000Y-105949500D02*
X127467000Y-106911500D01*
%TO.N,RX*%
X131005000Y-105149500D02*
X127946000Y-105149500D01*
X127467000Y-104670500D02*
X127467000Y-104085500D01*
X127946000Y-105149500D02*
X127467000Y-104670500D01*
%TD*%
D38*
%TO.N,GND*%
X183641840Y-126619195D02*
X101028340Y-126745805D01*
X101019577Y-119769729D01*
X102783000Y-119769729D01*
X102783000Y-120387271D01*
X102903476Y-120992946D01*
X103139799Y-121563479D01*
X103482886Y-122076946D01*
X103919554Y-122513614D01*
X104433021Y-122856701D01*
X105003554Y-123093024D01*
X105609229Y-123213500D01*
X106226771Y-123213500D01*
X106832446Y-123093024D01*
X107402979Y-122856701D01*
X107916446Y-122513614D01*
X108353114Y-122076946D01*
X108696201Y-121563479D01*
X108932524Y-120992946D01*
X109053000Y-120387271D01*
X109053000Y-119769729D01*
X108932524Y-119164054D01*
X108696201Y-118593521D01*
X108353114Y-118080054D01*
X107916446Y-117643386D01*
X107402979Y-117300299D01*
X106832446Y-117063976D01*
X106226771Y-116943500D01*
X105609229Y-116943500D01*
X105003554Y-117063976D01*
X104433021Y-117300299D01*
X103919554Y-117643386D01*
X103482886Y-118080054D01*
X103139799Y-118593521D01*
X102903476Y-119164054D01*
X102783000Y-119769729D01*
X101019577Y-119769729D01*
X101013635Y-115039500D01*
X110738928Y-115039500D01*
X110738928Y-117039500D01*
X110751188Y-117163982D01*
X110787498Y-117283680D01*
X110846463Y-117393994D01*
X110925815Y-117490685D01*
X111022506Y-117570037D01*
X111132820Y-117629002D01*
X111252518Y-117665312D01*
X111377000Y-117677572D01*
X112877000Y-117677572D01*
X113001482Y-117665312D01*
X113121180Y-117629002D01*
X113231494Y-117570037D01*
X113277000Y-117532691D01*
X113322506Y-117570037D01*
X113432820Y-117629002D01*
X113552518Y-117665312D01*
X113617000Y-117671663D01*
X113617001Y-120701428D01*
X112527000Y-120701428D01*
X112402518Y-120713688D01*
X112282820Y-120749998D01*
X112172506Y-120808963D01*
X112075815Y-120888315D01*
X111996463Y-120985006D01*
X111937498Y-121095320D01*
X111901188Y-121215018D01*
X111888928Y-121339500D01*
X111888928Y-123339500D01*
X111901188Y-123463982D01*
X111937498Y-123583680D01*
X111996463Y-123693994D01*
X112075815Y-123790685D01*
X112172506Y-123870037D01*
X112282820Y-123929002D01*
X112402518Y-123965312D01*
X112527000Y-123977572D01*
X116327000Y-123977572D01*
X116451482Y-123965312D01*
X116571180Y-123929002D01*
X116681494Y-123870037D01*
X116778185Y-123790685D01*
X116857537Y-123693994D01*
X116916502Y-123583680D01*
X116952812Y-123463982D01*
X116965072Y-123339500D01*
X116965072Y-123149500D01*
X119034166Y-123149500D01*
X119072382Y-123220997D01*
X119179716Y-123351784D01*
X119310503Y-123459118D01*
X119459717Y-123538875D01*
X119621623Y-123587988D01*
X119790000Y-123604572D01*
X120240000Y-123604572D01*
X120408377Y-123587988D01*
X120570283Y-123538875D01*
X120716351Y-123460800D01*
X120760506Y-123497037D01*
X120870820Y-123556002D01*
X120990518Y-123592312D01*
X121115000Y-123604572D01*
X121279250Y-123601500D01*
X121438000Y-123442750D01*
X121438000Y-122618500D01*
X121692000Y-122618500D01*
X121692000Y-123442750D01*
X121850750Y-123601500D01*
X122015000Y-123604572D01*
X122139482Y-123592312D01*
X122259180Y-123556002D01*
X122364113Y-123499913D01*
X125132192Y-123499913D01*
X125227956Y-123764314D01*
X125517571Y-123905204D01*
X125829108Y-123986884D01*
X126150595Y-124006218D01*
X126469675Y-123962461D01*
X126774088Y-123857295D01*
X126948044Y-123764314D01*
X127043808Y-123499913D01*
X131632192Y-123499913D01*
X131727956Y-123764314D01*
X132017571Y-123905204D01*
X132329108Y-123986884D01*
X132650595Y-124006218D01*
X132969675Y-123962461D01*
X133274088Y-123857295D01*
X133448044Y-123764314D01*
X133543808Y-123499913D01*
X132588000Y-122544105D01*
X131632192Y-123499913D01*
X127043808Y-123499913D01*
X126088000Y-122544105D01*
X125132192Y-123499913D01*
X122364113Y-123499913D01*
X122369494Y-123497037D01*
X122466185Y-123417685D01*
X122545537Y-123320994D01*
X122604502Y-123210680D01*
X122640812Y-123090982D01*
X122653072Y-122966500D01*
X122650000Y-122777250D01*
X122491250Y-122618500D01*
X121692000Y-122618500D01*
X121438000Y-122618500D01*
X121418000Y-122618500D01*
X121418000Y-122427095D01*
X124446282Y-122427095D01*
X124490039Y-122746175D01*
X124595205Y-123050588D01*
X124688186Y-123224544D01*
X124952587Y-123320308D01*
X125908395Y-122364500D01*
X126267605Y-122364500D01*
X127223413Y-123320308D01*
X127487814Y-123224544D01*
X127628704Y-122934929D01*
X127710384Y-122623392D01*
X127722189Y-122427095D01*
X130946282Y-122427095D01*
X130990039Y-122746175D01*
X131095205Y-123050588D01*
X131188186Y-123224544D01*
X131452587Y-123320308D01*
X132408395Y-122364500D01*
X132767605Y-122364500D01*
X133723413Y-123320308D01*
X133987814Y-123224544D01*
X134128704Y-122934929D01*
X134210384Y-122623392D01*
X134229718Y-122301905D01*
X134185961Y-121982825D01*
X134080795Y-121678412D01*
X133987814Y-121504456D01*
X133723413Y-121408692D01*
X132767605Y-122364500D01*
X132408395Y-122364500D01*
X131452587Y-121408692D01*
X131188186Y-121504456D01*
X131047296Y-121794071D01*
X130965616Y-122105608D01*
X130946282Y-122427095D01*
X127722189Y-122427095D01*
X127729718Y-122301905D01*
X127685961Y-121982825D01*
X127580795Y-121678412D01*
X127487814Y-121504456D01*
X127223413Y-121408692D01*
X126267605Y-122364500D01*
X125908395Y-122364500D01*
X124952587Y-121408692D01*
X124688186Y-121504456D01*
X124547296Y-121794071D01*
X124465616Y-122105608D01*
X124446282Y-122427095D01*
X121418000Y-122427095D01*
X121418000Y-122364500D01*
X121438000Y-122364500D01*
X121438000Y-121540250D01*
X121692000Y-121540250D01*
X121692000Y-122364500D01*
X122491250Y-122364500D01*
X122650000Y-122205750D01*
X122653072Y-122016500D01*
X122640812Y-121892018D01*
X122604502Y-121772320D01*
X122545537Y-121662006D01*
X122466185Y-121565315D01*
X122369494Y-121485963D01*
X122259180Y-121426998D01*
X122139482Y-121390688D01*
X122015000Y-121378428D01*
X121850750Y-121381500D01*
X121692000Y-121540250D01*
X121438000Y-121540250D01*
X121279250Y-121381500D01*
X121115000Y-121378428D01*
X120990518Y-121390688D01*
X120870820Y-121426998D01*
X120760506Y-121485963D01*
X120716351Y-121522200D01*
X120570283Y-121444125D01*
X120408377Y-121395012D01*
X120240000Y-121378428D01*
X119790000Y-121378428D01*
X119621623Y-121395012D01*
X119459717Y-121444125D01*
X119310503Y-121523882D01*
X119303657Y-121529500D01*
X116965072Y-121529500D01*
X116965072Y-121339500D01*
X116954198Y-121229087D01*
X125132192Y-121229087D01*
X126088000Y-122184895D01*
X127043808Y-121229087D01*
X131632192Y-121229087D01*
X132588000Y-122184895D01*
X133543808Y-121229087D01*
X133448044Y-120964686D01*
X133158429Y-120823796D01*
X132846892Y-120742116D01*
X132525405Y-120722782D01*
X132206325Y-120766539D01*
X131901912Y-120871705D01*
X131727956Y-120964686D01*
X131632192Y-121229087D01*
X127043808Y-121229087D01*
X126948044Y-120964686D01*
X126658429Y-120823796D01*
X126346892Y-120742116D01*
X126025405Y-120722782D01*
X125706325Y-120766539D01*
X125401912Y-120871705D01*
X125227956Y-120964686D01*
X125132192Y-121229087D01*
X116954198Y-121229087D01*
X116952812Y-121215018D01*
X116916502Y-121095320D01*
X116857537Y-120985006D01*
X116778185Y-120888315D01*
X116681494Y-120808963D01*
X116571180Y-120749998D01*
X116451482Y-120713688D01*
X116327000Y-120701428D01*
X115237000Y-120701428D01*
X115237000Y-117671663D01*
X115301482Y-117665312D01*
X115421180Y-117629002D01*
X115531494Y-117570037D01*
X115577000Y-117532691D01*
X115622506Y-117570037D01*
X115732820Y-117629002D01*
X115852518Y-117665312D01*
X115977000Y-117677572D01*
X117477000Y-117677572D01*
X117601482Y-117665312D01*
X117721180Y-117629002D01*
X117831494Y-117570037D01*
X117928185Y-117490685D01*
X118007537Y-117393994D01*
X118066502Y-117283680D01*
X118102812Y-117163982D01*
X118115072Y-117039500D01*
X118115072Y-116849500D01*
X120326610Y-116849500D01*
X120377595Y-116944886D01*
X120488038Y-117079462D01*
X120622614Y-117189905D01*
X120729000Y-117246770D01*
X120729000Y-117537949D01*
X120678716Y-117579216D01*
X120571382Y-117710003D01*
X120491625Y-117859217D01*
X120442512Y-118021123D01*
X120425928Y-118189500D01*
X120425928Y-118639500D01*
X120442512Y-118807877D01*
X120491625Y-118969783D01*
X120571382Y-119118997D01*
X120629242Y-119189500D01*
X120571382Y-119260003D01*
X120491625Y-119409217D01*
X120442512Y-119571123D01*
X120425928Y-119739500D01*
X120425928Y-120189500D01*
X120442512Y-120357877D01*
X120491625Y-120519783D01*
X120571382Y-120668997D01*
X120678716Y-120799784D01*
X120809503Y-120907118D01*
X120958717Y-120986875D01*
X121120623Y-121035988D01*
X121289000Y-121052572D01*
X121789000Y-121052572D01*
X121957377Y-121035988D01*
X122119283Y-120986875D01*
X122268497Y-120907118D01*
X122399284Y-120799784D01*
X122420034Y-120774500D01*
X122883212Y-120774500D01*
X122923000Y-120778419D01*
X122962788Y-120774500D01*
X122962791Y-120774500D01*
X123081788Y-120762780D01*
X123234473Y-120716463D01*
X123375189Y-120641249D01*
X123498528Y-120540028D01*
X123523899Y-120509113D01*
X124623618Y-119409395D01*
X124654528Y-119384028D01*
X124733540Y-119287751D01*
X124755749Y-119260690D01*
X124806114Y-119166463D01*
X124830963Y-119119973D01*
X124877280Y-118967288D01*
X124877394Y-118966133D01*
X125045748Y-119134487D01*
X125313537Y-119313418D01*
X125611088Y-119436668D01*
X125926967Y-119499500D01*
X126249033Y-119499500D01*
X126564912Y-119436668D01*
X126862463Y-119313418D01*
X127130252Y-119134487D01*
X127357987Y-118906752D01*
X127513173Y-118674500D01*
X131162827Y-118674500D01*
X131318013Y-118906752D01*
X131545748Y-119134487D01*
X131813537Y-119313418D01*
X132111088Y-119436668D01*
X132426967Y-119499500D01*
X132749033Y-119499500D01*
X133064912Y-119436668D01*
X133362463Y-119313418D01*
X133630252Y-119134487D01*
X133857987Y-118906752D01*
X134036918Y-118638963D01*
X134160168Y-118341412D01*
X134223000Y-118025533D01*
X134223000Y-117703467D01*
X134160168Y-117387588D01*
X134036918Y-117090037D01*
X133857987Y-116822248D01*
X133630252Y-116594513D01*
X133398000Y-116439327D01*
X133398000Y-114022291D01*
X133401919Y-113982500D01*
X133386280Y-113823712D01*
X133339963Y-113671026D01*
X133264749Y-113530311D01*
X133223864Y-113480492D01*
X133163528Y-113406972D01*
X133132619Y-113381606D01*
X131537899Y-111786887D01*
X131512528Y-111755972D01*
X131389189Y-111654751D01*
X131248473Y-111579537D01*
X131095788Y-111533220D01*
X130976791Y-111521500D01*
X130976788Y-111521500D01*
X130937000Y-111517581D01*
X130897212Y-111521500D01*
X130785445Y-111521500D01*
X130738472Y-111366649D01*
X130656405Y-111213113D01*
X130545962Y-111078538D01*
X130411387Y-110968095D01*
X130286797Y-110901500D01*
X134407928Y-110901500D01*
X134420188Y-111025982D01*
X134456498Y-111145680D01*
X134515463Y-111255994D01*
X134594815Y-111352685D01*
X134691506Y-111432037D01*
X134801820Y-111491002D01*
X134921518Y-111527312D01*
X135046000Y-111539572D01*
X135210250Y-111536500D01*
X135369000Y-111377750D01*
X135369000Y-110553500D01*
X134569750Y-110553500D01*
X134411000Y-110712250D01*
X134407928Y-110901500D01*
X130286797Y-110901500D01*
X130257851Y-110886028D01*
X130091255Y-110835492D01*
X129918001Y-110818428D01*
X129292999Y-110818428D01*
X129119745Y-110835492D01*
X128953149Y-110886028D01*
X128799613Y-110968095D01*
X128665038Y-111078538D01*
X128554595Y-111213113D01*
X128472528Y-111366649D01*
X128421992Y-111533245D01*
X128404928Y-111706499D01*
X128404928Y-112956501D01*
X128421992Y-113129755D01*
X128472528Y-113296351D01*
X128554595Y-113449887D01*
X128665038Y-113584462D01*
X128799613Y-113694905D01*
X128953149Y-113776972D01*
X129119745Y-113827508D01*
X129292999Y-113844572D01*
X129918001Y-113844572D01*
X130091255Y-113827508D01*
X130257851Y-113776972D01*
X130411387Y-113694905D01*
X130545962Y-113584462D01*
X130656405Y-113449887D01*
X130738472Y-113296351D01*
X130742630Y-113282643D01*
X131778000Y-114318013D01*
X131778001Y-116439327D01*
X131545748Y-116594513D01*
X131318013Y-116822248D01*
X131162827Y-117054500D01*
X127513173Y-117054500D01*
X127357987Y-116822248D01*
X127130252Y-116594513D01*
X126862463Y-116415582D01*
X126564912Y-116292332D01*
X126249033Y-116229500D01*
X125926967Y-116229500D01*
X125611088Y-116292332D01*
X125313537Y-116415582D01*
X125045748Y-116594513D01*
X124889000Y-116751261D01*
X124889000Y-115268512D01*
X126317877Y-113839635D01*
X126367999Y-113844572D01*
X126993001Y-113844572D01*
X127166255Y-113827508D01*
X127332851Y-113776972D01*
X127486387Y-113694905D01*
X127620962Y-113584462D01*
X127731405Y-113449887D01*
X127813472Y-113296351D01*
X127864008Y-113129755D01*
X127881072Y-112956501D01*
X127881072Y-111706499D01*
X127864008Y-111533245D01*
X127813472Y-111366649D01*
X127731405Y-111213113D01*
X127627000Y-111085895D01*
X127627000Y-110612211D01*
X127673726Y-110658937D01*
X127843244Y-110772205D01*
X128031602Y-110850226D01*
X128231561Y-110890000D01*
X128435439Y-110890000D01*
X128635398Y-110850226D01*
X128823756Y-110772205D01*
X128993274Y-110658937D01*
X129137437Y-110514774D01*
X129250705Y-110345256D01*
X129328726Y-110156898D01*
X129368500Y-109956939D01*
X129368500Y-109753061D01*
X129328726Y-109553102D01*
X129250705Y-109364744D01*
X129137437Y-109195226D01*
X128993274Y-109051063D01*
X128823756Y-108937795D01*
X128635398Y-108859774D01*
X128435439Y-108820000D01*
X128305072Y-108820000D01*
X128305072Y-107835500D01*
X128292812Y-107711018D01*
X128277000Y-107658893D01*
X128277000Y-107247012D01*
X128764513Y-106759500D01*
X129566928Y-106759500D01*
X129566928Y-107024500D01*
X129579188Y-107148982D01*
X129615498Y-107268680D01*
X129674463Y-107378994D01*
X129753815Y-107475685D01*
X129850506Y-107555037D01*
X129960820Y-107614002D01*
X130080518Y-107650312D01*
X130205000Y-107662572D01*
X131541928Y-107662572D01*
X131541928Y-108999500D01*
X131554188Y-109123982D01*
X131590498Y-109243680D01*
X131649463Y-109353994D01*
X131728815Y-109450685D01*
X131825506Y-109530037D01*
X131935820Y-109589002D01*
X132055518Y-109625312D01*
X132180000Y-109637572D01*
X132730000Y-109637572D01*
X132854482Y-109625312D01*
X132855000Y-109625155D01*
X132855518Y-109625312D01*
X132980000Y-109637572D01*
X133530000Y-109637572D01*
X133654482Y-109625312D01*
X133655620Y-109624967D01*
X133769250Y-109634500D01*
X133861333Y-109542417D01*
X133884494Y-109530037D01*
X133981185Y-109450685D01*
X134055000Y-109360741D01*
X134128815Y-109450685D01*
X134225506Y-109530037D01*
X134248667Y-109542417D01*
X134340750Y-109634500D01*
X134454380Y-109624967D01*
X134455518Y-109625312D01*
X134498092Y-109629505D01*
X134456498Y-109707320D01*
X134420188Y-109827018D01*
X134407928Y-109951500D01*
X134411000Y-110140750D01*
X134569750Y-110299500D01*
X135369000Y-110299500D01*
X135369000Y-110279500D01*
X135623000Y-110279500D01*
X135623000Y-110299500D01*
X135643000Y-110299500D01*
X135643000Y-110553500D01*
X135623000Y-110553500D01*
X135623000Y-111377750D01*
X135781750Y-111536500D01*
X135946000Y-111539572D01*
X136070482Y-111527312D01*
X136190180Y-111491002D01*
X136300494Y-111432037D01*
X136344649Y-111395800D01*
X136382791Y-111416187D01*
X136424852Y-111467439D01*
X136470473Y-111523028D01*
X136501383Y-111548395D01*
X137112000Y-112159013D01*
X137112001Y-114128000D01*
X137039114Y-114176701D01*
X136846201Y-114369614D01*
X136694629Y-114596457D01*
X136590225Y-114848511D01*
X136537000Y-115116089D01*
X136537000Y-115388911D01*
X136590225Y-115656489D01*
X136694629Y-115908543D01*
X136846201Y-116135386D01*
X137039114Y-116328299D01*
X137265957Y-116479871D01*
X137518011Y-116584275D01*
X137785589Y-116637500D01*
X138058411Y-116637500D01*
X138325989Y-116584275D01*
X138578043Y-116479871D01*
X138804886Y-116328299D01*
X138997799Y-116135386D01*
X139149371Y-115908543D01*
X139253775Y-115656489D01*
X139307000Y-115388911D01*
X139307000Y-115116089D01*
X139253775Y-114848511D01*
X139149371Y-114596457D01*
X138997799Y-114369614D01*
X138804886Y-114176701D01*
X138732000Y-114128000D01*
X138732000Y-111863287D01*
X138735919Y-111823499D01*
X138731807Y-111781751D01*
X138720280Y-111664712D01*
X138673963Y-111512027D01*
X138614485Y-111400751D01*
X138598749Y-111371310D01*
X138587778Y-111357942D01*
X138644209Y-111363500D01*
X138644211Y-111363500D01*
X138683999Y-111367419D01*
X138686466Y-111367176D01*
X138724716Y-111413784D01*
X138750000Y-111434534D01*
X138750001Y-113421702D01*
X138746081Y-113461500D01*
X138760305Y-113605910D01*
X138761721Y-113620288D01*
X138793042Y-113723538D01*
X138808038Y-113772973D01*
X138883251Y-113913689D01*
X138918557Y-113956709D01*
X138984473Y-114037028D01*
X139015383Y-114062395D01*
X140750105Y-115797118D01*
X140775472Y-115828028D01*
X140898811Y-115929249D01*
X141039527Y-116004463D01*
X141192212Y-116050780D01*
X141311209Y-116062500D01*
X141311211Y-116062500D01*
X141350999Y-116066419D01*
X141390787Y-116062500D01*
X141677500Y-116062500D01*
X141726201Y-116135386D01*
X141919114Y-116328299D01*
X142145957Y-116479871D01*
X142398011Y-116584275D01*
X142665589Y-116637500D01*
X142938411Y-116637500D01*
X143205989Y-116584275D01*
X143458043Y-116479871D01*
X143684886Y-116328299D01*
X143877799Y-116135386D01*
X144029371Y-115908543D01*
X144133775Y-115656489D01*
X144187000Y-115388911D01*
X144187000Y-115116089D01*
X144133775Y-114848511D01*
X144029371Y-114596457D01*
X143877799Y-114369614D01*
X143684886Y-114176701D01*
X143458043Y-114025129D01*
X143205989Y-113920725D01*
X142938411Y-113867500D01*
X142665589Y-113867500D01*
X142398011Y-113920725D01*
X142145957Y-114025129D01*
X141919114Y-114176701D01*
X141726201Y-114369614D01*
X141681110Y-114437097D01*
X140370000Y-113125988D01*
X140370000Y-111593510D01*
X140415820Y-111618002D01*
X140535518Y-111654312D01*
X140660000Y-111666572D01*
X140824250Y-111663500D01*
X140983000Y-111504750D01*
X140983000Y-110680500D01*
X141237000Y-110680500D01*
X141237000Y-111504750D01*
X141395750Y-111663500D01*
X141560000Y-111666572D01*
X141684482Y-111654312D01*
X141804180Y-111618002D01*
X141914494Y-111559037D01*
X142011185Y-111479685D01*
X142090537Y-111382994D01*
X142149502Y-111272680D01*
X142185812Y-111152982D01*
X142198072Y-111028500D01*
X142195000Y-110839250D01*
X142036250Y-110680500D01*
X141237000Y-110680500D01*
X140983000Y-110680500D01*
X140963000Y-110680500D01*
X140963000Y-110426500D01*
X140983000Y-110426500D01*
X140983000Y-109602250D01*
X141237000Y-109602250D01*
X141237000Y-110426500D01*
X142036250Y-110426500D01*
X142195000Y-110267750D01*
X142198072Y-110078500D01*
X142185812Y-109954018D01*
X142149502Y-109834320D01*
X142090537Y-109724006D01*
X142011185Y-109627315D01*
X141914494Y-109547963D01*
X141804180Y-109488998D01*
X141684482Y-109452688D01*
X141560000Y-109440428D01*
X141395750Y-109443500D01*
X141237000Y-109602250D01*
X140983000Y-109602250D01*
X140824250Y-109443500D01*
X140660000Y-109440428D01*
X140535518Y-109452688D01*
X140415820Y-109488998D01*
X140305506Y-109547963D01*
X140261351Y-109584200D01*
X140115283Y-109506125D01*
X139953377Y-109457012D01*
X139785000Y-109440428D01*
X139335000Y-109440428D01*
X139166623Y-109457012D01*
X139004717Y-109506125D01*
X138865000Y-109580806D01*
X138865000Y-109345644D01*
X138919502Y-109243680D01*
X138955812Y-109123982D01*
X138968072Y-108999500D01*
X138968072Y-107662572D01*
X140305000Y-107662572D01*
X140429482Y-107650312D01*
X140549180Y-107614002D01*
X140659494Y-107555037D01*
X140756185Y-107475685D01*
X140835537Y-107378994D01*
X140894502Y-107268680D01*
X140930812Y-107148982D01*
X140943072Y-107024500D01*
X140943072Y-106759500D01*
X142128845Y-106759500D01*
X142116928Y-106880499D01*
X142116928Y-108130501D01*
X142133992Y-108303755D01*
X142184528Y-108470351D01*
X142266595Y-108623887D01*
X142377038Y-108758462D01*
X142511613Y-108868905D01*
X142665149Y-108950972D01*
X142831745Y-109001508D01*
X143004999Y-109018572D01*
X143630001Y-109018572D01*
X143803255Y-109001508D01*
X143969851Y-108950972D01*
X144123387Y-108868905D01*
X144257962Y-108758462D01*
X144368405Y-108623887D01*
X144450472Y-108470351D01*
X144501008Y-108303755D01*
X144518072Y-108130501D01*
X144518072Y-106880499D01*
X145041928Y-106880499D01*
X145041928Y-108130501D01*
X145058992Y-108303755D01*
X145109528Y-108470351D01*
X145191595Y-108623887D01*
X145302038Y-108758462D01*
X145436613Y-108868905D01*
X145444287Y-108873007D01*
X145481728Y-108996431D01*
X145490538Y-109025473D01*
X145565751Y-109166189D01*
X145621352Y-109233939D01*
X145666973Y-109289528D01*
X145697883Y-109314895D01*
X149291415Y-112908428D01*
X148905000Y-112908428D01*
X148780518Y-112920688D01*
X148660820Y-112956998D01*
X148550506Y-113015963D01*
X148453815Y-113095315D01*
X148374463Y-113192006D01*
X148315498Y-113302320D01*
X148279188Y-113422018D01*
X148266928Y-113546500D01*
X148266928Y-122946500D01*
X148279188Y-123070982D01*
X148315498Y-123190680D01*
X148374463Y-123300994D01*
X148453815Y-123397685D01*
X148550506Y-123477037D01*
X148660820Y-123536002D01*
X148780518Y-123572312D01*
X148905000Y-123584572D01*
X159705000Y-123584572D01*
X159829482Y-123572312D01*
X159949180Y-123536002D01*
X160059494Y-123477037D01*
X160156185Y-123397685D01*
X160235537Y-123300994D01*
X160294502Y-123190680D01*
X160330812Y-123070982D01*
X160343072Y-122946500D01*
X160343072Y-118983500D01*
X161250212Y-118983500D01*
X161290000Y-118987419D01*
X161329788Y-118983500D01*
X162145928Y-118983500D01*
X162145928Y-119473500D01*
X162158188Y-119597982D01*
X162194498Y-119717680D01*
X162253463Y-119827994D01*
X162332815Y-119924685D01*
X162429506Y-120004037D01*
X162539820Y-120063002D01*
X162659518Y-120099312D01*
X162784000Y-120111572D01*
X165384000Y-120111572D01*
X165508482Y-120099312D01*
X165628180Y-120063002D01*
X165738494Y-120004037D01*
X165835185Y-119924685D01*
X165914537Y-119827994D01*
X165973502Y-119717680D01*
X166009812Y-119597982D01*
X166022072Y-119473500D01*
X166022072Y-116873500D01*
X166009812Y-116749018D01*
X165973502Y-116629320D01*
X165914537Y-116519006D01*
X165835185Y-116422315D01*
X165738494Y-116342963D01*
X165628180Y-116283998D01*
X165508482Y-116247688D01*
X165384000Y-116235428D01*
X162784000Y-116235428D01*
X162659518Y-116247688D01*
X162539820Y-116283998D01*
X162429506Y-116342963D01*
X162332815Y-116422315D01*
X162253463Y-116519006D01*
X162194498Y-116629320D01*
X162158188Y-116749018D01*
X162145928Y-116873500D01*
X162145928Y-117363500D01*
X162102000Y-117363500D01*
X162102000Y-110536518D01*
X162193185Y-110461685D01*
X162272537Y-110364994D01*
X162331502Y-110254680D01*
X162367812Y-110134982D01*
X162380072Y-110010500D01*
X162380072Y-108810500D01*
X163503928Y-108810500D01*
X163503928Y-110010500D01*
X163516188Y-110134982D01*
X163552498Y-110254680D01*
X163611463Y-110364994D01*
X163690815Y-110461685D01*
X163787506Y-110541037D01*
X163897820Y-110600002D01*
X164017518Y-110636312D01*
X164142000Y-110648572D01*
X165042000Y-110648572D01*
X165166482Y-110636312D01*
X165286180Y-110600002D01*
X165396494Y-110541037D01*
X165493185Y-110461685D01*
X165572537Y-110364994D01*
X165631502Y-110254680D01*
X165641870Y-110220500D01*
X166161488Y-110220500D01*
X168274000Y-112333013D01*
X168274001Y-116414584D01*
X168167434Y-116458725D01*
X167850509Y-116670487D01*
X167580987Y-116940009D01*
X167369225Y-117256934D01*
X167223361Y-117609081D01*
X167149000Y-117982919D01*
X167149000Y-118364081D01*
X167223361Y-118737919D01*
X167369225Y-119090066D01*
X167580987Y-119406991D01*
X167850509Y-119676513D01*
X168167434Y-119888275D01*
X168519581Y-120034139D01*
X168893419Y-120108500D01*
X169274581Y-120108500D01*
X169648419Y-120034139D01*
X170000566Y-119888275D01*
X170317491Y-119676513D01*
X170351275Y-119642729D01*
X173014000Y-119642729D01*
X173014000Y-120260271D01*
X173134476Y-120865946D01*
X173370799Y-121436479D01*
X173713886Y-121949946D01*
X174150554Y-122386614D01*
X174664021Y-122729701D01*
X175234554Y-122966024D01*
X175840229Y-123086500D01*
X176457771Y-123086500D01*
X177063446Y-122966024D01*
X177633979Y-122729701D01*
X178147446Y-122386614D01*
X178584114Y-121949946D01*
X178927201Y-121436479D01*
X179163524Y-120865946D01*
X179284000Y-120260271D01*
X179284000Y-119642729D01*
X179163524Y-119037054D01*
X178927201Y-118466521D01*
X178584114Y-117953054D01*
X178147446Y-117516386D01*
X177633979Y-117173299D01*
X177063446Y-116936976D01*
X176457771Y-116816500D01*
X175840229Y-116816500D01*
X175234554Y-116936976D01*
X174664021Y-117173299D01*
X174150554Y-117516386D01*
X173713886Y-117953054D01*
X173370799Y-118466521D01*
X173134476Y-119037054D01*
X173014000Y-119642729D01*
X170351275Y-119642729D01*
X170587013Y-119406991D01*
X170798775Y-119090066D01*
X170944639Y-118737919D01*
X171019000Y-118364081D01*
X171019000Y-117982919D01*
X170944639Y-117609081D01*
X170798775Y-117256934D01*
X170587013Y-116940009D01*
X170317491Y-116670487D01*
X170000566Y-116458725D01*
X169894000Y-116414584D01*
X169894000Y-112037287D01*
X169897919Y-111997499D01*
X169889683Y-111913880D01*
X169882280Y-111838712D01*
X169835963Y-111686027D01*
X169760749Y-111545311D01*
X169659528Y-111421972D01*
X169628619Y-111396606D01*
X167097900Y-108865887D01*
X167072528Y-108834972D01*
X166949189Y-108733751D01*
X166808473Y-108658537D01*
X166655788Y-108612220D01*
X166536791Y-108600500D01*
X166536788Y-108600500D01*
X166497000Y-108596581D01*
X166457212Y-108600500D01*
X165641870Y-108600500D01*
X165631502Y-108566320D01*
X165572537Y-108456006D01*
X165493185Y-108359315D01*
X165396494Y-108279963D01*
X165286180Y-108220998D01*
X165166482Y-108184688D01*
X165042000Y-108172428D01*
X164142000Y-108172428D01*
X164017518Y-108184688D01*
X163897820Y-108220998D01*
X163787506Y-108279963D01*
X163690815Y-108359315D01*
X163611463Y-108456006D01*
X163552498Y-108566320D01*
X163516188Y-108686018D01*
X163503928Y-108810500D01*
X162380072Y-108810500D01*
X162367812Y-108686018D01*
X162331502Y-108566320D01*
X162272537Y-108456006D01*
X162193185Y-108359315D01*
X162096494Y-108279963D01*
X161986180Y-108220998D01*
X161866482Y-108184688D01*
X161742000Y-108172428D01*
X160842000Y-108172428D01*
X160717518Y-108184688D01*
X160597820Y-108220998D01*
X160487506Y-108279963D01*
X160390815Y-108359315D01*
X160311463Y-108456006D01*
X160252498Y-108566320D01*
X160216188Y-108686018D01*
X160203928Y-108810500D01*
X160203928Y-110010500D01*
X160216188Y-110134982D01*
X160252498Y-110254680D01*
X160311463Y-110364994D01*
X160390815Y-110461685D01*
X160482000Y-110536518D01*
X160482001Y-117363500D01*
X160343072Y-117363500D01*
X160343072Y-113546500D01*
X160330812Y-113422018D01*
X160294502Y-113302320D01*
X160235537Y-113192006D01*
X160156185Y-113095315D01*
X160059494Y-113015963D01*
X159949180Y-112956998D01*
X159829482Y-112920688D01*
X159705000Y-112908428D01*
X156905584Y-112908428D01*
X157389621Y-112424392D01*
X157420528Y-112399028D01*
X157521749Y-112275689D01*
X157542810Y-112236287D01*
X157596963Y-112134974D01*
X157614397Y-112077500D01*
X157642729Y-111984105D01*
X157749494Y-111927037D01*
X157846185Y-111847685D01*
X157925537Y-111750994D01*
X157984502Y-111640680D01*
X158020812Y-111520982D01*
X158033072Y-111396500D01*
X158033072Y-106796500D01*
X158020812Y-106672018D01*
X157984502Y-106552320D01*
X157925537Y-106442006D01*
X157846185Y-106345315D01*
X157749494Y-106265963D01*
X157639180Y-106206998D01*
X157519482Y-106170688D01*
X157395000Y-106158428D01*
X156295000Y-106158428D01*
X156170518Y-106170688D01*
X156050820Y-106206998D01*
X155940506Y-106265963D01*
X155843815Y-106345315D01*
X155764463Y-106442006D01*
X155705498Y-106552320D01*
X155669188Y-106672018D01*
X155656928Y-106796500D01*
X155656928Y-111396500D01*
X155669188Y-111520982D01*
X155705498Y-111640680D01*
X155709678Y-111648500D01*
X152900322Y-111648500D01*
X152904502Y-111640680D01*
X152940812Y-111520982D01*
X152953072Y-111396500D01*
X152950000Y-109382250D01*
X152791250Y-109223500D01*
X151892000Y-109223500D01*
X151892000Y-109243500D01*
X151638000Y-109243500D01*
X151638000Y-109223500D01*
X150738750Y-109223500D01*
X150580000Y-109382250D01*
X150576928Y-111396500D01*
X150589188Y-111520982D01*
X150625498Y-111640680D01*
X150629678Y-111648500D01*
X150322513Y-111648500D01*
X147294970Y-108620958D01*
X147375472Y-108470351D01*
X147426008Y-108303755D01*
X147443072Y-108130501D01*
X147443072Y-106880499D01*
X147434799Y-106796500D01*
X150576928Y-106796500D01*
X150580000Y-108810750D01*
X150738750Y-108969500D01*
X151638000Y-108969500D01*
X151638000Y-106320250D01*
X151892000Y-106320250D01*
X151892000Y-108969500D01*
X152791250Y-108969500D01*
X152950000Y-108810750D01*
X152953072Y-106796500D01*
X152940812Y-106672018D01*
X152904502Y-106552320D01*
X152845537Y-106442006D01*
X152766185Y-106345315D01*
X152669494Y-106265963D01*
X152559180Y-106206998D01*
X152439482Y-106170688D01*
X152315000Y-106158428D01*
X152050750Y-106161500D01*
X151892000Y-106320250D01*
X151638000Y-106320250D01*
X151479250Y-106161500D01*
X151215000Y-106158428D01*
X151090518Y-106170688D01*
X150970820Y-106206998D01*
X150860506Y-106265963D01*
X150763815Y-106345315D01*
X150684463Y-106442006D01*
X150625498Y-106552320D01*
X150589188Y-106672018D01*
X150576928Y-106796500D01*
X147434799Y-106796500D01*
X147426008Y-106707245D01*
X147375472Y-106540649D01*
X147293405Y-106387113D01*
X147182962Y-106252538D01*
X147048387Y-106142095D01*
X146894851Y-106060028D01*
X146728255Y-106009492D01*
X146555001Y-105992428D01*
X145929999Y-105992428D01*
X145756745Y-106009492D01*
X145590149Y-106060028D01*
X145436613Y-106142095D01*
X145302038Y-106252538D01*
X145191595Y-106387113D01*
X145109528Y-106540649D01*
X145058992Y-106707245D01*
X145041928Y-106880499D01*
X144518072Y-106880499D01*
X144501008Y-106707245D01*
X144450472Y-106540649D01*
X144368405Y-106387113D01*
X144257962Y-106252538D01*
X144123387Y-106142095D01*
X143969851Y-106060028D01*
X143803255Y-106009492D01*
X143793549Y-106008536D01*
X143189899Y-105404887D01*
X143164528Y-105373972D01*
X143041189Y-105272751D01*
X142900473Y-105197537D01*
X142747788Y-105151220D01*
X142628791Y-105139500D01*
X142628788Y-105139500D01*
X142589000Y-105135581D01*
X142549212Y-105139500D01*
X140943072Y-105139500D01*
X140943072Y-104874500D01*
X140930812Y-104750018D01*
X140930655Y-104749500D01*
X140930812Y-104748982D01*
X140943072Y-104624500D01*
X140943072Y-104359500D01*
X156062212Y-104359500D01*
X156102000Y-104363419D01*
X156141788Y-104359500D01*
X156141791Y-104359500D01*
X156260788Y-104347780D01*
X156413473Y-104301463D01*
X156554189Y-104226249D01*
X156677528Y-104125028D01*
X156692733Y-104106500D01*
X165066928Y-104106500D01*
X165079188Y-104230982D01*
X165115498Y-104350680D01*
X165174463Y-104460994D01*
X165253815Y-104557685D01*
X165350506Y-104637037D01*
X165460820Y-104696002D01*
X165580518Y-104732312D01*
X165705000Y-104744572D01*
X166719250Y-104741500D01*
X166878000Y-104582750D01*
X166878000Y-102933500D01*
X167132000Y-102933500D01*
X167132000Y-104582750D01*
X167290750Y-104741500D01*
X168305000Y-104744572D01*
X168429482Y-104732312D01*
X168549180Y-104696002D01*
X168659494Y-104637037D01*
X168756185Y-104557685D01*
X168835537Y-104460994D01*
X168894502Y-104350680D01*
X168930812Y-104230982D01*
X168943072Y-104106500D01*
X168940000Y-103092250D01*
X168781250Y-102933500D01*
X167132000Y-102933500D01*
X166878000Y-102933500D01*
X165228750Y-102933500D01*
X165070000Y-103092250D01*
X165066928Y-104106500D01*
X156692733Y-104106500D01*
X156702900Y-104094112D01*
X159290512Y-101506500D01*
X165066928Y-101506500D01*
X165070000Y-102520750D01*
X165228750Y-102679500D01*
X166878000Y-102679500D01*
X166878000Y-101030250D01*
X167132000Y-101030250D01*
X167132000Y-102679500D01*
X168781250Y-102679500D01*
X168940000Y-102520750D01*
X168943072Y-101506500D01*
X168930812Y-101382018D01*
X168894502Y-101262320D01*
X168835537Y-101152006D01*
X168756185Y-101055315D01*
X168659494Y-100975963D01*
X168549180Y-100916998D01*
X168429482Y-100880688D01*
X168305000Y-100868428D01*
X167290750Y-100871500D01*
X167132000Y-101030250D01*
X166878000Y-101030250D01*
X166719250Y-100871500D01*
X165705000Y-100868428D01*
X165580518Y-100880688D01*
X165460820Y-100916998D01*
X165350506Y-100975963D01*
X165253815Y-101055315D01*
X165174463Y-101152006D01*
X165115498Y-101262320D01*
X165079188Y-101382018D01*
X165066928Y-101506500D01*
X159290512Y-101506500D01*
X162260513Y-98536500D01*
X165246084Y-98536500D01*
X165290225Y-98643066D01*
X165501987Y-98959991D01*
X165771509Y-99229513D01*
X166088434Y-99441275D01*
X166440581Y-99587139D01*
X166814419Y-99661500D01*
X167195581Y-99661500D01*
X167569419Y-99587139D01*
X167921566Y-99441275D01*
X168238491Y-99229513D01*
X168508013Y-98959991D01*
X168719775Y-98643066D01*
X168865639Y-98290919D01*
X168940000Y-97917081D01*
X168940000Y-97535919D01*
X168865639Y-97162081D01*
X168719775Y-96809934D01*
X168508013Y-96493009D01*
X168238491Y-96223487D01*
X167921566Y-96011725D01*
X167569419Y-95865861D01*
X167195581Y-95791500D01*
X166814419Y-95791500D01*
X166440581Y-95865861D01*
X166088434Y-96011725D01*
X165771509Y-96223487D01*
X165501987Y-96493009D01*
X165290225Y-96809934D01*
X165246084Y-96916500D01*
X161964791Y-96916500D01*
X161925000Y-96912581D01*
X161766212Y-96928220D01*
X161613526Y-96974537D01*
X161521040Y-97023972D01*
X161472811Y-97049751D01*
X161349472Y-97150972D01*
X161324105Y-97181882D01*
X155766488Y-102739500D01*
X155578515Y-102739500D01*
X155740619Y-102577396D01*
X155771529Y-102552029D01*
X155822398Y-102490044D01*
X155872750Y-102428691D01*
X155915355Y-102348982D01*
X155947964Y-102287974D01*
X155994281Y-102135289D01*
X156006001Y-102016292D01*
X156006001Y-102016289D01*
X156009920Y-101976501D01*
X156006001Y-101936713D01*
X156006001Y-100562289D01*
X156009920Y-100522501D01*
X156005020Y-100472751D01*
X155994281Y-100363713D01*
X155955669Y-100236428D01*
X155947964Y-100211027D01*
X155872750Y-100070312D01*
X155771529Y-99946973D01*
X155740620Y-99921607D01*
X155450116Y-99631104D01*
X155456000Y-99601524D01*
X155456000Y-99343476D01*
X155405658Y-99090387D01*
X155306907Y-98851982D01*
X155163544Y-98637423D01*
X154998621Y-98472500D01*
X155163544Y-98307577D01*
X155306907Y-98093018D01*
X155405658Y-97854613D01*
X155456000Y-97601524D01*
X155456000Y-97343476D01*
X155405658Y-97090387D01*
X155306907Y-96851982D01*
X155163544Y-96637423D01*
X155131000Y-96604879D01*
X155131000Y-96515500D01*
X158015000Y-93631500D01*
X165335951Y-93631500D01*
X165501987Y-93879991D01*
X165771509Y-94149513D01*
X166088434Y-94361275D01*
X166440581Y-94507139D01*
X166814419Y-94581500D01*
X167195581Y-94581500D01*
X167569419Y-94507139D01*
X167921566Y-94361275D01*
X168238491Y-94149513D01*
X168508013Y-93879991D01*
X168719775Y-93563066D01*
X168865639Y-93210919D01*
X168940000Y-92837081D01*
X168940000Y-92455919D01*
X168881696Y-92162805D01*
X170461290Y-90583211D01*
X170498870Y-90552370D01*
X170621960Y-90402384D01*
X170713424Y-90231267D01*
X170769747Y-90045594D01*
X170784000Y-89900880D01*
X170788765Y-89852500D01*
X170784000Y-89804120D01*
X170784000Y-86857293D01*
X171004134Y-86676634D01*
X171189706Y-86450514D01*
X171327599Y-86192534D01*
X171412513Y-85912611D01*
X171441185Y-85621500D01*
X171412513Y-85330389D01*
X171327599Y-85050466D01*
X171189706Y-84792486D01*
X171008392Y-84571555D01*
X171043180Y-84561002D01*
X171153494Y-84502037D01*
X171250185Y-84422685D01*
X171329537Y-84325994D01*
X171388502Y-84215680D01*
X171424812Y-84095982D01*
X171437072Y-83971500D01*
X171434000Y-83407250D01*
X171275250Y-83248500D01*
X169926000Y-83248500D01*
X169926000Y-83268500D01*
X169672000Y-83268500D01*
X169672000Y-83248500D01*
X168322750Y-83248500D01*
X168164000Y-83407250D01*
X168160928Y-83971500D01*
X168173188Y-84095982D01*
X168209498Y-84215680D01*
X168268463Y-84325994D01*
X168347815Y-84422685D01*
X168444506Y-84502037D01*
X168554820Y-84561002D01*
X168589608Y-84571555D01*
X168408294Y-84792486D01*
X168270401Y-85050466D01*
X168185487Y-85330389D01*
X168156815Y-85621500D01*
X168185487Y-85912611D01*
X168270401Y-86192534D01*
X168408294Y-86450514D01*
X168593866Y-86676634D01*
X168814000Y-86857294D01*
X168814001Y-89444498D01*
X167488695Y-90769804D01*
X167195581Y-90711500D01*
X166814419Y-90711500D01*
X166521305Y-90769804D01*
X161447216Y-85695716D01*
X161416370Y-85658130D01*
X161266384Y-85535040D01*
X161095267Y-85443576D01*
X160909594Y-85387253D01*
X160764880Y-85373000D01*
X160716500Y-85368235D01*
X160668120Y-85373000D01*
X155503692Y-85373000D01*
X155423387Y-85307095D01*
X155290000Y-85235798D01*
X155290000Y-85201879D01*
X155294765Y-85153499D01*
X155275747Y-84960406D01*
X155219424Y-84774733D01*
X155191379Y-84722265D01*
X155127960Y-84603616D01*
X155004870Y-84453630D01*
X154967284Y-84422784D01*
X154147000Y-83602500D01*
X154147000Y-82356839D01*
X154255386Y-82298905D01*
X154389962Y-82188462D01*
X154500405Y-82053886D01*
X154556714Y-81948539D01*
X154572951Y-81969929D01*
X154790807Y-82162996D01*
X155042142Y-82309852D01*
X155305110Y-82401976D01*
X155535000Y-82280655D01*
X155535000Y-80962500D01*
X155515000Y-80962500D01*
X155515000Y-80708500D01*
X155535000Y-80708500D01*
X155535000Y-79390345D01*
X155789000Y-79390345D01*
X155789000Y-80708500D01*
X155809000Y-80708500D01*
X155809000Y-80962500D01*
X155789000Y-80962500D01*
X155789000Y-82280655D01*
X156018890Y-82401976D01*
X156281858Y-82309852D01*
X156533193Y-82162996D01*
X156751049Y-81969929D01*
X156907538Y-81763778D01*
X156921294Y-81789514D01*
X157106866Y-82015634D01*
X157332987Y-82201206D01*
X157590967Y-82339099D01*
X157870890Y-82424013D01*
X158162000Y-82452685D01*
X158453111Y-82424013D01*
X158733034Y-82339099D01*
X158859503Y-82271500D01*
X168160928Y-82271500D01*
X168164000Y-82835750D01*
X168322750Y-82994500D01*
X169672000Y-82994500D01*
X169672000Y-81795250D01*
X169926000Y-81795250D01*
X169926000Y-82994500D01*
X171275250Y-82994500D01*
X171434000Y-82835750D01*
X171437072Y-82271500D01*
X171424812Y-82147018D01*
X171388502Y-82027320D01*
X171329537Y-81917006D01*
X171250185Y-81820315D01*
X171153494Y-81740963D01*
X171043180Y-81681998D01*
X170923482Y-81645688D01*
X170799000Y-81633428D01*
X170084750Y-81636500D01*
X169926000Y-81795250D01*
X169672000Y-81795250D01*
X169513250Y-81636500D01*
X168799000Y-81633428D01*
X168674518Y-81645688D01*
X168554820Y-81681998D01*
X168444506Y-81740963D01*
X168347815Y-81820315D01*
X168268463Y-81917006D01*
X168209498Y-82027320D01*
X168173188Y-82147018D01*
X168160928Y-82271500D01*
X158859503Y-82271500D01*
X158991014Y-82201206D01*
X159217134Y-82015634D01*
X159402706Y-81789514D01*
X159540599Y-81531533D01*
X159614253Y-81288729D01*
X172125000Y-81288729D01*
X172125000Y-81906271D01*
X172245476Y-82511946D01*
X172481799Y-83082479D01*
X172824886Y-83595946D01*
X173261554Y-84032614D01*
X173775021Y-84375701D01*
X174345554Y-84612024D01*
X174951229Y-84732500D01*
X175568771Y-84732500D01*
X176174446Y-84612024D01*
X176744979Y-84375701D01*
X177258446Y-84032614D01*
X177695114Y-83595946D01*
X178038201Y-83082479D01*
X178274524Y-82511946D01*
X178395000Y-81906271D01*
X178395000Y-81288729D01*
X178274524Y-80683054D01*
X178038201Y-80112521D01*
X177695114Y-79599054D01*
X177258446Y-79162386D01*
X176744979Y-78819299D01*
X176174446Y-78582976D01*
X175568771Y-78462500D01*
X174951229Y-78462500D01*
X174345554Y-78582976D01*
X173775021Y-78819299D01*
X173261554Y-79162386D01*
X172824886Y-79599054D01*
X172481799Y-80112521D01*
X172245476Y-80683054D01*
X172125000Y-81288729D01*
X159614253Y-81288729D01*
X159625513Y-81251610D01*
X159647000Y-81033449D01*
X159647000Y-80637550D01*
X159625513Y-80419389D01*
X159540599Y-80139466D01*
X159402706Y-79881486D01*
X159217134Y-79655366D01*
X158991013Y-79469794D01*
X158733033Y-79331901D01*
X158453110Y-79246987D01*
X158162000Y-79218315D01*
X157870889Y-79246987D01*
X157590966Y-79331901D01*
X157332986Y-79469794D01*
X157106866Y-79655366D01*
X156921294Y-79881487D01*
X156907538Y-79907222D01*
X156751049Y-79701071D01*
X156533193Y-79508004D01*
X156281858Y-79361148D01*
X156018890Y-79269024D01*
X155789000Y-79390345D01*
X155535000Y-79390345D01*
X155305110Y-79269024D01*
X155042142Y-79361148D01*
X154790807Y-79508004D01*
X154572951Y-79701071D01*
X154556714Y-79722461D01*
X154500405Y-79617114D01*
X154389962Y-79482538D01*
X154255386Y-79372095D01*
X154101850Y-79290028D01*
X153935254Y-79239492D01*
X153762000Y-79222428D01*
X152562000Y-79222428D01*
X152388746Y-79239492D01*
X152222150Y-79290028D01*
X152068614Y-79372095D01*
X151934038Y-79482538D01*
X151823595Y-79617114D01*
X151741528Y-79770650D01*
X151690992Y-79937246D01*
X151673928Y-80110500D01*
X151673928Y-81560500D01*
X151690992Y-81733754D01*
X151741528Y-81900350D01*
X151823595Y-82053886D01*
X151934038Y-82188462D01*
X152068614Y-82298905D01*
X152177001Y-82356839D01*
X152177000Y-83962120D01*
X152172235Y-84010500D01*
X152177000Y-84058879D01*
X152191253Y-84203593D01*
X152247576Y-84389266D01*
X152339040Y-84560384D01*
X152462130Y-84710370D01*
X152499716Y-84741216D01*
X153120144Y-85361644D01*
X153052038Y-85417538D01*
X152941595Y-85552113D01*
X152859528Y-85705649D01*
X152808992Y-85872245D01*
X152791928Y-86045499D01*
X152791928Y-86213500D01*
X150013181Y-86213500D01*
X150018375Y-86203783D01*
X150067488Y-86041877D01*
X150084072Y-85873500D01*
X150084072Y-85423500D01*
X150067488Y-85255123D01*
X150018375Y-85093217D01*
X149938618Y-84944003D01*
X149831284Y-84813216D01*
X149700497Y-84705882D01*
X149551283Y-84626125D01*
X149452000Y-84596008D01*
X149452000Y-83673879D01*
X149456765Y-83625501D01*
X149452000Y-83577123D01*
X149452000Y-83304192D01*
X149517905Y-83223887D01*
X149599972Y-83070351D01*
X149650508Y-82903755D01*
X149667572Y-82730501D01*
X149667572Y-81480499D01*
X149650508Y-81307245D01*
X149599972Y-81140649D01*
X149517905Y-80987113D01*
X149407462Y-80852538D01*
X149272887Y-80742095D01*
X149119351Y-80660028D01*
X148952755Y-80609492D01*
X148779501Y-80592428D01*
X148154499Y-80592428D01*
X147981245Y-80609492D01*
X147814649Y-80660028D01*
X147661113Y-80742095D01*
X147526538Y-80852538D01*
X147416095Y-80987113D01*
X147334028Y-81140649D01*
X147283492Y-81307245D01*
X147266428Y-81480499D01*
X147266428Y-82730501D01*
X147283492Y-82903755D01*
X147334028Y-83070351D01*
X147410810Y-83214000D01*
X146697242Y-83214000D01*
X146730312Y-83104982D01*
X146742572Y-82980500D01*
X146739500Y-82391250D01*
X146580750Y-82232500D01*
X145669000Y-82232500D01*
X145669000Y-82252500D01*
X145415000Y-82252500D01*
X145415000Y-82232500D01*
X144503250Y-82232500D01*
X144344500Y-82391250D01*
X144341428Y-82980500D01*
X144343194Y-82998428D01*
X143900999Y-82998428D01*
X143727745Y-83015492D01*
X143561149Y-83066028D01*
X143407613Y-83148095D01*
X143273038Y-83258538D01*
X143162595Y-83393113D01*
X143080528Y-83546649D01*
X143029992Y-83713245D01*
X143012928Y-83886499D01*
X143012928Y-84319072D01*
X142560558Y-84771442D01*
X142560000Y-83969250D01*
X142401250Y-83810500D01*
X136652000Y-83810500D01*
X136652000Y-88859750D01*
X136810750Y-89018500D01*
X138505980Y-89019518D01*
X137625161Y-89900337D01*
X137550518Y-89907688D01*
X137430820Y-89943998D01*
X137375000Y-89973835D01*
X137319180Y-89943998D01*
X137199482Y-89907688D01*
X137075000Y-89895428D01*
X136810750Y-89898500D01*
X136652000Y-90057250D01*
X136652000Y-92706500D01*
X136672000Y-92706500D01*
X136672000Y-92960500D01*
X136652000Y-92960500D01*
X136652000Y-95609750D01*
X136810750Y-95768500D01*
X137075000Y-95771572D01*
X137199482Y-95759312D01*
X137319180Y-95723002D01*
X137375000Y-95693165D01*
X137430820Y-95723002D01*
X137550518Y-95759312D01*
X137675000Y-95771572D01*
X138775000Y-95771572D01*
X138899482Y-95759312D01*
X139019180Y-95723002D01*
X139075000Y-95693165D01*
X139130820Y-95723002D01*
X139250518Y-95759312D01*
X139375000Y-95771572D01*
X139639250Y-95768500D01*
X139798000Y-95609750D01*
X139798000Y-92960500D01*
X140052000Y-92960500D01*
X140052000Y-95609750D01*
X140210750Y-95768500D01*
X140475000Y-95771572D01*
X140599482Y-95759312D01*
X140719180Y-95723002D01*
X140829494Y-95664037D01*
X140926185Y-95584685D01*
X141005537Y-95487994D01*
X141064502Y-95377680D01*
X141100812Y-95257982D01*
X141113072Y-95133500D01*
X141110000Y-93119250D01*
X140951250Y-92960500D01*
X140052000Y-92960500D01*
X139798000Y-92960500D01*
X139778000Y-92960500D01*
X139778000Y-92706500D01*
X139798000Y-92706500D01*
X139798000Y-92686500D01*
X140052000Y-92686500D01*
X140052000Y-92706500D01*
X140951250Y-92706500D01*
X141110000Y-92547750D01*
X141112996Y-90583500D01*
X141651622Y-90583500D01*
X141700002Y-90588265D01*
X141748382Y-90583500D01*
X141893096Y-90569247D01*
X142078769Y-90512924D01*
X142249886Y-90421460D01*
X142399872Y-90298370D01*
X142430718Y-90260784D01*
X143541000Y-89150502D01*
X143541000Y-90058120D01*
X143536235Y-90106500D01*
X143549630Y-90242500D01*
X143555253Y-90299593D01*
X143611576Y-90485266D01*
X143703040Y-90656384D01*
X143826130Y-90806370D01*
X143863716Y-90837216D01*
X144896744Y-91870244D01*
X140752489Y-96014499D01*
X135569787Y-96014499D01*
X135529999Y-96010580D01*
X135490211Y-96014499D01*
X135177003Y-96014499D01*
X135424839Y-95766663D01*
X135499482Y-95759312D01*
X135619180Y-95723002D01*
X135675000Y-95693165D01*
X135730820Y-95723002D01*
X135850518Y-95759312D01*
X135975000Y-95771572D01*
X136239250Y-95768500D01*
X136398000Y-95609750D01*
X136398000Y-92960500D01*
X136378000Y-92960500D01*
X136378000Y-92706500D01*
X136398000Y-92706500D01*
X136398000Y-90057250D01*
X136239250Y-89898500D01*
X135975000Y-89895428D01*
X135850518Y-89907688D01*
X135730820Y-89943998D01*
X135675000Y-89973835D01*
X135619180Y-89943998D01*
X135499482Y-89907688D01*
X135375000Y-89895428D01*
X134275000Y-89895428D01*
X134150518Y-89907688D01*
X134030820Y-89943998D01*
X133975000Y-89973835D01*
X133919180Y-89943998D01*
X133799482Y-89907688D01*
X133675000Y-89895428D01*
X132713645Y-89895428D01*
X132585767Y-89827076D01*
X132400094Y-89770753D01*
X132255380Y-89756500D01*
X132207000Y-89751735D01*
X132158620Y-89756500D01*
X131009586Y-89756500D01*
X130984898Y-89746274D01*
X130784939Y-89706500D01*
X130581061Y-89706500D01*
X130381102Y-89746274D01*
X130356414Y-89756500D01*
X126011000Y-89756500D01*
X125319000Y-89064500D01*
X125319000Y-89020644D01*
X125373502Y-88918680D01*
X125409812Y-88798982D01*
X125422072Y-88674500D01*
X126545928Y-88674500D01*
X126558188Y-88798982D01*
X126594498Y-88918680D01*
X126653463Y-89028994D01*
X126732815Y-89125685D01*
X126829506Y-89205037D01*
X126939820Y-89264002D01*
X127059518Y-89300312D01*
X127184000Y-89312572D01*
X127348250Y-89309500D01*
X127507000Y-89150750D01*
X127507000Y-88201500D01*
X127761000Y-88201500D01*
X127761000Y-89150750D01*
X127919750Y-89309500D01*
X128084000Y-89312572D01*
X128208482Y-89300312D01*
X128328180Y-89264002D01*
X128438494Y-89205037D01*
X128535185Y-89125685D01*
X128614537Y-89028994D01*
X128673502Y-88918680D01*
X128709812Y-88798982D01*
X128722072Y-88674500D01*
X128719228Y-88383500D01*
X130486928Y-88383500D01*
X130499188Y-88507982D01*
X130535498Y-88627680D01*
X130594463Y-88737994D01*
X130673815Y-88834685D01*
X130770506Y-88914037D01*
X130880820Y-88973002D01*
X131000518Y-89009312D01*
X131125000Y-89021572D01*
X136239250Y-89018500D01*
X136398000Y-88859750D01*
X136398000Y-83810500D01*
X130648750Y-83810500D01*
X130490000Y-83969250D01*
X130486928Y-88383500D01*
X128719228Y-88383500D01*
X128719000Y-88360250D01*
X128560250Y-88201500D01*
X127761000Y-88201500D01*
X127507000Y-88201500D01*
X126707750Y-88201500D01*
X126549000Y-88360250D01*
X126545928Y-88674500D01*
X125422072Y-88674500D01*
X125422072Y-87474500D01*
X126545928Y-87474500D01*
X126549000Y-87788750D01*
X126707750Y-87947500D01*
X127507000Y-87947500D01*
X127507000Y-86998250D01*
X127761000Y-86998250D01*
X127761000Y-87947500D01*
X128560250Y-87947500D01*
X128719000Y-87788750D01*
X128722072Y-87474500D01*
X128709812Y-87350018D01*
X128673502Y-87230320D01*
X128614537Y-87120006D01*
X128535185Y-87023315D01*
X128438494Y-86943963D01*
X128328180Y-86884998D01*
X128208482Y-86848688D01*
X128084000Y-86836428D01*
X127919750Y-86839500D01*
X127761000Y-86998250D01*
X127507000Y-86998250D01*
X127348250Y-86839500D01*
X127184000Y-86836428D01*
X127059518Y-86848688D01*
X126939820Y-86884998D01*
X126829506Y-86943963D01*
X126732815Y-87023315D01*
X126653463Y-87120006D01*
X126594498Y-87230320D01*
X126558188Y-87350018D01*
X126545928Y-87474500D01*
X125422072Y-87474500D01*
X125409812Y-87350018D01*
X125373502Y-87230320D01*
X125319000Y-87128356D01*
X125319000Y-85433500D01*
X126118491Y-84634010D01*
X126279211Y-84634010D01*
X126375506Y-84713037D01*
X126485820Y-84772002D01*
X126605518Y-84808312D01*
X126730000Y-84820572D01*
X128030000Y-84820572D01*
X128154482Y-84808312D01*
X128274180Y-84772002D01*
X128384494Y-84713037D01*
X128481185Y-84633685D01*
X128560537Y-84536994D01*
X128619502Y-84426680D01*
X128655812Y-84306982D01*
X128668072Y-84182500D01*
X128668072Y-83282500D01*
X128655812Y-83158018D01*
X128619502Y-83038320D01*
X128560537Y-82928006D01*
X128481185Y-82831315D01*
X128384494Y-82751963D01*
X128274180Y-82692998D01*
X128154482Y-82656688D01*
X128030000Y-82644428D01*
X126730000Y-82644428D01*
X126605518Y-82656688D01*
X126581381Y-82664010D01*
X125758870Y-82664010D01*
X125710490Y-82659245D01*
X125662110Y-82664010D01*
X125517396Y-82678263D01*
X125331723Y-82734586D01*
X125160606Y-82826050D01*
X125010620Y-82949140D01*
X124979779Y-82986720D01*
X123671711Y-84294789D01*
X123634131Y-84325630D01*
X123511041Y-84475616D01*
X123465732Y-84560383D01*
X123419576Y-84646734D01*
X123363253Y-84832407D01*
X123344235Y-85025500D01*
X123349001Y-85073890D01*
X123349000Y-87089500D01*
X120444377Y-87089500D01*
X120395999Y-87084735D01*
X120347621Y-87089500D01*
X120347620Y-87089500D01*
X120202906Y-87103753D01*
X120017233Y-87160076D01*
X119846116Y-87251540D01*
X119696130Y-87374630D01*
X119665284Y-87412216D01*
X116177716Y-90899784D01*
X116140130Y-90930630D01*
X116109289Y-90968210D01*
X113913711Y-93163789D01*
X113876131Y-93194630D01*
X113753041Y-93344616D01*
X113717166Y-93411733D01*
X113672964Y-93494428D01*
X113526000Y-93494428D01*
X113352746Y-93511492D01*
X113186150Y-93562028D01*
X113032614Y-93644095D01*
X112898038Y-93754538D01*
X112835031Y-93831313D01*
X112806537Y-93778006D01*
X112727185Y-93681315D01*
X112630494Y-93601963D01*
X112520180Y-93542998D01*
X112400482Y-93506688D01*
X112276000Y-93494428D01*
X111261750Y-93497500D01*
X111103000Y-93656250D01*
X111103000Y-94805500D01*
X111123000Y-94805500D01*
X111123000Y-95059500D01*
X111103000Y-95059500D01*
X111103000Y-96208750D01*
X111261750Y-96367500D01*
X112276000Y-96370572D01*
X112400482Y-96358312D01*
X112520180Y-96322002D01*
X112630494Y-96263037D01*
X112727185Y-96183685D01*
X112806537Y-96086994D01*
X112835031Y-96033687D01*
X112898038Y-96110462D01*
X113032614Y-96220905D01*
X113186150Y-96302972D01*
X113352746Y-96353508D01*
X113526000Y-96370572D01*
X115626000Y-96370572D01*
X115799254Y-96353508D01*
X115965850Y-96302972D01*
X116119386Y-96220905D01*
X116253962Y-96110462D01*
X116364405Y-95975886D01*
X116446472Y-95822350D01*
X116497008Y-95655754D01*
X116514072Y-95482500D01*
X116514072Y-94382500D01*
X116497008Y-94209246D01*
X116446472Y-94042650D01*
X116364405Y-93889114D01*
X116253962Y-93754538D01*
X116174321Y-93689179D01*
X117502291Y-92361210D01*
X117539870Y-92330370D01*
X117570716Y-92292784D01*
X120804000Y-89059500D01*
X123349001Y-89059500D01*
X123349001Y-89424111D01*
X123344235Y-89472500D01*
X123363253Y-89665593D01*
X123419576Y-89851266D01*
X123455535Y-89918540D01*
X123511041Y-90022384D01*
X123634131Y-90172370D01*
X123671711Y-90203211D01*
X124125010Y-90656510D01*
X121831370Y-90656510D01*
X121782990Y-90651745D01*
X121734610Y-90656510D01*
X121589896Y-90670763D01*
X121404223Y-90727086D01*
X121233106Y-90818550D01*
X121083120Y-90941640D01*
X121052279Y-90979220D01*
X119329072Y-92702428D01*
X119034000Y-92702428D01*
X118909518Y-92714688D01*
X118789820Y-92750998D01*
X118679506Y-92809963D01*
X118582815Y-92889315D01*
X118503463Y-92986006D01*
X118444498Y-93096320D01*
X118408188Y-93216018D01*
X118395928Y-93340500D01*
X118395928Y-94240500D01*
X118408188Y-94364982D01*
X118444498Y-94484680D01*
X118503463Y-94594994D01*
X118582815Y-94691685D01*
X118679506Y-94771037D01*
X118789820Y-94830002D01*
X118909518Y-94866312D01*
X119034000Y-94878572D01*
X120219072Y-94878572D01*
X121987001Y-96646502D01*
X121987001Y-96856762D01*
X121919038Y-96912538D01*
X121808595Y-97047113D01*
X121726528Y-97200649D01*
X121675992Y-97367245D01*
X121658928Y-97540499D01*
X121658928Y-99690501D01*
X121675992Y-99863755D01*
X121726528Y-100030351D01*
X121808595Y-100183887D01*
X121919038Y-100318462D01*
X122053613Y-100428905D01*
X122207149Y-100510972D01*
X122373745Y-100561508D01*
X122546999Y-100578572D01*
X123397001Y-100578572D01*
X123570255Y-100561508D01*
X123736851Y-100510972D01*
X123890387Y-100428905D01*
X124024962Y-100318462D01*
X124135405Y-100183887D01*
X124217472Y-100030351D01*
X124268008Y-99863755D01*
X124285072Y-99690501D01*
X124285072Y-97540499D01*
X124268008Y-97367245D01*
X124217472Y-97200649D01*
X124135405Y-97047113D01*
X124024962Y-96912538D01*
X123957000Y-96856763D01*
X123957000Y-96286880D01*
X123961765Y-96238500D01*
X123942747Y-96045406D01*
X123886424Y-95859733D01*
X123794960Y-95688616D01*
X123748800Y-95632370D01*
X123671870Y-95538630D01*
X123634290Y-95507789D01*
X123605884Y-95479383D01*
X123660623Y-95495988D01*
X123829000Y-95512572D01*
X124329000Y-95512572D01*
X124497377Y-95495988D01*
X124659283Y-95446875D01*
X124729206Y-95409500D01*
X126523000Y-95409500D01*
X126523001Y-96827218D01*
X126419038Y-96912538D01*
X126308595Y-97047113D01*
X126226528Y-97200649D01*
X126175992Y-97367245D01*
X126158928Y-97540499D01*
X126158928Y-99690501D01*
X126175992Y-99863755D01*
X126226528Y-100030351D01*
X126308595Y-100183887D01*
X126419038Y-100318462D01*
X126553613Y-100428905D01*
X126707149Y-100510972D01*
X126873745Y-100561508D01*
X127046999Y-100578572D01*
X127897001Y-100578572D01*
X128070255Y-100561508D01*
X128236851Y-100510972D01*
X128390387Y-100428905D01*
X128524962Y-100318462D01*
X128635405Y-100183887D01*
X128717472Y-100030351D01*
X128768008Y-99863755D01*
X128785072Y-99690501D01*
X128785072Y-99425500D01*
X129881212Y-99425500D01*
X129921000Y-99429419D01*
X129960788Y-99425500D01*
X129960791Y-99425500D01*
X130079788Y-99413780D01*
X130232473Y-99367463D01*
X130373189Y-99292249D01*
X130496528Y-99191028D01*
X130521899Y-99160113D01*
X131563206Y-98118807D01*
X131651000Y-98250201D01*
X131651000Y-98543133D01*
X131649463Y-98545006D01*
X131590498Y-98655320D01*
X131554188Y-98775018D01*
X131541928Y-98899500D01*
X131541928Y-100236428D01*
X130205000Y-100236428D01*
X130080518Y-100248688D01*
X129960820Y-100284998D01*
X129850506Y-100343963D01*
X129753815Y-100423315D01*
X129674463Y-100520006D01*
X129615498Y-100630320D01*
X129579188Y-100750018D01*
X129566928Y-100874500D01*
X129566928Y-101424500D01*
X129579188Y-101548982D01*
X129579345Y-101549500D01*
X129579188Y-101550018D01*
X129566928Y-101674500D01*
X129566928Y-102224500D01*
X129579188Y-102348982D01*
X129579345Y-102349500D01*
X129579188Y-102350018D01*
X129566928Y-102474500D01*
X129566928Y-103024500D01*
X129579188Y-103148982D01*
X129579345Y-103149500D01*
X129579188Y-103150018D01*
X129566928Y-103274500D01*
X129566928Y-103824500D01*
X129579188Y-103948982D01*
X129579345Y-103949500D01*
X129579188Y-103950018D01*
X129566928Y-104074500D01*
X129566928Y-104339500D01*
X128305072Y-104339500D01*
X128305072Y-103535500D01*
X128292812Y-103411018D01*
X128256502Y-103291320D01*
X128197537Y-103181006D01*
X128118185Y-103084315D01*
X128021494Y-103004963D01*
X127911180Y-102945998D01*
X127791482Y-102909688D01*
X127667000Y-102897428D01*
X127267000Y-102897428D01*
X127142518Y-102909688D01*
X127139554Y-102910587D01*
X127048750Y-102900500D01*
X126980782Y-102968468D01*
X126912506Y-103004963D01*
X126817000Y-103083342D01*
X126721494Y-103004963D01*
X126653218Y-102968468D01*
X126585250Y-102900500D01*
X126494446Y-102910587D01*
X126491482Y-102909688D01*
X126367000Y-102897428D01*
X125967000Y-102897428D01*
X125842518Y-102909688D01*
X125842000Y-102909845D01*
X125841482Y-102909688D01*
X125717000Y-102897428D01*
X125317000Y-102897428D01*
X125192518Y-102909688D01*
X125072820Y-102945998D01*
X124962506Y-103004963D01*
X124865815Y-103084315D01*
X124786463Y-103181006D01*
X124727498Y-103291320D01*
X124691188Y-103411018D01*
X124678928Y-103535500D01*
X124678928Y-104490060D01*
X123870488Y-105298500D01*
X122662208Y-105298500D01*
X122671072Y-105208500D01*
X122668000Y-104931750D01*
X122509250Y-104773000D01*
X121285000Y-104773000D01*
X121285000Y-104793000D01*
X121031000Y-104793000D01*
X121031000Y-104773000D01*
X119806750Y-104773000D01*
X119648000Y-104931750D01*
X119644928Y-105208500D01*
X119653792Y-105298500D01*
X117809578Y-105298500D01*
X117793513Y-105135389D01*
X117708599Y-104855466D01*
X117570706Y-104597486D01*
X117385134Y-104371366D01*
X117159014Y-104185794D01*
X117133278Y-104172038D01*
X117249913Y-104083500D01*
X119644928Y-104083500D01*
X119648000Y-104360250D01*
X119806750Y-104519000D01*
X121031000Y-104519000D01*
X121031000Y-103607250D01*
X121285000Y-103607250D01*
X121285000Y-104519000D01*
X122509250Y-104519000D01*
X122668000Y-104360250D01*
X122671072Y-104083500D01*
X122658812Y-103959018D01*
X122622502Y-103839320D01*
X122563537Y-103729006D01*
X122484185Y-103632315D01*
X122387494Y-103552963D01*
X122277180Y-103493998D01*
X122157482Y-103457688D01*
X122033000Y-103445428D01*
X121443750Y-103448500D01*
X121285000Y-103607250D01*
X121031000Y-103607250D01*
X120872250Y-103448500D01*
X120283000Y-103445428D01*
X120158518Y-103457688D01*
X120038820Y-103493998D01*
X119928506Y-103552963D01*
X119831815Y-103632315D01*
X119752463Y-103729006D01*
X119693498Y-103839320D01*
X119657188Y-103959018D01*
X119644928Y-104083500D01*
X117249913Y-104083500D01*
X117339429Y-104015549D01*
X117532496Y-103797693D01*
X117679352Y-103546358D01*
X117771476Y-103283390D01*
X117650155Y-103053500D01*
X116332000Y-103053500D01*
X116332000Y-103073500D01*
X116078000Y-103073500D01*
X116078000Y-103053500D01*
X114759845Y-103053500D01*
X114638524Y-103283390D01*
X114730648Y-103546358D01*
X114877504Y-103797693D01*
X115070571Y-104015549D01*
X115276722Y-104172038D01*
X115250986Y-104185794D01*
X115024866Y-104371366D01*
X114839294Y-104597486D01*
X114701401Y-104855466D01*
X114616487Y-105135389D01*
X114587815Y-105426500D01*
X114616487Y-105717611D01*
X114701401Y-105997534D01*
X114839294Y-106255514D01*
X115024866Y-106481634D01*
X115250986Y-106667206D01*
X115268374Y-106676500D01*
X115250986Y-106685794D01*
X115024866Y-106871366D01*
X114839294Y-107097486D01*
X114701401Y-107355466D01*
X114616487Y-107635389D01*
X114587815Y-107926500D01*
X114616487Y-108217611D01*
X114701401Y-108497534D01*
X114839294Y-108755514D01*
X115024866Y-108981634D01*
X115088337Y-109033723D01*
X114986614Y-109088095D01*
X114852038Y-109198538D01*
X114741595Y-109333114D01*
X114659528Y-109486650D01*
X114608992Y-109653246D01*
X114591928Y-109826500D01*
X114591928Y-110386059D01*
X111582383Y-113395605D01*
X111551473Y-113420972D01*
X111526108Y-113451880D01*
X111450251Y-113544311D01*
X111382016Y-113671972D01*
X111375038Y-113685027D01*
X111331817Y-113827508D01*
X111328721Y-113837713D01*
X111313081Y-113996500D01*
X111317001Y-114036298D01*
X111317001Y-114407337D01*
X111252518Y-114413688D01*
X111132820Y-114449998D01*
X111022506Y-114508963D01*
X110925815Y-114588315D01*
X110846463Y-114685006D01*
X110787498Y-114795320D01*
X110751188Y-114915018D01*
X110738928Y-115039500D01*
X101013635Y-115039500D01*
X100997970Y-102569610D01*
X114638524Y-102569610D01*
X114759845Y-102799500D01*
X116078000Y-102799500D01*
X116078000Y-101600335D01*
X116332000Y-101600335D01*
X116332000Y-102799500D01*
X117650155Y-102799500D01*
X117771476Y-102569610D01*
X117679352Y-102306642D01*
X117532496Y-102055307D01*
X117339429Y-101837451D01*
X117107570Y-101661447D01*
X116845830Y-101534058D01*
X116564267Y-101460180D01*
X116332000Y-101600335D01*
X116078000Y-101600335D01*
X115845733Y-101460180D01*
X115564170Y-101534058D01*
X115302430Y-101661447D01*
X115070571Y-101837451D01*
X114877504Y-102055307D01*
X114730648Y-102306642D01*
X114638524Y-102569610D01*
X100997970Y-102569610D01*
X100991652Y-97540500D01*
X118395928Y-97540500D01*
X118408188Y-97664982D01*
X118444498Y-97784680D01*
X118503463Y-97894994D01*
X118582815Y-97991685D01*
X118679506Y-98071037D01*
X118789820Y-98130002D01*
X118909518Y-98166312D01*
X119034000Y-98178572D01*
X119348250Y-98175500D01*
X119507000Y-98016750D01*
X119507000Y-97217500D01*
X119761000Y-97217500D01*
X119761000Y-98016750D01*
X119919750Y-98175500D01*
X120234000Y-98178572D01*
X120358482Y-98166312D01*
X120478180Y-98130002D01*
X120588494Y-98071037D01*
X120685185Y-97991685D01*
X120764537Y-97894994D01*
X120823502Y-97784680D01*
X120859812Y-97664982D01*
X120872072Y-97540500D01*
X120869000Y-97376250D01*
X120710250Y-97217500D01*
X119761000Y-97217500D01*
X119507000Y-97217500D01*
X118557750Y-97217500D01*
X118399000Y-97376250D01*
X118395928Y-97540500D01*
X100991652Y-97540500D01*
X100990522Y-96640500D01*
X118395928Y-96640500D01*
X118399000Y-96804750D01*
X118557750Y-96963500D01*
X119507000Y-96963500D01*
X119507000Y-96164250D01*
X119761000Y-96164250D01*
X119761000Y-96963500D01*
X120710250Y-96963500D01*
X120869000Y-96804750D01*
X120872072Y-96640500D01*
X120859812Y-96516018D01*
X120823502Y-96396320D01*
X120764537Y-96286006D01*
X120685185Y-96189315D01*
X120588494Y-96109963D01*
X120478180Y-96050998D01*
X120358482Y-96014688D01*
X120234000Y-96002428D01*
X119919750Y-96005500D01*
X119761000Y-96164250D01*
X119507000Y-96164250D01*
X119348250Y-96005500D01*
X119034000Y-96002428D01*
X118909518Y-96014688D01*
X118789820Y-96050998D01*
X118679506Y-96109963D01*
X118582815Y-96189315D01*
X118503463Y-96286006D01*
X118444498Y-96396320D01*
X118408188Y-96516018D01*
X118395928Y-96640500D01*
X100990522Y-96640500D01*
X100989380Y-95732500D01*
X109037928Y-95732500D01*
X109050188Y-95856982D01*
X109086498Y-95976680D01*
X109145463Y-96086994D01*
X109224815Y-96183685D01*
X109321506Y-96263037D01*
X109431820Y-96322002D01*
X109551518Y-96358312D01*
X109676000Y-96370572D01*
X110690250Y-96367500D01*
X110849000Y-96208750D01*
X110849000Y-95059500D01*
X109199750Y-95059500D01*
X109041000Y-95218250D01*
X109037928Y-95732500D01*
X100989380Y-95732500D01*
X100987370Y-94132500D01*
X109037928Y-94132500D01*
X109041000Y-94646750D01*
X109199750Y-94805500D01*
X110849000Y-94805500D01*
X110849000Y-93656250D01*
X110690250Y-93497500D01*
X109676000Y-93494428D01*
X109551518Y-93506688D01*
X109431820Y-93542998D01*
X109321506Y-93601963D01*
X109224815Y-93681315D01*
X109145463Y-93778006D01*
X109086498Y-93888320D01*
X109050188Y-94008018D01*
X109037928Y-94132500D01*
X100987370Y-94132500D01*
X100978917Y-87403221D01*
X113562000Y-87403221D01*
X113562000Y-87823779D01*
X113644047Y-88236256D01*
X113804988Y-88624802D01*
X114038637Y-88974483D01*
X114336017Y-89271863D01*
X114685698Y-89505512D01*
X115074244Y-89666453D01*
X115486721Y-89748500D01*
X115907279Y-89748500D01*
X116319756Y-89666453D01*
X116708302Y-89505512D01*
X117057983Y-89271863D01*
X117355363Y-88974483D01*
X117589012Y-88624802D01*
X117749953Y-88236256D01*
X117832000Y-87823779D01*
X117832000Y-87403221D01*
X117749953Y-86990744D01*
X117739058Y-86964442D01*
X122986001Y-81717500D01*
X126383856Y-81717500D01*
X126485820Y-81772002D01*
X126605518Y-81808312D01*
X126730000Y-81820572D01*
X128030000Y-81820572D01*
X128154482Y-81808312D01*
X128274180Y-81772002D01*
X128384494Y-81713037D01*
X128481185Y-81633685D01*
X128560537Y-81536994D01*
X128619502Y-81426680D01*
X128655812Y-81306982D01*
X128668072Y-81182500D01*
X128668072Y-80282500D01*
X128655812Y-80158018D01*
X128619502Y-80038320D01*
X128560537Y-79928006D01*
X128481185Y-79831315D01*
X128384494Y-79751963D01*
X128274180Y-79692998D01*
X128154482Y-79656688D01*
X128030000Y-79644428D01*
X126730000Y-79644428D01*
X126605518Y-79656688D01*
X126485820Y-79692998D01*
X126383856Y-79747500D01*
X122626380Y-79747500D01*
X122578000Y-79742735D01*
X122529620Y-79747500D01*
X122384906Y-79761753D01*
X122199233Y-79818076D01*
X122028116Y-79909540D01*
X121878130Y-80032630D01*
X121847289Y-80070210D01*
X117834994Y-84082506D01*
X117832000Y-82899250D01*
X117673250Y-82740500D01*
X115824000Y-82740500D01*
X115824000Y-84589750D01*
X115982750Y-84748500D01*
X117166006Y-84751494D01*
X116346058Y-85571442D01*
X116319756Y-85560547D01*
X115907279Y-85478500D01*
X115486721Y-85478500D01*
X115074244Y-85560547D01*
X114685698Y-85721488D01*
X114336017Y-85955137D01*
X114038637Y-86252517D01*
X113804988Y-86602198D01*
X113644047Y-86990744D01*
X113562000Y-87403221D01*
X100978917Y-87403221D01*
X100971873Y-81796729D01*
X102529000Y-81796729D01*
X102529000Y-82414271D01*
X102649476Y-83019946D01*
X102885799Y-83590479D01*
X103228886Y-84103946D01*
X103665554Y-84540614D01*
X104179021Y-84883701D01*
X104749554Y-85120024D01*
X105355229Y-85240500D01*
X105972771Y-85240500D01*
X106578446Y-85120024D01*
X107148979Y-84883701D01*
X107662446Y-84540614D01*
X108089560Y-84113500D01*
X113558928Y-84113500D01*
X113571188Y-84237982D01*
X113607498Y-84357680D01*
X113666463Y-84467994D01*
X113745815Y-84564685D01*
X113842506Y-84644037D01*
X113952820Y-84703002D01*
X114072518Y-84739312D01*
X114197000Y-84751572D01*
X115411250Y-84748500D01*
X115570000Y-84589750D01*
X115570000Y-82740500D01*
X113720750Y-82740500D01*
X113562000Y-82899250D01*
X113558928Y-84113500D01*
X108089560Y-84113500D01*
X108099114Y-84103946D01*
X108442201Y-83590479D01*
X108678524Y-83019946D01*
X108799000Y-82414271D01*
X108799000Y-81796729D01*
X108678524Y-81191054D01*
X108646401Y-81113500D01*
X113558928Y-81113500D01*
X113562000Y-82327750D01*
X113720750Y-82486500D01*
X115570000Y-82486500D01*
X115570000Y-80637250D01*
X115824000Y-80637250D01*
X115824000Y-82486500D01*
X117673250Y-82486500D01*
X117832000Y-82327750D01*
X117835072Y-81113500D01*
X117822812Y-80989018D01*
X117786502Y-80869320D01*
X117727537Y-80759006D01*
X117648185Y-80662315D01*
X117551494Y-80582963D01*
X117441180Y-80523998D01*
X117321482Y-80487688D01*
X117197000Y-80475428D01*
X115982750Y-80478500D01*
X115824000Y-80637250D01*
X115570000Y-80637250D01*
X115411250Y-80478500D01*
X114197000Y-80475428D01*
X114072518Y-80487688D01*
X113952820Y-80523998D01*
X113842506Y-80582963D01*
X113745815Y-80662315D01*
X113666463Y-80759006D01*
X113607498Y-80869320D01*
X113571188Y-80989018D01*
X113558928Y-81113500D01*
X108646401Y-81113500D01*
X108442201Y-80620521D01*
X108099114Y-80107054D01*
X107662446Y-79670386D01*
X107148979Y-79327299D01*
X106578446Y-79090976D01*
X106038127Y-78983500D01*
X130486928Y-78983500D01*
X130490000Y-83397750D01*
X130648750Y-83556500D01*
X136398000Y-83556500D01*
X136398000Y-78507250D01*
X136652000Y-78507250D01*
X136652000Y-83556500D01*
X142401250Y-83556500D01*
X142560000Y-83397750D01*
X142561508Y-81230500D01*
X144341428Y-81230500D01*
X144344500Y-81819750D01*
X144503250Y-81978500D01*
X145415000Y-81978500D01*
X145415000Y-80754250D01*
X145669000Y-80754250D01*
X145669000Y-81978500D01*
X146580750Y-81978500D01*
X146739500Y-81819750D01*
X146742572Y-81230500D01*
X146730312Y-81106018D01*
X146694002Y-80986320D01*
X146635037Y-80876006D01*
X146555685Y-80779315D01*
X146458994Y-80699963D01*
X146348680Y-80640998D01*
X146228982Y-80604688D01*
X146104500Y-80592428D01*
X145827750Y-80595500D01*
X145669000Y-80754250D01*
X145415000Y-80754250D01*
X145256250Y-80595500D01*
X144979500Y-80592428D01*
X144855018Y-80604688D01*
X144735320Y-80640998D01*
X144625006Y-80699963D01*
X144528315Y-80779315D01*
X144448963Y-80876006D01*
X144389998Y-80986320D01*
X144353688Y-81106018D01*
X144341428Y-81230500D01*
X142561508Y-81230500D01*
X142563072Y-78983500D01*
X142550812Y-78859018D01*
X142514502Y-78739320D01*
X142455537Y-78629006D01*
X142376185Y-78532315D01*
X142279494Y-78452963D01*
X142169180Y-78393998D01*
X142049482Y-78357688D01*
X141925000Y-78345428D01*
X136810750Y-78348500D01*
X136652000Y-78507250D01*
X136398000Y-78507250D01*
X136239250Y-78348500D01*
X131125000Y-78345428D01*
X131000518Y-78357688D01*
X130880820Y-78393998D01*
X130770506Y-78452963D01*
X130673815Y-78532315D01*
X130594463Y-78629006D01*
X130535498Y-78739320D01*
X130499188Y-78859018D01*
X130486928Y-78983500D01*
X106038127Y-78983500D01*
X105972771Y-78970500D01*
X105355229Y-78970500D01*
X104749554Y-79090976D01*
X104179021Y-79327299D01*
X103665554Y-79670386D01*
X103228886Y-80107054D01*
X102885799Y-80620521D01*
X102649476Y-81191054D01*
X102529000Y-81796729D01*
X100971873Y-81796729D01*
X100965160Y-76453903D01*
X183578660Y-76390597D01*
X183641840Y-126619195D01*
%TA.AperFunction,Conductor*%
D39*
G36*
X183641840Y-126619195D02*
G01*
X101028340Y-126745805D01*
X101019577Y-119769729D01*
X102783000Y-119769729D01*
X102783000Y-120387271D01*
X102903476Y-120992946D01*
X103139799Y-121563479D01*
X103482886Y-122076946D01*
X103919554Y-122513614D01*
X104433021Y-122856701D01*
X105003554Y-123093024D01*
X105609229Y-123213500D01*
X106226771Y-123213500D01*
X106832446Y-123093024D01*
X107402979Y-122856701D01*
X107916446Y-122513614D01*
X108353114Y-122076946D01*
X108696201Y-121563479D01*
X108932524Y-120992946D01*
X109053000Y-120387271D01*
X109053000Y-119769729D01*
X108932524Y-119164054D01*
X108696201Y-118593521D01*
X108353114Y-118080054D01*
X107916446Y-117643386D01*
X107402979Y-117300299D01*
X106832446Y-117063976D01*
X106226771Y-116943500D01*
X105609229Y-116943500D01*
X105003554Y-117063976D01*
X104433021Y-117300299D01*
X103919554Y-117643386D01*
X103482886Y-118080054D01*
X103139799Y-118593521D01*
X102903476Y-119164054D01*
X102783000Y-119769729D01*
X101019577Y-119769729D01*
X101013635Y-115039500D01*
X110738928Y-115039500D01*
X110738928Y-117039500D01*
X110751188Y-117163982D01*
X110787498Y-117283680D01*
X110846463Y-117393994D01*
X110925815Y-117490685D01*
X111022506Y-117570037D01*
X111132820Y-117629002D01*
X111252518Y-117665312D01*
X111377000Y-117677572D01*
X112877000Y-117677572D01*
X113001482Y-117665312D01*
X113121180Y-117629002D01*
X113231494Y-117570037D01*
X113277000Y-117532691D01*
X113322506Y-117570037D01*
X113432820Y-117629002D01*
X113552518Y-117665312D01*
X113617000Y-117671663D01*
X113617001Y-120701428D01*
X112527000Y-120701428D01*
X112402518Y-120713688D01*
X112282820Y-120749998D01*
X112172506Y-120808963D01*
X112075815Y-120888315D01*
X111996463Y-120985006D01*
X111937498Y-121095320D01*
X111901188Y-121215018D01*
X111888928Y-121339500D01*
X111888928Y-123339500D01*
X111901188Y-123463982D01*
X111937498Y-123583680D01*
X111996463Y-123693994D01*
X112075815Y-123790685D01*
X112172506Y-123870037D01*
X112282820Y-123929002D01*
X112402518Y-123965312D01*
X112527000Y-123977572D01*
X116327000Y-123977572D01*
X116451482Y-123965312D01*
X116571180Y-123929002D01*
X116681494Y-123870037D01*
X116778185Y-123790685D01*
X116857537Y-123693994D01*
X116916502Y-123583680D01*
X116952812Y-123463982D01*
X116965072Y-123339500D01*
X116965072Y-123149500D01*
X119034166Y-123149500D01*
X119072382Y-123220997D01*
X119179716Y-123351784D01*
X119310503Y-123459118D01*
X119459717Y-123538875D01*
X119621623Y-123587988D01*
X119790000Y-123604572D01*
X120240000Y-123604572D01*
X120408377Y-123587988D01*
X120570283Y-123538875D01*
X120716351Y-123460800D01*
X120760506Y-123497037D01*
X120870820Y-123556002D01*
X120990518Y-123592312D01*
X121115000Y-123604572D01*
X121279250Y-123601500D01*
X121438000Y-123442750D01*
X121438000Y-122618500D01*
X121692000Y-122618500D01*
X121692000Y-123442750D01*
X121850750Y-123601500D01*
X122015000Y-123604572D01*
X122139482Y-123592312D01*
X122259180Y-123556002D01*
X122364113Y-123499913D01*
X125132192Y-123499913D01*
X125227956Y-123764314D01*
X125517571Y-123905204D01*
X125829108Y-123986884D01*
X126150595Y-124006218D01*
X126469675Y-123962461D01*
X126774088Y-123857295D01*
X126948044Y-123764314D01*
X127043808Y-123499913D01*
X131632192Y-123499913D01*
X131727956Y-123764314D01*
X132017571Y-123905204D01*
X132329108Y-123986884D01*
X132650595Y-124006218D01*
X132969675Y-123962461D01*
X133274088Y-123857295D01*
X133448044Y-123764314D01*
X133543808Y-123499913D01*
X132588000Y-122544105D01*
X131632192Y-123499913D01*
X127043808Y-123499913D01*
X126088000Y-122544105D01*
X125132192Y-123499913D01*
X122364113Y-123499913D01*
X122369494Y-123497037D01*
X122466185Y-123417685D01*
X122545537Y-123320994D01*
X122604502Y-123210680D01*
X122640812Y-123090982D01*
X122653072Y-122966500D01*
X122650000Y-122777250D01*
X122491250Y-122618500D01*
X121692000Y-122618500D01*
X121438000Y-122618500D01*
X121418000Y-122618500D01*
X121418000Y-122427095D01*
X124446282Y-122427095D01*
X124490039Y-122746175D01*
X124595205Y-123050588D01*
X124688186Y-123224544D01*
X124952587Y-123320308D01*
X125908395Y-122364500D01*
X126267605Y-122364500D01*
X127223413Y-123320308D01*
X127487814Y-123224544D01*
X127628704Y-122934929D01*
X127710384Y-122623392D01*
X127722189Y-122427095D01*
X130946282Y-122427095D01*
X130990039Y-122746175D01*
X131095205Y-123050588D01*
X131188186Y-123224544D01*
X131452587Y-123320308D01*
X132408395Y-122364500D01*
X132767605Y-122364500D01*
X133723413Y-123320308D01*
X133987814Y-123224544D01*
X134128704Y-122934929D01*
X134210384Y-122623392D01*
X134229718Y-122301905D01*
X134185961Y-121982825D01*
X134080795Y-121678412D01*
X133987814Y-121504456D01*
X133723413Y-121408692D01*
X132767605Y-122364500D01*
X132408395Y-122364500D01*
X131452587Y-121408692D01*
X131188186Y-121504456D01*
X131047296Y-121794071D01*
X130965616Y-122105608D01*
X130946282Y-122427095D01*
X127722189Y-122427095D01*
X127729718Y-122301905D01*
X127685961Y-121982825D01*
X127580795Y-121678412D01*
X127487814Y-121504456D01*
X127223413Y-121408692D01*
X126267605Y-122364500D01*
X125908395Y-122364500D01*
X124952587Y-121408692D01*
X124688186Y-121504456D01*
X124547296Y-121794071D01*
X124465616Y-122105608D01*
X124446282Y-122427095D01*
X121418000Y-122427095D01*
X121418000Y-122364500D01*
X121438000Y-122364500D01*
X121438000Y-121540250D01*
X121692000Y-121540250D01*
X121692000Y-122364500D01*
X122491250Y-122364500D01*
X122650000Y-122205750D01*
X122653072Y-122016500D01*
X122640812Y-121892018D01*
X122604502Y-121772320D01*
X122545537Y-121662006D01*
X122466185Y-121565315D01*
X122369494Y-121485963D01*
X122259180Y-121426998D01*
X122139482Y-121390688D01*
X122015000Y-121378428D01*
X121850750Y-121381500D01*
X121692000Y-121540250D01*
X121438000Y-121540250D01*
X121279250Y-121381500D01*
X121115000Y-121378428D01*
X120990518Y-121390688D01*
X120870820Y-121426998D01*
X120760506Y-121485963D01*
X120716351Y-121522200D01*
X120570283Y-121444125D01*
X120408377Y-121395012D01*
X120240000Y-121378428D01*
X119790000Y-121378428D01*
X119621623Y-121395012D01*
X119459717Y-121444125D01*
X119310503Y-121523882D01*
X119303657Y-121529500D01*
X116965072Y-121529500D01*
X116965072Y-121339500D01*
X116954198Y-121229087D01*
X125132192Y-121229087D01*
X126088000Y-122184895D01*
X127043808Y-121229087D01*
X131632192Y-121229087D01*
X132588000Y-122184895D01*
X133543808Y-121229087D01*
X133448044Y-120964686D01*
X133158429Y-120823796D01*
X132846892Y-120742116D01*
X132525405Y-120722782D01*
X132206325Y-120766539D01*
X131901912Y-120871705D01*
X131727956Y-120964686D01*
X131632192Y-121229087D01*
X127043808Y-121229087D01*
X126948044Y-120964686D01*
X126658429Y-120823796D01*
X126346892Y-120742116D01*
X126025405Y-120722782D01*
X125706325Y-120766539D01*
X125401912Y-120871705D01*
X125227956Y-120964686D01*
X125132192Y-121229087D01*
X116954198Y-121229087D01*
X116952812Y-121215018D01*
X116916502Y-121095320D01*
X116857537Y-120985006D01*
X116778185Y-120888315D01*
X116681494Y-120808963D01*
X116571180Y-120749998D01*
X116451482Y-120713688D01*
X116327000Y-120701428D01*
X115237000Y-120701428D01*
X115237000Y-117671663D01*
X115301482Y-117665312D01*
X115421180Y-117629002D01*
X115531494Y-117570037D01*
X115577000Y-117532691D01*
X115622506Y-117570037D01*
X115732820Y-117629002D01*
X115852518Y-117665312D01*
X115977000Y-117677572D01*
X117477000Y-117677572D01*
X117601482Y-117665312D01*
X117721180Y-117629002D01*
X117831494Y-117570037D01*
X117928185Y-117490685D01*
X118007537Y-117393994D01*
X118066502Y-117283680D01*
X118102812Y-117163982D01*
X118115072Y-117039500D01*
X118115072Y-116849500D01*
X120326610Y-116849500D01*
X120377595Y-116944886D01*
X120488038Y-117079462D01*
X120622614Y-117189905D01*
X120729000Y-117246770D01*
X120729000Y-117537949D01*
X120678716Y-117579216D01*
X120571382Y-117710003D01*
X120491625Y-117859217D01*
X120442512Y-118021123D01*
X120425928Y-118189500D01*
X120425928Y-118639500D01*
X120442512Y-118807877D01*
X120491625Y-118969783D01*
X120571382Y-119118997D01*
X120629242Y-119189500D01*
X120571382Y-119260003D01*
X120491625Y-119409217D01*
X120442512Y-119571123D01*
X120425928Y-119739500D01*
X120425928Y-120189500D01*
X120442512Y-120357877D01*
X120491625Y-120519783D01*
X120571382Y-120668997D01*
X120678716Y-120799784D01*
X120809503Y-120907118D01*
X120958717Y-120986875D01*
X121120623Y-121035988D01*
X121289000Y-121052572D01*
X121789000Y-121052572D01*
X121957377Y-121035988D01*
X122119283Y-120986875D01*
X122268497Y-120907118D01*
X122399284Y-120799784D01*
X122420034Y-120774500D01*
X122883212Y-120774500D01*
X122923000Y-120778419D01*
X122962788Y-120774500D01*
X122962791Y-120774500D01*
X123081788Y-120762780D01*
X123234473Y-120716463D01*
X123375189Y-120641249D01*
X123498528Y-120540028D01*
X123523899Y-120509113D01*
X124623618Y-119409395D01*
X124654528Y-119384028D01*
X124733540Y-119287751D01*
X124755749Y-119260690D01*
X124806114Y-119166463D01*
X124830963Y-119119973D01*
X124877280Y-118967288D01*
X124877394Y-118966133D01*
X125045748Y-119134487D01*
X125313537Y-119313418D01*
X125611088Y-119436668D01*
X125926967Y-119499500D01*
X126249033Y-119499500D01*
X126564912Y-119436668D01*
X126862463Y-119313418D01*
X127130252Y-119134487D01*
X127357987Y-118906752D01*
X127513173Y-118674500D01*
X131162827Y-118674500D01*
X131318013Y-118906752D01*
X131545748Y-119134487D01*
X131813537Y-119313418D01*
X132111088Y-119436668D01*
X132426967Y-119499500D01*
X132749033Y-119499500D01*
X133064912Y-119436668D01*
X133362463Y-119313418D01*
X133630252Y-119134487D01*
X133857987Y-118906752D01*
X134036918Y-118638963D01*
X134160168Y-118341412D01*
X134223000Y-118025533D01*
X134223000Y-117703467D01*
X134160168Y-117387588D01*
X134036918Y-117090037D01*
X133857987Y-116822248D01*
X133630252Y-116594513D01*
X133398000Y-116439327D01*
X133398000Y-114022291D01*
X133401919Y-113982500D01*
X133386280Y-113823712D01*
X133339963Y-113671026D01*
X133264749Y-113530311D01*
X133223864Y-113480492D01*
X133163528Y-113406972D01*
X133132619Y-113381606D01*
X131537899Y-111786887D01*
X131512528Y-111755972D01*
X131389189Y-111654751D01*
X131248473Y-111579537D01*
X131095788Y-111533220D01*
X130976791Y-111521500D01*
X130976788Y-111521500D01*
X130937000Y-111517581D01*
X130897212Y-111521500D01*
X130785445Y-111521500D01*
X130738472Y-111366649D01*
X130656405Y-111213113D01*
X130545962Y-111078538D01*
X130411387Y-110968095D01*
X130286797Y-110901500D01*
X134407928Y-110901500D01*
X134420188Y-111025982D01*
X134456498Y-111145680D01*
X134515463Y-111255994D01*
X134594815Y-111352685D01*
X134691506Y-111432037D01*
X134801820Y-111491002D01*
X134921518Y-111527312D01*
X135046000Y-111539572D01*
X135210250Y-111536500D01*
X135369000Y-111377750D01*
X135369000Y-110553500D01*
X134569750Y-110553500D01*
X134411000Y-110712250D01*
X134407928Y-110901500D01*
X130286797Y-110901500D01*
X130257851Y-110886028D01*
X130091255Y-110835492D01*
X129918001Y-110818428D01*
X129292999Y-110818428D01*
X129119745Y-110835492D01*
X128953149Y-110886028D01*
X128799613Y-110968095D01*
X128665038Y-111078538D01*
X128554595Y-111213113D01*
X128472528Y-111366649D01*
X128421992Y-111533245D01*
X128404928Y-111706499D01*
X128404928Y-112956501D01*
X128421992Y-113129755D01*
X128472528Y-113296351D01*
X128554595Y-113449887D01*
X128665038Y-113584462D01*
X128799613Y-113694905D01*
X128953149Y-113776972D01*
X129119745Y-113827508D01*
X129292999Y-113844572D01*
X129918001Y-113844572D01*
X130091255Y-113827508D01*
X130257851Y-113776972D01*
X130411387Y-113694905D01*
X130545962Y-113584462D01*
X130656405Y-113449887D01*
X130738472Y-113296351D01*
X130742630Y-113282643D01*
X131778000Y-114318013D01*
X131778001Y-116439327D01*
X131545748Y-116594513D01*
X131318013Y-116822248D01*
X131162827Y-117054500D01*
X127513173Y-117054500D01*
X127357987Y-116822248D01*
X127130252Y-116594513D01*
X126862463Y-116415582D01*
X126564912Y-116292332D01*
X126249033Y-116229500D01*
X125926967Y-116229500D01*
X125611088Y-116292332D01*
X125313537Y-116415582D01*
X125045748Y-116594513D01*
X124889000Y-116751261D01*
X124889000Y-115268512D01*
X126317877Y-113839635D01*
X126367999Y-113844572D01*
X126993001Y-113844572D01*
X127166255Y-113827508D01*
X127332851Y-113776972D01*
X127486387Y-113694905D01*
X127620962Y-113584462D01*
X127731405Y-113449887D01*
X127813472Y-113296351D01*
X127864008Y-113129755D01*
X127881072Y-112956501D01*
X127881072Y-111706499D01*
X127864008Y-111533245D01*
X127813472Y-111366649D01*
X127731405Y-111213113D01*
X127627000Y-111085895D01*
X127627000Y-110612211D01*
X127673726Y-110658937D01*
X127843244Y-110772205D01*
X128031602Y-110850226D01*
X128231561Y-110890000D01*
X128435439Y-110890000D01*
X128635398Y-110850226D01*
X128823756Y-110772205D01*
X128993274Y-110658937D01*
X129137437Y-110514774D01*
X129250705Y-110345256D01*
X129328726Y-110156898D01*
X129368500Y-109956939D01*
X129368500Y-109753061D01*
X129328726Y-109553102D01*
X129250705Y-109364744D01*
X129137437Y-109195226D01*
X128993274Y-109051063D01*
X128823756Y-108937795D01*
X128635398Y-108859774D01*
X128435439Y-108820000D01*
X128305072Y-108820000D01*
X128305072Y-107835500D01*
X128292812Y-107711018D01*
X128277000Y-107658893D01*
X128277000Y-107247012D01*
X128764513Y-106759500D01*
X129566928Y-106759500D01*
X129566928Y-107024500D01*
X129579188Y-107148982D01*
X129615498Y-107268680D01*
X129674463Y-107378994D01*
X129753815Y-107475685D01*
X129850506Y-107555037D01*
X129960820Y-107614002D01*
X130080518Y-107650312D01*
X130205000Y-107662572D01*
X131541928Y-107662572D01*
X131541928Y-108999500D01*
X131554188Y-109123982D01*
X131590498Y-109243680D01*
X131649463Y-109353994D01*
X131728815Y-109450685D01*
X131825506Y-109530037D01*
X131935820Y-109589002D01*
X132055518Y-109625312D01*
X132180000Y-109637572D01*
X132730000Y-109637572D01*
X132854482Y-109625312D01*
X132855000Y-109625155D01*
X132855518Y-109625312D01*
X132980000Y-109637572D01*
X133530000Y-109637572D01*
X133654482Y-109625312D01*
X133655620Y-109624967D01*
X133769250Y-109634500D01*
X133861333Y-109542417D01*
X133884494Y-109530037D01*
X133981185Y-109450685D01*
X134055000Y-109360741D01*
X134128815Y-109450685D01*
X134225506Y-109530037D01*
X134248667Y-109542417D01*
X134340750Y-109634500D01*
X134454380Y-109624967D01*
X134455518Y-109625312D01*
X134498092Y-109629505D01*
X134456498Y-109707320D01*
X134420188Y-109827018D01*
X134407928Y-109951500D01*
X134411000Y-110140750D01*
X134569750Y-110299500D01*
X135369000Y-110299500D01*
X135369000Y-110279500D01*
X135623000Y-110279500D01*
X135623000Y-110299500D01*
X135643000Y-110299500D01*
X135643000Y-110553500D01*
X135623000Y-110553500D01*
X135623000Y-111377750D01*
X135781750Y-111536500D01*
X135946000Y-111539572D01*
X136070482Y-111527312D01*
X136190180Y-111491002D01*
X136300494Y-111432037D01*
X136344649Y-111395800D01*
X136382791Y-111416187D01*
X136424852Y-111467439D01*
X136470473Y-111523028D01*
X136501383Y-111548395D01*
X137112000Y-112159013D01*
X137112001Y-114128000D01*
X137039114Y-114176701D01*
X136846201Y-114369614D01*
X136694629Y-114596457D01*
X136590225Y-114848511D01*
X136537000Y-115116089D01*
X136537000Y-115388911D01*
X136590225Y-115656489D01*
X136694629Y-115908543D01*
X136846201Y-116135386D01*
X137039114Y-116328299D01*
X137265957Y-116479871D01*
X137518011Y-116584275D01*
X137785589Y-116637500D01*
X138058411Y-116637500D01*
X138325989Y-116584275D01*
X138578043Y-116479871D01*
X138804886Y-116328299D01*
X138997799Y-116135386D01*
X139149371Y-115908543D01*
X139253775Y-115656489D01*
X139307000Y-115388911D01*
X139307000Y-115116089D01*
X139253775Y-114848511D01*
X139149371Y-114596457D01*
X138997799Y-114369614D01*
X138804886Y-114176701D01*
X138732000Y-114128000D01*
X138732000Y-111863287D01*
X138735919Y-111823499D01*
X138731807Y-111781751D01*
X138720280Y-111664712D01*
X138673963Y-111512027D01*
X138614485Y-111400751D01*
X138598749Y-111371310D01*
X138587778Y-111357942D01*
X138644209Y-111363500D01*
X138644211Y-111363500D01*
X138683999Y-111367419D01*
X138686466Y-111367176D01*
X138724716Y-111413784D01*
X138750000Y-111434534D01*
X138750001Y-113421702D01*
X138746081Y-113461500D01*
X138760305Y-113605910D01*
X138761721Y-113620288D01*
X138793042Y-113723538D01*
X138808038Y-113772973D01*
X138883251Y-113913689D01*
X138918557Y-113956709D01*
X138984473Y-114037028D01*
X139015383Y-114062395D01*
X140750105Y-115797118D01*
X140775472Y-115828028D01*
X140898811Y-115929249D01*
X141039527Y-116004463D01*
X141192212Y-116050780D01*
X141311209Y-116062500D01*
X141311211Y-116062500D01*
X141350999Y-116066419D01*
X141390787Y-116062500D01*
X141677500Y-116062500D01*
X141726201Y-116135386D01*
X141919114Y-116328299D01*
X142145957Y-116479871D01*
X142398011Y-116584275D01*
X142665589Y-116637500D01*
X142938411Y-116637500D01*
X143205989Y-116584275D01*
X143458043Y-116479871D01*
X143684886Y-116328299D01*
X143877799Y-116135386D01*
X144029371Y-115908543D01*
X144133775Y-115656489D01*
X144187000Y-115388911D01*
X144187000Y-115116089D01*
X144133775Y-114848511D01*
X144029371Y-114596457D01*
X143877799Y-114369614D01*
X143684886Y-114176701D01*
X143458043Y-114025129D01*
X143205989Y-113920725D01*
X142938411Y-113867500D01*
X142665589Y-113867500D01*
X142398011Y-113920725D01*
X142145957Y-114025129D01*
X141919114Y-114176701D01*
X141726201Y-114369614D01*
X141681110Y-114437097D01*
X140370000Y-113125988D01*
X140370000Y-111593510D01*
X140415820Y-111618002D01*
X140535518Y-111654312D01*
X140660000Y-111666572D01*
X140824250Y-111663500D01*
X140983000Y-111504750D01*
X140983000Y-110680500D01*
X141237000Y-110680500D01*
X141237000Y-111504750D01*
X141395750Y-111663500D01*
X141560000Y-111666572D01*
X141684482Y-111654312D01*
X141804180Y-111618002D01*
X141914494Y-111559037D01*
X142011185Y-111479685D01*
X142090537Y-111382994D01*
X142149502Y-111272680D01*
X142185812Y-111152982D01*
X142198072Y-111028500D01*
X142195000Y-110839250D01*
X142036250Y-110680500D01*
X141237000Y-110680500D01*
X140983000Y-110680500D01*
X140963000Y-110680500D01*
X140963000Y-110426500D01*
X140983000Y-110426500D01*
X140983000Y-109602250D01*
X141237000Y-109602250D01*
X141237000Y-110426500D01*
X142036250Y-110426500D01*
X142195000Y-110267750D01*
X142198072Y-110078500D01*
X142185812Y-109954018D01*
X142149502Y-109834320D01*
X142090537Y-109724006D01*
X142011185Y-109627315D01*
X141914494Y-109547963D01*
X141804180Y-109488998D01*
X141684482Y-109452688D01*
X141560000Y-109440428D01*
X141395750Y-109443500D01*
X141237000Y-109602250D01*
X140983000Y-109602250D01*
X140824250Y-109443500D01*
X140660000Y-109440428D01*
X140535518Y-109452688D01*
X140415820Y-109488998D01*
X140305506Y-109547963D01*
X140261351Y-109584200D01*
X140115283Y-109506125D01*
X139953377Y-109457012D01*
X139785000Y-109440428D01*
X139335000Y-109440428D01*
X139166623Y-109457012D01*
X139004717Y-109506125D01*
X138865000Y-109580806D01*
X138865000Y-109345644D01*
X138919502Y-109243680D01*
X138955812Y-109123982D01*
X138968072Y-108999500D01*
X138968072Y-107662572D01*
X140305000Y-107662572D01*
X140429482Y-107650312D01*
X140549180Y-107614002D01*
X140659494Y-107555037D01*
X140756185Y-107475685D01*
X140835537Y-107378994D01*
X140894502Y-107268680D01*
X140930812Y-107148982D01*
X140943072Y-107024500D01*
X140943072Y-106759500D01*
X142128845Y-106759500D01*
X142116928Y-106880499D01*
X142116928Y-108130501D01*
X142133992Y-108303755D01*
X142184528Y-108470351D01*
X142266595Y-108623887D01*
X142377038Y-108758462D01*
X142511613Y-108868905D01*
X142665149Y-108950972D01*
X142831745Y-109001508D01*
X143004999Y-109018572D01*
X143630001Y-109018572D01*
X143803255Y-109001508D01*
X143969851Y-108950972D01*
X144123387Y-108868905D01*
X144257962Y-108758462D01*
X144368405Y-108623887D01*
X144450472Y-108470351D01*
X144501008Y-108303755D01*
X144518072Y-108130501D01*
X144518072Y-106880499D01*
X145041928Y-106880499D01*
X145041928Y-108130501D01*
X145058992Y-108303755D01*
X145109528Y-108470351D01*
X145191595Y-108623887D01*
X145302038Y-108758462D01*
X145436613Y-108868905D01*
X145444287Y-108873007D01*
X145481728Y-108996431D01*
X145490538Y-109025473D01*
X145565751Y-109166189D01*
X145621352Y-109233939D01*
X145666973Y-109289528D01*
X145697883Y-109314895D01*
X149291415Y-112908428D01*
X148905000Y-112908428D01*
X148780518Y-112920688D01*
X148660820Y-112956998D01*
X148550506Y-113015963D01*
X148453815Y-113095315D01*
X148374463Y-113192006D01*
X148315498Y-113302320D01*
X148279188Y-113422018D01*
X148266928Y-113546500D01*
X148266928Y-122946500D01*
X148279188Y-123070982D01*
X148315498Y-123190680D01*
X148374463Y-123300994D01*
X148453815Y-123397685D01*
X148550506Y-123477037D01*
X148660820Y-123536002D01*
X148780518Y-123572312D01*
X148905000Y-123584572D01*
X159705000Y-123584572D01*
X159829482Y-123572312D01*
X159949180Y-123536002D01*
X160059494Y-123477037D01*
X160156185Y-123397685D01*
X160235537Y-123300994D01*
X160294502Y-123190680D01*
X160330812Y-123070982D01*
X160343072Y-122946500D01*
X160343072Y-118983500D01*
X161250212Y-118983500D01*
X161290000Y-118987419D01*
X161329788Y-118983500D01*
X162145928Y-118983500D01*
X162145928Y-119473500D01*
X162158188Y-119597982D01*
X162194498Y-119717680D01*
X162253463Y-119827994D01*
X162332815Y-119924685D01*
X162429506Y-120004037D01*
X162539820Y-120063002D01*
X162659518Y-120099312D01*
X162784000Y-120111572D01*
X165384000Y-120111572D01*
X165508482Y-120099312D01*
X165628180Y-120063002D01*
X165738494Y-120004037D01*
X165835185Y-119924685D01*
X165914537Y-119827994D01*
X165973502Y-119717680D01*
X166009812Y-119597982D01*
X166022072Y-119473500D01*
X166022072Y-116873500D01*
X166009812Y-116749018D01*
X165973502Y-116629320D01*
X165914537Y-116519006D01*
X165835185Y-116422315D01*
X165738494Y-116342963D01*
X165628180Y-116283998D01*
X165508482Y-116247688D01*
X165384000Y-116235428D01*
X162784000Y-116235428D01*
X162659518Y-116247688D01*
X162539820Y-116283998D01*
X162429506Y-116342963D01*
X162332815Y-116422315D01*
X162253463Y-116519006D01*
X162194498Y-116629320D01*
X162158188Y-116749018D01*
X162145928Y-116873500D01*
X162145928Y-117363500D01*
X162102000Y-117363500D01*
X162102000Y-110536518D01*
X162193185Y-110461685D01*
X162272537Y-110364994D01*
X162331502Y-110254680D01*
X162367812Y-110134982D01*
X162380072Y-110010500D01*
X162380072Y-108810500D01*
X163503928Y-108810500D01*
X163503928Y-110010500D01*
X163516188Y-110134982D01*
X163552498Y-110254680D01*
X163611463Y-110364994D01*
X163690815Y-110461685D01*
X163787506Y-110541037D01*
X163897820Y-110600002D01*
X164017518Y-110636312D01*
X164142000Y-110648572D01*
X165042000Y-110648572D01*
X165166482Y-110636312D01*
X165286180Y-110600002D01*
X165396494Y-110541037D01*
X165493185Y-110461685D01*
X165572537Y-110364994D01*
X165631502Y-110254680D01*
X165641870Y-110220500D01*
X166161488Y-110220500D01*
X168274000Y-112333013D01*
X168274001Y-116414584D01*
X168167434Y-116458725D01*
X167850509Y-116670487D01*
X167580987Y-116940009D01*
X167369225Y-117256934D01*
X167223361Y-117609081D01*
X167149000Y-117982919D01*
X167149000Y-118364081D01*
X167223361Y-118737919D01*
X167369225Y-119090066D01*
X167580987Y-119406991D01*
X167850509Y-119676513D01*
X168167434Y-119888275D01*
X168519581Y-120034139D01*
X168893419Y-120108500D01*
X169274581Y-120108500D01*
X169648419Y-120034139D01*
X170000566Y-119888275D01*
X170317491Y-119676513D01*
X170351275Y-119642729D01*
X173014000Y-119642729D01*
X173014000Y-120260271D01*
X173134476Y-120865946D01*
X173370799Y-121436479D01*
X173713886Y-121949946D01*
X174150554Y-122386614D01*
X174664021Y-122729701D01*
X175234554Y-122966024D01*
X175840229Y-123086500D01*
X176457771Y-123086500D01*
X177063446Y-122966024D01*
X177633979Y-122729701D01*
X178147446Y-122386614D01*
X178584114Y-121949946D01*
X178927201Y-121436479D01*
X179163524Y-120865946D01*
X179284000Y-120260271D01*
X179284000Y-119642729D01*
X179163524Y-119037054D01*
X178927201Y-118466521D01*
X178584114Y-117953054D01*
X178147446Y-117516386D01*
X177633979Y-117173299D01*
X177063446Y-116936976D01*
X176457771Y-116816500D01*
X175840229Y-116816500D01*
X175234554Y-116936976D01*
X174664021Y-117173299D01*
X174150554Y-117516386D01*
X173713886Y-117953054D01*
X173370799Y-118466521D01*
X173134476Y-119037054D01*
X173014000Y-119642729D01*
X170351275Y-119642729D01*
X170587013Y-119406991D01*
X170798775Y-119090066D01*
X170944639Y-118737919D01*
X171019000Y-118364081D01*
X171019000Y-117982919D01*
X170944639Y-117609081D01*
X170798775Y-117256934D01*
X170587013Y-116940009D01*
X170317491Y-116670487D01*
X170000566Y-116458725D01*
X169894000Y-116414584D01*
X169894000Y-112037287D01*
X169897919Y-111997499D01*
X169889683Y-111913880D01*
X169882280Y-111838712D01*
X169835963Y-111686027D01*
X169760749Y-111545311D01*
X169659528Y-111421972D01*
X169628619Y-111396606D01*
X167097900Y-108865887D01*
X167072528Y-108834972D01*
X166949189Y-108733751D01*
X166808473Y-108658537D01*
X166655788Y-108612220D01*
X166536791Y-108600500D01*
X166536788Y-108600500D01*
X166497000Y-108596581D01*
X166457212Y-108600500D01*
X165641870Y-108600500D01*
X165631502Y-108566320D01*
X165572537Y-108456006D01*
X165493185Y-108359315D01*
X165396494Y-108279963D01*
X165286180Y-108220998D01*
X165166482Y-108184688D01*
X165042000Y-108172428D01*
X164142000Y-108172428D01*
X164017518Y-108184688D01*
X163897820Y-108220998D01*
X163787506Y-108279963D01*
X163690815Y-108359315D01*
X163611463Y-108456006D01*
X163552498Y-108566320D01*
X163516188Y-108686018D01*
X163503928Y-108810500D01*
X162380072Y-108810500D01*
X162367812Y-108686018D01*
X162331502Y-108566320D01*
X162272537Y-108456006D01*
X162193185Y-108359315D01*
X162096494Y-108279963D01*
X161986180Y-108220998D01*
X161866482Y-108184688D01*
X161742000Y-108172428D01*
X160842000Y-108172428D01*
X160717518Y-108184688D01*
X160597820Y-108220998D01*
X160487506Y-108279963D01*
X160390815Y-108359315D01*
X160311463Y-108456006D01*
X160252498Y-108566320D01*
X160216188Y-108686018D01*
X160203928Y-108810500D01*
X160203928Y-110010500D01*
X160216188Y-110134982D01*
X160252498Y-110254680D01*
X160311463Y-110364994D01*
X160390815Y-110461685D01*
X160482000Y-110536518D01*
X160482001Y-117363500D01*
X160343072Y-117363500D01*
X160343072Y-113546500D01*
X160330812Y-113422018D01*
X160294502Y-113302320D01*
X160235537Y-113192006D01*
X160156185Y-113095315D01*
X160059494Y-113015963D01*
X159949180Y-112956998D01*
X159829482Y-112920688D01*
X159705000Y-112908428D01*
X156905584Y-112908428D01*
X157389621Y-112424392D01*
X157420528Y-112399028D01*
X157521749Y-112275689D01*
X157542810Y-112236287D01*
X157596963Y-112134974D01*
X157614397Y-112077500D01*
X157642729Y-111984105D01*
X157749494Y-111927037D01*
X157846185Y-111847685D01*
X157925537Y-111750994D01*
X157984502Y-111640680D01*
X158020812Y-111520982D01*
X158033072Y-111396500D01*
X158033072Y-106796500D01*
X158020812Y-106672018D01*
X157984502Y-106552320D01*
X157925537Y-106442006D01*
X157846185Y-106345315D01*
X157749494Y-106265963D01*
X157639180Y-106206998D01*
X157519482Y-106170688D01*
X157395000Y-106158428D01*
X156295000Y-106158428D01*
X156170518Y-106170688D01*
X156050820Y-106206998D01*
X155940506Y-106265963D01*
X155843815Y-106345315D01*
X155764463Y-106442006D01*
X155705498Y-106552320D01*
X155669188Y-106672018D01*
X155656928Y-106796500D01*
X155656928Y-111396500D01*
X155669188Y-111520982D01*
X155705498Y-111640680D01*
X155709678Y-111648500D01*
X152900322Y-111648500D01*
X152904502Y-111640680D01*
X152940812Y-111520982D01*
X152953072Y-111396500D01*
X152950000Y-109382250D01*
X152791250Y-109223500D01*
X151892000Y-109223500D01*
X151892000Y-109243500D01*
X151638000Y-109243500D01*
X151638000Y-109223500D01*
X150738750Y-109223500D01*
X150580000Y-109382250D01*
X150576928Y-111396500D01*
X150589188Y-111520982D01*
X150625498Y-111640680D01*
X150629678Y-111648500D01*
X150322513Y-111648500D01*
X147294970Y-108620958D01*
X147375472Y-108470351D01*
X147426008Y-108303755D01*
X147443072Y-108130501D01*
X147443072Y-106880499D01*
X147434799Y-106796500D01*
X150576928Y-106796500D01*
X150580000Y-108810750D01*
X150738750Y-108969500D01*
X151638000Y-108969500D01*
X151638000Y-106320250D01*
X151892000Y-106320250D01*
X151892000Y-108969500D01*
X152791250Y-108969500D01*
X152950000Y-108810750D01*
X152953072Y-106796500D01*
X152940812Y-106672018D01*
X152904502Y-106552320D01*
X152845537Y-106442006D01*
X152766185Y-106345315D01*
X152669494Y-106265963D01*
X152559180Y-106206998D01*
X152439482Y-106170688D01*
X152315000Y-106158428D01*
X152050750Y-106161500D01*
X151892000Y-106320250D01*
X151638000Y-106320250D01*
X151479250Y-106161500D01*
X151215000Y-106158428D01*
X151090518Y-106170688D01*
X150970820Y-106206998D01*
X150860506Y-106265963D01*
X150763815Y-106345315D01*
X150684463Y-106442006D01*
X150625498Y-106552320D01*
X150589188Y-106672018D01*
X150576928Y-106796500D01*
X147434799Y-106796500D01*
X147426008Y-106707245D01*
X147375472Y-106540649D01*
X147293405Y-106387113D01*
X147182962Y-106252538D01*
X147048387Y-106142095D01*
X146894851Y-106060028D01*
X146728255Y-106009492D01*
X146555001Y-105992428D01*
X145929999Y-105992428D01*
X145756745Y-106009492D01*
X145590149Y-106060028D01*
X145436613Y-106142095D01*
X145302038Y-106252538D01*
X145191595Y-106387113D01*
X145109528Y-106540649D01*
X145058992Y-106707245D01*
X145041928Y-106880499D01*
X144518072Y-106880499D01*
X144501008Y-106707245D01*
X144450472Y-106540649D01*
X144368405Y-106387113D01*
X144257962Y-106252538D01*
X144123387Y-106142095D01*
X143969851Y-106060028D01*
X143803255Y-106009492D01*
X143793549Y-106008536D01*
X143189899Y-105404887D01*
X143164528Y-105373972D01*
X143041189Y-105272751D01*
X142900473Y-105197537D01*
X142747788Y-105151220D01*
X142628791Y-105139500D01*
X142628788Y-105139500D01*
X142589000Y-105135581D01*
X142549212Y-105139500D01*
X140943072Y-105139500D01*
X140943072Y-104874500D01*
X140930812Y-104750018D01*
X140930655Y-104749500D01*
X140930812Y-104748982D01*
X140943072Y-104624500D01*
X140943072Y-104359500D01*
X156062212Y-104359500D01*
X156102000Y-104363419D01*
X156141788Y-104359500D01*
X156141791Y-104359500D01*
X156260788Y-104347780D01*
X156413473Y-104301463D01*
X156554189Y-104226249D01*
X156677528Y-104125028D01*
X156692733Y-104106500D01*
X165066928Y-104106500D01*
X165079188Y-104230982D01*
X165115498Y-104350680D01*
X165174463Y-104460994D01*
X165253815Y-104557685D01*
X165350506Y-104637037D01*
X165460820Y-104696002D01*
X165580518Y-104732312D01*
X165705000Y-104744572D01*
X166719250Y-104741500D01*
X166878000Y-104582750D01*
X166878000Y-102933500D01*
X167132000Y-102933500D01*
X167132000Y-104582750D01*
X167290750Y-104741500D01*
X168305000Y-104744572D01*
X168429482Y-104732312D01*
X168549180Y-104696002D01*
X168659494Y-104637037D01*
X168756185Y-104557685D01*
X168835537Y-104460994D01*
X168894502Y-104350680D01*
X168930812Y-104230982D01*
X168943072Y-104106500D01*
X168940000Y-103092250D01*
X168781250Y-102933500D01*
X167132000Y-102933500D01*
X166878000Y-102933500D01*
X165228750Y-102933500D01*
X165070000Y-103092250D01*
X165066928Y-104106500D01*
X156692733Y-104106500D01*
X156702900Y-104094112D01*
X159290512Y-101506500D01*
X165066928Y-101506500D01*
X165070000Y-102520750D01*
X165228750Y-102679500D01*
X166878000Y-102679500D01*
X166878000Y-101030250D01*
X167132000Y-101030250D01*
X167132000Y-102679500D01*
X168781250Y-102679500D01*
X168940000Y-102520750D01*
X168943072Y-101506500D01*
X168930812Y-101382018D01*
X168894502Y-101262320D01*
X168835537Y-101152006D01*
X168756185Y-101055315D01*
X168659494Y-100975963D01*
X168549180Y-100916998D01*
X168429482Y-100880688D01*
X168305000Y-100868428D01*
X167290750Y-100871500D01*
X167132000Y-101030250D01*
X166878000Y-101030250D01*
X166719250Y-100871500D01*
X165705000Y-100868428D01*
X165580518Y-100880688D01*
X165460820Y-100916998D01*
X165350506Y-100975963D01*
X165253815Y-101055315D01*
X165174463Y-101152006D01*
X165115498Y-101262320D01*
X165079188Y-101382018D01*
X165066928Y-101506500D01*
X159290512Y-101506500D01*
X162260513Y-98536500D01*
X165246084Y-98536500D01*
X165290225Y-98643066D01*
X165501987Y-98959991D01*
X165771509Y-99229513D01*
X166088434Y-99441275D01*
X166440581Y-99587139D01*
X166814419Y-99661500D01*
X167195581Y-99661500D01*
X167569419Y-99587139D01*
X167921566Y-99441275D01*
X168238491Y-99229513D01*
X168508013Y-98959991D01*
X168719775Y-98643066D01*
X168865639Y-98290919D01*
X168940000Y-97917081D01*
X168940000Y-97535919D01*
X168865639Y-97162081D01*
X168719775Y-96809934D01*
X168508013Y-96493009D01*
X168238491Y-96223487D01*
X167921566Y-96011725D01*
X167569419Y-95865861D01*
X167195581Y-95791500D01*
X166814419Y-95791500D01*
X166440581Y-95865861D01*
X166088434Y-96011725D01*
X165771509Y-96223487D01*
X165501987Y-96493009D01*
X165290225Y-96809934D01*
X165246084Y-96916500D01*
X161964791Y-96916500D01*
X161925000Y-96912581D01*
X161766212Y-96928220D01*
X161613526Y-96974537D01*
X161521040Y-97023972D01*
X161472811Y-97049751D01*
X161349472Y-97150972D01*
X161324105Y-97181882D01*
X155766488Y-102739500D01*
X155578515Y-102739500D01*
X155740619Y-102577396D01*
X155771529Y-102552029D01*
X155822398Y-102490044D01*
X155872750Y-102428691D01*
X155915355Y-102348982D01*
X155947964Y-102287974D01*
X155994281Y-102135289D01*
X156006001Y-102016292D01*
X156006001Y-102016289D01*
X156009920Y-101976501D01*
X156006001Y-101936713D01*
X156006001Y-100562289D01*
X156009920Y-100522501D01*
X156005020Y-100472751D01*
X155994281Y-100363713D01*
X155955669Y-100236428D01*
X155947964Y-100211027D01*
X155872750Y-100070312D01*
X155771529Y-99946973D01*
X155740620Y-99921607D01*
X155450116Y-99631104D01*
X155456000Y-99601524D01*
X155456000Y-99343476D01*
X155405658Y-99090387D01*
X155306907Y-98851982D01*
X155163544Y-98637423D01*
X154998621Y-98472500D01*
X155163544Y-98307577D01*
X155306907Y-98093018D01*
X155405658Y-97854613D01*
X155456000Y-97601524D01*
X155456000Y-97343476D01*
X155405658Y-97090387D01*
X155306907Y-96851982D01*
X155163544Y-96637423D01*
X155131000Y-96604879D01*
X155131000Y-96515500D01*
X158015000Y-93631500D01*
X165335951Y-93631500D01*
X165501987Y-93879991D01*
X165771509Y-94149513D01*
X166088434Y-94361275D01*
X166440581Y-94507139D01*
X166814419Y-94581500D01*
X167195581Y-94581500D01*
X167569419Y-94507139D01*
X167921566Y-94361275D01*
X168238491Y-94149513D01*
X168508013Y-93879991D01*
X168719775Y-93563066D01*
X168865639Y-93210919D01*
X168940000Y-92837081D01*
X168940000Y-92455919D01*
X168881696Y-92162805D01*
X170461290Y-90583211D01*
X170498870Y-90552370D01*
X170621960Y-90402384D01*
X170713424Y-90231267D01*
X170769747Y-90045594D01*
X170784000Y-89900880D01*
X170788765Y-89852500D01*
X170784000Y-89804120D01*
X170784000Y-86857293D01*
X171004134Y-86676634D01*
X171189706Y-86450514D01*
X171327599Y-86192534D01*
X171412513Y-85912611D01*
X171441185Y-85621500D01*
X171412513Y-85330389D01*
X171327599Y-85050466D01*
X171189706Y-84792486D01*
X171008392Y-84571555D01*
X171043180Y-84561002D01*
X171153494Y-84502037D01*
X171250185Y-84422685D01*
X171329537Y-84325994D01*
X171388502Y-84215680D01*
X171424812Y-84095982D01*
X171437072Y-83971500D01*
X171434000Y-83407250D01*
X171275250Y-83248500D01*
X169926000Y-83248500D01*
X169926000Y-83268500D01*
X169672000Y-83268500D01*
X169672000Y-83248500D01*
X168322750Y-83248500D01*
X168164000Y-83407250D01*
X168160928Y-83971500D01*
X168173188Y-84095982D01*
X168209498Y-84215680D01*
X168268463Y-84325994D01*
X168347815Y-84422685D01*
X168444506Y-84502037D01*
X168554820Y-84561002D01*
X168589608Y-84571555D01*
X168408294Y-84792486D01*
X168270401Y-85050466D01*
X168185487Y-85330389D01*
X168156815Y-85621500D01*
X168185487Y-85912611D01*
X168270401Y-86192534D01*
X168408294Y-86450514D01*
X168593866Y-86676634D01*
X168814000Y-86857294D01*
X168814001Y-89444498D01*
X167488695Y-90769804D01*
X167195581Y-90711500D01*
X166814419Y-90711500D01*
X166521305Y-90769804D01*
X161447216Y-85695716D01*
X161416370Y-85658130D01*
X161266384Y-85535040D01*
X161095267Y-85443576D01*
X160909594Y-85387253D01*
X160764880Y-85373000D01*
X160716500Y-85368235D01*
X160668120Y-85373000D01*
X155503692Y-85373000D01*
X155423387Y-85307095D01*
X155290000Y-85235798D01*
X155290000Y-85201879D01*
X155294765Y-85153499D01*
X155275747Y-84960406D01*
X155219424Y-84774733D01*
X155191379Y-84722265D01*
X155127960Y-84603616D01*
X155004870Y-84453630D01*
X154967284Y-84422784D01*
X154147000Y-83602500D01*
X154147000Y-82356839D01*
X154255386Y-82298905D01*
X154389962Y-82188462D01*
X154500405Y-82053886D01*
X154556714Y-81948539D01*
X154572951Y-81969929D01*
X154790807Y-82162996D01*
X155042142Y-82309852D01*
X155305110Y-82401976D01*
X155535000Y-82280655D01*
X155535000Y-80962500D01*
X155515000Y-80962500D01*
X155515000Y-80708500D01*
X155535000Y-80708500D01*
X155535000Y-79390345D01*
X155789000Y-79390345D01*
X155789000Y-80708500D01*
X155809000Y-80708500D01*
X155809000Y-80962500D01*
X155789000Y-80962500D01*
X155789000Y-82280655D01*
X156018890Y-82401976D01*
X156281858Y-82309852D01*
X156533193Y-82162996D01*
X156751049Y-81969929D01*
X156907538Y-81763778D01*
X156921294Y-81789514D01*
X157106866Y-82015634D01*
X157332987Y-82201206D01*
X157590967Y-82339099D01*
X157870890Y-82424013D01*
X158162000Y-82452685D01*
X158453111Y-82424013D01*
X158733034Y-82339099D01*
X158859503Y-82271500D01*
X168160928Y-82271500D01*
X168164000Y-82835750D01*
X168322750Y-82994500D01*
X169672000Y-82994500D01*
X169672000Y-81795250D01*
X169926000Y-81795250D01*
X169926000Y-82994500D01*
X171275250Y-82994500D01*
X171434000Y-82835750D01*
X171437072Y-82271500D01*
X171424812Y-82147018D01*
X171388502Y-82027320D01*
X171329537Y-81917006D01*
X171250185Y-81820315D01*
X171153494Y-81740963D01*
X171043180Y-81681998D01*
X170923482Y-81645688D01*
X170799000Y-81633428D01*
X170084750Y-81636500D01*
X169926000Y-81795250D01*
X169672000Y-81795250D01*
X169513250Y-81636500D01*
X168799000Y-81633428D01*
X168674518Y-81645688D01*
X168554820Y-81681998D01*
X168444506Y-81740963D01*
X168347815Y-81820315D01*
X168268463Y-81917006D01*
X168209498Y-82027320D01*
X168173188Y-82147018D01*
X168160928Y-82271500D01*
X158859503Y-82271500D01*
X158991014Y-82201206D01*
X159217134Y-82015634D01*
X159402706Y-81789514D01*
X159540599Y-81531533D01*
X159614253Y-81288729D01*
X172125000Y-81288729D01*
X172125000Y-81906271D01*
X172245476Y-82511946D01*
X172481799Y-83082479D01*
X172824886Y-83595946D01*
X173261554Y-84032614D01*
X173775021Y-84375701D01*
X174345554Y-84612024D01*
X174951229Y-84732500D01*
X175568771Y-84732500D01*
X176174446Y-84612024D01*
X176744979Y-84375701D01*
X177258446Y-84032614D01*
X177695114Y-83595946D01*
X178038201Y-83082479D01*
X178274524Y-82511946D01*
X178395000Y-81906271D01*
X178395000Y-81288729D01*
X178274524Y-80683054D01*
X178038201Y-80112521D01*
X177695114Y-79599054D01*
X177258446Y-79162386D01*
X176744979Y-78819299D01*
X176174446Y-78582976D01*
X175568771Y-78462500D01*
X174951229Y-78462500D01*
X174345554Y-78582976D01*
X173775021Y-78819299D01*
X173261554Y-79162386D01*
X172824886Y-79599054D01*
X172481799Y-80112521D01*
X172245476Y-80683054D01*
X172125000Y-81288729D01*
X159614253Y-81288729D01*
X159625513Y-81251610D01*
X159647000Y-81033449D01*
X159647000Y-80637550D01*
X159625513Y-80419389D01*
X159540599Y-80139466D01*
X159402706Y-79881486D01*
X159217134Y-79655366D01*
X158991013Y-79469794D01*
X158733033Y-79331901D01*
X158453110Y-79246987D01*
X158162000Y-79218315D01*
X157870889Y-79246987D01*
X157590966Y-79331901D01*
X157332986Y-79469794D01*
X157106866Y-79655366D01*
X156921294Y-79881487D01*
X156907538Y-79907222D01*
X156751049Y-79701071D01*
X156533193Y-79508004D01*
X156281858Y-79361148D01*
X156018890Y-79269024D01*
X155789000Y-79390345D01*
X155535000Y-79390345D01*
X155305110Y-79269024D01*
X155042142Y-79361148D01*
X154790807Y-79508004D01*
X154572951Y-79701071D01*
X154556714Y-79722461D01*
X154500405Y-79617114D01*
X154389962Y-79482538D01*
X154255386Y-79372095D01*
X154101850Y-79290028D01*
X153935254Y-79239492D01*
X153762000Y-79222428D01*
X152562000Y-79222428D01*
X152388746Y-79239492D01*
X152222150Y-79290028D01*
X152068614Y-79372095D01*
X151934038Y-79482538D01*
X151823595Y-79617114D01*
X151741528Y-79770650D01*
X151690992Y-79937246D01*
X151673928Y-80110500D01*
X151673928Y-81560500D01*
X151690992Y-81733754D01*
X151741528Y-81900350D01*
X151823595Y-82053886D01*
X151934038Y-82188462D01*
X152068614Y-82298905D01*
X152177001Y-82356839D01*
X152177000Y-83962120D01*
X152172235Y-84010500D01*
X152177000Y-84058879D01*
X152191253Y-84203593D01*
X152247576Y-84389266D01*
X152339040Y-84560384D01*
X152462130Y-84710370D01*
X152499716Y-84741216D01*
X153120144Y-85361644D01*
X153052038Y-85417538D01*
X152941595Y-85552113D01*
X152859528Y-85705649D01*
X152808992Y-85872245D01*
X152791928Y-86045499D01*
X152791928Y-86213500D01*
X150013181Y-86213500D01*
X150018375Y-86203783D01*
X150067488Y-86041877D01*
X150084072Y-85873500D01*
X150084072Y-85423500D01*
X150067488Y-85255123D01*
X150018375Y-85093217D01*
X149938618Y-84944003D01*
X149831284Y-84813216D01*
X149700497Y-84705882D01*
X149551283Y-84626125D01*
X149452000Y-84596008D01*
X149452000Y-83673879D01*
X149456765Y-83625501D01*
X149452000Y-83577123D01*
X149452000Y-83304192D01*
X149517905Y-83223887D01*
X149599972Y-83070351D01*
X149650508Y-82903755D01*
X149667572Y-82730501D01*
X149667572Y-81480499D01*
X149650508Y-81307245D01*
X149599972Y-81140649D01*
X149517905Y-80987113D01*
X149407462Y-80852538D01*
X149272887Y-80742095D01*
X149119351Y-80660028D01*
X148952755Y-80609492D01*
X148779501Y-80592428D01*
X148154499Y-80592428D01*
X147981245Y-80609492D01*
X147814649Y-80660028D01*
X147661113Y-80742095D01*
X147526538Y-80852538D01*
X147416095Y-80987113D01*
X147334028Y-81140649D01*
X147283492Y-81307245D01*
X147266428Y-81480499D01*
X147266428Y-82730501D01*
X147283492Y-82903755D01*
X147334028Y-83070351D01*
X147410810Y-83214000D01*
X146697242Y-83214000D01*
X146730312Y-83104982D01*
X146742572Y-82980500D01*
X146739500Y-82391250D01*
X146580750Y-82232500D01*
X145669000Y-82232500D01*
X145669000Y-82252500D01*
X145415000Y-82252500D01*
X145415000Y-82232500D01*
X144503250Y-82232500D01*
X144344500Y-82391250D01*
X144341428Y-82980500D01*
X144343194Y-82998428D01*
X143900999Y-82998428D01*
X143727745Y-83015492D01*
X143561149Y-83066028D01*
X143407613Y-83148095D01*
X143273038Y-83258538D01*
X143162595Y-83393113D01*
X143080528Y-83546649D01*
X143029992Y-83713245D01*
X143012928Y-83886499D01*
X143012928Y-84319072D01*
X142560558Y-84771442D01*
X142560000Y-83969250D01*
X142401250Y-83810500D01*
X136652000Y-83810500D01*
X136652000Y-88859750D01*
X136810750Y-89018500D01*
X138505980Y-89019518D01*
X137625161Y-89900337D01*
X137550518Y-89907688D01*
X137430820Y-89943998D01*
X137375000Y-89973835D01*
X137319180Y-89943998D01*
X137199482Y-89907688D01*
X137075000Y-89895428D01*
X136810750Y-89898500D01*
X136652000Y-90057250D01*
X136652000Y-92706500D01*
X136672000Y-92706500D01*
X136672000Y-92960500D01*
X136652000Y-92960500D01*
X136652000Y-95609750D01*
X136810750Y-95768500D01*
X137075000Y-95771572D01*
X137199482Y-95759312D01*
X137319180Y-95723002D01*
X137375000Y-95693165D01*
X137430820Y-95723002D01*
X137550518Y-95759312D01*
X137675000Y-95771572D01*
X138775000Y-95771572D01*
X138899482Y-95759312D01*
X139019180Y-95723002D01*
X139075000Y-95693165D01*
X139130820Y-95723002D01*
X139250518Y-95759312D01*
X139375000Y-95771572D01*
X139639250Y-95768500D01*
X139798000Y-95609750D01*
X139798000Y-92960500D01*
X140052000Y-92960500D01*
X140052000Y-95609750D01*
X140210750Y-95768500D01*
X140475000Y-95771572D01*
X140599482Y-95759312D01*
X140719180Y-95723002D01*
X140829494Y-95664037D01*
X140926185Y-95584685D01*
X141005537Y-95487994D01*
X141064502Y-95377680D01*
X141100812Y-95257982D01*
X141113072Y-95133500D01*
X141110000Y-93119250D01*
X140951250Y-92960500D01*
X140052000Y-92960500D01*
X139798000Y-92960500D01*
X139778000Y-92960500D01*
X139778000Y-92706500D01*
X139798000Y-92706500D01*
X139798000Y-92686500D01*
X140052000Y-92686500D01*
X140052000Y-92706500D01*
X140951250Y-92706500D01*
X141110000Y-92547750D01*
X141112996Y-90583500D01*
X141651622Y-90583500D01*
X141700002Y-90588265D01*
X141748382Y-90583500D01*
X141893096Y-90569247D01*
X142078769Y-90512924D01*
X142249886Y-90421460D01*
X142399872Y-90298370D01*
X142430718Y-90260784D01*
X143541000Y-89150502D01*
X143541000Y-90058120D01*
X143536235Y-90106500D01*
X143549630Y-90242500D01*
X143555253Y-90299593D01*
X143611576Y-90485266D01*
X143703040Y-90656384D01*
X143826130Y-90806370D01*
X143863716Y-90837216D01*
X144896744Y-91870244D01*
X140752489Y-96014499D01*
X135569787Y-96014499D01*
X135529999Y-96010580D01*
X135490211Y-96014499D01*
X135177003Y-96014499D01*
X135424839Y-95766663D01*
X135499482Y-95759312D01*
X135619180Y-95723002D01*
X135675000Y-95693165D01*
X135730820Y-95723002D01*
X135850518Y-95759312D01*
X135975000Y-95771572D01*
X136239250Y-95768500D01*
X136398000Y-95609750D01*
X136398000Y-92960500D01*
X136378000Y-92960500D01*
X136378000Y-92706500D01*
X136398000Y-92706500D01*
X136398000Y-90057250D01*
X136239250Y-89898500D01*
X135975000Y-89895428D01*
X135850518Y-89907688D01*
X135730820Y-89943998D01*
X135675000Y-89973835D01*
X135619180Y-89943998D01*
X135499482Y-89907688D01*
X135375000Y-89895428D01*
X134275000Y-89895428D01*
X134150518Y-89907688D01*
X134030820Y-89943998D01*
X133975000Y-89973835D01*
X133919180Y-89943998D01*
X133799482Y-89907688D01*
X133675000Y-89895428D01*
X132713645Y-89895428D01*
X132585767Y-89827076D01*
X132400094Y-89770753D01*
X132255380Y-89756500D01*
X132207000Y-89751735D01*
X132158620Y-89756500D01*
X131009586Y-89756500D01*
X130984898Y-89746274D01*
X130784939Y-89706500D01*
X130581061Y-89706500D01*
X130381102Y-89746274D01*
X130356414Y-89756500D01*
X126011000Y-89756500D01*
X125319000Y-89064500D01*
X125319000Y-89020644D01*
X125373502Y-88918680D01*
X125409812Y-88798982D01*
X125422072Y-88674500D01*
X126545928Y-88674500D01*
X126558188Y-88798982D01*
X126594498Y-88918680D01*
X126653463Y-89028994D01*
X126732815Y-89125685D01*
X126829506Y-89205037D01*
X126939820Y-89264002D01*
X127059518Y-89300312D01*
X127184000Y-89312572D01*
X127348250Y-89309500D01*
X127507000Y-89150750D01*
X127507000Y-88201500D01*
X127761000Y-88201500D01*
X127761000Y-89150750D01*
X127919750Y-89309500D01*
X128084000Y-89312572D01*
X128208482Y-89300312D01*
X128328180Y-89264002D01*
X128438494Y-89205037D01*
X128535185Y-89125685D01*
X128614537Y-89028994D01*
X128673502Y-88918680D01*
X128709812Y-88798982D01*
X128722072Y-88674500D01*
X128719228Y-88383500D01*
X130486928Y-88383500D01*
X130499188Y-88507982D01*
X130535498Y-88627680D01*
X130594463Y-88737994D01*
X130673815Y-88834685D01*
X130770506Y-88914037D01*
X130880820Y-88973002D01*
X131000518Y-89009312D01*
X131125000Y-89021572D01*
X136239250Y-89018500D01*
X136398000Y-88859750D01*
X136398000Y-83810500D01*
X130648750Y-83810500D01*
X130490000Y-83969250D01*
X130486928Y-88383500D01*
X128719228Y-88383500D01*
X128719000Y-88360250D01*
X128560250Y-88201500D01*
X127761000Y-88201500D01*
X127507000Y-88201500D01*
X126707750Y-88201500D01*
X126549000Y-88360250D01*
X126545928Y-88674500D01*
X125422072Y-88674500D01*
X125422072Y-87474500D01*
X126545928Y-87474500D01*
X126549000Y-87788750D01*
X126707750Y-87947500D01*
X127507000Y-87947500D01*
X127507000Y-86998250D01*
X127761000Y-86998250D01*
X127761000Y-87947500D01*
X128560250Y-87947500D01*
X128719000Y-87788750D01*
X128722072Y-87474500D01*
X128709812Y-87350018D01*
X128673502Y-87230320D01*
X128614537Y-87120006D01*
X128535185Y-87023315D01*
X128438494Y-86943963D01*
X128328180Y-86884998D01*
X128208482Y-86848688D01*
X128084000Y-86836428D01*
X127919750Y-86839500D01*
X127761000Y-86998250D01*
X127507000Y-86998250D01*
X127348250Y-86839500D01*
X127184000Y-86836428D01*
X127059518Y-86848688D01*
X126939820Y-86884998D01*
X126829506Y-86943963D01*
X126732815Y-87023315D01*
X126653463Y-87120006D01*
X126594498Y-87230320D01*
X126558188Y-87350018D01*
X126545928Y-87474500D01*
X125422072Y-87474500D01*
X125409812Y-87350018D01*
X125373502Y-87230320D01*
X125319000Y-87128356D01*
X125319000Y-85433500D01*
X126118491Y-84634010D01*
X126279211Y-84634010D01*
X126375506Y-84713037D01*
X126485820Y-84772002D01*
X126605518Y-84808312D01*
X126730000Y-84820572D01*
X128030000Y-84820572D01*
X128154482Y-84808312D01*
X128274180Y-84772002D01*
X128384494Y-84713037D01*
X128481185Y-84633685D01*
X128560537Y-84536994D01*
X128619502Y-84426680D01*
X128655812Y-84306982D01*
X128668072Y-84182500D01*
X128668072Y-83282500D01*
X128655812Y-83158018D01*
X128619502Y-83038320D01*
X128560537Y-82928006D01*
X128481185Y-82831315D01*
X128384494Y-82751963D01*
X128274180Y-82692998D01*
X128154482Y-82656688D01*
X128030000Y-82644428D01*
X126730000Y-82644428D01*
X126605518Y-82656688D01*
X126581381Y-82664010D01*
X125758870Y-82664010D01*
X125710490Y-82659245D01*
X125662110Y-82664010D01*
X125517396Y-82678263D01*
X125331723Y-82734586D01*
X125160606Y-82826050D01*
X125010620Y-82949140D01*
X124979779Y-82986720D01*
X123671711Y-84294789D01*
X123634131Y-84325630D01*
X123511041Y-84475616D01*
X123465732Y-84560383D01*
X123419576Y-84646734D01*
X123363253Y-84832407D01*
X123344235Y-85025500D01*
X123349001Y-85073890D01*
X123349000Y-87089500D01*
X120444377Y-87089500D01*
X120395999Y-87084735D01*
X120347621Y-87089500D01*
X120347620Y-87089500D01*
X120202906Y-87103753D01*
X120017233Y-87160076D01*
X119846116Y-87251540D01*
X119696130Y-87374630D01*
X119665284Y-87412216D01*
X116177716Y-90899784D01*
X116140130Y-90930630D01*
X116109289Y-90968210D01*
X113913711Y-93163789D01*
X113876131Y-93194630D01*
X113753041Y-93344616D01*
X113717166Y-93411733D01*
X113672964Y-93494428D01*
X113526000Y-93494428D01*
X113352746Y-93511492D01*
X113186150Y-93562028D01*
X113032614Y-93644095D01*
X112898038Y-93754538D01*
X112835031Y-93831313D01*
X112806537Y-93778006D01*
X112727185Y-93681315D01*
X112630494Y-93601963D01*
X112520180Y-93542998D01*
X112400482Y-93506688D01*
X112276000Y-93494428D01*
X111261750Y-93497500D01*
X111103000Y-93656250D01*
X111103000Y-94805500D01*
X111123000Y-94805500D01*
X111123000Y-95059500D01*
X111103000Y-95059500D01*
X111103000Y-96208750D01*
X111261750Y-96367500D01*
X112276000Y-96370572D01*
X112400482Y-96358312D01*
X112520180Y-96322002D01*
X112630494Y-96263037D01*
X112727185Y-96183685D01*
X112806537Y-96086994D01*
X112835031Y-96033687D01*
X112898038Y-96110462D01*
X113032614Y-96220905D01*
X113186150Y-96302972D01*
X113352746Y-96353508D01*
X113526000Y-96370572D01*
X115626000Y-96370572D01*
X115799254Y-96353508D01*
X115965850Y-96302972D01*
X116119386Y-96220905D01*
X116253962Y-96110462D01*
X116364405Y-95975886D01*
X116446472Y-95822350D01*
X116497008Y-95655754D01*
X116514072Y-95482500D01*
X116514072Y-94382500D01*
X116497008Y-94209246D01*
X116446472Y-94042650D01*
X116364405Y-93889114D01*
X116253962Y-93754538D01*
X116174321Y-93689179D01*
X117502291Y-92361210D01*
X117539870Y-92330370D01*
X117570716Y-92292784D01*
X120804000Y-89059500D01*
X123349001Y-89059500D01*
X123349001Y-89424111D01*
X123344235Y-89472500D01*
X123363253Y-89665593D01*
X123419576Y-89851266D01*
X123455535Y-89918540D01*
X123511041Y-90022384D01*
X123634131Y-90172370D01*
X123671711Y-90203211D01*
X124125010Y-90656510D01*
X121831370Y-90656510D01*
X121782990Y-90651745D01*
X121734610Y-90656510D01*
X121589896Y-90670763D01*
X121404223Y-90727086D01*
X121233106Y-90818550D01*
X121083120Y-90941640D01*
X121052279Y-90979220D01*
X119329072Y-92702428D01*
X119034000Y-92702428D01*
X118909518Y-92714688D01*
X118789820Y-92750998D01*
X118679506Y-92809963D01*
X118582815Y-92889315D01*
X118503463Y-92986006D01*
X118444498Y-93096320D01*
X118408188Y-93216018D01*
X118395928Y-93340500D01*
X118395928Y-94240500D01*
X118408188Y-94364982D01*
X118444498Y-94484680D01*
X118503463Y-94594994D01*
X118582815Y-94691685D01*
X118679506Y-94771037D01*
X118789820Y-94830002D01*
X118909518Y-94866312D01*
X119034000Y-94878572D01*
X120219072Y-94878572D01*
X121987001Y-96646502D01*
X121987001Y-96856762D01*
X121919038Y-96912538D01*
X121808595Y-97047113D01*
X121726528Y-97200649D01*
X121675992Y-97367245D01*
X121658928Y-97540499D01*
X121658928Y-99690501D01*
X121675992Y-99863755D01*
X121726528Y-100030351D01*
X121808595Y-100183887D01*
X121919038Y-100318462D01*
X122053613Y-100428905D01*
X122207149Y-100510972D01*
X122373745Y-100561508D01*
X122546999Y-100578572D01*
X123397001Y-100578572D01*
X123570255Y-100561508D01*
X123736851Y-100510972D01*
X123890387Y-100428905D01*
X124024962Y-100318462D01*
X124135405Y-100183887D01*
X124217472Y-100030351D01*
X124268008Y-99863755D01*
X124285072Y-99690501D01*
X124285072Y-97540499D01*
X124268008Y-97367245D01*
X124217472Y-97200649D01*
X124135405Y-97047113D01*
X124024962Y-96912538D01*
X123957000Y-96856763D01*
X123957000Y-96286880D01*
X123961765Y-96238500D01*
X123942747Y-96045406D01*
X123886424Y-95859733D01*
X123794960Y-95688616D01*
X123748800Y-95632370D01*
X123671870Y-95538630D01*
X123634290Y-95507789D01*
X123605884Y-95479383D01*
X123660623Y-95495988D01*
X123829000Y-95512572D01*
X124329000Y-95512572D01*
X124497377Y-95495988D01*
X124659283Y-95446875D01*
X124729206Y-95409500D01*
X126523000Y-95409500D01*
X126523001Y-96827218D01*
X126419038Y-96912538D01*
X126308595Y-97047113D01*
X126226528Y-97200649D01*
X126175992Y-97367245D01*
X126158928Y-97540499D01*
X126158928Y-99690501D01*
X126175992Y-99863755D01*
X126226528Y-100030351D01*
X126308595Y-100183887D01*
X126419038Y-100318462D01*
X126553613Y-100428905D01*
X126707149Y-100510972D01*
X126873745Y-100561508D01*
X127046999Y-100578572D01*
X127897001Y-100578572D01*
X128070255Y-100561508D01*
X128236851Y-100510972D01*
X128390387Y-100428905D01*
X128524962Y-100318462D01*
X128635405Y-100183887D01*
X128717472Y-100030351D01*
X128768008Y-99863755D01*
X128785072Y-99690501D01*
X128785072Y-99425500D01*
X129881212Y-99425500D01*
X129921000Y-99429419D01*
X129960788Y-99425500D01*
X129960791Y-99425500D01*
X130079788Y-99413780D01*
X130232473Y-99367463D01*
X130373189Y-99292249D01*
X130496528Y-99191028D01*
X130521899Y-99160113D01*
X131563206Y-98118807D01*
X131651000Y-98250201D01*
X131651000Y-98543133D01*
X131649463Y-98545006D01*
X131590498Y-98655320D01*
X131554188Y-98775018D01*
X131541928Y-98899500D01*
X131541928Y-100236428D01*
X130205000Y-100236428D01*
X130080518Y-100248688D01*
X129960820Y-100284998D01*
X129850506Y-100343963D01*
X129753815Y-100423315D01*
X129674463Y-100520006D01*
X129615498Y-100630320D01*
X129579188Y-100750018D01*
X129566928Y-100874500D01*
X129566928Y-101424500D01*
X129579188Y-101548982D01*
X129579345Y-101549500D01*
X129579188Y-101550018D01*
X129566928Y-101674500D01*
X129566928Y-102224500D01*
X129579188Y-102348982D01*
X129579345Y-102349500D01*
X129579188Y-102350018D01*
X129566928Y-102474500D01*
X129566928Y-103024500D01*
X129579188Y-103148982D01*
X129579345Y-103149500D01*
X129579188Y-103150018D01*
X129566928Y-103274500D01*
X129566928Y-103824500D01*
X129579188Y-103948982D01*
X129579345Y-103949500D01*
X129579188Y-103950018D01*
X129566928Y-104074500D01*
X129566928Y-104339500D01*
X128305072Y-104339500D01*
X128305072Y-103535500D01*
X128292812Y-103411018D01*
X128256502Y-103291320D01*
X128197537Y-103181006D01*
X128118185Y-103084315D01*
X128021494Y-103004963D01*
X127911180Y-102945998D01*
X127791482Y-102909688D01*
X127667000Y-102897428D01*
X127267000Y-102897428D01*
X127142518Y-102909688D01*
X127139554Y-102910587D01*
X127048750Y-102900500D01*
X126980782Y-102968468D01*
X126912506Y-103004963D01*
X126817000Y-103083342D01*
X126721494Y-103004963D01*
X126653218Y-102968468D01*
X126585250Y-102900500D01*
X126494446Y-102910587D01*
X126491482Y-102909688D01*
X126367000Y-102897428D01*
X125967000Y-102897428D01*
X125842518Y-102909688D01*
X125842000Y-102909845D01*
X125841482Y-102909688D01*
X125717000Y-102897428D01*
X125317000Y-102897428D01*
X125192518Y-102909688D01*
X125072820Y-102945998D01*
X124962506Y-103004963D01*
X124865815Y-103084315D01*
X124786463Y-103181006D01*
X124727498Y-103291320D01*
X124691188Y-103411018D01*
X124678928Y-103535500D01*
X124678928Y-104490060D01*
X123870488Y-105298500D01*
X122662208Y-105298500D01*
X122671072Y-105208500D01*
X122668000Y-104931750D01*
X122509250Y-104773000D01*
X121285000Y-104773000D01*
X121285000Y-104793000D01*
X121031000Y-104793000D01*
X121031000Y-104773000D01*
X119806750Y-104773000D01*
X119648000Y-104931750D01*
X119644928Y-105208500D01*
X119653792Y-105298500D01*
X117809578Y-105298500D01*
X117793513Y-105135389D01*
X117708599Y-104855466D01*
X117570706Y-104597486D01*
X117385134Y-104371366D01*
X117159014Y-104185794D01*
X117133278Y-104172038D01*
X117249913Y-104083500D01*
X119644928Y-104083500D01*
X119648000Y-104360250D01*
X119806750Y-104519000D01*
X121031000Y-104519000D01*
X121031000Y-103607250D01*
X121285000Y-103607250D01*
X121285000Y-104519000D01*
X122509250Y-104519000D01*
X122668000Y-104360250D01*
X122671072Y-104083500D01*
X122658812Y-103959018D01*
X122622502Y-103839320D01*
X122563537Y-103729006D01*
X122484185Y-103632315D01*
X122387494Y-103552963D01*
X122277180Y-103493998D01*
X122157482Y-103457688D01*
X122033000Y-103445428D01*
X121443750Y-103448500D01*
X121285000Y-103607250D01*
X121031000Y-103607250D01*
X120872250Y-103448500D01*
X120283000Y-103445428D01*
X120158518Y-103457688D01*
X120038820Y-103493998D01*
X119928506Y-103552963D01*
X119831815Y-103632315D01*
X119752463Y-103729006D01*
X119693498Y-103839320D01*
X119657188Y-103959018D01*
X119644928Y-104083500D01*
X117249913Y-104083500D01*
X117339429Y-104015549D01*
X117532496Y-103797693D01*
X117679352Y-103546358D01*
X117771476Y-103283390D01*
X117650155Y-103053500D01*
X116332000Y-103053500D01*
X116332000Y-103073500D01*
X116078000Y-103073500D01*
X116078000Y-103053500D01*
X114759845Y-103053500D01*
X114638524Y-103283390D01*
X114730648Y-103546358D01*
X114877504Y-103797693D01*
X115070571Y-104015549D01*
X115276722Y-104172038D01*
X115250986Y-104185794D01*
X115024866Y-104371366D01*
X114839294Y-104597486D01*
X114701401Y-104855466D01*
X114616487Y-105135389D01*
X114587815Y-105426500D01*
X114616487Y-105717611D01*
X114701401Y-105997534D01*
X114839294Y-106255514D01*
X115024866Y-106481634D01*
X115250986Y-106667206D01*
X115268374Y-106676500D01*
X115250986Y-106685794D01*
X115024866Y-106871366D01*
X114839294Y-107097486D01*
X114701401Y-107355466D01*
X114616487Y-107635389D01*
X114587815Y-107926500D01*
X114616487Y-108217611D01*
X114701401Y-108497534D01*
X114839294Y-108755514D01*
X115024866Y-108981634D01*
X115088337Y-109033723D01*
X114986614Y-109088095D01*
X114852038Y-109198538D01*
X114741595Y-109333114D01*
X114659528Y-109486650D01*
X114608992Y-109653246D01*
X114591928Y-109826500D01*
X114591928Y-110386059D01*
X111582383Y-113395605D01*
X111551473Y-113420972D01*
X111526108Y-113451880D01*
X111450251Y-113544311D01*
X111382016Y-113671972D01*
X111375038Y-113685027D01*
X111331817Y-113827508D01*
X111328721Y-113837713D01*
X111313081Y-113996500D01*
X111317001Y-114036298D01*
X111317001Y-114407337D01*
X111252518Y-114413688D01*
X111132820Y-114449998D01*
X111022506Y-114508963D01*
X110925815Y-114588315D01*
X110846463Y-114685006D01*
X110787498Y-114795320D01*
X110751188Y-114915018D01*
X110738928Y-115039500D01*
X101013635Y-115039500D01*
X100997970Y-102569610D01*
X114638524Y-102569610D01*
X114759845Y-102799500D01*
X116078000Y-102799500D01*
X116078000Y-101600335D01*
X116332000Y-101600335D01*
X116332000Y-102799500D01*
X117650155Y-102799500D01*
X117771476Y-102569610D01*
X117679352Y-102306642D01*
X117532496Y-102055307D01*
X117339429Y-101837451D01*
X117107570Y-101661447D01*
X116845830Y-101534058D01*
X116564267Y-101460180D01*
X116332000Y-101600335D01*
X116078000Y-101600335D01*
X115845733Y-101460180D01*
X115564170Y-101534058D01*
X115302430Y-101661447D01*
X115070571Y-101837451D01*
X114877504Y-102055307D01*
X114730648Y-102306642D01*
X114638524Y-102569610D01*
X100997970Y-102569610D01*
X100991652Y-97540500D01*
X118395928Y-97540500D01*
X118408188Y-97664982D01*
X118444498Y-97784680D01*
X118503463Y-97894994D01*
X118582815Y-97991685D01*
X118679506Y-98071037D01*
X118789820Y-98130002D01*
X118909518Y-98166312D01*
X119034000Y-98178572D01*
X119348250Y-98175500D01*
X119507000Y-98016750D01*
X119507000Y-97217500D01*
X119761000Y-97217500D01*
X119761000Y-98016750D01*
X119919750Y-98175500D01*
X120234000Y-98178572D01*
X120358482Y-98166312D01*
X120478180Y-98130002D01*
X120588494Y-98071037D01*
X120685185Y-97991685D01*
X120764537Y-97894994D01*
X120823502Y-97784680D01*
X120859812Y-97664982D01*
X120872072Y-97540500D01*
X120869000Y-97376250D01*
X120710250Y-97217500D01*
X119761000Y-97217500D01*
X119507000Y-97217500D01*
X118557750Y-97217500D01*
X118399000Y-97376250D01*
X118395928Y-97540500D01*
X100991652Y-97540500D01*
X100990522Y-96640500D01*
X118395928Y-96640500D01*
X118399000Y-96804750D01*
X118557750Y-96963500D01*
X119507000Y-96963500D01*
X119507000Y-96164250D01*
X119761000Y-96164250D01*
X119761000Y-96963500D01*
X120710250Y-96963500D01*
X120869000Y-96804750D01*
X120872072Y-96640500D01*
X120859812Y-96516018D01*
X120823502Y-96396320D01*
X120764537Y-96286006D01*
X120685185Y-96189315D01*
X120588494Y-96109963D01*
X120478180Y-96050998D01*
X120358482Y-96014688D01*
X120234000Y-96002428D01*
X119919750Y-96005500D01*
X119761000Y-96164250D01*
X119507000Y-96164250D01*
X119348250Y-96005500D01*
X119034000Y-96002428D01*
X118909518Y-96014688D01*
X118789820Y-96050998D01*
X118679506Y-96109963D01*
X118582815Y-96189315D01*
X118503463Y-96286006D01*
X118444498Y-96396320D01*
X118408188Y-96516018D01*
X118395928Y-96640500D01*
X100990522Y-96640500D01*
X100989380Y-95732500D01*
X109037928Y-95732500D01*
X109050188Y-95856982D01*
X109086498Y-95976680D01*
X109145463Y-96086994D01*
X109224815Y-96183685D01*
X109321506Y-96263037D01*
X109431820Y-96322002D01*
X109551518Y-96358312D01*
X109676000Y-96370572D01*
X110690250Y-96367500D01*
X110849000Y-96208750D01*
X110849000Y-95059500D01*
X109199750Y-95059500D01*
X109041000Y-95218250D01*
X109037928Y-95732500D01*
X100989380Y-95732500D01*
X100987370Y-94132500D01*
X109037928Y-94132500D01*
X109041000Y-94646750D01*
X109199750Y-94805500D01*
X110849000Y-94805500D01*
X110849000Y-93656250D01*
X110690250Y-93497500D01*
X109676000Y-93494428D01*
X109551518Y-93506688D01*
X109431820Y-93542998D01*
X109321506Y-93601963D01*
X109224815Y-93681315D01*
X109145463Y-93778006D01*
X109086498Y-93888320D01*
X109050188Y-94008018D01*
X109037928Y-94132500D01*
X100987370Y-94132500D01*
X100978917Y-87403221D01*
X113562000Y-87403221D01*
X113562000Y-87823779D01*
X113644047Y-88236256D01*
X113804988Y-88624802D01*
X114038637Y-88974483D01*
X114336017Y-89271863D01*
X114685698Y-89505512D01*
X115074244Y-89666453D01*
X115486721Y-89748500D01*
X115907279Y-89748500D01*
X116319756Y-89666453D01*
X116708302Y-89505512D01*
X117057983Y-89271863D01*
X117355363Y-88974483D01*
X117589012Y-88624802D01*
X117749953Y-88236256D01*
X117832000Y-87823779D01*
X117832000Y-87403221D01*
X117749953Y-86990744D01*
X117739058Y-86964442D01*
X122986001Y-81717500D01*
X126383856Y-81717500D01*
X126485820Y-81772002D01*
X126605518Y-81808312D01*
X126730000Y-81820572D01*
X128030000Y-81820572D01*
X128154482Y-81808312D01*
X128274180Y-81772002D01*
X128384494Y-81713037D01*
X128481185Y-81633685D01*
X128560537Y-81536994D01*
X128619502Y-81426680D01*
X128655812Y-81306982D01*
X128668072Y-81182500D01*
X128668072Y-80282500D01*
X128655812Y-80158018D01*
X128619502Y-80038320D01*
X128560537Y-79928006D01*
X128481185Y-79831315D01*
X128384494Y-79751963D01*
X128274180Y-79692998D01*
X128154482Y-79656688D01*
X128030000Y-79644428D01*
X126730000Y-79644428D01*
X126605518Y-79656688D01*
X126485820Y-79692998D01*
X126383856Y-79747500D01*
X122626380Y-79747500D01*
X122578000Y-79742735D01*
X122529620Y-79747500D01*
X122384906Y-79761753D01*
X122199233Y-79818076D01*
X122028116Y-79909540D01*
X121878130Y-80032630D01*
X121847289Y-80070210D01*
X117834994Y-84082506D01*
X117832000Y-82899250D01*
X117673250Y-82740500D01*
X115824000Y-82740500D01*
X115824000Y-84589750D01*
X115982750Y-84748500D01*
X117166006Y-84751494D01*
X116346058Y-85571442D01*
X116319756Y-85560547D01*
X115907279Y-85478500D01*
X115486721Y-85478500D01*
X115074244Y-85560547D01*
X114685698Y-85721488D01*
X114336017Y-85955137D01*
X114038637Y-86252517D01*
X113804988Y-86602198D01*
X113644047Y-86990744D01*
X113562000Y-87403221D01*
X100978917Y-87403221D01*
X100971873Y-81796729D01*
X102529000Y-81796729D01*
X102529000Y-82414271D01*
X102649476Y-83019946D01*
X102885799Y-83590479D01*
X103228886Y-84103946D01*
X103665554Y-84540614D01*
X104179021Y-84883701D01*
X104749554Y-85120024D01*
X105355229Y-85240500D01*
X105972771Y-85240500D01*
X106578446Y-85120024D01*
X107148979Y-84883701D01*
X107662446Y-84540614D01*
X108089560Y-84113500D01*
X113558928Y-84113500D01*
X113571188Y-84237982D01*
X113607498Y-84357680D01*
X113666463Y-84467994D01*
X113745815Y-84564685D01*
X113842506Y-84644037D01*
X113952820Y-84703002D01*
X114072518Y-84739312D01*
X114197000Y-84751572D01*
X115411250Y-84748500D01*
X115570000Y-84589750D01*
X115570000Y-82740500D01*
X113720750Y-82740500D01*
X113562000Y-82899250D01*
X113558928Y-84113500D01*
X108089560Y-84113500D01*
X108099114Y-84103946D01*
X108442201Y-83590479D01*
X108678524Y-83019946D01*
X108799000Y-82414271D01*
X108799000Y-81796729D01*
X108678524Y-81191054D01*
X108646401Y-81113500D01*
X113558928Y-81113500D01*
X113562000Y-82327750D01*
X113720750Y-82486500D01*
X115570000Y-82486500D01*
X115570000Y-80637250D01*
X115824000Y-80637250D01*
X115824000Y-82486500D01*
X117673250Y-82486500D01*
X117832000Y-82327750D01*
X117835072Y-81113500D01*
X117822812Y-80989018D01*
X117786502Y-80869320D01*
X117727537Y-80759006D01*
X117648185Y-80662315D01*
X117551494Y-80582963D01*
X117441180Y-80523998D01*
X117321482Y-80487688D01*
X117197000Y-80475428D01*
X115982750Y-80478500D01*
X115824000Y-80637250D01*
X115570000Y-80637250D01*
X115411250Y-80478500D01*
X114197000Y-80475428D01*
X114072518Y-80487688D01*
X113952820Y-80523998D01*
X113842506Y-80582963D01*
X113745815Y-80662315D01*
X113666463Y-80759006D01*
X113607498Y-80869320D01*
X113571188Y-80989018D01*
X113558928Y-81113500D01*
X108646401Y-81113500D01*
X108442201Y-80620521D01*
X108099114Y-80107054D01*
X107662446Y-79670386D01*
X107148979Y-79327299D01*
X106578446Y-79090976D01*
X106038127Y-78983500D01*
X130486928Y-78983500D01*
X130490000Y-83397750D01*
X130648750Y-83556500D01*
X136398000Y-83556500D01*
X136398000Y-78507250D01*
X136652000Y-78507250D01*
X136652000Y-83556500D01*
X142401250Y-83556500D01*
X142560000Y-83397750D01*
X142561508Y-81230500D01*
X144341428Y-81230500D01*
X144344500Y-81819750D01*
X144503250Y-81978500D01*
X145415000Y-81978500D01*
X145415000Y-80754250D01*
X145669000Y-80754250D01*
X145669000Y-81978500D01*
X146580750Y-81978500D01*
X146739500Y-81819750D01*
X146742572Y-81230500D01*
X146730312Y-81106018D01*
X146694002Y-80986320D01*
X146635037Y-80876006D01*
X146555685Y-80779315D01*
X146458994Y-80699963D01*
X146348680Y-80640998D01*
X146228982Y-80604688D01*
X146104500Y-80592428D01*
X145827750Y-80595500D01*
X145669000Y-80754250D01*
X145415000Y-80754250D01*
X145256250Y-80595500D01*
X144979500Y-80592428D01*
X144855018Y-80604688D01*
X144735320Y-80640998D01*
X144625006Y-80699963D01*
X144528315Y-80779315D01*
X144448963Y-80876006D01*
X144389998Y-80986320D01*
X144353688Y-81106018D01*
X144341428Y-81230500D01*
X142561508Y-81230500D01*
X142563072Y-78983500D01*
X142550812Y-78859018D01*
X142514502Y-78739320D01*
X142455537Y-78629006D01*
X142376185Y-78532315D01*
X142279494Y-78452963D01*
X142169180Y-78393998D01*
X142049482Y-78357688D01*
X141925000Y-78345428D01*
X136810750Y-78348500D01*
X136652000Y-78507250D01*
X136398000Y-78507250D01*
X136239250Y-78348500D01*
X131125000Y-78345428D01*
X131000518Y-78357688D01*
X130880820Y-78393998D01*
X130770506Y-78452963D01*
X130673815Y-78532315D01*
X130594463Y-78629006D01*
X130535498Y-78739320D01*
X130499188Y-78859018D01*
X130486928Y-78983500D01*
X106038127Y-78983500D01*
X105972771Y-78970500D01*
X105355229Y-78970500D01*
X104749554Y-79090976D01*
X104179021Y-79327299D01*
X103665554Y-79670386D01*
X103228886Y-80107054D01*
X102885799Y-80620521D01*
X102649476Y-81191054D01*
X102529000Y-81796729D01*
X100971873Y-81796729D01*
X100965160Y-76453903D01*
X183578660Y-76390597D01*
X183641840Y-126619195D01*
G37*
%TD.AperFunction*%
D38*
X134928815Y-100950685D02*
X135025506Y-101030037D01*
X135048667Y-101042417D01*
X135140750Y-101134500D01*
X135254380Y-101124967D01*
X135255518Y-101125312D01*
X135380000Y-101137572D01*
X135821415Y-101137572D01*
X134519488Y-102439500D01*
X134002200Y-102439500D01*
X133841756Y-102332295D01*
X133653398Y-102254274D01*
X133453439Y-102214500D01*
X133249561Y-102214500D01*
X133049602Y-102254274D01*
X132861244Y-102332295D01*
X132691726Y-102445563D01*
X132547563Y-102589726D01*
X132443072Y-102746108D01*
X132443072Y-102474500D01*
X132430812Y-102350018D01*
X132430655Y-102349500D01*
X132430812Y-102348982D01*
X132443072Y-102224500D01*
X132443072Y-101674500D01*
X132430812Y-101550018D01*
X132430655Y-101549500D01*
X132430812Y-101548982D01*
X132443072Y-101424500D01*
X132443072Y-101137572D01*
X132730000Y-101137572D01*
X132854482Y-101125312D01*
X132855000Y-101125155D01*
X132855518Y-101125312D01*
X132980000Y-101137572D01*
X133530000Y-101137572D01*
X133654482Y-101125312D01*
X133655000Y-101125155D01*
X133655518Y-101125312D01*
X133780000Y-101137572D01*
X134330000Y-101137572D01*
X134454482Y-101125312D01*
X134455620Y-101124967D01*
X134569250Y-101134500D01*
X134661333Y-101042417D01*
X134684494Y-101030037D01*
X134781185Y-100950685D01*
X134855000Y-100860741D01*
X134928815Y-100950685D01*
%TA.AperFunction,Conductor*%
D39*
G36*
X134928815Y-100950685D02*
G01*
X135025506Y-101030037D01*
X135048667Y-101042417D01*
X135140750Y-101134500D01*
X135254380Y-101124967D01*
X135255518Y-101125312D01*
X135380000Y-101137572D01*
X135821415Y-101137572D01*
X134519488Y-102439500D01*
X134002200Y-102439500D01*
X133841756Y-102332295D01*
X133653398Y-102254274D01*
X133453439Y-102214500D01*
X133249561Y-102214500D01*
X133049602Y-102254274D01*
X132861244Y-102332295D01*
X132691726Y-102445563D01*
X132547563Y-102589726D01*
X132443072Y-102746108D01*
X132443072Y-102474500D01*
X132430812Y-102350018D01*
X132430655Y-102349500D01*
X132430812Y-102348982D01*
X132443072Y-102224500D01*
X132443072Y-101674500D01*
X132430812Y-101550018D01*
X132430655Y-101549500D01*
X132430812Y-101548982D01*
X132443072Y-101424500D01*
X132443072Y-101137572D01*
X132730000Y-101137572D01*
X132854482Y-101125312D01*
X132855000Y-101125155D01*
X132855518Y-101125312D01*
X132980000Y-101137572D01*
X133530000Y-101137572D01*
X133654482Y-101125312D01*
X133655000Y-101125155D01*
X133655518Y-101125312D01*
X133780000Y-101137572D01*
X134330000Y-101137572D01*
X134454482Y-101125312D01*
X134455620Y-101124967D01*
X134569250Y-101134500D01*
X134661333Y-101042417D01*
X134684494Y-101030037D01*
X134781185Y-100950685D01*
X134855000Y-100860741D01*
X134928815Y-100950685D01*
G37*
%TD.AperFunction*%
D38*
X154273000Y-101345500D02*
X154293000Y-101345500D01*
X154293000Y-101599500D01*
X154273000Y-101599500D01*
X154273000Y-101619500D01*
X154019000Y-101619500D01*
X154019000Y-101599500D01*
X153999000Y-101599500D01*
X153999000Y-101345500D01*
X154019000Y-101345500D01*
X154019000Y-101325500D01*
X154273000Y-101325500D01*
X154273000Y-101345500D01*
%TA.AperFunction,Conductor*%
D39*
G36*
X154273000Y-101345500D02*
G01*
X154293000Y-101345500D01*
X154293000Y-101599500D01*
X154273000Y-101599500D01*
X154273000Y-101619500D01*
X154019000Y-101619500D01*
X154019000Y-101599500D01*
X153999000Y-101599500D01*
X153999000Y-101345500D01*
X154019000Y-101345500D01*
X154019000Y-101325500D01*
X154273000Y-101325500D01*
X154273000Y-101345500D01*
G37*
%TD.AperFunction*%
D38*
X148241503Y-88141118D02*
X148390717Y-88220875D01*
X148552623Y-88269988D01*
X148721000Y-88286572D01*
X149221000Y-88286572D01*
X149389377Y-88269988D01*
X149551283Y-88220875D01*
X149621206Y-88183500D01*
X153277528Y-88183500D01*
X153186613Y-88232095D01*
X153052038Y-88342538D01*
X152941595Y-88477113D01*
X152859528Y-88630649D01*
X152808992Y-88797245D01*
X152791928Y-88970499D01*
X152791928Y-89595501D01*
X152808992Y-89768755D01*
X152859528Y-89935351D01*
X152941595Y-90088887D01*
X153052038Y-90223462D01*
X153186613Y-90333905D01*
X153340149Y-90415972D01*
X153506745Y-90466508D01*
X153679999Y-90483572D01*
X154112571Y-90483572D01*
X154209000Y-90580001D01*
X154209000Y-91168719D01*
X154171820Y-91179998D01*
X154091000Y-91223198D01*
X154010180Y-91179998D01*
X153890482Y-91143688D01*
X153766000Y-91131428D01*
X152851750Y-91134500D01*
X152693000Y-91293250D01*
X152693000Y-92392500D01*
X152713000Y-92392500D01*
X152713000Y-92646500D01*
X152693000Y-92646500D01*
X152693000Y-93745750D01*
X152851750Y-93904500D01*
X153766000Y-93907572D01*
X153890482Y-93895312D01*
X154010180Y-93859002D01*
X154091000Y-93815802D01*
X154171820Y-93859002D01*
X154291518Y-93895312D01*
X154416000Y-93907572D01*
X154952928Y-93907572D01*
X153483711Y-95376789D01*
X153446131Y-95407630D01*
X153323041Y-95557616D01*
X153274152Y-95649081D01*
X153231576Y-95728734D01*
X153175253Y-95914407D01*
X153156235Y-96107500D01*
X153161001Y-96155889D01*
X153161001Y-96259216D01*
X153065180Y-96207998D01*
X152945482Y-96171688D01*
X152821000Y-96159428D01*
X151471000Y-96159428D01*
X151346518Y-96171688D01*
X151226820Y-96207998D01*
X151116506Y-96266963D01*
X151019815Y-96346315D01*
X150940463Y-96443006D01*
X150881498Y-96553320D01*
X150848379Y-96662500D01*
X147831144Y-96662500D01*
X147839494Y-96658037D01*
X147936185Y-96578685D01*
X148015537Y-96481994D01*
X148074502Y-96371680D01*
X148110812Y-96251982D01*
X148123072Y-96127500D01*
X148120000Y-95113250D01*
X147961250Y-94954500D01*
X146812000Y-94954500D01*
X146812000Y-94974500D01*
X146558000Y-94974500D01*
X146558000Y-94954500D01*
X145408750Y-94954500D01*
X145250000Y-95113250D01*
X145246928Y-96127500D01*
X145259188Y-96251982D01*
X145295498Y-96371680D01*
X145354463Y-96481994D01*
X145433815Y-96578685D01*
X145530506Y-96658037D01*
X145538856Y-96662500D01*
X144692787Y-96662500D01*
X144652999Y-96658581D01*
X144613211Y-96662500D01*
X144613209Y-96662500D01*
X144494212Y-96674220D01*
X144341527Y-96720537D01*
X144280209Y-96753312D01*
X144200810Y-96795751D01*
X144165781Y-96824499D01*
X144077472Y-96896972D01*
X144052105Y-96927882D01*
X141950099Y-99029888D01*
X141815774Y-98895563D01*
X141646256Y-98782295D01*
X141457898Y-98704274D01*
X141257939Y-98664500D01*
X141054061Y-98664500D01*
X140854102Y-98704274D01*
X140665744Y-98782295D01*
X140505300Y-98889500D01*
X138967087Y-98889500D01*
X138955812Y-98775018D01*
X138919502Y-98655320D01*
X138860537Y-98545006D01*
X138781185Y-98448315D01*
X138684494Y-98368963D01*
X138574180Y-98309998D01*
X138454482Y-98273688D01*
X138330000Y-98261428D01*
X138014062Y-98261428D01*
X138006963Y-98238027D01*
X137931749Y-98097311D01*
X137830528Y-97973972D01*
X137799618Y-97948605D01*
X137485512Y-97634499D01*
X141048213Y-97634499D01*
X141088001Y-97638418D01*
X141127789Y-97634499D01*
X141127792Y-97634499D01*
X141246789Y-97622779D01*
X141399474Y-97576462D01*
X141540190Y-97501248D01*
X141663529Y-97400027D01*
X141688901Y-97369111D01*
X145247784Y-93810228D01*
X145250000Y-94541750D01*
X145408750Y-94700500D01*
X146558000Y-94700500D01*
X146558000Y-94680500D01*
X146812000Y-94680500D01*
X146812000Y-94700500D01*
X147961250Y-94700500D01*
X148120000Y-94541750D01*
X148123072Y-93527500D01*
X148110812Y-93403018D01*
X148074502Y-93283320D01*
X148067115Y-93269500D01*
X150727928Y-93269500D01*
X150740188Y-93393982D01*
X150776498Y-93513680D01*
X150835463Y-93623994D01*
X150914815Y-93720685D01*
X151011506Y-93800037D01*
X151121820Y-93859002D01*
X151241518Y-93895312D01*
X151366000Y-93907572D01*
X152280250Y-93904500D01*
X152439000Y-93745750D01*
X152439000Y-92646500D01*
X150889750Y-92646500D01*
X150731000Y-92805250D01*
X150727928Y-93269500D01*
X148067115Y-93269500D01*
X148015537Y-93173006D01*
X147936185Y-93076315D01*
X147839494Y-92996963D01*
X147786187Y-92968469D01*
X147862962Y-92905462D01*
X147973405Y-92770886D01*
X148055472Y-92617350D01*
X148106008Y-92450754D01*
X148123072Y-92277500D01*
X148123072Y-91769500D01*
X150727928Y-91769500D01*
X150731000Y-92233750D01*
X150889750Y-92392500D01*
X152439000Y-92392500D01*
X152439000Y-91293250D01*
X152280250Y-91134500D01*
X151366000Y-91131428D01*
X151241518Y-91143688D01*
X151121820Y-91179998D01*
X151011506Y-91238963D01*
X150914815Y-91318315D01*
X150835463Y-91415006D01*
X150776498Y-91525320D01*
X150740188Y-91645018D01*
X150727928Y-91769500D01*
X148123072Y-91769500D01*
X148123072Y-90177500D01*
X148106008Y-90004246D01*
X148055472Y-89837650D01*
X147973405Y-89684114D01*
X147862962Y-89549538D01*
X147728386Y-89439095D01*
X147574850Y-89357028D01*
X147408254Y-89306492D01*
X147235000Y-89289428D01*
X146135000Y-89289428D01*
X145961746Y-89306492D01*
X145795150Y-89357028D01*
X145641614Y-89439095D01*
X145511000Y-89546286D01*
X145511000Y-88246202D01*
X145644387Y-88174905D01*
X145724692Y-88109000D01*
X148202367Y-88109000D01*
X148241503Y-88141118D01*
%TA.AperFunction,Conductor*%
D39*
G36*
X148241503Y-88141118D02*
G01*
X148390717Y-88220875D01*
X148552623Y-88269988D01*
X148721000Y-88286572D01*
X149221000Y-88286572D01*
X149389377Y-88269988D01*
X149551283Y-88220875D01*
X149621206Y-88183500D01*
X153277528Y-88183500D01*
X153186613Y-88232095D01*
X153052038Y-88342538D01*
X152941595Y-88477113D01*
X152859528Y-88630649D01*
X152808992Y-88797245D01*
X152791928Y-88970499D01*
X152791928Y-89595501D01*
X152808992Y-89768755D01*
X152859528Y-89935351D01*
X152941595Y-90088887D01*
X153052038Y-90223462D01*
X153186613Y-90333905D01*
X153340149Y-90415972D01*
X153506745Y-90466508D01*
X153679999Y-90483572D01*
X154112571Y-90483572D01*
X154209000Y-90580001D01*
X154209000Y-91168719D01*
X154171820Y-91179998D01*
X154091000Y-91223198D01*
X154010180Y-91179998D01*
X153890482Y-91143688D01*
X153766000Y-91131428D01*
X152851750Y-91134500D01*
X152693000Y-91293250D01*
X152693000Y-92392500D01*
X152713000Y-92392500D01*
X152713000Y-92646500D01*
X152693000Y-92646500D01*
X152693000Y-93745750D01*
X152851750Y-93904500D01*
X153766000Y-93907572D01*
X153890482Y-93895312D01*
X154010180Y-93859002D01*
X154091000Y-93815802D01*
X154171820Y-93859002D01*
X154291518Y-93895312D01*
X154416000Y-93907572D01*
X154952928Y-93907572D01*
X153483711Y-95376789D01*
X153446131Y-95407630D01*
X153323041Y-95557616D01*
X153274152Y-95649081D01*
X153231576Y-95728734D01*
X153175253Y-95914407D01*
X153156235Y-96107500D01*
X153161001Y-96155889D01*
X153161001Y-96259216D01*
X153065180Y-96207998D01*
X152945482Y-96171688D01*
X152821000Y-96159428D01*
X151471000Y-96159428D01*
X151346518Y-96171688D01*
X151226820Y-96207998D01*
X151116506Y-96266963D01*
X151019815Y-96346315D01*
X150940463Y-96443006D01*
X150881498Y-96553320D01*
X150848379Y-96662500D01*
X147831144Y-96662500D01*
X147839494Y-96658037D01*
X147936185Y-96578685D01*
X148015537Y-96481994D01*
X148074502Y-96371680D01*
X148110812Y-96251982D01*
X148123072Y-96127500D01*
X148120000Y-95113250D01*
X147961250Y-94954500D01*
X146812000Y-94954500D01*
X146812000Y-94974500D01*
X146558000Y-94974500D01*
X146558000Y-94954500D01*
X145408750Y-94954500D01*
X145250000Y-95113250D01*
X145246928Y-96127500D01*
X145259188Y-96251982D01*
X145295498Y-96371680D01*
X145354463Y-96481994D01*
X145433815Y-96578685D01*
X145530506Y-96658037D01*
X145538856Y-96662500D01*
X144692787Y-96662500D01*
X144652999Y-96658581D01*
X144613211Y-96662500D01*
X144613209Y-96662500D01*
X144494212Y-96674220D01*
X144341527Y-96720537D01*
X144280209Y-96753312D01*
X144200810Y-96795751D01*
X144165781Y-96824499D01*
X144077472Y-96896972D01*
X144052105Y-96927882D01*
X141950099Y-99029888D01*
X141815774Y-98895563D01*
X141646256Y-98782295D01*
X141457898Y-98704274D01*
X141257939Y-98664500D01*
X141054061Y-98664500D01*
X140854102Y-98704274D01*
X140665744Y-98782295D01*
X140505300Y-98889500D01*
X138967087Y-98889500D01*
X138955812Y-98775018D01*
X138919502Y-98655320D01*
X138860537Y-98545006D01*
X138781185Y-98448315D01*
X138684494Y-98368963D01*
X138574180Y-98309998D01*
X138454482Y-98273688D01*
X138330000Y-98261428D01*
X138014062Y-98261428D01*
X138006963Y-98238027D01*
X137931749Y-98097311D01*
X137830528Y-97973972D01*
X137799618Y-97948605D01*
X137485512Y-97634499D01*
X141048213Y-97634499D01*
X141088001Y-97638418D01*
X141127789Y-97634499D01*
X141127792Y-97634499D01*
X141246789Y-97622779D01*
X141399474Y-97576462D01*
X141540190Y-97501248D01*
X141663529Y-97400027D01*
X141688901Y-97369111D01*
X145247784Y-93810228D01*
X145250000Y-94541750D01*
X145408750Y-94700500D01*
X146558000Y-94700500D01*
X146558000Y-94680500D01*
X146812000Y-94680500D01*
X146812000Y-94700500D01*
X147961250Y-94700500D01*
X148120000Y-94541750D01*
X148123072Y-93527500D01*
X148110812Y-93403018D01*
X148074502Y-93283320D01*
X148067115Y-93269500D01*
X150727928Y-93269500D01*
X150740188Y-93393982D01*
X150776498Y-93513680D01*
X150835463Y-93623994D01*
X150914815Y-93720685D01*
X151011506Y-93800037D01*
X151121820Y-93859002D01*
X151241518Y-93895312D01*
X151366000Y-93907572D01*
X152280250Y-93904500D01*
X152439000Y-93745750D01*
X152439000Y-92646500D01*
X150889750Y-92646500D01*
X150731000Y-92805250D01*
X150727928Y-93269500D01*
X148067115Y-93269500D01*
X148015537Y-93173006D01*
X147936185Y-93076315D01*
X147839494Y-92996963D01*
X147786187Y-92968469D01*
X147862962Y-92905462D01*
X147973405Y-92770886D01*
X148055472Y-92617350D01*
X148106008Y-92450754D01*
X148123072Y-92277500D01*
X148123072Y-91769500D01*
X150727928Y-91769500D01*
X150731000Y-92233750D01*
X150889750Y-92392500D01*
X152439000Y-92392500D01*
X152439000Y-91293250D01*
X152280250Y-91134500D01*
X151366000Y-91131428D01*
X151241518Y-91143688D01*
X151121820Y-91179998D01*
X151011506Y-91238963D01*
X150914815Y-91318315D01*
X150835463Y-91415006D01*
X150776498Y-91525320D01*
X150740188Y-91645018D01*
X150727928Y-91769500D01*
X148123072Y-91769500D01*
X148123072Y-90177500D01*
X148106008Y-90004246D01*
X148055472Y-89837650D01*
X147973405Y-89684114D01*
X147862962Y-89549538D01*
X147728386Y-89439095D01*
X147574850Y-89357028D01*
X147408254Y-89306492D01*
X147235000Y-89289428D01*
X146135000Y-89289428D01*
X145961746Y-89306492D01*
X145795150Y-89357028D01*
X145641614Y-89439095D01*
X145511000Y-89546286D01*
X145511000Y-88246202D01*
X145644387Y-88174905D01*
X145724692Y-88109000D01*
X148202367Y-88109000D01*
X148241503Y-88141118D01*
G37*
%TD.AperFunction*%
D38*
X123127750Y-92747500D02*
X123952000Y-92747500D01*
X123952000Y-92727500D01*
X124206000Y-92727500D01*
X124206000Y-92747500D01*
X125030250Y-92747500D01*
X125151240Y-92626510D01*
X126422760Y-92626510D01*
X126556750Y-92760500D01*
X127381000Y-92760500D01*
X127381000Y-92740500D01*
X127635000Y-92740500D01*
X127635000Y-92760500D01*
X127655000Y-92760500D01*
X127655000Y-93014500D01*
X127635000Y-93014500D01*
X127635000Y-93034500D01*
X127381000Y-93034500D01*
X127381000Y-93014500D01*
X126556750Y-93014500D01*
X126398000Y-93173250D01*
X126394928Y-93337500D01*
X126404974Y-93439500D01*
X125180746Y-93439500D01*
X125192072Y-93324500D01*
X125189000Y-93160250D01*
X125030250Y-93001500D01*
X124206000Y-93001500D01*
X124206000Y-93021500D01*
X123952000Y-93021500D01*
X123952000Y-93001500D01*
X123127750Y-93001500D01*
X122969000Y-93160250D01*
X122965928Y-93324500D01*
X122978188Y-93448982D01*
X123014498Y-93568680D01*
X123073463Y-93678994D01*
X123109700Y-93723149D01*
X123031625Y-93869217D01*
X122982512Y-94031123D01*
X122965928Y-94199500D01*
X122965928Y-94649500D01*
X122982512Y-94817877D01*
X122999117Y-94872616D01*
X121472000Y-93345500D01*
X122190991Y-92626510D01*
X123006760Y-92626510D01*
X123127750Y-92747500D01*
%TA.AperFunction,Conductor*%
D39*
G36*
X123127750Y-92747500D02*
G01*
X123952000Y-92747500D01*
X123952000Y-92727500D01*
X124206000Y-92727500D01*
X124206000Y-92747500D01*
X125030250Y-92747500D01*
X125151240Y-92626510D01*
X126422760Y-92626510D01*
X126556750Y-92760500D01*
X127381000Y-92760500D01*
X127381000Y-92740500D01*
X127635000Y-92740500D01*
X127635000Y-92760500D01*
X127655000Y-92760500D01*
X127655000Y-93014500D01*
X127635000Y-93014500D01*
X127635000Y-93034500D01*
X127381000Y-93034500D01*
X127381000Y-93014500D01*
X126556750Y-93014500D01*
X126398000Y-93173250D01*
X126394928Y-93337500D01*
X126404974Y-93439500D01*
X125180746Y-93439500D01*
X125192072Y-93324500D01*
X125189000Y-93160250D01*
X125030250Y-93001500D01*
X124206000Y-93001500D01*
X124206000Y-93021500D01*
X123952000Y-93021500D01*
X123952000Y-93001500D01*
X123127750Y-93001500D01*
X122969000Y-93160250D01*
X122965928Y-93324500D01*
X122978188Y-93448982D01*
X123014498Y-93568680D01*
X123073463Y-93678994D01*
X123109700Y-93723149D01*
X123031625Y-93869217D01*
X122982512Y-94031123D01*
X122965928Y-94199500D01*
X122965928Y-94649500D01*
X122982512Y-94817877D01*
X122999117Y-94872616D01*
X121472000Y-93345500D01*
X122190991Y-92626510D01*
X123006760Y-92626510D01*
X123127750Y-92747500D01*
G37*
%TD.AperFunction*%
%TD*%
M02*
