%TF.GenerationSoftware,KiCad,Pcbnew,(5.1.8)-1*%
%TF.CreationDate,2021-08-28T19:56:38+01:00*%
%TF.ProjectId,OSC21,4f534332-312e-46b6-9963-61645f706362,rev?*%
%TF.SameCoordinates,Original*%
%TF.FileFunction,Soldermask,Top*%
%TF.FilePolarity,Negative*%
%FSLAX46Y46*%
G04 Gerber Fmt 4.6, Leading zero omitted, Abs format (unit mm)*
G04 Created by KiCad (PCBNEW (5.1.8)-1) date 2021-08-28 19:56:38*
%MOMM*%
%LPD*%
G01*
G04 APERTURE LIST*
%ADD10C,5.000000*%
%ADD11R,1.050000X1.500000*%
%ADD12R,2.400000X1.500000*%
%ADD13C,1.500000*%
%ADD14R,1.500000X2.000000*%
%ADD15R,3.800000X2.000000*%
%ADD16R,0.400000X1.100000*%
%ADD17R,10.800000X9.400000*%
%ADD18R,1.100000X4.600000*%
%ADD19R,1.600000X0.550000*%
%ADD20R,0.550000X1.600000*%
%ADD21C,2.000000*%
%ADD22C,0.100000*%
%ADD23R,1.300000X0.900000*%
%ADD24O,2.000000X1.700000*%
%ADD25C,2.600000*%
%ADD26R,2.600000X2.600000*%
%ADD27O,1.700000X1.950000*%
%ADD28O,1.950000X1.700000*%
%ADD29O,1.350000X1.350000*%
%ADD30R,1.350000X1.350000*%
%ADD31C,3.000000*%
%ADD32R,3.000000X3.000000*%
%ADD33R,1.200000X0.900000*%
%ADD34R,0.900000X1.200000*%
G04 APERTURE END LIST*
D10*
%TO.C,H4*%
X176149000Y-119951500D03*
%TD*%
%TO.C,H3*%
X175260000Y-81597500D03*
%TD*%
%TO.C,H2*%
X105918000Y-120078500D03*
%TD*%
%TO.C,H1*%
X105664000Y-82105500D03*
%TD*%
D11*
%TO.C,D1*%
X154941000Y-92519500D03*
D12*
X152566000Y-92519500D03*
%TD*%
D13*
%TO.C,Y1*%
X142802000Y-115252500D03*
X137922000Y-115252500D03*
%TD*%
D14*
%TO.C,U4*%
X116727000Y-116039500D03*
X112127000Y-116039500D03*
X114427000Y-116039500D03*
D15*
X114427000Y-122339500D03*
%TD*%
D16*
%TO.C,U3*%
X127467000Y-108385500D03*
X126817000Y-108385500D03*
X126167000Y-108385500D03*
X125517000Y-108385500D03*
X125517000Y-104085500D03*
X126167000Y-104085500D03*
X126817000Y-104085500D03*
X127467000Y-104085500D03*
%TD*%
D17*
%TO.C,U2*%
X136525000Y-83683500D03*
D18*
X139925000Y-92833500D03*
X138225000Y-92833500D03*
X136525000Y-92833500D03*
X134825000Y-92833500D03*
X133125000Y-92833500D03*
%TD*%
D19*
%TO.C,U1*%
X131005000Y-106749500D03*
X131005000Y-105949500D03*
X131005000Y-105149500D03*
X131005000Y-104349500D03*
X131005000Y-103549500D03*
X131005000Y-102749500D03*
X131005000Y-101949500D03*
X131005000Y-101149500D03*
D20*
X132455000Y-99699500D03*
X133255000Y-99699500D03*
X134055000Y-99699500D03*
X134855000Y-99699500D03*
X135655000Y-99699500D03*
X136455000Y-99699500D03*
X137255000Y-99699500D03*
X138055000Y-99699500D03*
D19*
X139505000Y-101149500D03*
X139505000Y-101949500D03*
X139505000Y-102749500D03*
X139505000Y-103549500D03*
X139505000Y-104349500D03*
X139505000Y-105149500D03*
X139505000Y-105949500D03*
X139505000Y-106749500D03*
D20*
X138055000Y-108199500D03*
X137255000Y-108199500D03*
X136455000Y-108199500D03*
X135655000Y-108199500D03*
X134855000Y-108199500D03*
X134055000Y-108199500D03*
X133255000Y-108199500D03*
X132455000Y-108199500D03*
%TD*%
D21*
%TO.C,SW1*%
X126088000Y-122364500D03*
X126088000Y-117864500D03*
X132588000Y-122364500D03*
X132588000Y-117864500D03*
%TD*%
%TO.C,R7*%
G36*
G01*
X154930001Y-86920500D02*
X153679999Y-86920500D01*
G75*
G02*
X153430000Y-86670501I0J249999D01*
G01*
X153430000Y-86045499D01*
G75*
G02*
X153679999Y-85795500I249999J0D01*
G01*
X154930001Y-85795500D01*
G75*
G02*
X155180000Y-86045499I0J-249999D01*
G01*
X155180000Y-86670501D01*
G75*
G02*
X154930001Y-86920500I-249999J0D01*
G01*
G37*
G36*
G01*
X154930001Y-89845500D02*
X153679999Y-89845500D01*
G75*
G02*
X153430000Y-89595501I0J249999D01*
G01*
X153430000Y-88970499D01*
G75*
G02*
X153679999Y-88720500I249999J0D01*
G01*
X154930001Y-88720500D01*
G75*
G02*
X155180000Y-88970499I0J-249999D01*
G01*
X155180000Y-89595501D01*
G75*
G02*
X154930001Y-89845500I-249999J0D01*
G01*
G37*
%TD*%
%TO.C,R6*%
G36*
G01*
X121783001Y-105208500D02*
X120532999Y-105208500D01*
G75*
G02*
X120283000Y-104958501I0J249999D01*
G01*
X120283000Y-104333499D01*
G75*
G02*
X120532999Y-104083500I249999J0D01*
G01*
X121783001Y-104083500D01*
G75*
G02*
X122033000Y-104333499I0J-249999D01*
G01*
X122033000Y-104958501D01*
G75*
G02*
X121783001Y-105208500I-249999J0D01*
G01*
G37*
G36*
G01*
X121783001Y-108133500D02*
X120532999Y-108133500D01*
G75*
G02*
X120283000Y-107883501I0J249999D01*
G01*
X120283000Y-107258499D01*
G75*
G02*
X120532999Y-107008500I249999J0D01*
G01*
X121783001Y-107008500D01*
G75*
G02*
X122033000Y-107258499I0J-249999D01*
G01*
X122033000Y-107883501D01*
G75*
G02*
X121783001Y-108133500I-249999J0D01*
G01*
G37*
%TD*%
%TO.C,R5*%
G36*
G01*
X147904500Y-82730501D02*
X147904500Y-81480499D01*
G75*
G02*
X148154499Y-81230500I249999J0D01*
G01*
X148779501Y-81230500D01*
G75*
G02*
X149029500Y-81480499I0J-249999D01*
G01*
X149029500Y-82730501D01*
G75*
G02*
X148779501Y-82980500I-249999J0D01*
G01*
X148154499Y-82980500D01*
G75*
G02*
X147904500Y-82730501I0J249999D01*
G01*
G37*
G36*
G01*
X144979500Y-82730501D02*
X144979500Y-81480499D01*
G75*
G02*
X145229499Y-81230500I249999J0D01*
G01*
X145854501Y-81230500D01*
G75*
G02*
X146104500Y-81480499I0J-249999D01*
G01*
X146104500Y-82730501D01*
G75*
G02*
X145854501Y-82980500I-249999J0D01*
G01*
X145229499Y-82980500D01*
G75*
G02*
X144979500Y-82730501I0J249999D01*
G01*
G37*
%TD*%
%TO.C,R4*%
G36*
G01*
X143900999Y-86561500D02*
X145151001Y-86561500D01*
G75*
G02*
X145401000Y-86811499I0J-249999D01*
G01*
X145401000Y-87436501D01*
G75*
G02*
X145151001Y-87686500I-249999J0D01*
G01*
X143900999Y-87686500D01*
G75*
G02*
X143651000Y-87436501I0J249999D01*
G01*
X143651000Y-86811499D01*
G75*
G02*
X143900999Y-86561500I249999J0D01*
G01*
G37*
G36*
G01*
X143900999Y-83636500D02*
X145151001Y-83636500D01*
G75*
G02*
X145401000Y-83886499I0J-249999D01*
G01*
X145401000Y-84511501D01*
G75*
G02*
X145151001Y-84761500I-249999J0D01*
G01*
X143900999Y-84761500D01*
G75*
G02*
X143651000Y-84511501I0J249999D01*
G01*
X143651000Y-83886499D01*
G75*
G02*
X143900999Y-83636500I249999J0D01*
G01*
G37*
%TD*%
%TO.C,R3*%
G36*
G01*
X143880000Y-106880499D02*
X143880000Y-108130501D01*
G75*
G02*
X143630001Y-108380500I-249999J0D01*
G01*
X143004999Y-108380500D01*
G75*
G02*
X142755000Y-108130501I0J249999D01*
G01*
X142755000Y-106880499D01*
G75*
G02*
X143004999Y-106630500I249999J0D01*
G01*
X143630001Y-106630500D01*
G75*
G02*
X143880000Y-106880499I0J-249999D01*
G01*
G37*
G36*
G01*
X146805000Y-106880499D02*
X146805000Y-108130501D01*
G75*
G02*
X146555001Y-108380500I-249999J0D01*
G01*
X145929999Y-108380500D01*
G75*
G02*
X145680000Y-108130501I0J249999D01*
G01*
X145680000Y-106880499D01*
G75*
G02*
X145929999Y-106630500I249999J0D01*
G01*
X146555001Y-106630500D01*
G75*
G02*
X146805000Y-106880499I0J-249999D01*
G01*
G37*
%TD*%
%TO.C,R1*%
G36*
G01*
X129043000Y-112956501D02*
X129043000Y-111706499D01*
G75*
G02*
X129292999Y-111456500I249999J0D01*
G01*
X129918001Y-111456500D01*
G75*
G02*
X130168000Y-111706499I0J-249999D01*
G01*
X130168000Y-112956501D01*
G75*
G02*
X129918001Y-113206500I-249999J0D01*
G01*
X129292999Y-113206500D01*
G75*
G02*
X129043000Y-112956501I0J249999D01*
G01*
G37*
G36*
G01*
X126118000Y-112956501D02*
X126118000Y-111706499D01*
G75*
G02*
X126367999Y-111456500I249999J0D01*
G01*
X126993001Y-111456500D01*
G75*
G02*
X127243000Y-111706499I0J-249999D01*
G01*
X127243000Y-112956501D01*
G75*
G02*
X126993001Y-113206500I-249999J0D01*
G01*
X126367999Y-113206500D01*
G75*
G02*
X126118000Y-112956501I0J249999D01*
G01*
G37*
%TD*%
D17*
%TO.C,Q2*%
X154305000Y-118246500D03*
D18*
X151765000Y-109096500D03*
X156845000Y-109096500D03*
%TD*%
D22*
%TO.C,Q1*%
G36*
X123430000Y-81366000D02*
G01*
X126555000Y-81366000D01*
X126555000Y-81782500D01*
X128030000Y-81782500D01*
X128030000Y-82682500D01*
X126555000Y-82682500D01*
X126555000Y-83099000D01*
X123430000Y-83099000D01*
X123430000Y-81366000D01*
G37*
D23*
X127380000Y-80732500D03*
X127380000Y-83732500D03*
%TD*%
%TO.C,L1*%
G36*
G01*
X126797000Y-99690501D02*
X126797000Y-97540499D01*
G75*
G02*
X127046999Y-97290500I249999J0D01*
G01*
X127897001Y-97290500D01*
G75*
G02*
X128147000Y-97540499I0J-249999D01*
G01*
X128147000Y-99690501D01*
G75*
G02*
X127897001Y-99940500I-249999J0D01*
G01*
X127046999Y-99940500D01*
G75*
G02*
X126797000Y-99690501I0J249999D01*
G01*
G37*
G36*
G01*
X122297000Y-99690501D02*
X122297000Y-97540499D01*
G75*
G02*
X122546999Y-97290500I249999J0D01*
G01*
X123397001Y-97290500D01*
G75*
G02*
X123647000Y-97540499I0J-249999D01*
G01*
X123647000Y-99690501D01*
G75*
G02*
X123397001Y-99940500I-249999J0D01*
G01*
X122546999Y-99940500D01*
G75*
G02*
X122297000Y-99690501I0J249999D01*
G01*
G37*
%TD*%
D24*
%TO.C,J7*%
X169799000Y-85621500D03*
G36*
G01*
X169049000Y-82271500D02*
X170549000Y-82271500D01*
G75*
G02*
X170799000Y-82521500I0J-250000D01*
G01*
X170799000Y-83721500D01*
G75*
G02*
X170549000Y-83971500I-250000J0D01*
G01*
X169049000Y-83971500D01*
G75*
G02*
X168799000Y-83721500I0J250000D01*
G01*
X168799000Y-82521500D01*
G75*
G02*
X169049000Y-82271500I250000J0D01*
G01*
G37*
%TD*%
D25*
%TO.C,J6*%
X167005000Y-92646500D03*
X167005000Y-97726500D03*
D26*
X167005000Y-102806500D03*
%TD*%
D25*
%TO.C,J5*%
X169084000Y-118173500D03*
D26*
X164084000Y-118173500D03*
%TD*%
D27*
%TO.C,J4*%
X158162000Y-80835500D03*
X155662000Y-80835500D03*
G36*
G01*
X152312000Y-81560500D02*
X152312000Y-80110500D01*
G75*
G02*
X152562000Y-79860500I250000J0D01*
G01*
X153762000Y-79860500D01*
G75*
G02*
X154012000Y-80110500I0J-250000D01*
G01*
X154012000Y-81560500D01*
G75*
G02*
X153762000Y-81810500I-250000J0D01*
G01*
X152562000Y-81810500D01*
G75*
G02*
X152312000Y-81560500I0J250000D01*
G01*
G37*
%TD*%
D28*
%TO.C,J3*%
X116205000Y-102926500D03*
X116205000Y-105426500D03*
X116205000Y-107926500D03*
G36*
G01*
X116930000Y-111276500D02*
X115480000Y-111276500D01*
G75*
G02*
X115230000Y-111026500I0J250000D01*
G01*
X115230000Y-109826500D01*
G75*
G02*
X115480000Y-109576500I250000J0D01*
G01*
X116930000Y-109576500D01*
G75*
G02*
X117180000Y-109826500I0J-250000D01*
G01*
X117180000Y-111026500D01*
G75*
G02*
X116930000Y-111276500I-250000J0D01*
G01*
G37*
%TD*%
D29*
%TO.C,J2*%
X154146000Y-101472500D03*
X152146000Y-101472500D03*
X154146000Y-99472500D03*
X152146000Y-99472500D03*
X154146000Y-97472500D03*
D30*
X152146000Y-97472500D03*
%TD*%
D31*
%TO.C,J1*%
X115697000Y-87613500D03*
D32*
X115697000Y-82613500D03*
%TD*%
D33*
%TO.C,D5*%
X119634000Y-97090500D03*
X119634000Y-93790500D03*
%TD*%
D34*
%TO.C,D4*%
X161292000Y-109410500D03*
X164592000Y-109410500D03*
%TD*%
%TO.C,D3*%
X127634000Y-88074500D03*
X124334000Y-88074500D03*
%TD*%
%TO.C,C10*%
G36*
G01*
X121116000Y-114101500D02*
X122216000Y-114101500D01*
G75*
G02*
X122466000Y-114351500I0J-250000D01*
G01*
X122466000Y-116451500D01*
G75*
G02*
X122216000Y-116701500I-250000J0D01*
G01*
X121116000Y-116701500D01*
G75*
G02*
X120866000Y-116451500I0J250000D01*
G01*
X120866000Y-114351500D01*
G75*
G02*
X121116000Y-114101500I250000J0D01*
G01*
G37*
G36*
G01*
X121116000Y-110501500D02*
X122216000Y-110501500D01*
G75*
G02*
X122466000Y-110751500I0J-250000D01*
G01*
X122466000Y-112851500D01*
G75*
G02*
X122216000Y-113101500I-250000J0D01*
G01*
X121116000Y-113101500D01*
G75*
G02*
X120866000Y-112851500I0J250000D01*
G01*
X120866000Y-110751500D01*
G75*
G02*
X121116000Y-110501500I250000J0D01*
G01*
G37*
%TD*%
%TO.C,C9*%
G36*
G01*
X121789000Y-118864500D02*
X121289000Y-118864500D01*
G75*
G02*
X121064000Y-118639500I0J225000D01*
G01*
X121064000Y-118189500D01*
G75*
G02*
X121289000Y-117964500I225000J0D01*
G01*
X121789000Y-117964500D01*
G75*
G02*
X122014000Y-118189500I0J-225000D01*
G01*
X122014000Y-118639500D01*
G75*
G02*
X121789000Y-118864500I-225000J0D01*
G01*
G37*
G36*
G01*
X121789000Y-120414500D02*
X121289000Y-120414500D01*
G75*
G02*
X121064000Y-120189500I0J225000D01*
G01*
X121064000Y-119739500D01*
G75*
G02*
X121289000Y-119514500I225000J0D01*
G01*
X121789000Y-119514500D01*
G75*
G02*
X122014000Y-119739500I0J-225000D01*
G01*
X122014000Y-120189500D01*
G75*
G02*
X121789000Y-120414500I-225000J0D01*
G01*
G37*
%TD*%
%TO.C,C8*%
G36*
G01*
X123829000Y-93974500D02*
X124329000Y-93974500D01*
G75*
G02*
X124554000Y-94199500I0J-225000D01*
G01*
X124554000Y-94649500D01*
G75*
G02*
X124329000Y-94874500I-225000J0D01*
G01*
X123829000Y-94874500D01*
G75*
G02*
X123604000Y-94649500I0J225000D01*
G01*
X123604000Y-94199500D01*
G75*
G02*
X123829000Y-93974500I225000J0D01*
G01*
G37*
G36*
G01*
X123829000Y-92424500D02*
X124329000Y-92424500D01*
G75*
G02*
X124554000Y-92649500I0J-225000D01*
G01*
X124554000Y-93099500D01*
G75*
G02*
X124329000Y-93324500I-225000J0D01*
G01*
X123829000Y-93324500D01*
G75*
G02*
X123604000Y-93099500I0J225000D01*
G01*
X123604000Y-92649500D01*
G75*
G02*
X123829000Y-92424500I225000J0D01*
G01*
G37*
%TD*%
%TO.C,C7*%
G36*
G01*
X121115000Y-122741500D02*
X121115000Y-122241500D01*
G75*
G02*
X121340000Y-122016500I225000J0D01*
G01*
X121790000Y-122016500D01*
G75*
G02*
X122015000Y-122241500I0J-225000D01*
G01*
X122015000Y-122741500D01*
G75*
G02*
X121790000Y-122966500I-225000J0D01*
G01*
X121340000Y-122966500D01*
G75*
G02*
X121115000Y-122741500I0J225000D01*
G01*
G37*
G36*
G01*
X119565000Y-122741500D02*
X119565000Y-122241500D01*
G75*
G02*
X119790000Y-122016500I225000J0D01*
G01*
X120240000Y-122016500D01*
G75*
G02*
X120465000Y-122241500I0J-225000D01*
G01*
X120465000Y-122741500D01*
G75*
G02*
X120240000Y-122966500I-225000J0D01*
G01*
X119790000Y-122966500D01*
G75*
G02*
X119565000Y-122741500I0J225000D01*
G01*
G37*
%TD*%
%TO.C,C6*%
G36*
G01*
X148721000Y-86748500D02*
X149221000Y-86748500D01*
G75*
G02*
X149446000Y-86973500I0J-225000D01*
G01*
X149446000Y-87423500D01*
G75*
G02*
X149221000Y-87648500I-225000J0D01*
G01*
X148721000Y-87648500D01*
G75*
G02*
X148496000Y-87423500I0J225000D01*
G01*
X148496000Y-86973500D01*
G75*
G02*
X148721000Y-86748500I225000J0D01*
G01*
G37*
G36*
G01*
X148721000Y-85198500D02*
X149221000Y-85198500D01*
G75*
G02*
X149446000Y-85423500I0J-225000D01*
G01*
X149446000Y-85873500D01*
G75*
G02*
X149221000Y-86098500I-225000J0D01*
G01*
X148721000Y-86098500D01*
G75*
G02*
X148496000Y-85873500I0J225000D01*
G01*
X148496000Y-85423500D01*
G75*
G02*
X148721000Y-85198500I225000J0D01*
G01*
G37*
%TD*%
%TO.C,C5*%
G36*
G01*
X146135000Y-93527500D02*
X147235000Y-93527500D01*
G75*
G02*
X147485000Y-93777500I0J-250000D01*
G01*
X147485000Y-95877500D01*
G75*
G02*
X147235000Y-96127500I-250000J0D01*
G01*
X146135000Y-96127500D01*
G75*
G02*
X145885000Y-95877500I0J250000D01*
G01*
X145885000Y-93777500D01*
G75*
G02*
X146135000Y-93527500I250000J0D01*
G01*
G37*
G36*
G01*
X146135000Y-89927500D02*
X147235000Y-89927500D01*
G75*
G02*
X147485000Y-90177500I0J-250000D01*
G01*
X147485000Y-92277500D01*
G75*
G02*
X147235000Y-92527500I-250000J0D01*
G01*
X146135000Y-92527500D01*
G75*
G02*
X145885000Y-92277500I0J250000D01*
G01*
X145885000Y-90177500D01*
G75*
G02*
X146135000Y-89927500I250000J0D01*
G01*
G37*
%TD*%
%TO.C,C4*%
G36*
G01*
X112276000Y-94382500D02*
X112276000Y-95482500D01*
G75*
G02*
X112026000Y-95732500I-250000J0D01*
G01*
X109926000Y-95732500D01*
G75*
G02*
X109676000Y-95482500I0J250000D01*
G01*
X109676000Y-94382500D01*
G75*
G02*
X109926000Y-94132500I250000J0D01*
G01*
X112026000Y-94132500D01*
G75*
G02*
X112276000Y-94382500I0J-250000D01*
G01*
G37*
G36*
G01*
X115876000Y-94382500D02*
X115876000Y-95482500D01*
G75*
G02*
X115626000Y-95732500I-250000J0D01*
G01*
X113526000Y-95732500D01*
G75*
G02*
X113276000Y-95482500I0J250000D01*
G01*
X113276000Y-94382500D01*
G75*
G02*
X113526000Y-94132500I250000J0D01*
G01*
X115626000Y-94132500D01*
G75*
G02*
X115876000Y-94382500I0J-250000D01*
G01*
G37*
%TD*%
%TO.C,C3*%
G36*
G01*
X127258000Y-93987500D02*
X127758000Y-93987500D01*
G75*
G02*
X127983000Y-94212500I0J-225000D01*
G01*
X127983000Y-94662500D01*
G75*
G02*
X127758000Y-94887500I-225000J0D01*
G01*
X127258000Y-94887500D01*
G75*
G02*
X127033000Y-94662500I0J225000D01*
G01*
X127033000Y-94212500D01*
G75*
G02*
X127258000Y-93987500I225000J0D01*
G01*
G37*
G36*
G01*
X127258000Y-92437500D02*
X127758000Y-92437500D01*
G75*
G02*
X127983000Y-92662500I0J-225000D01*
G01*
X127983000Y-93112500D01*
G75*
G02*
X127758000Y-93337500I-225000J0D01*
G01*
X127258000Y-93337500D01*
G75*
G02*
X127033000Y-93112500I0J225000D01*
G01*
X127033000Y-92662500D01*
G75*
G02*
X127258000Y-92437500I225000J0D01*
G01*
G37*
%TD*%
%TO.C,C2*%
G36*
G01*
X140660000Y-110803500D02*
X140660000Y-110303500D01*
G75*
G02*
X140885000Y-110078500I225000J0D01*
G01*
X141335000Y-110078500D01*
G75*
G02*
X141560000Y-110303500I0J-225000D01*
G01*
X141560000Y-110803500D01*
G75*
G02*
X141335000Y-111028500I-225000J0D01*
G01*
X140885000Y-111028500D01*
G75*
G02*
X140660000Y-110803500I0J225000D01*
G01*
G37*
G36*
G01*
X139110000Y-110803500D02*
X139110000Y-110303500D01*
G75*
G02*
X139335000Y-110078500I225000J0D01*
G01*
X139785000Y-110078500D01*
G75*
G02*
X140010000Y-110303500I0J-225000D01*
G01*
X140010000Y-110803500D01*
G75*
G02*
X139785000Y-111028500I-225000J0D01*
G01*
X139335000Y-111028500D01*
G75*
G02*
X139110000Y-110803500I0J225000D01*
G01*
G37*
%TD*%
%TO.C,C1*%
G36*
G01*
X135946000Y-110176500D02*
X135946000Y-110676500D01*
G75*
G02*
X135721000Y-110901500I-225000J0D01*
G01*
X135271000Y-110901500D01*
G75*
G02*
X135046000Y-110676500I0J225000D01*
G01*
X135046000Y-110176500D01*
G75*
G02*
X135271000Y-109951500I225000J0D01*
G01*
X135721000Y-109951500D01*
G75*
G02*
X135946000Y-110176500I0J-225000D01*
G01*
G37*
G36*
G01*
X137496000Y-110176500D02*
X137496000Y-110676500D01*
G75*
G02*
X137271000Y-110901500I-225000J0D01*
G01*
X136821000Y-110901500D01*
G75*
G02*
X136596000Y-110676500I0J225000D01*
G01*
X136596000Y-110176500D01*
G75*
G02*
X136821000Y-109951500I225000J0D01*
G01*
X137271000Y-109951500D01*
G75*
G02*
X137496000Y-110176500I0J-225000D01*
G01*
G37*
%TD*%
M02*
