M48
; DRILL file {KiCad (5.1.8)-1} date 08/28/21 19:57:13
; FORMAT={-:-/ absolute / inch / decimal}
; #@! TF.CreationDate,2021-08-28T19:57:13+01:00
; #@! TF.GenerationSoftware,Kicad,Pcbnew,(5.1.8)-1
; #@! TF.FileFunction,Plated,1,2,PTH
FMAT,2
INCH
T1C0.0157
T2C0.0315
T3C0.0374
T4C0.0394
T5C0.0433
T6C0.0512
T7C0.0591
T8C0.0984
%
G90
G05
T1
X4.905Y-4.3525
X4.96Y-3.645
X4.96Y-4.1625
X5.0525Y-4.325
X5.145Y-3.5725
X5.215Y-3.8425
X5.2501Y-4.0649
X5.2593Y-4.1082
X5.2875Y-4.015
X5.5573Y-3.9252
X5.775Y-3.485
X5.835Y-3.485
T2
X5.99Y-3.8375
X5.99Y-3.9162
X5.99Y-3.995
X6.0687Y-3.8375
X6.0687Y-3.9162
X6.0687Y-3.995
X5.43Y-4.5375
X5.6221Y-4.5375
T3
X6.03Y-3.1825
X6.1284Y-3.1825
X6.2269Y-3.1825
X4.575Y-4.0522
X4.575Y-4.1506
X4.575Y-4.2491
X4.575Y-4.3475
T4
X6.685Y-3.2725
X6.685Y-3.3709
T5
X4.9641Y-4.6403
X4.9641Y-4.8175
X5.22Y-4.6403
X5.22Y-4.8175
T6
X6.46Y-4.6525
X6.6569Y-4.6525
X6.575Y-3.6475
X6.575Y-3.8475
X6.575Y-4.0475
T7
X4.555Y-3.2525
X4.555Y-3.4494
T8
X4.16Y-3.2325
X4.17Y-4.7275
X6.935Y-4.7225
X6.9Y-3.2125
T0
M30
