%TF.GenerationSoftware,KiCad,Pcbnew,(5.1.8)-1*%
%TF.CreationDate,2021-09-09T16:11:34+01:00*%
%TF.ProjectId,OSC21,4f534332-312e-46b6-9963-61645f706362,rev?*%
%TF.SameCoordinates,Original*%
%TF.FileFunction,Paste,Top*%
%TF.FilePolarity,Positive*%
%FSLAX46Y46*%
G04 Gerber Fmt 4.6, Leading zero omitted, Abs format (unit mm)*
G04 Created by KiCad (PCBNEW (5.1.8)-1) date 2021-09-09 16:11:34*
%MOMM*%
%LPD*%
G01*
G04 APERTURE LIST*
%ADD10R,2.000000X1.500000*%
%ADD11R,2.000000X3.800000*%
%ADD12R,4.550000X5.250000*%
%ADD13R,4.600000X1.100000*%
%ADD14R,0.550000X1.600000*%
%ADD15R,1.600000X0.550000*%
G04 APERTURE END LIST*
D10*
%TO.C,U4*%
X173697500Y-73963500D03*
X173697500Y-78563500D03*
X173697500Y-76263500D03*
D11*
X179997500Y-76263500D03*
%TD*%
D12*
%TO.C,U2*%
X149899500Y-80835500D03*
X154749500Y-75285500D03*
X149899500Y-75285500D03*
X154749500Y-80835500D03*
D13*
X143174500Y-81460500D03*
X143174500Y-79760500D03*
X143174500Y-78060500D03*
X143174500Y-76360500D03*
X143174500Y-74660500D03*
%TD*%
D14*
%TO.C,U1*%
X160395000Y-90746000D03*
X161195000Y-90746000D03*
X161995000Y-90746000D03*
X162795000Y-90746000D03*
X163595000Y-90746000D03*
X164395000Y-90746000D03*
X165195000Y-90746000D03*
X165995000Y-90746000D03*
D15*
X167445000Y-92196000D03*
X167445000Y-92996000D03*
X167445000Y-93796000D03*
X167445000Y-94596000D03*
X167445000Y-95396000D03*
X167445000Y-96196000D03*
X167445000Y-96996000D03*
X167445000Y-97796000D03*
D14*
X165995000Y-99246000D03*
X165195000Y-99246000D03*
X164395000Y-99246000D03*
X163595000Y-99246000D03*
X162795000Y-99246000D03*
X161995000Y-99246000D03*
X161195000Y-99246000D03*
X160395000Y-99246000D03*
D15*
X158945000Y-97796000D03*
X158945000Y-96996000D03*
X158945000Y-96196000D03*
X158945000Y-95396000D03*
X158945000Y-94596000D03*
X158945000Y-93796000D03*
X158945000Y-92996000D03*
X158945000Y-92196000D03*
%TD*%
%TO.C,R12*%
G36*
G01*
X159521998Y-85164500D02*
X160772002Y-85164500D01*
G75*
G02*
X161022000Y-85414498I0J-249998D01*
G01*
X161022000Y-86039502D01*
G75*
G02*
X160772002Y-86289500I-249998J0D01*
G01*
X159521998Y-86289500D01*
G75*
G02*
X159272000Y-86039502I0J249998D01*
G01*
X159272000Y-85414498D01*
G75*
G02*
X159521998Y-85164500I249998J0D01*
G01*
G37*
G36*
G01*
X159521998Y-82239500D02*
X160772002Y-82239500D01*
G75*
G02*
X161022000Y-82489498I0J-249998D01*
G01*
X161022000Y-83114502D01*
G75*
G02*
X160772002Y-83364500I-249998J0D01*
G01*
X159521998Y-83364500D01*
G75*
G02*
X159272000Y-83114502I0J249998D01*
G01*
X159272000Y-82489498D01*
G75*
G02*
X159521998Y-82239500I249998J0D01*
G01*
G37*
%TD*%
%TO.C,R11*%
G36*
G01*
X162317000Y-80571502D02*
X162317000Y-79321498D01*
G75*
G02*
X162566998Y-79071500I249998J0D01*
G01*
X163192002Y-79071500D01*
G75*
G02*
X163442000Y-79321498I0J-249998D01*
G01*
X163442000Y-80571502D01*
G75*
G02*
X163192002Y-80821500I-249998J0D01*
G01*
X162566998Y-80821500D01*
G75*
G02*
X162317000Y-80571502I0J249998D01*
G01*
G37*
G36*
G01*
X159392000Y-80571502D02*
X159392000Y-79321498D01*
G75*
G02*
X159641998Y-79071500I249998J0D01*
G01*
X160267002Y-79071500D01*
G75*
G02*
X160517000Y-79321498I0J-249998D01*
G01*
X160517000Y-80571502D01*
G75*
G02*
X160267002Y-80821500I-249998J0D01*
G01*
X159641998Y-80821500D01*
G75*
G02*
X159392000Y-80571502I0J249998D01*
G01*
G37*
%TD*%
%TO.C,R10*%
G36*
G01*
X177726502Y-85650500D02*
X176476498Y-85650500D01*
G75*
G02*
X176226500Y-85400502I0J249998D01*
G01*
X176226500Y-84775498D01*
G75*
G02*
X176476498Y-84525500I249998J0D01*
G01*
X177726502Y-84525500D01*
G75*
G02*
X177976500Y-84775498I0J-249998D01*
G01*
X177976500Y-85400502D01*
G75*
G02*
X177726502Y-85650500I-249998J0D01*
G01*
G37*
G36*
G01*
X177726502Y-88575500D02*
X176476498Y-88575500D01*
G75*
G02*
X176226500Y-88325502I0J249998D01*
G01*
X176226500Y-87700498D01*
G75*
G02*
X176476498Y-87450500I249998J0D01*
G01*
X177726502Y-87450500D01*
G75*
G02*
X177976500Y-87700498I0J-249998D01*
G01*
X177976500Y-88325502D01*
G75*
G02*
X177726502Y-88575500I-249998J0D01*
G01*
G37*
%TD*%
%TO.C,R9*%
G36*
G01*
X180519500Y-99514498D02*
X180519500Y-100764502D01*
G75*
G02*
X180269502Y-101014500I-249998J0D01*
G01*
X179644498Y-101014500D01*
G75*
G02*
X179394500Y-100764502I0J249998D01*
G01*
X179394500Y-99514498D01*
G75*
G02*
X179644498Y-99264500I249998J0D01*
G01*
X180269502Y-99264500D01*
G75*
G02*
X180519500Y-99514498I0J-249998D01*
G01*
G37*
G36*
G01*
X183444500Y-99514498D02*
X183444500Y-100764502D01*
G75*
G02*
X183194502Y-101014500I-249998J0D01*
G01*
X182569498Y-101014500D01*
G75*
G02*
X182319500Y-100764502I0J249998D01*
G01*
X182319500Y-99514498D01*
G75*
G02*
X182569498Y-99264500I249998J0D01*
G01*
X183194502Y-99264500D01*
G75*
G02*
X183444500Y-99514498I0J-249998D01*
G01*
G37*
%TD*%
%TO.C,R8*%
G36*
G01*
X173789502Y-85650500D02*
X172539498Y-85650500D01*
G75*
G02*
X172289500Y-85400502I0J249998D01*
G01*
X172289500Y-84775498D01*
G75*
G02*
X172539498Y-84525500I249998J0D01*
G01*
X173789502Y-84525500D01*
G75*
G02*
X174039500Y-84775498I0J-249998D01*
G01*
X174039500Y-85400502D01*
G75*
G02*
X173789502Y-85650500I-249998J0D01*
G01*
G37*
G36*
G01*
X173789502Y-88575500D02*
X172539498Y-88575500D01*
G75*
G02*
X172289500Y-88325502I0J249998D01*
G01*
X172289500Y-87700498D01*
G75*
G02*
X172539498Y-87450500I249998J0D01*
G01*
X173789502Y-87450500D01*
G75*
G02*
X174039500Y-87700498I0J-249998D01*
G01*
X174039500Y-88325502D01*
G75*
G02*
X173789502Y-88575500I-249998J0D01*
G01*
G37*
%TD*%
%TO.C,R7*%
G36*
G01*
X173727000Y-81734498D02*
X173727000Y-82984502D01*
G75*
G02*
X173477002Y-83234500I-249998J0D01*
G01*
X172851998Y-83234500D01*
G75*
G02*
X172602000Y-82984502I0J249998D01*
G01*
X172602000Y-81734498D01*
G75*
G02*
X172851998Y-81484500I249998J0D01*
G01*
X173477002Y-81484500D01*
G75*
G02*
X173727000Y-81734498I0J-249998D01*
G01*
G37*
G36*
G01*
X176652000Y-81734498D02*
X176652000Y-82984502D01*
G75*
G02*
X176402002Y-83234500I-249998J0D01*
G01*
X175776998Y-83234500D01*
G75*
G02*
X175527000Y-82984502I0J249998D01*
G01*
X175527000Y-81734498D01*
G75*
G02*
X175776998Y-81484500I249998J0D01*
G01*
X176402002Y-81484500D01*
G75*
G02*
X176652000Y-81734498I0J-249998D01*
G01*
G37*
%TD*%
%TO.C,R6*%
G36*
G01*
X159585498Y-75828000D02*
X160835502Y-75828000D01*
G75*
G02*
X161085500Y-76077998I0J-249998D01*
G01*
X161085500Y-76703002D01*
G75*
G02*
X160835502Y-76953000I-249998J0D01*
G01*
X159585498Y-76953000D01*
G75*
G02*
X159335500Y-76703002I0J249998D01*
G01*
X159335500Y-76077998D01*
G75*
G02*
X159585498Y-75828000I249998J0D01*
G01*
G37*
G36*
G01*
X159585498Y-72903000D02*
X160835502Y-72903000D01*
G75*
G02*
X161085500Y-73152998I0J-249998D01*
G01*
X161085500Y-73778002D01*
G75*
G02*
X160835502Y-74028000I-249998J0D01*
G01*
X159585498Y-74028000D01*
G75*
G02*
X159335500Y-73778002I0J249998D01*
G01*
X159335500Y-73152998D01*
G75*
G02*
X159585498Y-72903000I249998J0D01*
G01*
G37*
%TD*%
%TO.C,R5*%
G36*
G01*
X166613000Y-72971498D02*
X166613000Y-74221502D01*
G75*
G02*
X166363002Y-74471500I-249998J0D01*
G01*
X165737998Y-74471500D01*
G75*
G02*
X165488000Y-74221502I0J249998D01*
G01*
X165488000Y-72971498D01*
G75*
G02*
X165737998Y-72721500I249998J0D01*
G01*
X166363002Y-72721500D01*
G75*
G02*
X166613000Y-72971498I0J-249998D01*
G01*
G37*
G36*
G01*
X169538000Y-72971498D02*
X169538000Y-74221502D01*
G75*
G02*
X169288002Y-74471500I-249998J0D01*
G01*
X168662998Y-74471500D01*
G75*
G02*
X168413000Y-74221502I0J249998D01*
G01*
X168413000Y-72971498D01*
G75*
G02*
X168662998Y-72721500I249998J0D01*
G01*
X169288002Y-72721500D01*
G75*
G02*
X169538000Y-72971498I0J-249998D01*
G01*
G37*
%TD*%
%TO.C,R4*%
G36*
G01*
X162825000Y-114417002D02*
X162825000Y-113166998D01*
G75*
G02*
X163074998Y-112917000I249998J0D01*
G01*
X163700002Y-112917000D01*
G75*
G02*
X163950000Y-113166998I0J-249998D01*
G01*
X163950000Y-114417002D01*
G75*
G02*
X163700002Y-114667000I-249998J0D01*
G01*
X163074998Y-114667000D01*
G75*
G02*
X162825000Y-114417002I0J249998D01*
G01*
G37*
G36*
G01*
X159900000Y-114417002D02*
X159900000Y-113166998D01*
G75*
G02*
X160149998Y-112917000I249998J0D01*
G01*
X160775002Y-112917000D01*
G75*
G02*
X161025000Y-113166998I0J-249998D01*
G01*
X161025000Y-114417002D01*
G75*
G02*
X160775002Y-114667000I-249998J0D01*
G01*
X160149998Y-114667000D01*
G75*
G02*
X159900000Y-114417002I0J249998D01*
G01*
G37*
%TD*%
%TO.C,R3*%
G36*
G01*
X157935500Y-114417002D02*
X157935500Y-113166998D01*
G75*
G02*
X158185498Y-112917000I249998J0D01*
G01*
X158810502Y-112917000D01*
G75*
G02*
X159060500Y-113166998I0J-249998D01*
G01*
X159060500Y-114417002D01*
G75*
G02*
X158810502Y-114667000I-249998J0D01*
G01*
X158185498Y-114667000D01*
G75*
G02*
X157935500Y-114417002I0J249998D01*
G01*
G37*
G36*
G01*
X155010500Y-114417002D02*
X155010500Y-113166998D01*
G75*
G02*
X155260498Y-112917000I249998J0D01*
G01*
X155885502Y-112917000D01*
G75*
G02*
X156135500Y-113166998I0J-249998D01*
G01*
X156135500Y-114417002D01*
G75*
G02*
X155885502Y-114667000I-249998J0D01*
G01*
X155260498Y-114667000D01*
G75*
G02*
X155010500Y-114417002I0J249998D01*
G01*
G37*
%TD*%
%TO.C,R2*%
G36*
G01*
X180392500Y-96085498D02*
X180392500Y-97335502D01*
G75*
G02*
X180142502Y-97585500I-249998J0D01*
G01*
X179517498Y-97585500D01*
G75*
G02*
X179267500Y-97335502I0J249998D01*
G01*
X179267500Y-96085498D01*
G75*
G02*
X179517498Y-95835500I249998J0D01*
G01*
X180142502Y-95835500D01*
G75*
G02*
X180392500Y-96085498I0J-249998D01*
G01*
G37*
G36*
G01*
X183317500Y-96085498D02*
X183317500Y-97335502D01*
G75*
G02*
X183067502Y-97585500I-249998J0D01*
G01*
X182442498Y-97585500D01*
G75*
G02*
X182192500Y-97335502I0J249998D01*
G01*
X182192500Y-96085498D01*
G75*
G02*
X182442498Y-95835500I249998J0D01*
G01*
X183067502Y-95835500D01*
G75*
G02*
X183317500Y-96085498I0J-249998D01*
G01*
G37*
%TD*%
%TO.C,R1*%
G36*
G01*
X168455502Y-113082500D02*
X167205498Y-113082500D01*
G75*
G02*
X166955500Y-112832502I0J249998D01*
G01*
X166955500Y-112207498D01*
G75*
G02*
X167205498Y-111957500I249998J0D01*
G01*
X168455502Y-111957500D01*
G75*
G02*
X168705500Y-112207498I0J-249998D01*
G01*
X168705500Y-112832502D01*
G75*
G02*
X168455502Y-113082500I-249998J0D01*
G01*
G37*
G36*
G01*
X168455502Y-116007500D02*
X167205498Y-116007500D01*
G75*
G02*
X166955500Y-115757502I0J249998D01*
G01*
X166955500Y-115132498D01*
G75*
G02*
X167205498Y-114882500I249998J0D01*
G01*
X168455502Y-114882500D01*
G75*
G02*
X168705500Y-115132498I0J-249998D01*
G01*
X168705500Y-115757502D01*
G75*
G02*
X168455502Y-116007500I-249998J0D01*
G01*
G37*
%TD*%
%TO.C,D1*%
G36*
G01*
X179120500Y-81734500D02*
X179120500Y-82984500D01*
G75*
G02*
X178870500Y-83234500I-250000J0D01*
G01*
X178120500Y-83234500D01*
G75*
G02*
X177870500Y-82984500I0J250000D01*
G01*
X177870500Y-81734500D01*
G75*
G02*
X178120500Y-81484500I250000J0D01*
G01*
X178870500Y-81484500D01*
G75*
G02*
X179120500Y-81734500I0J-250000D01*
G01*
G37*
G36*
G01*
X181920500Y-81734500D02*
X181920500Y-82984500D01*
G75*
G02*
X181670500Y-83234500I-250000J0D01*
G01*
X180920500Y-83234500D01*
G75*
G02*
X180670500Y-82984500I0J250000D01*
G01*
X180670500Y-81734500D01*
G75*
G02*
X180920500Y-81484500I250000J0D01*
G01*
X181670500Y-81484500D01*
G75*
G02*
X181920500Y-81734500I0J-250000D01*
G01*
G37*
%TD*%
%TO.C,C10*%
G36*
G01*
X174252000Y-92223500D02*
X174252000Y-93323500D01*
G75*
G02*
X174002000Y-93573500I-250000J0D01*
G01*
X171902000Y-93573500D01*
G75*
G02*
X171652000Y-93323500I0J250000D01*
G01*
X171652000Y-92223500D01*
G75*
G02*
X171902000Y-91973500I250000J0D01*
G01*
X174002000Y-91973500D01*
G75*
G02*
X174252000Y-92223500I0J-250000D01*
G01*
G37*
G36*
G01*
X177852000Y-92223500D02*
X177852000Y-93323500D01*
G75*
G02*
X177602000Y-93573500I-250000J0D01*
G01*
X175502000Y-93573500D01*
G75*
G02*
X175252000Y-93323500I0J250000D01*
G01*
X175252000Y-92223500D01*
G75*
G02*
X175502000Y-91973500I250000J0D01*
G01*
X177602000Y-91973500D01*
G75*
G02*
X177852000Y-92223500I0J-250000D01*
G01*
G37*
%TD*%
%TO.C,C5*%
G36*
G01*
X153056500Y-96321500D02*
X154156500Y-96321500D01*
G75*
G02*
X154406500Y-96571500I0J-250000D01*
G01*
X154406500Y-98671500D01*
G75*
G02*
X154156500Y-98921500I-250000J0D01*
G01*
X153056500Y-98921500D01*
G75*
G02*
X152806500Y-98671500I0J250000D01*
G01*
X152806500Y-96571500D01*
G75*
G02*
X153056500Y-96321500I250000J0D01*
G01*
G37*
G36*
G01*
X153056500Y-92721500D02*
X154156500Y-92721500D01*
G75*
G02*
X154406500Y-92971500I0J-250000D01*
G01*
X154406500Y-95071500D01*
G75*
G02*
X154156500Y-95321500I-250000J0D01*
G01*
X153056500Y-95321500D01*
G75*
G02*
X152806500Y-95071500I0J250000D01*
G01*
X152806500Y-92971500D01*
G75*
G02*
X153056500Y-92721500I250000J0D01*
G01*
G37*
%TD*%
%TO.C,C4*%
G36*
G01*
X143438500Y-87799000D02*
X143438500Y-86699000D01*
G75*
G02*
X143688500Y-86449000I250000J0D01*
G01*
X145788500Y-86449000D01*
G75*
G02*
X146038500Y-86699000I0J-250000D01*
G01*
X146038500Y-87799000D01*
G75*
G02*
X145788500Y-88049000I-250000J0D01*
G01*
X143688500Y-88049000D01*
G75*
G02*
X143438500Y-87799000I0J250000D01*
G01*
G37*
G36*
G01*
X139838500Y-87799000D02*
X139838500Y-86699000D01*
G75*
G02*
X140088500Y-86449000I250000J0D01*
G01*
X142188500Y-86449000D01*
G75*
G02*
X142438500Y-86699000I0J-250000D01*
G01*
X142438500Y-87799000D01*
G75*
G02*
X142188500Y-88049000I-250000J0D01*
G01*
X140088500Y-88049000D01*
G75*
G02*
X139838500Y-87799000I0J250000D01*
G01*
G37*
%TD*%
%TO.C,C3*%
G36*
G01*
X148601000Y-94249001D02*
X148601000Y-92948999D01*
G75*
G02*
X148850999Y-92699000I249999J0D01*
G01*
X149501001Y-92699000D01*
G75*
G02*
X149751000Y-92948999I0J-249999D01*
G01*
X149751000Y-94249001D01*
G75*
G02*
X149501001Y-94499000I-249999J0D01*
G01*
X148850999Y-94499000D01*
G75*
G02*
X148601000Y-94249001I0J249999D01*
G01*
G37*
G36*
G01*
X145651000Y-94249001D02*
X145651000Y-92948999D01*
G75*
G02*
X145900999Y-92699000I249999J0D01*
G01*
X146551001Y-92699000D01*
G75*
G02*
X146801000Y-92948999I0J-249999D01*
G01*
X146801000Y-94249001D01*
G75*
G02*
X146551001Y-94499000I-249999J0D01*
G01*
X145900999Y-94499000D01*
G75*
G02*
X145651000Y-94249001I0J249999D01*
G01*
G37*
%TD*%
M02*
