%TF.GenerationSoftware,KiCad,Pcbnew,(5.1.8)-1*%
%TF.CreationDate,2021-09-09T16:11:34+01:00*%
%TF.ProjectId,OSC21,4f534332-312e-46b6-9963-61645f706362,rev?*%
%TF.SameCoordinates,Original*%
%TF.FileFunction,Legend,Bot*%
%TF.FilePolarity,Positive*%
%FSLAX46Y46*%
G04 Gerber Fmt 4.6, Leading zero omitted, Abs format (unit mm)*
G04 Created by KiCad (PCBNEW (5.1.8)-1) date 2021-09-09 16:11:34*
%MOMM*%
%LPD*%
G01*
G04 APERTURE LIST*
%ADD10C,0.300000*%
%ADD11C,0.010000*%
G04 APERTURE END LIST*
D10*
X185781928Y-78185261D02*
X185781928Y-76185261D01*
X185115261Y-77613833D01*
X184448595Y-76185261D01*
X184448595Y-78185261D01*
X182639071Y-78185261D02*
X182639071Y-77137642D01*
X182734309Y-76947166D01*
X182924785Y-76851928D01*
X183305738Y-76851928D01*
X183496214Y-76947166D01*
X182639071Y-78090023D02*
X182829547Y-78185261D01*
X183305738Y-78185261D01*
X183496214Y-78090023D01*
X183591452Y-77899547D01*
X183591452Y-77709071D01*
X183496214Y-77518595D01*
X183305738Y-77423357D01*
X182829547Y-77423357D01*
X182639071Y-77328119D01*
X180829547Y-78185261D02*
X180829547Y-76185261D01*
X180829547Y-78090023D02*
X181020023Y-78185261D01*
X181400976Y-78185261D01*
X181591452Y-78090023D01*
X181686690Y-77994785D01*
X181781928Y-77804309D01*
X181781928Y-77232880D01*
X181686690Y-77042404D01*
X181591452Y-76947166D01*
X181400976Y-76851928D01*
X181020023Y-76851928D01*
X180829547Y-76947166D01*
X179115261Y-78090023D02*
X179305738Y-78185261D01*
X179686690Y-78185261D01*
X179877166Y-78090023D01*
X179972404Y-77899547D01*
X179972404Y-77137642D01*
X179877166Y-76947166D01*
X179686690Y-76851928D01*
X179305738Y-76851928D01*
X179115261Y-76947166D01*
X179020023Y-77137642D01*
X179020023Y-77328119D01*
X179972404Y-77518595D01*
X176639071Y-78185261D02*
X176639071Y-76851928D01*
X176639071Y-76185261D02*
X176734309Y-76280500D01*
X176639071Y-76375738D01*
X176543833Y-76280500D01*
X176639071Y-76185261D01*
X176639071Y-76375738D01*
X175686690Y-76851928D02*
X175686690Y-78185261D01*
X175686690Y-77042404D02*
X175591452Y-76947166D01*
X175400976Y-76851928D01*
X175115261Y-76851928D01*
X174924785Y-76947166D01*
X174829547Y-77137642D01*
X174829547Y-78185261D01*
X172639071Y-76185261D02*
X171496214Y-76185261D01*
X172067642Y-78185261D02*
X172067642Y-76185261D01*
X169972404Y-76851928D02*
X169972404Y-78185261D01*
X170829547Y-76851928D02*
X170829547Y-77899547D01*
X170734309Y-78090023D01*
X170543833Y-78185261D01*
X170258119Y-78185261D01*
X170067642Y-78090023D01*
X169972404Y-77994785D01*
X169020023Y-76851928D02*
X169020023Y-78185261D01*
X169020023Y-77042404D02*
X168924785Y-76947166D01*
X168734309Y-76851928D01*
X168448595Y-76851928D01*
X168258119Y-76947166D01*
X168162880Y-77137642D01*
X168162880Y-78185261D01*
X167210500Y-78185261D02*
X167210500Y-76851928D01*
X167210500Y-76185261D02*
X167305738Y-76280500D01*
X167210500Y-76375738D01*
X167115261Y-76280500D01*
X167210500Y-76185261D01*
X167210500Y-76375738D01*
X166353357Y-78090023D02*
X166162880Y-78185261D01*
X165781928Y-78185261D01*
X165591452Y-78090023D01*
X165496214Y-77899547D01*
X165496214Y-77804309D01*
X165591452Y-77613833D01*
X165781928Y-77518595D01*
X166067642Y-77518595D01*
X166258119Y-77423357D01*
X166353357Y-77232880D01*
X166353357Y-77137642D01*
X166258119Y-76947166D01*
X166067642Y-76851928D01*
X165781928Y-76851928D01*
X165591452Y-76947166D01*
X164639071Y-78185261D02*
X164639071Y-76851928D01*
X164639071Y-76185261D02*
X164734309Y-76280500D01*
X164639071Y-76375738D01*
X164543833Y-76280500D01*
X164639071Y-76185261D01*
X164639071Y-76375738D01*
X162829547Y-78185261D02*
X162829547Y-77137642D01*
X162924785Y-76947166D01*
X163115261Y-76851928D01*
X163496214Y-76851928D01*
X163686690Y-76947166D01*
X162829547Y-78090023D02*
X163020023Y-78185261D01*
X163496214Y-78185261D01*
X163686690Y-78090023D01*
X163781928Y-77899547D01*
X163781928Y-77709071D01*
X163686690Y-77518595D01*
X163496214Y-77423357D01*
X163020023Y-77423357D01*
X162829547Y-77328119D01*
X159686690Y-77137642D02*
X159400976Y-77232880D01*
X159305738Y-77328119D01*
X159210500Y-77518595D01*
X159210500Y-77804309D01*
X159305738Y-77994785D01*
X159400976Y-78090023D01*
X159591452Y-78185261D01*
X160353357Y-78185261D01*
X160353357Y-76185261D01*
X159686690Y-76185261D01*
X159496214Y-76280500D01*
X159400976Y-76375738D01*
X159305738Y-76566214D01*
X159305738Y-76756690D01*
X159400976Y-76947166D01*
X159496214Y-77042404D01*
X159686690Y-77137642D01*
X160353357Y-77137642D01*
X158543833Y-76851928D02*
X158067642Y-78185261D01*
X157591452Y-76851928D02*
X158067642Y-78185261D01*
X158258119Y-78661452D01*
X158353357Y-78756690D01*
X158543833Y-78851928D01*
X154639071Y-77137642D02*
X154353357Y-77232880D01*
X154258119Y-77328119D01*
X154162880Y-77518595D01*
X154162880Y-77804309D01*
X154258119Y-77994785D01*
X154353357Y-78090023D01*
X154543833Y-78185261D01*
X155305738Y-78185261D01*
X155305738Y-76185261D01*
X154639071Y-76185261D01*
X154448595Y-76280500D01*
X154353357Y-76375738D01*
X154258119Y-76566214D01*
X154258119Y-76756690D01*
X154353357Y-76947166D01*
X154448595Y-77042404D01*
X154639071Y-77137642D01*
X155305738Y-77137642D01*
X153020023Y-78185261D02*
X153210500Y-78090023D01*
X153305738Y-77994785D01*
X153400976Y-77804309D01*
X153400976Y-77232880D01*
X153305738Y-77042404D01*
X153210500Y-76947166D01*
X153020023Y-76851928D01*
X152734309Y-76851928D01*
X152543833Y-76947166D01*
X152448595Y-77042404D01*
X152353357Y-77232880D01*
X152353357Y-77804309D01*
X152448595Y-77994785D01*
X152543833Y-78090023D01*
X152734309Y-78185261D01*
X153020023Y-78185261D01*
X150639071Y-76851928D02*
X150639071Y-78185261D01*
X151496214Y-76851928D02*
X151496214Y-77899547D01*
X151400976Y-78090023D01*
X151210500Y-78185261D01*
X150924785Y-78185261D01*
X150734309Y-78090023D01*
X150639071Y-77994785D01*
X149877166Y-76851928D02*
X149400976Y-78185261D01*
X148924785Y-76851928D02*
X149400976Y-78185261D01*
X149591452Y-78661452D01*
X149686690Y-78756690D01*
X149877166Y-78851928D01*
X147305738Y-78185261D02*
X147305738Y-77137642D01*
X147400976Y-76947166D01*
X147591452Y-76851928D01*
X147972404Y-76851928D01*
X148162880Y-76947166D01*
X147305738Y-78090023D02*
X147496214Y-78185261D01*
X147972404Y-78185261D01*
X148162880Y-78090023D01*
X148258119Y-77899547D01*
X148258119Y-77709071D01*
X148162880Y-77518595D01*
X147972404Y-77423357D01*
X147496214Y-77423357D01*
X147305738Y-77328119D01*
X146353357Y-78185261D02*
X146353357Y-76185261D01*
X145496214Y-78185261D02*
X145496214Y-77137642D01*
X145591452Y-76947166D01*
X145781928Y-76851928D01*
X146067642Y-76851928D01*
X146258119Y-76947166D01*
X146353357Y-77042404D01*
X144543833Y-78185261D02*
X144543833Y-76851928D01*
X144543833Y-76185261D02*
X144639071Y-76280500D01*
X144543833Y-76375738D01*
X144448595Y-76280500D01*
X144543833Y-76185261D01*
X144543833Y-76375738D01*
X140924785Y-78185261D02*
X141591452Y-77232880D01*
X142067642Y-78185261D02*
X142067642Y-76185261D01*
X141305738Y-76185261D01*
X141115261Y-76280500D01*
X141020023Y-76375738D01*
X140924785Y-76566214D01*
X140924785Y-76851928D01*
X141020023Y-77042404D01*
X141115261Y-77137642D01*
X141305738Y-77232880D01*
X142067642Y-77232880D01*
X140067642Y-78185261D02*
X140067642Y-76851928D01*
X140067642Y-76185261D02*
X140162880Y-76280500D01*
X140067642Y-76375738D01*
X139972404Y-76280500D01*
X140067642Y-76185261D01*
X140067642Y-76375738D01*
X138258119Y-78185261D02*
X138258119Y-76185261D01*
X138258119Y-78090023D02*
X138448595Y-78185261D01*
X138829547Y-78185261D01*
X139020023Y-78090023D01*
X139115261Y-77994785D01*
X139210500Y-77804309D01*
X139210500Y-77232880D01*
X139115261Y-77042404D01*
X139020023Y-76947166D01*
X138829547Y-76851928D01*
X138448595Y-76851928D01*
X138258119Y-76947166D01*
X137305738Y-78185261D02*
X137305738Y-76185261D01*
X136448595Y-78185261D02*
X136448595Y-77137642D01*
X136543833Y-76947166D01*
X136734309Y-76851928D01*
X137020023Y-76851928D01*
X137210500Y-76947166D01*
X137305738Y-77042404D01*
X134639071Y-78185261D02*
X134639071Y-77137642D01*
X134734309Y-76947166D01*
X134924785Y-76851928D01*
X135305738Y-76851928D01*
X135496214Y-76947166D01*
X134639071Y-78090023D02*
X134829547Y-78185261D01*
X135305738Y-78185261D01*
X135496214Y-78090023D01*
X135591452Y-77899547D01*
X135591452Y-77709071D01*
X135496214Y-77518595D01*
X135305738Y-77423357D01*
X134829547Y-77423357D01*
X134639071Y-77328119D01*
X185400976Y-81485261D02*
X185400976Y-79485261D01*
X184543833Y-81485261D02*
X184543833Y-80437642D01*
X184639071Y-80247166D01*
X184829547Y-80151928D01*
X185115261Y-80151928D01*
X185305738Y-80247166D01*
X185400976Y-80342404D01*
X183877166Y-80151928D02*
X183115261Y-80151928D01*
X183591452Y-79485261D02*
X183591452Y-81199547D01*
X183496214Y-81390023D01*
X183305738Y-81485261D01*
X183115261Y-81485261D01*
X182734309Y-80151928D02*
X181972404Y-80151928D01*
X182448595Y-79485261D02*
X182448595Y-81199547D01*
X182353357Y-81390023D01*
X182162880Y-81485261D01*
X181972404Y-81485261D01*
X181305738Y-80151928D02*
X181305738Y-82151928D01*
X181305738Y-80247166D02*
X181115261Y-80151928D01*
X180734309Y-80151928D01*
X180543833Y-80247166D01*
X180448595Y-80342404D01*
X180353357Y-80532880D01*
X180353357Y-81104309D01*
X180448595Y-81294785D01*
X180543833Y-81390023D01*
X180734309Y-81485261D01*
X181115261Y-81485261D01*
X181305738Y-81390023D01*
X179591452Y-81390023D02*
X179400976Y-81485261D01*
X179020023Y-81485261D01*
X178829547Y-81390023D01*
X178734309Y-81199547D01*
X178734309Y-81104309D01*
X178829547Y-80913833D01*
X179020023Y-80818595D01*
X179305738Y-80818595D01*
X179496214Y-80723357D01*
X179591452Y-80532880D01*
X179591452Y-80437642D01*
X179496214Y-80247166D01*
X179305738Y-80151928D01*
X179020023Y-80151928D01*
X178829547Y-80247166D01*
X177877166Y-81294785D02*
X177781928Y-81390023D01*
X177877166Y-81485261D01*
X177972404Y-81390023D01*
X177877166Y-81294785D01*
X177877166Y-81485261D01*
X177877166Y-80247166D02*
X177781928Y-80342404D01*
X177877166Y-80437642D01*
X177972404Y-80342404D01*
X177877166Y-80247166D01*
X177877166Y-80437642D01*
X175496214Y-79390023D02*
X177210500Y-81961452D01*
X173400976Y-79390023D02*
X175115261Y-81961452D01*
X171877166Y-80151928D02*
X171877166Y-81770976D01*
X171972404Y-81961452D01*
X172067642Y-82056690D01*
X172258119Y-82151928D01*
X172543833Y-82151928D01*
X172734309Y-82056690D01*
X171877166Y-81390023D02*
X172067642Y-81485261D01*
X172448595Y-81485261D01*
X172639071Y-81390023D01*
X172734309Y-81294785D01*
X172829547Y-81104309D01*
X172829547Y-80532880D01*
X172734309Y-80342404D01*
X172639071Y-80247166D01*
X172448595Y-80151928D01*
X172067642Y-80151928D01*
X171877166Y-80247166D01*
X170924785Y-81485261D02*
X170924785Y-80151928D01*
X170924785Y-79485261D02*
X171020023Y-79580500D01*
X170924785Y-79675738D01*
X170829547Y-79580500D01*
X170924785Y-79485261D01*
X170924785Y-79675738D01*
X170258119Y-80151928D02*
X169496214Y-80151928D01*
X169972404Y-79485261D02*
X169972404Y-81199547D01*
X169877166Y-81390023D01*
X169686690Y-81485261D01*
X169496214Y-81485261D01*
X168829547Y-81485261D02*
X168829547Y-79485261D01*
X167972404Y-81485261D02*
X167972404Y-80437642D01*
X168067642Y-80247166D01*
X168258119Y-80151928D01*
X168543833Y-80151928D01*
X168734309Y-80247166D01*
X168829547Y-80342404D01*
X166162880Y-80151928D02*
X166162880Y-81485261D01*
X167020023Y-80151928D02*
X167020023Y-81199547D01*
X166924785Y-81390023D01*
X166734309Y-81485261D01*
X166448595Y-81485261D01*
X166258119Y-81390023D01*
X166162880Y-81294785D01*
X165210500Y-81485261D02*
X165210500Y-79485261D01*
X165210500Y-80247166D02*
X165020023Y-80151928D01*
X164639071Y-80151928D01*
X164448595Y-80247166D01*
X164353357Y-80342404D01*
X164258119Y-80532880D01*
X164258119Y-81104309D01*
X164353357Y-81294785D01*
X164448595Y-81390023D01*
X164639071Y-81485261D01*
X165020023Y-81485261D01*
X165210500Y-81390023D01*
X163400976Y-81294785D02*
X163305738Y-81390023D01*
X163400976Y-81485261D01*
X163496214Y-81390023D01*
X163400976Y-81294785D01*
X163400976Y-81485261D01*
X161591452Y-81390023D02*
X161781928Y-81485261D01*
X162162880Y-81485261D01*
X162353357Y-81390023D01*
X162448595Y-81294785D01*
X162543833Y-81104309D01*
X162543833Y-80532880D01*
X162448595Y-80342404D01*
X162353357Y-80247166D01*
X162162880Y-80151928D01*
X161781928Y-80151928D01*
X161591452Y-80247166D01*
X160448595Y-81485261D02*
X160639071Y-81390023D01*
X160734309Y-81294785D01*
X160829547Y-81104309D01*
X160829547Y-80532880D01*
X160734309Y-80342404D01*
X160639071Y-80247166D01*
X160448595Y-80151928D01*
X160162880Y-80151928D01*
X159972404Y-80247166D01*
X159877166Y-80342404D01*
X159781928Y-80532880D01*
X159781928Y-81104309D01*
X159877166Y-81294785D01*
X159972404Y-81390023D01*
X160162880Y-81485261D01*
X160448595Y-81485261D01*
X158924785Y-81485261D02*
X158924785Y-80151928D01*
X158924785Y-80342404D02*
X158829547Y-80247166D01*
X158639071Y-80151928D01*
X158353357Y-80151928D01*
X158162880Y-80247166D01*
X158067642Y-80437642D01*
X158067642Y-81485261D01*
X158067642Y-80437642D02*
X157972404Y-80247166D01*
X157781928Y-80151928D01*
X157496214Y-80151928D01*
X157305738Y-80247166D01*
X157210500Y-80437642D01*
X157210500Y-81485261D01*
X154829547Y-79390023D02*
X156543833Y-81961452D01*
X153020023Y-81485261D02*
X153686690Y-80532880D01*
X154162880Y-81485261D02*
X154162880Y-79485261D01*
X153400976Y-79485261D01*
X153210500Y-79580500D01*
X153115261Y-79675738D01*
X153020023Y-79866214D01*
X153020023Y-80151928D01*
X153115261Y-80342404D01*
X153210500Y-80437642D01*
X153400976Y-80532880D01*
X154162880Y-80532880D01*
X152162880Y-81485261D02*
X152162880Y-80151928D01*
X152162880Y-79485261D02*
X152258119Y-79580500D01*
X152162880Y-79675738D01*
X152067642Y-79580500D01*
X152162880Y-79485261D01*
X152162880Y-79675738D01*
X150353357Y-81485261D02*
X150353357Y-79485261D01*
X150353357Y-81390023D02*
X150543833Y-81485261D01*
X150924785Y-81485261D01*
X151115261Y-81390023D01*
X151210500Y-81294785D01*
X151305738Y-81104309D01*
X151305738Y-80532880D01*
X151210500Y-80342404D01*
X151115261Y-80247166D01*
X150924785Y-80151928D01*
X150543833Y-80151928D01*
X150353357Y-80247166D01*
X149400976Y-81485261D02*
X149400976Y-79485261D01*
X148543833Y-81485261D02*
X148543833Y-80437642D01*
X148639071Y-80247166D01*
X148829547Y-80151928D01*
X149115261Y-80151928D01*
X149305738Y-80247166D01*
X149400976Y-80342404D01*
X146734309Y-81485261D02*
X146734309Y-80437642D01*
X146829547Y-80247166D01*
X147020023Y-80151928D01*
X147400976Y-80151928D01*
X147591452Y-80247166D01*
X146734309Y-81390023D02*
X146924785Y-81485261D01*
X147400976Y-81485261D01*
X147591452Y-81390023D01*
X147686690Y-81199547D01*
X147686690Y-81009071D01*
X147591452Y-80818595D01*
X147400976Y-80723357D01*
X146924785Y-80723357D01*
X146734309Y-80628119D01*
X145115261Y-80437642D02*
X144829547Y-80532880D01*
X144734309Y-80628119D01*
X144639071Y-80818595D01*
X144639071Y-81104309D01*
X144734309Y-81294785D01*
X144829547Y-81390023D01*
X145020023Y-81485261D01*
X145781928Y-81485261D01*
X145781928Y-79485261D01*
X145115261Y-79485261D01*
X144924785Y-79580500D01*
X144829547Y-79675738D01*
X144734309Y-79866214D01*
X144734309Y-80056690D01*
X144829547Y-80247166D01*
X144924785Y-80342404D01*
X145115261Y-80437642D01*
X145781928Y-80437642D01*
X143496214Y-81485261D02*
X143686690Y-81390023D01*
X143781928Y-81294785D01*
X143877166Y-81104309D01*
X143877166Y-80532880D01*
X143781928Y-80342404D01*
X143686690Y-80247166D01*
X143496214Y-80151928D01*
X143210500Y-80151928D01*
X143020023Y-80247166D01*
X142924785Y-80342404D01*
X142829547Y-80532880D01*
X142829547Y-81104309D01*
X142924785Y-81294785D01*
X143020023Y-81390023D01*
X143210500Y-81485261D01*
X143496214Y-81485261D01*
X141115261Y-80151928D02*
X141115261Y-81485261D01*
X141972404Y-80151928D02*
X141972404Y-81199547D01*
X141877166Y-81390023D01*
X141686690Y-81485261D01*
X141400976Y-81485261D01*
X141210500Y-81390023D01*
X141115261Y-81294785D01*
X140353357Y-80151928D02*
X139877166Y-81485261D01*
X139400976Y-80151928D02*
X139877166Y-81485261D01*
X140067642Y-81961452D01*
X140162880Y-82056690D01*
X140353357Y-82151928D01*
X137781928Y-81485261D02*
X137781928Y-80437642D01*
X137877166Y-80247166D01*
X138067642Y-80151928D01*
X138448595Y-80151928D01*
X138639071Y-80247166D01*
X137781928Y-81390023D02*
X137972404Y-81485261D01*
X138448595Y-81485261D01*
X138639071Y-81390023D01*
X138734309Y-81199547D01*
X138734309Y-81009071D01*
X138639071Y-80818595D01*
X138448595Y-80723357D01*
X137972404Y-80723357D01*
X137781928Y-80628119D01*
X136829547Y-81485261D02*
X136829547Y-79485261D01*
X135972404Y-81485261D02*
X135972404Y-80437642D01*
X136067642Y-80247166D01*
X136258119Y-80151928D01*
X136543833Y-80151928D01*
X136734309Y-80247166D01*
X136829547Y-80342404D01*
X135020023Y-81485261D02*
X135020023Y-80151928D01*
X135020023Y-79485261D02*
X135115261Y-79580500D01*
X135020023Y-79675738D01*
X134924785Y-79580500D01*
X135020023Y-79485261D01*
X135020023Y-79675738D01*
D11*
%TO.C,G\u002A\u002A\u002A*%
G36*
X151697585Y-102949099D02*
G01*
X151894186Y-102727593D01*
X152090569Y-102425330D01*
X152250940Y-102097058D01*
X152337467Y-101810174D01*
X152349043Y-101420152D01*
X152220023Y-101046960D01*
X152209597Y-101026577D01*
X152064208Y-100709798D01*
X151956839Y-100413847D01*
X151944406Y-100368100D01*
X151867897Y-100132481D01*
X151806239Y-100085648D01*
X151763334Y-100213483D01*
X151743084Y-100501866D01*
X151749390Y-100936680D01*
X151754901Y-101053900D01*
X151771429Y-101563874D01*
X151756960Y-101881119D01*
X151710984Y-102013807D01*
X151694791Y-102019100D01*
X151629212Y-101924690D01*
X151577989Y-101670105D01*
X151553948Y-101384100D01*
X151510637Y-100982412D01*
X151424515Y-100777644D01*
X151289684Y-100766897D01*
X151100249Y-100947272D01*
X150985603Y-101104700D01*
X150813761Y-101442341D01*
X150786575Y-101778206D01*
X150791996Y-101825710D01*
X150871675Y-102115047D01*
X151021071Y-102437081D01*
X151205440Y-102735377D01*
X151390038Y-102953501D01*
X151536563Y-103035100D01*
X151697585Y-102949099D01*
G37*
X151697585Y-102949099D02*
X151894186Y-102727593D01*
X152090569Y-102425330D01*
X152250940Y-102097058D01*
X152337467Y-101810174D01*
X152349043Y-101420152D01*
X152220023Y-101046960D01*
X152209597Y-101026577D01*
X152064208Y-100709798D01*
X151956839Y-100413847D01*
X151944406Y-100368100D01*
X151867897Y-100132481D01*
X151806239Y-100085648D01*
X151763334Y-100213483D01*
X151743084Y-100501866D01*
X151749390Y-100936680D01*
X151754901Y-101053900D01*
X151771429Y-101563874D01*
X151756960Y-101881119D01*
X151710984Y-102013807D01*
X151694791Y-102019100D01*
X151629212Y-101924690D01*
X151577989Y-101670105D01*
X151553948Y-101384100D01*
X151510637Y-100982412D01*
X151424515Y-100777644D01*
X151289684Y-100766897D01*
X151100249Y-100947272D01*
X150985603Y-101104700D01*
X150813761Y-101442341D01*
X150786575Y-101778206D01*
X150791996Y-101825710D01*
X150871675Y-102115047D01*
X151021071Y-102437081D01*
X151205440Y-102735377D01*
X151390038Y-102953501D01*
X151536563Y-103035100D01*
X151697585Y-102949099D01*
G36*
X156146500Y-100902841D02*
G01*
X156065653Y-100336013D01*
X155837487Y-99863626D01*
X155483563Y-99516128D01*
X155028900Y-99324688D01*
X154725269Y-99233387D01*
X154480042Y-99115389D01*
X154472893Y-99110519D01*
X154238689Y-98984083D01*
X154124660Y-99011197D01*
X154114500Y-99064414D01*
X154192950Y-99173355D01*
X154387263Y-99325719D01*
X154444700Y-99362816D01*
X154697487Y-99545800D01*
X154969439Y-99782127D01*
X155221678Y-100031880D01*
X155415324Y-100255143D01*
X155511501Y-100411998D01*
X155508857Y-100455410D01*
X155407479Y-100425163D01*
X155201641Y-100284206D01*
X154933918Y-100062084D01*
X154905858Y-100036974D01*
X154368500Y-99552899D01*
X154336398Y-99990794D01*
X154362657Y-100403608D01*
X154521709Y-100723283D01*
X154831766Y-100965843D01*
X155311038Y-101147306D01*
X155765500Y-101248110D01*
X156146500Y-101317108D01*
X156146500Y-100902841D01*
G37*
X156146500Y-100902841D02*
X156065653Y-100336013D01*
X155837487Y-99863626D01*
X155483563Y-99516128D01*
X155028900Y-99324688D01*
X154725269Y-99233387D01*
X154480042Y-99115389D01*
X154472893Y-99110519D01*
X154238689Y-98984083D01*
X154124660Y-99011197D01*
X154114500Y-99064414D01*
X154192950Y-99173355D01*
X154387263Y-99325719D01*
X154444700Y-99362816D01*
X154697487Y-99545800D01*
X154969439Y-99782127D01*
X155221678Y-100031880D01*
X155415324Y-100255143D01*
X155511501Y-100411998D01*
X155508857Y-100455410D01*
X155407479Y-100425163D01*
X155201641Y-100284206D01*
X154933918Y-100062084D01*
X154905858Y-100036974D01*
X154368500Y-99552899D01*
X154336398Y-99990794D01*
X154362657Y-100403608D01*
X154521709Y-100723283D01*
X154831766Y-100965843D01*
X155311038Y-101147306D01*
X155765500Y-101248110D01*
X156146500Y-101317108D01*
X156146500Y-100902841D01*
G36*
X147676893Y-101001366D02*
G01*
X147719428Y-100992380D01*
X148138752Y-100844341D01*
X148510401Y-100609827D01*
X148788147Y-100328036D01*
X148925764Y-100038167D01*
X148932900Y-99963406D01*
X148995195Y-99706492D01*
X149145419Y-99439567D01*
X149149173Y-99434756D01*
X149287411Y-99195984D01*
X149265877Y-99060238D01*
X149142773Y-99058244D01*
X148985559Y-99236521D01*
X148762693Y-99538732D01*
X148495211Y-99847513D01*
X148224706Y-100120885D01*
X147992774Y-100316866D01*
X147841008Y-100393474D01*
X147839257Y-100393500D01*
X147816703Y-100328814D01*
X147933186Y-100147576D01*
X148156996Y-99889853D01*
X148452655Y-99555919D01*
X148596214Y-99338452D01*
X148588861Y-99220527D01*
X148431784Y-99185221D01*
X148205096Y-99204282D01*
X147762556Y-99317487D01*
X147433292Y-99539187D01*
X147194414Y-99896439D01*
X147023036Y-100416300D01*
X146970547Y-100663710D01*
X146959095Y-100903386D01*
X147055601Y-101031916D01*
X147286166Y-101060757D01*
X147676893Y-101001366D01*
G37*
X147676893Y-101001366D02*
X147719428Y-100992380D01*
X148138752Y-100844341D01*
X148510401Y-100609827D01*
X148788147Y-100328036D01*
X148925764Y-100038167D01*
X148932900Y-99963406D01*
X148995195Y-99706492D01*
X149145419Y-99439567D01*
X149149173Y-99434756D01*
X149287411Y-99195984D01*
X149265877Y-99060238D01*
X149142773Y-99058244D01*
X148985559Y-99236521D01*
X148762693Y-99538732D01*
X148495211Y-99847513D01*
X148224706Y-100120885D01*
X147992774Y-100316866D01*
X147841008Y-100393474D01*
X147839257Y-100393500D01*
X147816703Y-100328814D01*
X147933186Y-100147576D01*
X148156996Y-99889853D01*
X148452655Y-99555919D01*
X148596214Y-99338452D01*
X148588861Y-99220527D01*
X148431784Y-99185221D01*
X148205096Y-99204282D01*
X147762556Y-99317487D01*
X147433292Y-99539187D01*
X147194414Y-99896439D01*
X147023036Y-100416300D01*
X146970547Y-100663710D01*
X146959095Y-100903386D01*
X147055601Y-101031916D01*
X147286166Y-101060757D01*
X147676893Y-101001366D01*
G36*
X146761854Y-97415972D02*
G01*
X147095751Y-97278952D01*
X147380945Y-97131297D01*
X147644162Y-97047741D01*
X147870815Y-96974523D01*
X147985358Y-96886428D01*
X147985613Y-96885689D01*
X147905916Y-96841558D01*
X147644565Y-96817787D01*
X147222217Y-96815721D01*
X147002610Y-96821621D01*
X146472789Y-96829767D01*
X146138493Y-96810638D01*
X145993828Y-96763792D01*
X145986500Y-96745421D01*
X146083810Y-96682118D01*
X146360938Y-96644131D01*
X146697700Y-96634300D01*
X147048233Y-96623331D01*
X147302241Y-96594462D01*
X147408338Y-96553755D01*
X147408900Y-96550411D01*
X147327589Y-96397906D01*
X147126362Y-96210082D01*
X146869273Y-96037900D01*
X146637769Y-95936917D01*
X146327819Y-95899082D01*
X146081373Y-95925563D01*
X145807021Y-96028215D01*
X145502179Y-96181563D01*
X145223813Y-96351448D01*
X145028892Y-96503711D01*
X144971282Y-96591190D01*
X145054979Y-96763392D01*
X145273514Y-96972547D01*
X145575059Y-97175317D01*
X145806823Y-97289851D01*
X146305952Y-97426537D01*
X146761854Y-97415972D01*
G37*
X146761854Y-97415972D02*
X147095751Y-97278952D01*
X147380945Y-97131297D01*
X147644162Y-97047741D01*
X147870815Y-96974523D01*
X147985358Y-96886428D01*
X147985613Y-96885689D01*
X147905916Y-96841558D01*
X147644565Y-96817787D01*
X147222217Y-96815721D01*
X147002610Y-96821621D01*
X146472789Y-96829767D01*
X146138493Y-96810638D01*
X145993828Y-96763792D01*
X145986500Y-96745421D01*
X146083810Y-96682118D01*
X146360938Y-96644131D01*
X146697700Y-96634300D01*
X147048233Y-96623331D01*
X147302241Y-96594462D01*
X147408338Y-96553755D01*
X147408900Y-96550411D01*
X147327589Y-96397906D01*
X147126362Y-96210082D01*
X146869273Y-96037900D01*
X146637769Y-95936917D01*
X146327819Y-95899082D01*
X146081373Y-95925563D01*
X145807021Y-96028215D01*
X145502179Y-96181563D01*
X145223813Y-96351448D01*
X145028892Y-96503711D01*
X144971282Y-96591190D01*
X145054979Y-96763392D01*
X145273514Y-96972547D01*
X145575059Y-97175317D01*
X145806823Y-97289851D01*
X146305952Y-97426537D01*
X146761854Y-97415972D01*
G36*
X170279516Y-97660927D02*
G01*
X170737204Y-97402580D01*
X170861292Y-97296535D01*
X171234100Y-96955051D01*
X171269020Y-95931076D01*
X171303941Y-94907100D01*
X170456220Y-94909332D01*
X169887808Y-94932859D01*
X169460098Y-95005946D01*
X169183437Y-95104548D01*
X168777942Y-95384375D01*
X168520539Y-95760386D01*
X168409775Y-96191197D01*
X168417476Y-96290596D01*
X168958063Y-96290596D01*
X169010793Y-96035833D01*
X169205142Y-95761503D01*
X169543898Y-95556591D01*
X169973037Y-95446764D01*
X170268900Y-95438151D01*
X170726100Y-95465900D01*
X170756557Y-95992037D01*
X170759258Y-96332469D01*
X170698995Y-96565848D01*
X170547037Y-96785415D01*
X170493056Y-96847170D01*
X170170528Y-97089236D01*
X169821180Y-97168087D01*
X169485135Y-97105686D01*
X169202518Y-96923996D01*
X169013452Y-96644978D01*
X168958063Y-96290596D01*
X168417476Y-96290596D01*
X168444192Y-96635423D01*
X168622335Y-97051680D01*
X168942749Y-97398581D01*
X169270738Y-97586364D01*
X169797635Y-97720923D01*
X170279516Y-97660927D01*
G37*
X170279516Y-97660927D02*
X170737204Y-97402580D01*
X170861292Y-97296535D01*
X171234100Y-96955051D01*
X171269020Y-95931076D01*
X171303941Y-94907100D01*
X170456220Y-94909332D01*
X169887808Y-94932859D01*
X169460098Y-95005946D01*
X169183437Y-95104548D01*
X168777942Y-95384375D01*
X168520539Y-95760386D01*
X168409775Y-96191197D01*
X168417476Y-96290596D01*
X168958063Y-96290596D01*
X169010793Y-96035833D01*
X169205142Y-95761503D01*
X169543898Y-95556591D01*
X169973037Y-95446764D01*
X170268900Y-95438151D01*
X170726100Y-95465900D01*
X170756557Y-95992037D01*
X170759258Y-96332469D01*
X170698995Y-96565848D01*
X170547037Y-96785415D01*
X170493056Y-96847170D01*
X170170528Y-97089236D01*
X169821180Y-97168087D01*
X169485135Y-97105686D01*
X169202518Y-96923996D01*
X169013452Y-96644978D01*
X168958063Y-96290596D01*
X168417476Y-96290596D01*
X168444192Y-96635423D01*
X168622335Y-97051680D01*
X168942749Y-97398581D01*
X169270738Y-97586364D01*
X169797635Y-97720923D01*
X170279516Y-97660927D01*
G36*
X166507704Y-98444275D02*
G01*
X166594518Y-98346585D01*
X166611299Y-98108211D01*
X166611300Y-98107500D01*
X166621060Y-97889004D01*
X166687207Y-97785539D01*
X166865044Y-97754094D01*
X167068500Y-97751900D01*
X167350628Y-97741373D01*
X167484298Y-97689625D01*
X167523953Y-97566410D01*
X167525700Y-97497900D01*
X167506750Y-97341162D01*
X167413603Y-97266901D01*
X167191816Y-97244871D01*
X167068500Y-97243900D01*
X166611300Y-97243900D01*
X166611300Y-96629682D01*
X166625298Y-96257002D01*
X166681103Y-96014693D01*
X166799428Y-95831024D01*
X166860681Y-95766082D01*
X167164019Y-95548763D01*
X167508862Y-95498953D01*
X167589622Y-95506297D01*
X167695136Y-95433513D01*
X167773441Y-95252979D01*
X167791371Y-95060057D01*
X167768802Y-94991069D01*
X167609769Y-94914880D01*
X167319896Y-94940771D01*
X166940953Y-95063601D01*
X166846637Y-95104548D01*
X166556241Y-95265573D01*
X166344082Y-95467798D01*
X166197067Y-95744710D01*
X166102103Y-96129793D01*
X166046095Y-96656533D01*
X166020027Y-97218501D01*
X165980805Y-98463101D01*
X166296052Y-98463101D01*
X166507704Y-98444275D01*
G37*
X166507704Y-98444275D02*
X166594518Y-98346585D01*
X166611299Y-98108211D01*
X166611300Y-98107500D01*
X166621060Y-97889004D01*
X166687207Y-97785539D01*
X166865044Y-97754094D01*
X167068500Y-97751900D01*
X167350628Y-97741373D01*
X167484298Y-97689625D01*
X167523953Y-97566410D01*
X167525700Y-97497900D01*
X167506750Y-97341162D01*
X167413603Y-97266901D01*
X167191816Y-97244871D01*
X167068500Y-97243900D01*
X166611300Y-97243900D01*
X166611300Y-96629682D01*
X166625298Y-96257002D01*
X166681103Y-96014693D01*
X166799428Y-95831024D01*
X166860681Y-95766082D01*
X167164019Y-95548763D01*
X167508862Y-95498953D01*
X167589622Y-95506297D01*
X167695136Y-95433513D01*
X167773441Y-95252979D01*
X167791371Y-95060057D01*
X167768802Y-94991069D01*
X167609769Y-94914880D01*
X167319896Y-94940771D01*
X166940953Y-95063601D01*
X166846637Y-95104548D01*
X166556241Y-95265573D01*
X166344082Y-95467798D01*
X166197067Y-95744710D01*
X166102103Y-96129793D01*
X166046095Y-96656533D01*
X166020027Y-97218501D01*
X165980805Y-98463101D01*
X166296052Y-98463101D01*
X166507704Y-98444275D01*
G36*
X164788707Y-97572911D02*
G01*
X165159597Y-97294979D01*
X165287895Y-97123014D01*
X165391488Y-96912265D01*
X165454377Y-96659738D01*
X165485378Y-96310668D01*
X165493320Y-95846900D01*
X165493700Y-94907100D01*
X164884100Y-94907100D01*
X164884100Y-95856554D01*
X164877201Y-96327572D01*
X164851905Y-96638740D01*
X164801310Y-96833083D01*
X164718513Y-96953626D01*
X164706300Y-96964984D01*
X164370632Y-97144802D01*
X164010185Y-97141387D01*
X163682470Y-96956168D01*
X163664900Y-96939100D01*
X163565147Y-96810356D01*
X163503937Y-96635856D01*
X163472498Y-96367354D01*
X163462057Y-95956603D01*
X163461700Y-95821500D01*
X163461700Y-94907100D01*
X162852100Y-94907100D01*
X162852100Y-95717844D01*
X162898541Y-96424215D01*
X163035301Y-96974940D01*
X163258538Y-97357730D01*
X163404661Y-97484470D01*
X163860068Y-97677478D01*
X164338474Y-97703685D01*
X164788707Y-97572911D01*
G37*
X164788707Y-97572911D02*
X165159597Y-97294979D01*
X165287895Y-97123014D01*
X165391488Y-96912265D01*
X165454377Y-96659738D01*
X165485378Y-96310668D01*
X165493320Y-95846900D01*
X165493700Y-94907100D01*
X164884100Y-94907100D01*
X164884100Y-95856554D01*
X164877201Y-96327572D01*
X164851905Y-96638740D01*
X164801310Y-96833083D01*
X164718513Y-96953626D01*
X164706300Y-96964984D01*
X164370632Y-97144802D01*
X164010185Y-97141387D01*
X163682470Y-96956168D01*
X163664900Y-96939100D01*
X163565147Y-96810356D01*
X163503937Y-96635856D01*
X163472498Y-96367354D01*
X163462057Y-95956603D01*
X163461700Y-95821500D01*
X163461700Y-94907100D01*
X162852100Y-94907100D01*
X162852100Y-95717844D01*
X162898541Y-96424215D01*
X163035301Y-96974940D01*
X163258538Y-97357730D01*
X163404661Y-97484470D01*
X163860068Y-97677478D01*
X164338474Y-97703685D01*
X164788707Y-97572911D01*
G36*
X161451680Y-97657772D02*
G01*
X161908439Y-97395633D01*
X162002962Y-97313899D01*
X162272971Y-96997862D01*
X162401303Y-96641872D01*
X162414546Y-96558039D01*
X162472455Y-96126300D01*
X161334027Y-96126300D01*
X160838741Y-96123532D01*
X160513444Y-96111669D01*
X160324962Y-96085373D01*
X160240117Y-96039310D01*
X160225735Y-95968141D01*
X160228748Y-95948500D01*
X160356543Y-95760580D01*
X160632095Y-95593130D01*
X160999994Y-95470242D01*
X161404830Y-95416010D01*
X161455100Y-95415258D01*
X161747023Y-95405876D01*
X161889129Y-95359309D01*
X161934591Y-95247556D01*
X161937700Y-95161100D01*
X161924159Y-95018111D01*
X161851073Y-94942491D01*
X161669747Y-94913257D01*
X161353500Y-94909332D01*
X160837129Y-94959174D01*
X160380373Y-95088793D01*
X160344237Y-95104548D01*
X159938742Y-95384375D01*
X159681339Y-95760386D01*
X159570575Y-96191197D01*
X159604992Y-96635423D01*
X159665650Y-96777161D01*
X160231098Y-96777161D01*
X160309137Y-96693674D01*
X160581517Y-96647469D01*
X161011644Y-96634300D01*
X161423249Y-96640564D01*
X161665060Y-96663544D01*
X161770217Y-96709520D01*
X161774252Y-96778853D01*
X161651600Y-96914453D01*
X161420128Y-97063814D01*
X161367260Y-97090214D01*
X161124196Y-97190125D01*
X160940158Y-97195656D01*
X160708360Y-97104214D01*
X160644051Y-97072662D01*
X160343902Y-96902100D01*
X160231098Y-96777161D01*
X159665650Y-96777161D01*
X159783135Y-97051680D01*
X160103549Y-97398581D01*
X160431538Y-97586364D01*
X160963996Y-97720548D01*
X161451680Y-97657772D01*
G37*
X161451680Y-97657772D02*
X161908439Y-97395633D01*
X162002962Y-97313899D01*
X162272971Y-96997862D01*
X162401303Y-96641872D01*
X162414546Y-96558039D01*
X162472455Y-96126300D01*
X161334027Y-96126300D01*
X160838741Y-96123532D01*
X160513444Y-96111669D01*
X160324962Y-96085373D01*
X160240117Y-96039310D01*
X160225735Y-95968141D01*
X160228748Y-95948500D01*
X160356543Y-95760580D01*
X160632095Y-95593130D01*
X160999994Y-95470242D01*
X161404830Y-95416010D01*
X161455100Y-95415258D01*
X161747023Y-95405876D01*
X161889129Y-95359309D01*
X161934591Y-95247556D01*
X161937700Y-95161100D01*
X161924159Y-95018111D01*
X161851073Y-94942491D01*
X161669747Y-94913257D01*
X161353500Y-94909332D01*
X160837129Y-94959174D01*
X160380373Y-95088793D01*
X160344237Y-95104548D01*
X159938742Y-95384375D01*
X159681339Y-95760386D01*
X159570575Y-96191197D01*
X159604992Y-96635423D01*
X159665650Y-96777161D01*
X160231098Y-96777161D01*
X160309137Y-96693674D01*
X160581517Y-96647469D01*
X161011644Y-96634300D01*
X161423249Y-96640564D01*
X161665060Y-96663544D01*
X161770217Y-96709520D01*
X161774252Y-96778853D01*
X161651600Y-96914453D01*
X161420128Y-97063814D01*
X161367260Y-97090214D01*
X161124196Y-97190125D01*
X160940158Y-97195656D01*
X160708360Y-97104214D01*
X160644051Y-97072662D01*
X160343902Y-96902100D01*
X160231098Y-96777161D01*
X159665650Y-96777161D01*
X159783135Y-97051680D01*
X160103549Y-97398581D01*
X160431538Y-97586364D01*
X160963996Y-97720548D01*
X161451680Y-97657772D01*
G36*
X157997280Y-97657772D02*
G01*
X158454039Y-97395633D01*
X158548562Y-97313899D01*
X158818571Y-96997862D01*
X158946903Y-96641872D01*
X158960146Y-96558039D01*
X159018055Y-96126300D01*
X157879627Y-96126300D01*
X157384341Y-96123532D01*
X157059044Y-96111669D01*
X156870562Y-96085373D01*
X156785717Y-96039310D01*
X156771335Y-95968141D01*
X156774348Y-95948500D01*
X156902143Y-95760580D01*
X157177695Y-95593130D01*
X157545594Y-95470242D01*
X157950430Y-95416010D01*
X158000700Y-95415258D01*
X158292623Y-95405876D01*
X158434729Y-95359309D01*
X158480191Y-95247556D01*
X158483300Y-95161100D01*
X158469759Y-95018111D01*
X158396673Y-94942491D01*
X158215347Y-94913257D01*
X157899100Y-94909332D01*
X157382729Y-94959174D01*
X156925973Y-95088793D01*
X156889837Y-95104548D01*
X156484342Y-95384375D01*
X156226939Y-95760386D01*
X156116175Y-96191197D01*
X156150592Y-96635423D01*
X156211250Y-96777161D01*
X156776698Y-96777161D01*
X156854737Y-96693674D01*
X157127117Y-96647469D01*
X157557244Y-96634300D01*
X157968849Y-96640564D01*
X158210660Y-96663544D01*
X158315817Y-96709520D01*
X158319852Y-96778853D01*
X158197200Y-96914453D01*
X157965728Y-97063814D01*
X157912860Y-97090214D01*
X157669796Y-97190125D01*
X157485758Y-97195656D01*
X157253960Y-97104214D01*
X157189651Y-97072662D01*
X156889502Y-96902100D01*
X156776698Y-96777161D01*
X156211250Y-96777161D01*
X156328735Y-97051680D01*
X156649149Y-97398581D01*
X156977138Y-97586364D01*
X157509596Y-97720548D01*
X157997280Y-97657772D01*
G37*
X157997280Y-97657772D02*
X158454039Y-97395633D01*
X158548562Y-97313899D01*
X158818571Y-96997862D01*
X158946903Y-96641872D01*
X158960146Y-96558039D01*
X159018055Y-96126300D01*
X157879627Y-96126300D01*
X157384341Y-96123532D01*
X157059044Y-96111669D01*
X156870562Y-96085373D01*
X156785717Y-96039310D01*
X156771335Y-95968141D01*
X156774348Y-95948500D01*
X156902143Y-95760580D01*
X157177695Y-95593130D01*
X157545594Y-95470242D01*
X157950430Y-95416010D01*
X158000700Y-95415258D01*
X158292623Y-95405876D01*
X158434729Y-95359309D01*
X158480191Y-95247556D01*
X158483300Y-95161100D01*
X158469759Y-95018111D01*
X158396673Y-94942491D01*
X158215347Y-94913257D01*
X157899100Y-94909332D01*
X157382729Y-94959174D01*
X156925973Y-95088793D01*
X156889837Y-95104548D01*
X156484342Y-95384375D01*
X156226939Y-95760386D01*
X156116175Y-96191197D01*
X156150592Y-96635423D01*
X156211250Y-96777161D01*
X156776698Y-96777161D01*
X156854737Y-96693674D01*
X157127117Y-96647469D01*
X157557244Y-96634300D01*
X157968849Y-96640564D01*
X158210660Y-96663544D01*
X158315817Y-96709520D01*
X158319852Y-96778853D01*
X158197200Y-96914453D01*
X157965728Y-97063814D01*
X157912860Y-97090214D01*
X157669796Y-97190125D01*
X157485758Y-97195656D01*
X157253960Y-97104214D01*
X157189651Y-97072662D01*
X156889502Y-96902100D01*
X156776698Y-96777161D01*
X156211250Y-96777161D01*
X156328735Y-97051680D01*
X156649149Y-97398581D01*
X156977138Y-97586364D01*
X157509596Y-97720548D01*
X157997280Y-97657772D01*
G36*
X155452688Y-97694502D02*
G01*
X155475202Y-97667932D01*
X155498022Y-97502929D01*
X155444552Y-97304549D01*
X155347956Y-97168155D01*
X155296022Y-97152704D01*
X154932722Y-97132443D01*
X154628007Y-96950758D01*
X154567081Y-96892919D01*
X154444206Y-96750936D01*
X154369786Y-96591596D01*
X154331932Y-96361615D01*
X154318752Y-96007705D01*
X154317700Y-95775319D01*
X154317700Y-94907100D01*
X153683244Y-94907100D01*
X153727947Y-95796100D01*
X153784753Y-96417703D01*
X153894370Y-96875039D01*
X154073556Y-97203819D01*
X154339066Y-97439751D01*
X154553037Y-97554453D01*
X154946410Y-97698620D01*
X155260217Y-97747016D01*
X155452688Y-97694502D01*
G37*
X155452688Y-97694502D02*
X155475202Y-97667932D01*
X155498022Y-97502929D01*
X155444552Y-97304549D01*
X155347956Y-97168155D01*
X155296022Y-97152704D01*
X154932722Y-97132443D01*
X154628007Y-96950758D01*
X154567081Y-96892919D01*
X154444206Y-96750936D01*
X154369786Y-96591596D01*
X154331932Y-96361615D01*
X154318752Y-96007705D01*
X154317700Y-95775319D01*
X154317700Y-94907100D01*
X153683244Y-94907100D01*
X153727947Y-95796100D01*
X153784753Y-96417703D01*
X153894370Y-96875039D01*
X154073556Y-97203819D01*
X154339066Y-97439751D01*
X154553037Y-97554453D01*
X154946410Y-97698620D01*
X155260217Y-97747016D01*
X155452688Y-97694502D01*
G36*
X151883272Y-98469702D02*
G01*
X152141285Y-98372033D01*
X152439161Y-98194673D01*
X152716271Y-97961060D01*
X152919782Y-97722882D01*
X152996900Y-97534999D01*
X152915446Y-97460526D01*
X152727421Y-97446840D01*
X152517325Y-97485581D01*
X152369658Y-97568391D01*
X152350781Y-97598919D01*
X152189378Y-97795657D01*
X151900645Y-97979836D01*
X151558807Y-98113088D01*
X151269700Y-98157763D01*
X150748449Y-98066045D01*
X150316208Y-97809695D01*
X150001149Y-97417961D01*
X149831444Y-96920089D01*
X149809896Y-96642260D01*
X149892700Y-96068705D01*
X150130408Y-95621004D01*
X150513797Y-95309884D01*
X151033642Y-95146070D01*
X151104382Y-95136863D01*
X151638786Y-95162920D01*
X152081604Y-95364313D01*
X152414797Y-95731720D01*
X152478096Y-95846888D01*
X152590640Y-96112728D01*
X152637227Y-96303824D01*
X152630890Y-96346344D01*
X152510936Y-96387281D01*
X152242396Y-96417359D01*
X151879821Y-96430859D01*
X151822503Y-96431100D01*
X151422379Y-96439189D01*
X151188169Y-96468405D01*
X151083049Y-96526169D01*
X151066500Y-96583500D01*
X151099205Y-96653095D01*
X151219190Y-96698368D01*
X151459257Y-96724006D01*
X151852209Y-96734694D01*
X152133300Y-96735900D01*
X152639681Y-96732051D01*
X152969882Y-96706791D01*
X153150918Y-96639554D01*
X153209807Y-96509773D01*
X153173566Y-96296881D01*
X153080991Y-96014462D01*
X152795443Y-95469503D01*
X152380635Y-95060036D01*
X151870243Y-94800133D01*
X151297942Y-94703868D01*
X150697406Y-94785311D01*
X150401896Y-94894874D01*
X149895992Y-95216043D01*
X149555362Y-95648275D01*
X149376639Y-96198202D01*
X149356450Y-96872457D01*
X149362396Y-96940526D01*
X149507295Y-97483316D01*
X149807408Y-97934176D01*
X150228899Y-98275675D01*
X150737931Y-98490382D01*
X151300667Y-98560868D01*
X151883272Y-98469702D01*
G37*
X151883272Y-98469702D02*
X152141285Y-98372033D01*
X152439161Y-98194673D01*
X152716271Y-97961060D01*
X152919782Y-97722882D01*
X152996900Y-97534999D01*
X152915446Y-97460526D01*
X152727421Y-97446840D01*
X152517325Y-97485581D01*
X152369658Y-97568391D01*
X152350781Y-97598919D01*
X152189378Y-97795657D01*
X151900645Y-97979836D01*
X151558807Y-98113088D01*
X151269700Y-98157763D01*
X150748449Y-98066045D01*
X150316208Y-97809695D01*
X150001149Y-97417961D01*
X149831444Y-96920089D01*
X149809896Y-96642260D01*
X149892700Y-96068705D01*
X150130408Y-95621004D01*
X150513797Y-95309884D01*
X151033642Y-95146070D01*
X151104382Y-95136863D01*
X151638786Y-95162920D01*
X152081604Y-95364313D01*
X152414797Y-95731720D01*
X152478096Y-95846888D01*
X152590640Y-96112728D01*
X152637227Y-96303824D01*
X152630890Y-96346344D01*
X152510936Y-96387281D01*
X152242396Y-96417359D01*
X151879821Y-96430859D01*
X151822503Y-96431100D01*
X151422379Y-96439189D01*
X151188169Y-96468405D01*
X151083049Y-96526169D01*
X151066500Y-96583500D01*
X151099205Y-96653095D01*
X151219190Y-96698368D01*
X151459257Y-96724006D01*
X151852209Y-96734694D01*
X152133300Y-96735900D01*
X152639681Y-96732051D01*
X152969882Y-96706791D01*
X153150918Y-96639554D01*
X153209807Y-96509773D01*
X153173566Y-96296881D01*
X153080991Y-96014462D01*
X152795443Y-95469503D01*
X152380635Y-95060036D01*
X151870243Y-94800133D01*
X151297942Y-94703868D01*
X150697406Y-94785311D01*
X150401896Y-94894874D01*
X149895992Y-95216043D01*
X149555362Y-95648275D01*
X149376639Y-96198202D01*
X149356450Y-96872457D01*
X149362396Y-96940526D01*
X149507295Y-97483316D01*
X149807408Y-97934176D01*
X150228899Y-98275675D01*
X150737931Y-98490382D01*
X151300667Y-98560868D01*
X151883272Y-98469702D01*
G36*
X149049764Y-94424476D02*
G01*
X149046885Y-94304329D01*
X148848210Y-94135716D01*
X148813337Y-94113582D01*
X148555693Y-93927547D01*
X148280968Y-93689301D01*
X148027739Y-93438476D01*
X147834582Y-93214709D01*
X147740073Y-93057634D01*
X147743623Y-93014510D01*
X147846972Y-93041875D01*
X148048473Y-93180645D01*
X148268151Y-93368245D01*
X148525929Y-93591242D01*
X148732777Y-93743952D01*
X148829029Y-93789500D01*
X148912275Y-93703705D01*
X148926089Y-93482970D01*
X148873305Y-93182270D01*
X148784156Y-92918981D01*
X148594966Y-92630298D01*
X148285812Y-92421158D01*
X147825533Y-92274619D01*
X147485100Y-92212833D01*
X147002500Y-92140828D01*
X147004731Y-92482564D01*
X147072383Y-92908646D01*
X147247909Y-93329325D01*
X147498251Y-93697818D01*
X147790354Y-93967341D01*
X148091164Y-94091111D01*
X148143517Y-94094300D01*
X148358366Y-94151396D01*
X148617878Y-94290784D01*
X148645643Y-94309993D01*
X148905377Y-94448173D01*
X149049764Y-94424476D01*
G37*
X149049764Y-94424476D02*
X149046885Y-94304329D01*
X148848210Y-94135716D01*
X148813337Y-94113582D01*
X148555693Y-93927547D01*
X148280968Y-93689301D01*
X148027739Y-93438476D01*
X147834582Y-93214709D01*
X147740073Y-93057634D01*
X147743623Y-93014510D01*
X147846972Y-93041875D01*
X148048473Y-93180645D01*
X148268151Y-93368245D01*
X148525929Y-93591242D01*
X148732777Y-93743952D01*
X148829029Y-93789500D01*
X148912275Y-93703705D01*
X148926089Y-93482970D01*
X148873305Y-93182270D01*
X148784156Y-92918981D01*
X148594966Y-92630298D01*
X148285812Y-92421158D01*
X147825533Y-92274619D01*
X147485100Y-92212833D01*
X147002500Y-92140828D01*
X147004731Y-92482564D01*
X147072383Y-92908646D01*
X147247909Y-93329325D01*
X147498251Y-93697818D01*
X147790354Y-93967341D01*
X148091164Y-94091111D01*
X148143517Y-94094300D01*
X148358366Y-94151396D01*
X148617878Y-94290784D01*
X148645643Y-94309993D01*
X148905377Y-94448173D01*
X149049764Y-94424476D01*
G36*
X154278633Y-93799284D02*
G01*
X154443514Y-93661618D01*
X154606035Y-93461391D01*
X154855761Y-93132549D01*
X155116169Y-92839600D01*
X155352068Y-92616716D01*
X155528265Y-92498066D01*
X155599159Y-92497094D01*
X155571343Y-92600052D01*
X155434989Y-92804670D01*
X155244619Y-93037391D01*
X155024851Y-93302128D01*
X154873160Y-93513661D01*
X154825700Y-93613982D01*
X154911016Y-93671642D01*
X155125182Y-93671688D01*
X155405521Y-93624395D01*
X155689360Y-93540036D01*
X155900905Y-93437736D01*
X156131746Y-93223581D01*
X156276880Y-92917275D01*
X156355328Y-92472597D01*
X156369028Y-92300256D01*
X156366467Y-91993674D01*
X156289327Y-91824291D01*
X156106382Y-91777150D01*
X155786407Y-91837292D01*
X155549793Y-91907800D01*
X155058227Y-92141651D01*
X154692617Y-92477509D01*
X154487732Y-92881724D01*
X154472146Y-92950721D01*
X154382136Y-93267451D01*
X154258136Y-93534521D01*
X154253988Y-93540946D01*
X154150354Y-93746522D01*
X154169741Y-93830110D01*
X154278633Y-93799284D01*
G37*
X154278633Y-93799284D02*
X154443514Y-93661618D01*
X154606035Y-93461391D01*
X154855761Y-93132549D01*
X155116169Y-92839600D01*
X155352068Y-92616716D01*
X155528265Y-92498066D01*
X155599159Y-92497094D01*
X155571343Y-92600052D01*
X155434989Y-92804670D01*
X155244619Y-93037391D01*
X155024851Y-93302128D01*
X154873160Y-93513661D01*
X154825700Y-93613982D01*
X154911016Y-93671642D01*
X155125182Y-93671688D01*
X155405521Y-93624395D01*
X155689360Y-93540036D01*
X155900905Y-93437736D01*
X156131746Y-93223581D01*
X156276880Y-92917275D01*
X156355328Y-92472597D01*
X156369028Y-92300256D01*
X156366467Y-91993674D01*
X156289327Y-91824291D01*
X156106382Y-91777150D01*
X155786407Y-91837292D01*
X155549793Y-91907800D01*
X155058227Y-92141651D01*
X154692617Y-92477509D01*
X154487732Y-92881724D01*
X154472146Y-92950721D01*
X154382136Y-93267451D01*
X154258136Y-93534521D01*
X154253988Y-93540946D01*
X154150354Y-93746522D01*
X154169741Y-93830110D01*
X154278633Y-93799284D01*
G36*
X151485233Y-93413682D02*
G01*
X151511182Y-93178460D01*
X151513247Y-92806463D01*
X151500629Y-92519500D01*
X151479718Y-92029104D01*
X151487920Y-91720274D01*
X151526437Y-91573306D01*
X151559572Y-91554300D01*
X151633461Y-91650192D01*
X151672856Y-91918968D01*
X151677655Y-92087700D01*
X151703789Y-92531276D01*
X151780350Y-92781365D01*
X151909321Y-92841823D01*
X152030655Y-92774367D01*
X152254119Y-92505420D01*
X152424411Y-92155864D01*
X152488900Y-91843684D01*
X152439072Y-91637876D01*
X152311790Y-91352969D01*
X152140357Y-91045096D01*
X151958076Y-90770394D01*
X151798249Y-90584996D01*
X151714464Y-90538300D01*
X151575367Y-90610117D01*
X151384317Y-90787992D01*
X151338262Y-90840519D01*
X151087884Y-91232359D01*
X150936481Y-91665476D01*
X150890612Y-92087592D01*
X150956835Y-92446424D01*
X151109360Y-92665311D01*
X151222241Y-92839566D01*
X151309572Y-93108079D01*
X151314475Y-93132720D01*
X151381841Y-93407410D01*
X151440440Y-93495531D01*
X151485233Y-93413682D01*
G37*
X151485233Y-93413682D02*
X151511182Y-93178460D01*
X151513247Y-92806463D01*
X151500629Y-92519500D01*
X151479718Y-92029104D01*
X151487920Y-91720274D01*
X151526437Y-91573306D01*
X151559572Y-91554300D01*
X151633461Y-91650192D01*
X151672856Y-91918968D01*
X151677655Y-92087700D01*
X151703789Y-92531276D01*
X151780350Y-92781365D01*
X151909321Y-92841823D01*
X152030655Y-92774367D01*
X152254119Y-92505420D01*
X152424411Y-92155864D01*
X152488900Y-91843684D01*
X152439072Y-91637876D01*
X152311790Y-91352969D01*
X152140357Y-91045096D01*
X151958076Y-90770394D01*
X151798249Y-90584996D01*
X151714464Y-90538300D01*
X151575367Y-90610117D01*
X151384317Y-90787992D01*
X151338262Y-90840519D01*
X151087884Y-91232359D01*
X150936481Y-91665476D01*
X150890612Y-92087592D01*
X150956835Y-92446424D01*
X151109360Y-92665311D01*
X151222241Y-92839566D01*
X151309572Y-93108079D01*
X151314475Y-93132720D01*
X151381841Y-93407410D01*
X151440440Y-93495531D01*
X151485233Y-93413682D01*
%TD*%
M02*
