%TF.GenerationSoftware,KiCad,Pcbnew,(5.1.8)-1*%
%TF.CreationDate,2021-09-09T16:11:34+01:00*%
%TF.ProjectId,OSC21,4f534332-312e-46b6-9963-61645f706362,rev?*%
%TF.SameCoordinates,Original*%
%TF.FileFunction,Legend,Top*%
%TF.FilePolarity,Positive*%
%FSLAX46Y46*%
G04 Gerber Fmt 4.6, Leading zero omitted, Abs format (unit mm)*
G04 Created by KiCad (PCBNEW (5.1.8)-1) date 2021-09-09 16:11:34*
%MOMM*%
%LPD*%
G01*
G04 APERTURE LIST*
%ADD10C,0.120000*%
%ADD11C,0.150000*%
G04 APERTURE END LIST*
D10*
%TO.C,DIGITAL3*%
X126816000Y-105803500D02*
X126816000Y-103303500D01*
X124316000Y-105803500D02*
X126816000Y-105803500D01*
X125016000Y-96283500D02*
X126516000Y-96283500D01*
X125016000Y-95283500D02*
X125016000Y-96283500D01*
X125016000Y-104503500D02*
X126516000Y-104503500D01*
X125016000Y-105503500D02*
X125016000Y-104503500D01*
X124206000Y-95783500D02*
X124206000Y-95283500D01*
X122996000Y-95783500D02*
X124206000Y-95783500D01*
X122996000Y-105003500D02*
X122996000Y-95783500D01*
X124206000Y-105003500D02*
X122996000Y-105003500D01*
X124206000Y-105503500D02*
X124206000Y-105003500D01*
X122496000Y-95283500D02*
X122496000Y-105503500D01*
X126516000Y-95283500D02*
X122496000Y-95283500D01*
X126516000Y-105503500D02*
X126516000Y-95283500D01*
X122496000Y-105503500D02*
X126516000Y-105503500D01*
%TO.C,PWM2*%
X196225500Y-116124000D02*
X196225500Y-115624000D01*
X195485500Y-116124000D02*
X196225500Y-116124000D01*
X192348500Y-104351000D02*
X192394500Y-104398000D01*
X190050500Y-102054000D02*
X190086500Y-102089000D01*
X192564500Y-104158000D02*
X192599500Y-104193000D01*
X190256500Y-101849000D02*
X190302500Y-101896000D01*
X192348500Y-109431000D02*
X192394500Y-109478000D01*
X190050500Y-107134000D02*
X190086500Y-107169000D01*
X192564500Y-109238000D02*
X192599500Y-109273000D01*
X190256500Y-106929000D02*
X190302500Y-106976000D01*
X186064500Y-100524000D02*
X195985500Y-100524000D01*
X186064500Y-115884000D02*
X195985500Y-115884000D01*
X195985500Y-115884000D02*
X195985500Y-100524000D01*
X186064500Y-115884000D02*
X186064500Y-100524000D01*
X189024500Y-115884000D02*
X189024500Y-100524000D01*
X193925500Y-115884000D02*
X193925500Y-100524000D01*
X195425500Y-115884000D02*
X195425500Y-100524000D01*
X193005500Y-103124000D02*
G75*
G03*
X193005500Y-103124000I-1680000J0D01*
G01*
X193005500Y-108204000D02*
G75*
G03*
X193005500Y-108204000I-1680000J0D01*
G01*
X193005753Y-113255195D02*
G75*
G02*
X192860500Y-113968000I-1680253J-28805D01*
G01*
X192008542Y-114819426D02*
G75*
G02*
X190641500Y-114819000I-683042J1535426D01*
G01*
X189790074Y-113967042D02*
G75*
G02*
X189790500Y-112600000I1535426J683042D01*
G01*
X190642458Y-111748574D02*
G75*
G02*
X192009500Y-111749000I683042J-1535426D01*
G01*
X192860256Y-112600682D02*
G75*
G02*
X193005500Y-113284000I-1534756J-683318D01*
G01*
%TO.C,PWM1*%
X185853500Y-118865500D02*
X183353500Y-118865500D01*
X185853500Y-121365500D02*
X185853500Y-118865500D01*
X176333500Y-120665500D02*
X176333500Y-119165500D01*
X175333500Y-120665500D02*
X176333500Y-120665500D01*
X184553500Y-120665500D02*
X184553500Y-119165500D01*
X185553500Y-120665500D02*
X184553500Y-120665500D01*
X175833500Y-121475500D02*
X175333500Y-121475500D01*
X175833500Y-122685500D02*
X175833500Y-121475500D01*
X185053500Y-122685500D02*
X175833500Y-122685500D01*
X185053500Y-121475500D02*
X185053500Y-122685500D01*
X185553500Y-121475500D02*
X185053500Y-121475500D01*
X175333500Y-123185500D02*
X185553500Y-123185500D01*
X175333500Y-119165500D02*
X175333500Y-123185500D01*
X185553500Y-119165500D02*
X175333500Y-119165500D01*
X185553500Y-123185500D02*
X185553500Y-119165500D01*
%TO.C,J1*%
X123814500Y-72765000D02*
X123814500Y-73265000D01*
X124554500Y-72765000D02*
X123814500Y-72765000D01*
X127691500Y-79338000D02*
X127645500Y-79291000D01*
X129989500Y-81635000D02*
X129953500Y-81600000D01*
X127475500Y-79531000D02*
X127440500Y-79496000D01*
X129783500Y-81840000D02*
X129737500Y-81793000D01*
X133975500Y-83125000D02*
X124054500Y-83125000D01*
X133975500Y-73005000D02*
X124054500Y-73005000D01*
X124054500Y-73005000D02*
X124054500Y-83125000D01*
X133975500Y-73005000D02*
X133975500Y-83125000D01*
X131015500Y-73005000D02*
X131015500Y-83125000D01*
X126114500Y-73005000D02*
X126114500Y-83125000D01*
X124614500Y-73005000D02*
X124614500Y-83125000D01*
X130394500Y-80565000D02*
G75*
G03*
X130394500Y-80565000I-1680000J0D01*
G01*
X127034247Y-75593805D02*
G75*
G02*
X127179500Y-74881000I1680253J28805D01*
G01*
X128031458Y-74029574D02*
G75*
G02*
X129398500Y-74030000I683042J-1535426D01*
G01*
X130249926Y-74881958D02*
G75*
G02*
X130249500Y-76249000I-1535426J-683042D01*
G01*
X129397542Y-77100426D02*
G75*
G02*
X128030500Y-77100000I-683042J1535426D01*
G01*
X127179744Y-76248318D02*
G75*
G02*
X127034500Y-75565000I1534756J683318D01*
G01*
%TO.C,DIGITAL2*%
X174614000Y-118865500D02*
X172114000Y-118865500D01*
X174614000Y-121365500D02*
X174614000Y-118865500D01*
X165094000Y-120665500D02*
X165094000Y-119165500D01*
X164094000Y-120665500D02*
X165094000Y-120665500D01*
X173314000Y-120665500D02*
X173314000Y-119165500D01*
X174314000Y-120665500D02*
X173314000Y-120665500D01*
X164594000Y-121475500D02*
X164094000Y-121475500D01*
X164594000Y-122685500D02*
X164594000Y-121475500D01*
X173814000Y-122685500D02*
X164594000Y-122685500D01*
X173814000Y-121475500D02*
X173814000Y-122685500D01*
X174314000Y-121475500D02*
X173814000Y-121475500D01*
X164094000Y-123185500D02*
X174314000Y-123185500D01*
X164094000Y-119165500D02*
X164094000Y-123185500D01*
X174314000Y-119165500D02*
X164094000Y-119165500D01*
X174314000Y-123185500D02*
X174314000Y-119165500D01*
%TO.C,C2*%
X159016500Y-109767000D02*
X159016500Y-109832000D01*
X159016500Y-107592000D02*
X159016500Y-107657000D01*
X155776500Y-109767000D02*
X155776500Y-109832000D01*
X155776500Y-107592000D02*
X155776500Y-107657000D01*
X155776500Y-109832000D02*
X159016500Y-109832000D01*
X155776500Y-107592000D02*
X159016500Y-107592000D01*
%TO.C,C1*%
X158889500Y-106719000D02*
X158889500Y-106784000D01*
X158889500Y-104544000D02*
X158889500Y-104609000D01*
X155649500Y-106719000D02*
X155649500Y-106784000D01*
X155649500Y-104544000D02*
X155649500Y-104609000D01*
X155649500Y-106784000D02*
X158889500Y-106784000D01*
X155649500Y-104544000D02*
X158889500Y-104544000D01*
%TO.C,Y1*%
X149303500Y-105539000D02*
X149303500Y-111939000D01*
X154353500Y-105539000D02*
X154353500Y-111939000D01*
X149303500Y-111939000D02*
G75*
G03*
X154353500Y-111939000I2525000J0D01*
G01*
X149303500Y-105539000D02*
G75*
G02*
X154353500Y-105539000I2525000J0D01*
G01*
%TO.C,U4*%
X172747500Y-72853500D02*
X178757500Y-72853500D01*
X174997500Y-79673500D02*
X178757500Y-79673500D01*
X178757500Y-72853500D02*
X178757500Y-74113500D01*
X178757500Y-79673500D02*
X178757500Y-78413500D01*
%TO.C,U2*%
X145999500Y-82310500D02*
X144899500Y-82310500D01*
X145999500Y-83260500D02*
X145999500Y-82310500D01*
X147499500Y-83260500D02*
X145999500Y-83260500D01*
X145999500Y-73810500D02*
X140874500Y-73810500D01*
X145999500Y-72860500D02*
X145999500Y-73810500D01*
X147499500Y-72860500D02*
X145999500Y-72860500D01*
D11*
%TO.C,U1*%
X159570000Y-91596000D02*
X158145000Y-91596000D01*
X166820000Y-91371000D02*
X166495000Y-91371000D01*
X166820000Y-98621000D02*
X166495000Y-98621000D01*
X159570000Y-98621000D02*
X159895000Y-98621000D01*
X159570000Y-91371000D02*
X159895000Y-91371000D01*
X159570000Y-98621000D02*
X159570000Y-98296000D01*
X166820000Y-98621000D02*
X166820000Y-98296000D01*
X166820000Y-91371000D02*
X166820000Y-91696000D01*
X159570000Y-91371000D02*
X159570000Y-91596000D01*
D10*
%TO.C,SW1*%
X175406000Y-107775000D02*
X175406000Y-106275000D01*
X174156000Y-103775000D02*
X169656000Y-103775000D01*
X168406000Y-106275000D02*
X168406000Y-107775000D01*
X169656000Y-110275000D02*
X174156000Y-110275000D01*
%TO.C,R12*%
X159237000Y-83537436D02*
X159237000Y-84991564D01*
X161057000Y-83537436D02*
X161057000Y-84991564D01*
%TO.C,R11*%
X160689936Y-80856500D02*
X162144064Y-80856500D01*
X160689936Y-79036500D02*
X162144064Y-79036500D01*
%TO.C,R10*%
X178011500Y-87277564D02*
X178011500Y-85823436D01*
X176191500Y-87277564D02*
X176191500Y-85823436D01*
%TO.C,R9*%
X182146564Y-99229500D02*
X180692436Y-99229500D01*
X182146564Y-101049500D02*
X180692436Y-101049500D01*
%TO.C,R8*%
X174074500Y-87277564D02*
X174074500Y-85823436D01*
X172254500Y-87277564D02*
X172254500Y-85823436D01*
%TO.C,R7*%
X175354064Y-81449500D02*
X173899936Y-81449500D01*
X175354064Y-83269500D02*
X173899936Y-83269500D01*
%TO.C,R6*%
X159300500Y-74200936D02*
X159300500Y-75655064D01*
X161120500Y-74200936D02*
X161120500Y-75655064D01*
%TO.C,R5*%
X168240064Y-72686500D02*
X166785936Y-72686500D01*
X168240064Y-74506500D02*
X166785936Y-74506500D01*
%TO.C,R4*%
X161197936Y-114702000D02*
X162652064Y-114702000D01*
X161197936Y-112882000D02*
X162652064Y-112882000D01*
%TO.C,R3*%
X156308436Y-114702000D02*
X157762564Y-114702000D01*
X156308436Y-112882000D02*
X157762564Y-112882000D01*
%TO.C,R2*%
X182019564Y-95800500D02*
X180565436Y-95800500D01*
X182019564Y-97620500D02*
X180565436Y-97620500D01*
%TO.C,R1*%
X168740500Y-114709564D02*
X168740500Y-113255436D01*
X166920500Y-114709564D02*
X166920500Y-113255436D01*
%TO.C,Q4*%
X182457500Y-102671000D02*
X178857500Y-102671000D01*
X178819022Y-102682522D02*
G75*
G03*
X180657500Y-107121000I1838478J-1838478D01*
G01*
X182495978Y-102682522D02*
G75*
G02*
X180657500Y-107121000I-1838478J-1838478D01*
G01*
%TO.C,Q3*%
X183283000Y-89145500D02*
X179683000Y-89145500D01*
X179644522Y-89157022D02*
G75*
G03*
X181483000Y-93595500I1838478J-1838478D01*
G01*
X183321478Y-89157022D02*
G75*
G02*
X181483000Y-93595500I-1838478J-1838478D01*
G01*
%TO.C,Q2*%
X140430000Y-111960000D02*
X138920000Y-111960000D01*
X140430000Y-108259000D02*
X138920000Y-108259000D01*
X138920000Y-104989000D02*
X138920000Y-115229000D01*
X140430000Y-115229000D02*
X135789000Y-115229000D01*
X140430000Y-104989000D02*
X135789000Y-104989000D01*
X135789000Y-104989000D02*
X135789000Y-115229000D01*
X140430000Y-104989000D02*
X140430000Y-115229000D01*
%TO.C,Q1*%
X135137500Y-84804500D02*
X135137500Y-86314500D01*
X131436500Y-84804500D02*
X131436500Y-86314500D01*
X128166500Y-86314500D02*
X138406500Y-86314500D01*
X138406500Y-84804500D02*
X138406500Y-89445500D01*
X128166500Y-84804500D02*
X128166500Y-89445500D01*
X128166500Y-89445500D02*
X138406500Y-89445500D01*
X128166500Y-84804500D02*
X138406500Y-84804500D01*
%TO.C,L1*%
X153634760Y-89779000D02*
G75*
G02*
X147926240Y-89779000I-2854260J1260000D01*
G01*
X153634760Y-87259000D02*
G75*
G03*
X147926240Y-87259000I-2854260J-1260000D01*
G01*
%TO.C,ANALOG4*%
X141997000Y-72269500D02*
X144497000Y-72269500D01*
X141997000Y-69769500D02*
X141997000Y-72269500D01*
X151517000Y-70469500D02*
X151517000Y-71969500D01*
X152517000Y-70469500D02*
X151517000Y-70469500D01*
X143297000Y-70469500D02*
X143297000Y-71969500D01*
X142297000Y-70469500D02*
X143297000Y-70469500D01*
X152017000Y-69659500D02*
X152517000Y-69659500D01*
X152017000Y-68449500D02*
X152017000Y-69659500D01*
X142797000Y-68449500D02*
X152017000Y-68449500D01*
X142797000Y-69659500D02*
X142797000Y-68449500D01*
X142297000Y-69659500D02*
X142797000Y-69659500D01*
X152517000Y-67949500D02*
X142297000Y-67949500D01*
X152517000Y-71969500D02*
X152517000Y-67949500D01*
X142297000Y-71969500D02*
X152517000Y-71969500D01*
X142297000Y-67949500D02*
X142297000Y-71969500D01*
%TO.C,ANALOG3*%
X153173000Y-72269500D02*
X155673000Y-72269500D01*
X153173000Y-69769500D02*
X153173000Y-72269500D01*
X162693000Y-70469500D02*
X162693000Y-71969500D01*
X163693000Y-70469500D02*
X162693000Y-70469500D01*
X154473000Y-70469500D02*
X154473000Y-71969500D01*
X153473000Y-70469500D02*
X154473000Y-70469500D01*
X163193000Y-69659500D02*
X163693000Y-69659500D01*
X163193000Y-68449500D02*
X163193000Y-69659500D01*
X153973000Y-68449500D02*
X163193000Y-68449500D01*
X153973000Y-69659500D02*
X153973000Y-68449500D01*
X153473000Y-69659500D02*
X153973000Y-69659500D01*
X163693000Y-67949500D02*
X153473000Y-67949500D01*
X163693000Y-71969500D02*
X163693000Y-67949500D01*
X153473000Y-71969500D02*
X163693000Y-71969500D01*
X153473000Y-67949500D02*
X153473000Y-71969500D01*
%TO.C,DIGITAL4*%
X163438000Y-118865500D02*
X160938000Y-118865500D01*
X163438000Y-121365500D02*
X163438000Y-118865500D01*
X153918000Y-120665500D02*
X153918000Y-119165500D01*
X152918000Y-120665500D02*
X153918000Y-120665500D01*
X162138000Y-120665500D02*
X162138000Y-119165500D01*
X163138000Y-120665500D02*
X162138000Y-120665500D01*
X153418000Y-121475500D02*
X152918000Y-121475500D01*
X153418000Y-122685500D02*
X153418000Y-121475500D01*
X162638000Y-122685500D02*
X153418000Y-122685500D01*
X162638000Y-121475500D02*
X162638000Y-122685500D01*
X163138000Y-121475500D02*
X162638000Y-121475500D01*
X152918000Y-123185500D02*
X163138000Y-123185500D01*
X152918000Y-119165500D02*
X152918000Y-123185500D01*
X163138000Y-119165500D02*
X152918000Y-119165500D01*
X163138000Y-123185500D02*
X163138000Y-119165500D01*
%TO.C,DIGITAL1*%
X130567000Y-72269500D02*
X133067000Y-72269500D01*
X130567000Y-69769500D02*
X130567000Y-72269500D01*
X140087000Y-70469500D02*
X140087000Y-71969500D01*
X141087000Y-70469500D02*
X140087000Y-70469500D01*
X131867000Y-70469500D02*
X131867000Y-71969500D01*
X130867000Y-70469500D02*
X131867000Y-70469500D01*
X140587000Y-69659500D02*
X141087000Y-69659500D01*
X140587000Y-68449500D02*
X140587000Y-69659500D01*
X131367000Y-68449500D02*
X140587000Y-68449500D01*
X131367000Y-69659500D02*
X131367000Y-68449500D01*
X130867000Y-69659500D02*
X131367000Y-69659500D01*
X141087000Y-67949500D02*
X130867000Y-67949500D01*
X141087000Y-71969500D02*
X141087000Y-67949500D01*
X130867000Y-71969500D02*
X141087000Y-71969500D01*
X130867000Y-67949500D02*
X130867000Y-71969500D01*
%TO.C,ANALOG2*%
X175541500Y-72269500D02*
X178041500Y-72269500D01*
X175541500Y-69769500D02*
X175541500Y-72269500D01*
X185061500Y-70469500D02*
X185061500Y-71969500D01*
X186061500Y-70469500D02*
X185061500Y-70469500D01*
X176841500Y-70469500D02*
X176841500Y-71969500D01*
X175841500Y-70469500D02*
X176841500Y-70469500D01*
X185561500Y-69659500D02*
X186061500Y-69659500D01*
X185561500Y-68449500D02*
X185561500Y-69659500D01*
X176341500Y-68449500D02*
X185561500Y-68449500D01*
X176341500Y-69659500D02*
X176341500Y-68449500D01*
X175841500Y-69659500D02*
X176341500Y-69659500D01*
X186061500Y-67949500D02*
X175841500Y-67949500D01*
X186061500Y-71969500D02*
X186061500Y-67949500D01*
X175841500Y-71969500D02*
X186061500Y-71969500D01*
X175841500Y-67949500D02*
X175841500Y-71969500D01*
%TO.C,ANALOG1*%
X164349000Y-72269500D02*
X166849000Y-72269500D01*
X164349000Y-69769500D02*
X164349000Y-72269500D01*
X173869000Y-70469500D02*
X173869000Y-71969500D01*
X174869000Y-70469500D02*
X173869000Y-70469500D01*
X165649000Y-70469500D02*
X165649000Y-71969500D01*
X164649000Y-70469500D02*
X165649000Y-70469500D01*
X174369000Y-69659500D02*
X174869000Y-69659500D01*
X174369000Y-68449500D02*
X174369000Y-69659500D01*
X165149000Y-68449500D02*
X174369000Y-68449500D01*
X165149000Y-69659500D02*
X165149000Y-68449500D01*
X164649000Y-69659500D02*
X165149000Y-69659500D01*
X174869000Y-67949500D02*
X164649000Y-67949500D01*
X174869000Y-71969500D02*
X174869000Y-67949500D01*
X164649000Y-71969500D02*
X174869000Y-71969500D01*
X164649000Y-67949500D02*
X164649000Y-71969500D01*
%TO.C,PWM4*%
X152325500Y-118865500D02*
X149825500Y-118865500D01*
X152325500Y-121365500D02*
X152325500Y-118865500D01*
X142805500Y-120665500D02*
X142805500Y-119165500D01*
X141805500Y-120665500D02*
X142805500Y-120665500D01*
X151025500Y-120665500D02*
X151025500Y-119165500D01*
X152025500Y-120665500D02*
X151025500Y-120665500D01*
X142305500Y-121475500D02*
X141805500Y-121475500D01*
X142305500Y-122685500D02*
X142305500Y-121475500D01*
X151525500Y-122685500D02*
X142305500Y-122685500D01*
X151525500Y-121475500D02*
X151525500Y-122685500D01*
X152025500Y-121475500D02*
X151525500Y-121475500D01*
X141805500Y-123185500D02*
X152025500Y-123185500D01*
X141805500Y-119165500D02*
X141805500Y-123185500D01*
X152025500Y-119165500D02*
X141805500Y-119165500D01*
X152025500Y-123185500D02*
X152025500Y-119165500D01*
%TO.C,PWM3*%
X126816000Y-94540500D02*
X126816000Y-92040500D01*
X124316000Y-94540500D02*
X126816000Y-94540500D01*
X125016000Y-85020500D02*
X126516000Y-85020500D01*
X125016000Y-84020500D02*
X125016000Y-85020500D01*
X125016000Y-93240500D02*
X126516000Y-93240500D01*
X125016000Y-94240500D02*
X125016000Y-93240500D01*
X124206000Y-84520500D02*
X124206000Y-84020500D01*
X122996000Y-84520500D02*
X124206000Y-84520500D01*
X122996000Y-93740500D02*
X122996000Y-84520500D01*
X124206000Y-93740500D02*
X122996000Y-93740500D01*
X124206000Y-94240500D02*
X124206000Y-93740500D01*
X122496000Y-84020500D02*
X122496000Y-94240500D01*
X126516000Y-84020500D02*
X122496000Y-84020500D01*
X126516000Y-94240500D02*
X126516000Y-84020500D01*
X122496000Y-94240500D02*
X126516000Y-94240500D01*
%TO.C,UART1*%
X141149500Y-118865500D02*
X138649500Y-118865500D01*
X141149500Y-121365500D02*
X141149500Y-118865500D01*
X134129500Y-120665500D02*
X134129500Y-119165500D01*
X133129500Y-120665500D02*
X134129500Y-120665500D01*
X139849500Y-120665500D02*
X139849500Y-119165500D01*
X140849500Y-120665500D02*
X139849500Y-120665500D01*
X133629500Y-121475500D02*
X133129500Y-121475500D01*
X133629500Y-122685500D02*
X133629500Y-121475500D01*
X140349500Y-122685500D02*
X133629500Y-122685500D01*
X140349500Y-121475500D02*
X140349500Y-122685500D01*
X140849500Y-121475500D02*
X140349500Y-121475500D01*
X133129500Y-123185500D02*
X140849500Y-123185500D01*
X133129500Y-119165500D02*
X133129500Y-123185500D01*
X140849500Y-119165500D02*
X133129500Y-119165500D01*
X140849500Y-123185500D02*
X140849500Y-119165500D01*
%TO.C,solenoid1*%
X122354000Y-106737500D02*
X122354000Y-107237500D01*
X123094000Y-106737500D02*
X122354000Y-106737500D01*
X126231000Y-113310500D02*
X126185000Y-113263500D01*
X128529000Y-115607500D02*
X128493000Y-115572500D01*
X126015000Y-113503500D02*
X125980000Y-113468500D01*
X128323000Y-115812500D02*
X128277000Y-115765500D01*
X132515000Y-117097500D02*
X122594000Y-117097500D01*
X132515000Y-106977500D02*
X122594000Y-106977500D01*
X122594000Y-106977500D02*
X122594000Y-117097500D01*
X132515000Y-106977500D02*
X132515000Y-117097500D01*
X129555000Y-106977500D02*
X129555000Y-117097500D01*
X124654000Y-106977500D02*
X124654000Y-117097500D01*
X123154000Y-106977500D02*
X123154000Y-117097500D01*
X128934000Y-114537500D02*
G75*
G03*
X128934000Y-114537500I-1680000J0D01*
G01*
X125573747Y-109566305D02*
G75*
G02*
X125719000Y-108853500I1680253J28805D01*
G01*
X126570958Y-108002074D02*
G75*
G02*
X127938000Y-108002500I683042J-1535426D01*
G01*
X128789426Y-108854458D02*
G75*
G02*
X128789000Y-110221500I-1535426J-683042D01*
G01*
X127937042Y-111072926D02*
G75*
G02*
X126570000Y-111072500I-683042J1535426D01*
G01*
X125719244Y-110220818D02*
G75*
G02*
X125574000Y-109537500I1534756J683318D01*
G01*
%TO.C,Sharp1*%
X187763000Y-73861500D02*
X187763000Y-76361500D01*
X190263000Y-73861500D02*
X187763000Y-73861500D01*
X189563000Y-83381500D02*
X188063000Y-83381500D01*
X189563000Y-84381500D02*
X189563000Y-83381500D01*
X189563000Y-75161500D02*
X188063000Y-75161500D01*
X189563000Y-74161500D02*
X189563000Y-75161500D01*
X190373000Y-83881500D02*
X190373000Y-84381500D01*
X191583000Y-83881500D02*
X190373000Y-83881500D01*
X191583000Y-74661500D02*
X191583000Y-83881500D01*
X190373000Y-74661500D02*
X191583000Y-74661500D01*
X190373000Y-74161500D02*
X190373000Y-74661500D01*
X192083000Y-84381500D02*
X192083000Y-74161500D01*
X188063000Y-84381500D02*
X192083000Y-84381500D01*
X188063000Y-74161500D02*
X188063000Y-84381500D01*
X192083000Y-74161500D02*
X188063000Y-74161500D01*
%TO.C,UART_to_raspberry1*%
X186241000Y-88755500D02*
X186841000Y-88455500D01*
X186241000Y-88155500D02*
X186241000Y-88755500D01*
X186841000Y-88455500D02*
X186241000Y-88155500D01*
X189931000Y-96275500D02*
X189931000Y-95955500D01*
X193351000Y-96275500D02*
X189931000Y-96275500D01*
X193431000Y-95955500D02*
X193351000Y-96275500D01*
X193351000Y-95635500D02*
X193431000Y-95955500D01*
X189931000Y-95635500D02*
X193351000Y-95635500D01*
X189931000Y-95955500D02*
X189931000Y-95635500D01*
X188931000Y-94625500D02*
X188931000Y-94785500D01*
X189931000Y-93775500D02*
X189931000Y-93455500D01*
X193351000Y-93775500D02*
X189931000Y-93775500D01*
X193431000Y-93455500D02*
X193351000Y-93775500D01*
X193351000Y-93135500D02*
X193431000Y-93455500D01*
X189931000Y-93135500D02*
X193351000Y-93135500D01*
X189931000Y-93455500D02*
X189931000Y-93135500D01*
X188931000Y-92125500D02*
X188931000Y-92285500D01*
X189931000Y-91275500D02*
X189931000Y-90955500D01*
X193351000Y-91275500D02*
X189931000Y-91275500D01*
X193431000Y-90955500D02*
X193351000Y-91275500D01*
X193351000Y-90635500D02*
X193431000Y-90955500D01*
X189931000Y-90635500D02*
X193351000Y-90635500D01*
X189931000Y-90955500D02*
X189931000Y-90635500D01*
X188931000Y-89625500D02*
X188931000Y-89785500D01*
X189931000Y-88775500D02*
X189931000Y-88455500D01*
X193351000Y-88775500D02*
X189931000Y-88775500D01*
X193431000Y-88455500D02*
X193351000Y-88775500D01*
X193351000Y-88135500D02*
X193431000Y-88455500D01*
X189931000Y-88135500D02*
X193351000Y-88135500D01*
X189931000Y-88455500D02*
X189931000Y-88135500D01*
X189931000Y-87065500D02*
X189931000Y-97345500D01*
X188931000Y-97345500D02*
X188931000Y-98565500D01*
X193931000Y-97345500D02*
X188931000Y-97345500D01*
X193931000Y-98565500D02*
X193931000Y-97345500D01*
X188931000Y-87065500D02*
X188931000Y-85845500D01*
X193931000Y-87065500D02*
X188931000Y-87065500D01*
X193931000Y-85845500D02*
X193931000Y-87065500D01*
X186731000Y-97345500D02*
X188931000Y-97345500D01*
X186731000Y-98565500D02*
X186731000Y-97345500D01*
X195151000Y-98565500D02*
X186731000Y-98565500D01*
X195151000Y-85845500D02*
X195151000Y-98565500D01*
X186731000Y-85845500D02*
X195151000Y-85845500D01*
X186731000Y-87065500D02*
X186731000Y-85845500D01*
X188931000Y-87065500D02*
X186731000Y-87065500D01*
%TO.C,J2*%
X171469500Y-95968000D02*
X172529500Y-95968000D01*
X171469500Y-97028000D02*
X171469500Y-95968000D01*
X173529500Y-95968000D02*
X175589500Y-95968000D01*
X173529500Y-98028000D02*
X173529500Y-95968000D01*
X171469500Y-98028000D02*
X173529500Y-98028000D01*
X175589500Y-95968000D02*
X175589500Y-102088000D01*
X171469500Y-98028000D02*
X171469500Y-102088000D01*
X171469500Y-102088000D02*
X175589500Y-102088000D01*
%TO.C,D5*%
X147690500Y-102536500D02*
X142250500Y-102536500D01*
X147690500Y-102776500D02*
X142250500Y-102776500D01*
X147690500Y-102656500D02*
X142250500Y-102656500D01*
X144970500Y-111761500D02*
X144970500Y-110851500D01*
X144970500Y-100201500D02*
X144970500Y-101111500D01*
X147690500Y-110851500D02*
X147690500Y-101111500D01*
X142250500Y-110851500D02*
X147690500Y-110851500D01*
X142250500Y-101111500D02*
X142250500Y-110851500D01*
X147690500Y-101111500D02*
X142250500Y-101111500D01*
%TO.C,D4*%
X136687000Y-99387000D02*
X136687000Y-96447000D01*
X136447000Y-99387000D02*
X136447000Y-96447000D01*
X136567000Y-99387000D02*
X136567000Y-96447000D01*
X131007000Y-97917000D02*
X132027000Y-97917000D01*
X138487000Y-97917000D02*
X137467000Y-97917000D01*
X132027000Y-99387000D02*
X137467000Y-99387000D01*
X132027000Y-96447000D02*
X132027000Y-99387000D01*
X137467000Y-96447000D02*
X132027000Y-96447000D01*
X137467000Y-99387000D02*
X137467000Y-96447000D01*
%TO.C,D2*%
X136560000Y-94561000D02*
X136560000Y-91621000D01*
X136320000Y-94561000D02*
X136320000Y-91621000D01*
X136440000Y-94561000D02*
X136440000Y-91621000D01*
X130880000Y-93091000D02*
X131900000Y-93091000D01*
X138360000Y-93091000D02*
X137340000Y-93091000D01*
X131900000Y-94561000D02*
X137340000Y-94561000D01*
X131900000Y-91621000D02*
X131900000Y-94561000D01*
X137340000Y-91621000D02*
X131900000Y-91621000D01*
X137340000Y-94561000D02*
X137340000Y-91621000D01*
%TO.C,D1*%
X182180500Y-81224500D02*
X178295500Y-81224500D01*
X182180500Y-83494500D02*
X182180500Y-81224500D01*
X178295500Y-83494500D02*
X182180500Y-83494500D01*
%TO.C,C10*%
X177502000Y-94583500D02*
X177502000Y-94083500D01*
X177752000Y-94333500D02*
X177252000Y-94333500D01*
X177012000Y-91577937D02*
X175947563Y-90513500D01*
X177012000Y-93969063D02*
X175947563Y-95033500D01*
X177012000Y-93969063D02*
X177012000Y-93833500D01*
X177012000Y-91577937D02*
X177012000Y-91713500D01*
X175947563Y-90513500D02*
X172492000Y-90513500D01*
X175947563Y-95033500D02*
X172492000Y-95033500D01*
X172492000Y-95033500D02*
X172492000Y-93833500D01*
X172492000Y-90513500D02*
X172492000Y-91713500D01*
%TO.C,C9*%
X170006000Y-83867500D02*
G75*
G03*
X170006000Y-83867500I-2620000J0D01*
G01*
%TO.C,C6*%
X169942500Y-77962000D02*
G75*
G03*
X169942500Y-77962000I-2620000J0D01*
G01*
%TO.C,C5*%
X155416500Y-93071500D02*
X154916500Y-93071500D01*
X155166500Y-92821500D02*
X155166500Y-93321500D01*
X152410937Y-93561500D02*
X151346500Y-94625937D01*
X154802063Y-93561500D02*
X155866500Y-94625937D01*
X154802063Y-93561500D02*
X154666500Y-93561500D01*
X152410937Y-93561500D02*
X152546500Y-93561500D01*
X151346500Y-94625937D02*
X151346500Y-98081500D01*
X155866500Y-94625937D02*
X155866500Y-98081500D01*
X155866500Y-98081500D02*
X154666500Y-98081500D01*
X151346500Y-98081500D02*
X152546500Y-98081500D01*
%TO.C,C4*%
X140188500Y-85439000D02*
X140188500Y-85939000D01*
X139938500Y-85689000D02*
X140438500Y-85689000D01*
X140678500Y-88444563D02*
X141742937Y-89509000D01*
X140678500Y-86053437D02*
X141742937Y-84989000D01*
X140678500Y-86053437D02*
X140678500Y-86189000D01*
X140678500Y-88444563D02*
X140678500Y-88309000D01*
X141742937Y-89509000D02*
X145198500Y-89509000D01*
X141742937Y-84989000D02*
X145198500Y-84989000D01*
X145198500Y-84989000D02*
X145198500Y-86189000D01*
X145198500Y-89509000D02*
X145198500Y-88309000D01*
%TO.C,C3*%
X146989748Y-94509000D02*
X148412252Y-94509000D01*
X146989748Y-92689000D02*
X148412252Y-92689000D01*
%TO.C,DIGITAL3*%
D11*
X121858380Y-103322071D02*
X120858380Y-103322071D01*
X120858380Y-103083976D01*
X120906000Y-102941119D01*
X121001238Y-102845880D01*
X121096476Y-102798261D01*
X121286952Y-102750642D01*
X121429809Y-102750642D01*
X121620285Y-102798261D01*
X121715523Y-102845880D01*
X121810761Y-102941119D01*
X121858380Y-103083976D01*
X121858380Y-103322071D01*
X121858380Y-102322071D02*
X120858380Y-102322071D01*
X120906000Y-101322071D02*
X120858380Y-101417309D01*
X120858380Y-101560166D01*
X120906000Y-101703023D01*
X121001238Y-101798261D01*
X121096476Y-101845880D01*
X121286952Y-101893500D01*
X121429809Y-101893500D01*
X121620285Y-101845880D01*
X121715523Y-101798261D01*
X121810761Y-101703023D01*
X121858380Y-101560166D01*
X121858380Y-101464928D01*
X121810761Y-101322071D01*
X121763142Y-101274452D01*
X121429809Y-101274452D01*
X121429809Y-101464928D01*
X121858380Y-100845880D02*
X120858380Y-100845880D01*
X120858380Y-100512547D02*
X120858380Y-99941119D01*
X121858380Y-100226833D02*
X120858380Y-100226833D01*
X121572666Y-99655404D02*
X121572666Y-99179214D01*
X121858380Y-99750642D02*
X120858380Y-99417309D01*
X121858380Y-99083976D01*
X121858380Y-98274452D02*
X121858380Y-98750642D01*
X120858380Y-98750642D01*
X120858380Y-98036357D02*
X120858380Y-97417309D01*
X121239333Y-97750642D01*
X121239333Y-97607785D01*
X121286952Y-97512547D01*
X121334571Y-97464928D01*
X121429809Y-97417309D01*
X121667904Y-97417309D01*
X121763142Y-97464928D01*
X121810761Y-97512547D01*
X121858380Y-97607785D01*
X121858380Y-97893500D01*
X121810761Y-97988738D01*
X121763142Y-98036357D01*
%TO.C,PWM2*%
X185517880Y-110084952D02*
X184517880Y-110084952D01*
X184517880Y-109704000D01*
X184565500Y-109608761D01*
X184613119Y-109561142D01*
X184708357Y-109513523D01*
X184851214Y-109513523D01*
X184946452Y-109561142D01*
X184994071Y-109608761D01*
X185041690Y-109704000D01*
X185041690Y-110084952D01*
X184517880Y-109180190D02*
X185517880Y-108942095D01*
X184803595Y-108751619D01*
X185517880Y-108561142D01*
X184517880Y-108323047D01*
X185517880Y-107942095D02*
X184517880Y-107942095D01*
X185232166Y-107608761D01*
X184517880Y-107275428D01*
X185517880Y-107275428D01*
X184613119Y-106846857D02*
X184565500Y-106799238D01*
X184517880Y-106704000D01*
X184517880Y-106465904D01*
X184565500Y-106370666D01*
X184613119Y-106323047D01*
X184708357Y-106275428D01*
X184803595Y-106275428D01*
X184946452Y-106323047D01*
X185517880Y-106894476D01*
X185517880Y-106275428D01*
%TO.C,PWM1*%
X178562547Y-124727880D02*
X178562547Y-123727880D01*
X178943500Y-123727880D01*
X179038738Y-123775500D01*
X179086357Y-123823119D01*
X179133976Y-123918357D01*
X179133976Y-124061214D01*
X179086357Y-124156452D01*
X179038738Y-124204071D01*
X178943500Y-124251690D01*
X178562547Y-124251690D01*
X179467309Y-123727880D02*
X179705404Y-124727880D01*
X179895880Y-124013595D01*
X180086357Y-124727880D01*
X180324452Y-123727880D01*
X180705404Y-124727880D02*
X180705404Y-123727880D01*
X181038738Y-124442166D01*
X181372071Y-123727880D01*
X181372071Y-124727880D01*
X182372071Y-124727880D02*
X181800642Y-124727880D01*
X182086357Y-124727880D02*
X182086357Y-123727880D01*
X181991119Y-123870738D01*
X181895880Y-123965976D01*
X181800642Y-124013595D01*
%TO.C,J1*%
X134426880Y-78398333D02*
X135141166Y-78398333D01*
X135284023Y-78445952D01*
X135379261Y-78541190D01*
X135426880Y-78684047D01*
X135426880Y-78779285D01*
X135426880Y-77398333D02*
X135426880Y-77969761D01*
X135426880Y-77684047D02*
X134426880Y-77684047D01*
X134569738Y-77779285D01*
X134664976Y-77874523D01*
X134712595Y-77969761D01*
%TO.C,DIGITAL2*%
X166275428Y-124727880D02*
X166275428Y-123727880D01*
X166513523Y-123727880D01*
X166656380Y-123775500D01*
X166751619Y-123870738D01*
X166799238Y-123965976D01*
X166846857Y-124156452D01*
X166846857Y-124299309D01*
X166799238Y-124489785D01*
X166751619Y-124585023D01*
X166656380Y-124680261D01*
X166513523Y-124727880D01*
X166275428Y-124727880D01*
X167275428Y-124727880D02*
X167275428Y-123727880D01*
X168275428Y-123775500D02*
X168180190Y-123727880D01*
X168037333Y-123727880D01*
X167894476Y-123775500D01*
X167799238Y-123870738D01*
X167751619Y-123965976D01*
X167704000Y-124156452D01*
X167704000Y-124299309D01*
X167751619Y-124489785D01*
X167799238Y-124585023D01*
X167894476Y-124680261D01*
X168037333Y-124727880D01*
X168132571Y-124727880D01*
X168275428Y-124680261D01*
X168323047Y-124632642D01*
X168323047Y-124299309D01*
X168132571Y-124299309D01*
X168751619Y-124727880D02*
X168751619Y-123727880D01*
X169084952Y-123727880D02*
X169656380Y-123727880D01*
X169370666Y-124727880D02*
X169370666Y-123727880D01*
X169942095Y-124442166D02*
X170418285Y-124442166D01*
X169846857Y-124727880D02*
X170180190Y-123727880D01*
X170513523Y-124727880D01*
X171323047Y-124727880D02*
X170846857Y-124727880D01*
X170846857Y-123727880D01*
X171608761Y-123823119D02*
X171656380Y-123775500D01*
X171751619Y-123727880D01*
X171989714Y-123727880D01*
X172084952Y-123775500D01*
X172132571Y-123823119D01*
X172180190Y-123918357D01*
X172180190Y-124013595D01*
X172132571Y-124156452D01*
X171561142Y-124727880D01*
X172180190Y-124727880D01*
%TO.C,C2*%
X157229833Y-106819142D02*
X157182214Y-106866761D01*
X157039357Y-106914380D01*
X156944119Y-106914380D01*
X156801261Y-106866761D01*
X156706023Y-106771523D01*
X156658404Y-106676285D01*
X156610785Y-106485809D01*
X156610785Y-106342952D01*
X156658404Y-106152476D01*
X156706023Y-106057238D01*
X156801261Y-105962000D01*
X156944119Y-105914380D01*
X157039357Y-105914380D01*
X157182214Y-105962000D01*
X157229833Y-106009619D01*
X157610785Y-106009619D02*
X157658404Y-105962000D01*
X157753642Y-105914380D01*
X157991738Y-105914380D01*
X158086976Y-105962000D01*
X158134595Y-106009619D01*
X158182214Y-106104857D01*
X158182214Y-106200095D01*
X158134595Y-106342952D01*
X157563166Y-106914380D01*
X158182214Y-106914380D01*
%TO.C,C1*%
X157102833Y-103771142D02*
X157055214Y-103818761D01*
X156912357Y-103866380D01*
X156817119Y-103866380D01*
X156674261Y-103818761D01*
X156579023Y-103723523D01*
X156531404Y-103628285D01*
X156483785Y-103437809D01*
X156483785Y-103294952D01*
X156531404Y-103104476D01*
X156579023Y-103009238D01*
X156674261Y-102914000D01*
X156817119Y-102866380D01*
X156912357Y-102866380D01*
X157055214Y-102914000D01*
X157102833Y-102961619D01*
X158055214Y-103866380D02*
X157483785Y-103866380D01*
X157769500Y-103866380D02*
X157769500Y-102866380D01*
X157674261Y-103009238D01*
X157579023Y-103104476D01*
X157483785Y-103152095D01*
%TO.C,Y1*%
X155329690Y-109215190D02*
X155805880Y-109215190D01*
X154805880Y-109548523D02*
X155329690Y-109215190D01*
X154805880Y-108881857D01*
X155805880Y-108024714D02*
X155805880Y-108596142D01*
X155805880Y-108310428D02*
X154805880Y-108310428D01*
X154948738Y-108405666D01*
X155043976Y-108500904D01*
X155091595Y-108596142D01*
%TO.C,U4*%
X176085595Y-71215880D02*
X176085595Y-72025404D01*
X176133214Y-72120642D01*
X176180833Y-72168261D01*
X176276071Y-72215880D01*
X176466547Y-72215880D01*
X176561785Y-72168261D01*
X176609404Y-72120642D01*
X176657023Y-72025404D01*
X176657023Y-71215880D01*
X177561785Y-71549214D02*
X177561785Y-72215880D01*
X177323690Y-71168261D02*
X177085595Y-71882547D01*
X177704642Y-71882547D01*
%TO.C,U2*%
X148187595Y-70862880D02*
X148187595Y-71672404D01*
X148235214Y-71767642D01*
X148282833Y-71815261D01*
X148378071Y-71862880D01*
X148568547Y-71862880D01*
X148663785Y-71815261D01*
X148711404Y-71767642D01*
X148759023Y-71672404D01*
X148759023Y-70862880D01*
X149187595Y-70958119D02*
X149235214Y-70910500D01*
X149330452Y-70862880D01*
X149568547Y-70862880D01*
X149663785Y-70910500D01*
X149711404Y-70958119D01*
X149759023Y-71053357D01*
X149759023Y-71148595D01*
X149711404Y-71291452D01*
X149139976Y-71862880D01*
X149759023Y-71862880D01*
%TO.C,U1*%
X162433095Y-88398380D02*
X162433095Y-89207904D01*
X162480714Y-89303142D01*
X162528333Y-89350761D01*
X162623571Y-89398380D01*
X162814047Y-89398380D01*
X162909285Y-89350761D01*
X162956904Y-89303142D01*
X163004523Y-89207904D01*
X163004523Y-88398380D01*
X164004523Y-89398380D02*
X163433095Y-89398380D01*
X163718809Y-89398380D02*
X163718809Y-88398380D01*
X163623571Y-88541238D01*
X163528333Y-88636476D01*
X163433095Y-88684095D01*
%TO.C,SW1*%
X170572666Y-103179761D02*
X170715523Y-103227380D01*
X170953619Y-103227380D01*
X171048857Y-103179761D01*
X171096476Y-103132142D01*
X171144095Y-103036904D01*
X171144095Y-102941666D01*
X171096476Y-102846428D01*
X171048857Y-102798809D01*
X170953619Y-102751190D01*
X170763142Y-102703571D01*
X170667904Y-102655952D01*
X170620285Y-102608333D01*
X170572666Y-102513095D01*
X170572666Y-102417857D01*
X170620285Y-102322619D01*
X170667904Y-102275000D01*
X170763142Y-102227380D01*
X171001238Y-102227380D01*
X171144095Y-102275000D01*
X171477428Y-102227380D02*
X171715523Y-103227380D01*
X171906000Y-102513095D01*
X172096476Y-103227380D01*
X172334571Y-102227380D01*
X173239333Y-103227380D02*
X172667904Y-103227380D01*
X172953619Y-103227380D02*
X172953619Y-102227380D01*
X172858380Y-102370238D01*
X172763142Y-102465476D01*
X172667904Y-102513095D01*
%TO.C,R12*%
X162419380Y-84907357D02*
X161943190Y-85240690D01*
X162419380Y-85478785D02*
X161419380Y-85478785D01*
X161419380Y-85097833D01*
X161467000Y-85002595D01*
X161514619Y-84954976D01*
X161609857Y-84907357D01*
X161752714Y-84907357D01*
X161847952Y-84954976D01*
X161895571Y-85002595D01*
X161943190Y-85097833D01*
X161943190Y-85478785D01*
X162419380Y-83954976D02*
X162419380Y-84526404D01*
X162419380Y-84240690D02*
X161419380Y-84240690D01*
X161562238Y-84335928D01*
X161657476Y-84431166D01*
X161705095Y-84526404D01*
X161514619Y-83574023D02*
X161467000Y-83526404D01*
X161419380Y-83431166D01*
X161419380Y-83193071D01*
X161467000Y-83097833D01*
X161514619Y-83050214D01*
X161609857Y-83002595D01*
X161705095Y-83002595D01*
X161847952Y-83050214D01*
X162419380Y-83621642D01*
X162419380Y-83002595D01*
%TO.C,R11*%
X160774142Y-78578880D02*
X160440809Y-78102690D01*
X160202714Y-78578880D02*
X160202714Y-77578880D01*
X160583666Y-77578880D01*
X160678904Y-77626500D01*
X160726523Y-77674119D01*
X160774142Y-77769357D01*
X160774142Y-77912214D01*
X160726523Y-78007452D01*
X160678904Y-78055071D01*
X160583666Y-78102690D01*
X160202714Y-78102690D01*
X161726523Y-78578880D02*
X161155095Y-78578880D01*
X161440809Y-78578880D02*
X161440809Y-77578880D01*
X161345571Y-77721738D01*
X161250333Y-77816976D01*
X161155095Y-77864595D01*
X162678904Y-78578880D02*
X162107476Y-78578880D01*
X162393190Y-78578880D02*
X162393190Y-77578880D01*
X162297952Y-77721738D01*
X162202714Y-77816976D01*
X162107476Y-77864595D01*
%TO.C,R10*%
X175733880Y-87193357D02*
X175257690Y-87526690D01*
X175733880Y-87764785D02*
X174733880Y-87764785D01*
X174733880Y-87383833D01*
X174781500Y-87288595D01*
X174829119Y-87240976D01*
X174924357Y-87193357D01*
X175067214Y-87193357D01*
X175162452Y-87240976D01*
X175210071Y-87288595D01*
X175257690Y-87383833D01*
X175257690Y-87764785D01*
X175733880Y-86240976D02*
X175733880Y-86812404D01*
X175733880Y-86526690D02*
X174733880Y-86526690D01*
X174876738Y-86621928D01*
X174971976Y-86717166D01*
X175019595Y-86812404D01*
X174733880Y-85621928D02*
X174733880Y-85526690D01*
X174781500Y-85431452D01*
X174829119Y-85383833D01*
X174924357Y-85336214D01*
X175114833Y-85288595D01*
X175352928Y-85288595D01*
X175543404Y-85336214D01*
X175638642Y-85383833D01*
X175686261Y-85431452D01*
X175733880Y-85526690D01*
X175733880Y-85621928D01*
X175686261Y-85717166D01*
X175638642Y-85764785D01*
X175543404Y-85812404D01*
X175352928Y-85860023D01*
X175114833Y-85860023D01*
X174924357Y-85812404D01*
X174829119Y-85764785D01*
X174781500Y-85717166D01*
X174733880Y-85621928D01*
%TO.C,R9*%
X181252833Y-102411880D02*
X180919500Y-101935690D01*
X180681404Y-102411880D02*
X180681404Y-101411880D01*
X181062357Y-101411880D01*
X181157595Y-101459500D01*
X181205214Y-101507119D01*
X181252833Y-101602357D01*
X181252833Y-101745214D01*
X181205214Y-101840452D01*
X181157595Y-101888071D01*
X181062357Y-101935690D01*
X180681404Y-101935690D01*
X181729023Y-102411880D02*
X181919500Y-102411880D01*
X182014738Y-102364261D01*
X182062357Y-102316642D01*
X182157595Y-102173785D01*
X182205214Y-101983309D01*
X182205214Y-101602357D01*
X182157595Y-101507119D01*
X182109976Y-101459500D01*
X182014738Y-101411880D01*
X181824261Y-101411880D01*
X181729023Y-101459500D01*
X181681404Y-101507119D01*
X181633785Y-101602357D01*
X181633785Y-101840452D01*
X181681404Y-101935690D01*
X181729023Y-101983309D01*
X181824261Y-102030928D01*
X182014738Y-102030928D01*
X182109976Y-101983309D01*
X182157595Y-101935690D01*
X182205214Y-101840452D01*
%TO.C,R8*%
X171796880Y-86717166D02*
X171320690Y-87050500D01*
X171796880Y-87288595D02*
X170796880Y-87288595D01*
X170796880Y-86907642D01*
X170844500Y-86812404D01*
X170892119Y-86764785D01*
X170987357Y-86717166D01*
X171130214Y-86717166D01*
X171225452Y-86764785D01*
X171273071Y-86812404D01*
X171320690Y-86907642D01*
X171320690Y-87288595D01*
X171225452Y-86145738D02*
X171177833Y-86240976D01*
X171130214Y-86288595D01*
X171034976Y-86336214D01*
X170987357Y-86336214D01*
X170892119Y-86288595D01*
X170844500Y-86240976D01*
X170796880Y-86145738D01*
X170796880Y-85955261D01*
X170844500Y-85860023D01*
X170892119Y-85812404D01*
X170987357Y-85764785D01*
X171034976Y-85764785D01*
X171130214Y-85812404D01*
X171177833Y-85860023D01*
X171225452Y-85955261D01*
X171225452Y-86145738D01*
X171273071Y-86240976D01*
X171320690Y-86288595D01*
X171415928Y-86336214D01*
X171606404Y-86336214D01*
X171701642Y-86288595D01*
X171749261Y-86240976D01*
X171796880Y-86145738D01*
X171796880Y-85955261D01*
X171749261Y-85860023D01*
X171701642Y-85812404D01*
X171606404Y-85764785D01*
X171415928Y-85764785D01*
X171320690Y-85812404D01*
X171273071Y-85860023D01*
X171225452Y-85955261D01*
%TO.C,R7*%
X174460333Y-84631880D02*
X174127000Y-84155690D01*
X173888904Y-84631880D02*
X173888904Y-83631880D01*
X174269857Y-83631880D01*
X174365095Y-83679500D01*
X174412714Y-83727119D01*
X174460333Y-83822357D01*
X174460333Y-83965214D01*
X174412714Y-84060452D01*
X174365095Y-84108071D01*
X174269857Y-84155690D01*
X173888904Y-84155690D01*
X174793666Y-83631880D02*
X175460333Y-83631880D01*
X175031761Y-84631880D01*
%TO.C,R6*%
X162482880Y-75094666D02*
X162006690Y-75428000D01*
X162482880Y-75666095D02*
X161482880Y-75666095D01*
X161482880Y-75285142D01*
X161530500Y-75189904D01*
X161578119Y-75142285D01*
X161673357Y-75094666D01*
X161816214Y-75094666D01*
X161911452Y-75142285D01*
X161959071Y-75189904D01*
X162006690Y-75285142D01*
X162006690Y-75666095D01*
X161482880Y-74237523D02*
X161482880Y-74428000D01*
X161530500Y-74523238D01*
X161578119Y-74570857D01*
X161720976Y-74666095D01*
X161911452Y-74713714D01*
X162292404Y-74713714D01*
X162387642Y-74666095D01*
X162435261Y-74618476D01*
X162482880Y-74523238D01*
X162482880Y-74332761D01*
X162435261Y-74237523D01*
X162387642Y-74189904D01*
X162292404Y-74142285D01*
X162054309Y-74142285D01*
X161959071Y-74189904D01*
X161911452Y-74237523D01*
X161863833Y-74332761D01*
X161863833Y-74523238D01*
X161911452Y-74618476D01*
X161959071Y-74666095D01*
X162054309Y-74713714D01*
%TO.C,R5*%
X167346333Y-75868880D02*
X167013000Y-75392690D01*
X166774904Y-75868880D02*
X166774904Y-74868880D01*
X167155857Y-74868880D01*
X167251095Y-74916500D01*
X167298714Y-74964119D01*
X167346333Y-75059357D01*
X167346333Y-75202214D01*
X167298714Y-75297452D01*
X167251095Y-75345071D01*
X167155857Y-75392690D01*
X166774904Y-75392690D01*
X168251095Y-74868880D02*
X167774904Y-74868880D01*
X167727285Y-75345071D01*
X167774904Y-75297452D01*
X167870142Y-75249833D01*
X168108238Y-75249833D01*
X168203476Y-75297452D01*
X168251095Y-75345071D01*
X168298714Y-75440309D01*
X168298714Y-75678404D01*
X168251095Y-75773642D01*
X168203476Y-75821261D01*
X168108238Y-75868880D01*
X167870142Y-75868880D01*
X167774904Y-75821261D01*
X167727285Y-75773642D01*
%TO.C,R4*%
X161758333Y-112424380D02*
X161425000Y-111948190D01*
X161186904Y-112424380D02*
X161186904Y-111424380D01*
X161567857Y-111424380D01*
X161663095Y-111472000D01*
X161710714Y-111519619D01*
X161758333Y-111614857D01*
X161758333Y-111757714D01*
X161710714Y-111852952D01*
X161663095Y-111900571D01*
X161567857Y-111948190D01*
X161186904Y-111948190D01*
X162615476Y-111757714D02*
X162615476Y-112424380D01*
X162377380Y-111376761D02*
X162139285Y-112091047D01*
X162758333Y-112091047D01*
%TO.C,R3*%
X156868833Y-112424380D02*
X156535500Y-111948190D01*
X156297404Y-112424380D02*
X156297404Y-111424380D01*
X156678357Y-111424380D01*
X156773595Y-111472000D01*
X156821214Y-111519619D01*
X156868833Y-111614857D01*
X156868833Y-111757714D01*
X156821214Y-111852952D01*
X156773595Y-111900571D01*
X156678357Y-111948190D01*
X156297404Y-111948190D01*
X157202166Y-111424380D02*
X157821214Y-111424380D01*
X157487880Y-111805333D01*
X157630738Y-111805333D01*
X157725976Y-111852952D01*
X157773595Y-111900571D01*
X157821214Y-111995809D01*
X157821214Y-112233904D01*
X157773595Y-112329142D01*
X157725976Y-112376761D01*
X157630738Y-112424380D01*
X157345023Y-112424380D01*
X157249785Y-112376761D01*
X157202166Y-112329142D01*
%TO.C,R2*%
X181125833Y-98982880D02*
X180792500Y-98506690D01*
X180554404Y-98982880D02*
X180554404Y-97982880D01*
X180935357Y-97982880D01*
X181030595Y-98030500D01*
X181078214Y-98078119D01*
X181125833Y-98173357D01*
X181125833Y-98316214D01*
X181078214Y-98411452D01*
X181030595Y-98459071D01*
X180935357Y-98506690D01*
X180554404Y-98506690D01*
X181506785Y-98078119D02*
X181554404Y-98030500D01*
X181649642Y-97982880D01*
X181887738Y-97982880D01*
X181982976Y-98030500D01*
X182030595Y-98078119D01*
X182078214Y-98173357D01*
X182078214Y-98268595D01*
X182030595Y-98411452D01*
X181459166Y-98982880D01*
X182078214Y-98982880D01*
%TO.C,R1*%
X166462880Y-114149166D02*
X165986690Y-114482500D01*
X166462880Y-114720595D02*
X165462880Y-114720595D01*
X165462880Y-114339642D01*
X165510500Y-114244404D01*
X165558119Y-114196785D01*
X165653357Y-114149166D01*
X165796214Y-114149166D01*
X165891452Y-114196785D01*
X165939071Y-114244404D01*
X165986690Y-114339642D01*
X165986690Y-114720595D01*
X166462880Y-113196785D02*
X166462880Y-113768214D01*
X166462880Y-113482500D02*
X165462880Y-113482500D01*
X165605738Y-113577738D01*
X165700976Y-113672976D01*
X165748595Y-113768214D01*
%TO.C,Q4*%
X180562261Y-108628619D02*
X180467023Y-108581000D01*
X180371785Y-108485761D01*
X180228928Y-108342904D01*
X180133690Y-108295285D01*
X180038452Y-108295285D01*
X180086071Y-108533380D02*
X179990833Y-108485761D01*
X179895595Y-108390523D01*
X179847976Y-108200047D01*
X179847976Y-107866714D01*
X179895595Y-107676238D01*
X179990833Y-107581000D01*
X180086071Y-107533380D01*
X180276547Y-107533380D01*
X180371785Y-107581000D01*
X180467023Y-107676238D01*
X180514642Y-107866714D01*
X180514642Y-108200047D01*
X180467023Y-108390523D01*
X180371785Y-108485761D01*
X180276547Y-108533380D01*
X180086071Y-108533380D01*
X181371785Y-107866714D02*
X181371785Y-108533380D01*
X181133690Y-107485761D02*
X180895595Y-108200047D01*
X181514642Y-108200047D01*
%TO.C,Q3*%
X181387761Y-95103119D02*
X181292523Y-95055500D01*
X181197285Y-94960261D01*
X181054428Y-94817404D01*
X180959190Y-94769785D01*
X180863952Y-94769785D01*
X180911571Y-95007880D02*
X180816333Y-94960261D01*
X180721095Y-94865023D01*
X180673476Y-94674547D01*
X180673476Y-94341214D01*
X180721095Y-94150738D01*
X180816333Y-94055500D01*
X180911571Y-94007880D01*
X181102047Y-94007880D01*
X181197285Y-94055500D01*
X181292523Y-94150738D01*
X181340142Y-94341214D01*
X181340142Y-94674547D01*
X181292523Y-94865023D01*
X181197285Y-94960261D01*
X181102047Y-95007880D01*
X180911571Y-95007880D01*
X181673476Y-94007880D02*
X182292523Y-94007880D01*
X181959190Y-94388833D01*
X182102047Y-94388833D01*
X182197285Y-94436452D01*
X182244904Y-94484071D01*
X182292523Y-94579309D01*
X182292523Y-94817404D01*
X182244904Y-94912642D01*
X182197285Y-94960261D01*
X182102047Y-95007880D01*
X181816333Y-95007880D01*
X181721095Y-94960261D01*
X181673476Y-94912642D01*
%TO.C,Q2*%
X141977619Y-110204238D02*
X141930000Y-110299476D01*
X141834761Y-110394714D01*
X141691904Y-110537571D01*
X141644285Y-110632809D01*
X141644285Y-110728047D01*
X141882380Y-110680428D02*
X141834761Y-110775666D01*
X141739523Y-110870904D01*
X141549047Y-110918523D01*
X141215714Y-110918523D01*
X141025238Y-110870904D01*
X140930000Y-110775666D01*
X140882380Y-110680428D01*
X140882380Y-110489952D01*
X140930000Y-110394714D01*
X141025238Y-110299476D01*
X141215714Y-110251857D01*
X141549047Y-110251857D01*
X141739523Y-110299476D01*
X141834761Y-110394714D01*
X141882380Y-110489952D01*
X141882380Y-110680428D01*
X140977619Y-109870904D02*
X140930000Y-109823285D01*
X140882380Y-109728047D01*
X140882380Y-109489952D01*
X140930000Y-109394714D01*
X140977619Y-109347095D01*
X141072857Y-109299476D01*
X141168095Y-109299476D01*
X141310952Y-109347095D01*
X141882380Y-109918523D01*
X141882380Y-109299476D01*
%TO.C,Q1*%
X133191261Y-84352119D02*
X133096023Y-84304500D01*
X133000785Y-84209261D01*
X132857928Y-84066404D01*
X132762690Y-84018785D01*
X132667452Y-84018785D01*
X132715071Y-84256880D02*
X132619833Y-84209261D01*
X132524595Y-84114023D01*
X132476976Y-83923547D01*
X132476976Y-83590214D01*
X132524595Y-83399738D01*
X132619833Y-83304500D01*
X132715071Y-83256880D01*
X132905547Y-83256880D01*
X133000785Y-83304500D01*
X133096023Y-83399738D01*
X133143642Y-83590214D01*
X133143642Y-83923547D01*
X133096023Y-84114023D01*
X133000785Y-84209261D01*
X132905547Y-84256880D01*
X132715071Y-84256880D01*
X134096023Y-84256880D02*
X133524595Y-84256880D01*
X133810309Y-84256880D02*
X133810309Y-83256880D01*
X133715071Y-83399738D01*
X133619833Y-83494976D01*
X133524595Y-83542595D01*
%TO.C,L1*%
X150613833Y-84721380D02*
X150137642Y-84721380D01*
X150137642Y-83721380D01*
X151470976Y-84721380D02*
X150899547Y-84721380D01*
X151185261Y-84721380D02*
X151185261Y-83721380D01*
X151090023Y-83864238D01*
X150994785Y-83959476D01*
X150899547Y-84007095D01*
%TO.C,ANALOG4*%
X144311761Y-67026166D02*
X144787952Y-67026166D01*
X144216523Y-67311880D02*
X144549857Y-66311880D01*
X144883190Y-67311880D01*
X145216523Y-67311880D02*
X145216523Y-66311880D01*
X145787952Y-67311880D01*
X145787952Y-66311880D01*
X146216523Y-67026166D02*
X146692714Y-67026166D01*
X146121285Y-67311880D02*
X146454619Y-66311880D01*
X146787952Y-67311880D01*
X147597476Y-67311880D02*
X147121285Y-67311880D01*
X147121285Y-66311880D01*
X148121285Y-66311880D02*
X148311761Y-66311880D01*
X148407000Y-66359500D01*
X148502238Y-66454738D01*
X148549857Y-66645214D01*
X148549857Y-66978547D01*
X148502238Y-67169023D01*
X148407000Y-67264261D01*
X148311761Y-67311880D01*
X148121285Y-67311880D01*
X148026047Y-67264261D01*
X147930809Y-67169023D01*
X147883190Y-66978547D01*
X147883190Y-66645214D01*
X147930809Y-66454738D01*
X148026047Y-66359500D01*
X148121285Y-66311880D01*
X149502238Y-66359500D02*
X149407000Y-66311880D01*
X149264142Y-66311880D01*
X149121285Y-66359500D01*
X149026047Y-66454738D01*
X148978428Y-66549976D01*
X148930809Y-66740452D01*
X148930809Y-66883309D01*
X148978428Y-67073785D01*
X149026047Y-67169023D01*
X149121285Y-67264261D01*
X149264142Y-67311880D01*
X149359380Y-67311880D01*
X149502238Y-67264261D01*
X149549857Y-67216642D01*
X149549857Y-66883309D01*
X149359380Y-66883309D01*
X150407000Y-66645214D02*
X150407000Y-67311880D01*
X150168904Y-66264261D02*
X149930809Y-66978547D01*
X150549857Y-66978547D01*
%TO.C,ANALOG3*%
X155487761Y-67026166D02*
X155963952Y-67026166D01*
X155392523Y-67311880D02*
X155725857Y-66311880D01*
X156059190Y-67311880D01*
X156392523Y-67311880D02*
X156392523Y-66311880D01*
X156963952Y-67311880D01*
X156963952Y-66311880D01*
X157392523Y-67026166D02*
X157868714Y-67026166D01*
X157297285Y-67311880D02*
X157630619Y-66311880D01*
X157963952Y-67311880D01*
X158773476Y-67311880D02*
X158297285Y-67311880D01*
X158297285Y-66311880D01*
X159297285Y-66311880D02*
X159487761Y-66311880D01*
X159583000Y-66359500D01*
X159678238Y-66454738D01*
X159725857Y-66645214D01*
X159725857Y-66978547D01*
X159678238Y-67169023D01*
X159583000Y-67264261D01*
X159487761Y-67311880D01*
X159297285Y-67311880D01*
X159202047Y-67264261D01*
X159106809Y-67169023D01*
X159059190Y-66978547D01*
X159059190Y-66645214D01*
X159106809Y-66454738D01*
X159202047Y-66359500D01*
X159297285Y-66311880D01*
X160678238Y-66359500D02*
X160583000Y-66311880D01*
X160440142Y-66311880D01*
X160297285Y-66359500D01*
X160202047Y-66454738D01*
X160154428Y-66549976D01*
X160106809Y-66740452D01*
X160106809Y-66883309D01*
X160154428Y-67073785D01*
X160202047Y-67169023D01*
X160297285Y-67264261D01*
X160440142Y-67311880D01*
X160535380Y-67311880D01*
X160678238Y-67264261D01*
X160725857Y-67216642D01*
X160725857Y-66883309D01*
X160535380Y-66883309D01*
X161059190Y-66311880D02*
X161678238Y-66311880D01*
X161344904Y-66692833D01*
X161487761Y-66692833D01*
X161583000Y-66740452D01*
X161630619Y-66788071D01*
X161678238Y-66883309D01*
X161678238Y-67121404D01*
X161630619Y-67216642D01*
X161583000Y-67264261D01*
X161487761Y-67311880D01*
X161202047Y-67311880D01*
X161106809Y-67264261D01*
X161059190Y-67216642D01*
%TO.C,DIGITAL4*%
X155099428Y-124727880D02*
X155099428Y-123727880D01*
X155337523Y-123727880D01*
X155480380Y-123775500D01*
X155575619Y-123870738D01*
X155623238Y-123965976D01*
X155670857Y-124156452D01*
X155670857Y-124299309D01*
X155623238Y-124489785D01*
X155575619Y-124585023D01*
X155480380Y-124680261D01*
X155337523Y-124727880D01*
X155099428Y-124727880D01*
X156099428Y-124727880D02*
X156099428Y-123727880D01*
X157099428Y-123775500D02*
X157004190Y-123727880D01*
X156861333Y-123727880D01*
X156718476Y-123775500D01*
X156623238Y-123870738D01*
X156575619Y-123965976D01*
X156528000Y-124156452D01*
X156528000Y-124299309D01*
X156575619Y-124489785D01*
X156623238Y-124585023D01*
X156718476Y-124680261D01*
X156861333Y-124727880D01*
X156956571Y-124727880D01*
X157099428Y-124680261D01*
X157147047Y-124632642D01*
X157147047Y-124299309D01*
X156956571Y-124299309D01*
X157575619Y-124727880D02*
X157575619Y-123727880D01*
X157908952Y-123727880D02*
X158480380Y-123727880D01*
X158194666Y-124727880D02*
X158194666Y-123727880D01*
X158766095Y-124442166D02*
X159242285Y-124442166D01*
X158670857Y-124727880D02*
X159004190Y-123727880D01*
X159337523Y-124727880D01*
X160147047Y-124727880D02*
X159670857Y-124727880D01*
X159670857Y-123727880D01*
X160908952Y-124061214D02*
X160908952Y-124727880D01*
X160670857Y-123680261D02*
X160432761Y-124394547D01*
X161051809Y-124394547D01*
%TO.C,DIGITAL1*%
X133048428Y-67311880D02*
X133048428Y-66311880D01*
X133286523Y-66311880D01*
X133429380Y-66359500D01*
X133524619Y-66454738D01*
X133572238Y-66549976D01*
X133619857Y-66740452D01*
X133619857Y-66883309D01*
X133572238Y-67073785D01*
X133524619Y-67169023D01*
X133429380Y-67264261D01*
X133286523Y-67311880D01*
X133048428Y-67311880D01*
X134048428Y-67311880D02*
X134048428Y-66311880D01*
X135048428Y-66359500D02*
X134953190Y-66311880D01*
X134810333Y-66311880D01*
X134667476Y-66359500D01*
X134572238Y-66454738D01*
X134524619Y-66549976D01*
X134477000Y-66740452D01*
X134477000Y-66883309D01*
X134524619Y-67073785D01*
X134572238Y-67169023D01*
X134667476Y-67264261D01*
X134810333Y-67311880D01*
X134905571Y-67311880D01*
X135048428Y-67264261D01*
X135096047Y-67216642D01*
X135096047Y-66883309D01*
X134905571Y-66883309D01*
X135524619Y-67311880D02*
X135524619Y-66311880D01*
X135857952Y-66311880D02*
X136429380Y-66311880D01*
X136143666Y-67311880D02*
X136143666Y-66311880D01*
X136715095Y-67026166D02*
X137191285Y-67026166D01*
X136619857Y-67311880D02*
X136953190Y-66311880D01*
X137286523Y-67311880D01*
X138096047Y-67311880D02*
X137619857Y-67311880D01*
X137619857Y-66311880D01*
X138953190Y-67311880D02*
X138381761Y-67311880D01*
X138667476Y-67311880D02*
X138667476Y-66311880D01*
X138572238Y-66454738D01*
X138477000Y-66549976D01*
X138381761Y-66597595D01*
%TO.C,ANALOG2*%
X177856261Y-67026166D02*
X178332452Y-67026166D01*
X177761023Y-67311880D02*
X178094357Y-66311880D01*
X178427690Y-67311880D01*
X178761023Y-67311880D02*
X178761023Y-66311880D01*
X179332452Y-67311880D01*
X179332452Y-66311880D01*
X179761023Y-67026166D02*
X180237214Y-67026166D01*
X179665785Y-67311880D02*
X179999119Y-66311880D01*
X180332452Y-67311880D01*
X181141976Y-67311880D02*
X180665785Y-67311880D01*
X180665785Y-66311880D01*
X181665785Y-66311880D02*
X181856261Y-66311880D01*
X181951500Y-66359500D01*
X182046738Y-66454738D01*
X182094357Y-66645214D01*
X182094357Y-66978547D01*
X182046738Y-67169023D01*
X181951500Y-67264261D01*
X181856261Y-67311880D01*
X181665785Y-67311880D01*
X181570547Y-67264261D01*
X181475309Y-67169023D01*
X181427690Y-66978547D01*
X181427690Y-66645214D01*
X181475309Y-66454738D01*
X181570547Y-66359500D01*
X181665785Y-66311880D01*
X183046738Y-66359500D02*
X182951500Y-66311880D01*
X182808642Y-66311880D01*
X182665785Y-66359500D01*
X182570547Y-66454738D01*
X182522928Y-66549976D01*
X182475309Y-66740452D01*
X182475309Y-66883309D01*
X182522928Y-67073785D01*
X182570547Y-67169023D01*
X182665785Y-67264261D01*
X182808642Y-67311880D01*
X182903880Y-67311880D01*
X183046738Y-67264261D01*
X183094357Y-67216642D01*
X183094357Y-66883309D01*
X182903880Y-66883309D01*
X183475309Y-66407119D02*
X183522928Y-66359500D01*
X183618166Y-66311880D01*
X183856261Y-66311880D01*
X183951500Y-66359500D01*
X183999119Y-66407119D01*
X184046738Y-66502357D01*
X184046738Y-66597595D01*
X183999119Y-66740452D01*
X183427690Y-67311880D01*
X184046738Y-67311880D01*
%TO.C,ANALOG1*%
X166663761Y-67026166D02*
X167139952Y-67026166D01*
X166568523Y-67311880D02*
X166901857Y-66311880D01*
X167235190Y-67311880D01*
X167568523Y-67311880D02*
X167568523Y-66311880D01*
X168139952Y-67311880D01*
X168139952Y-66311880D01*
X168568523Y-67026166D02*
X169044714Y-67026166D01*
X168473285Y-67311880D02*
X168806619Y-66311880D01*
X169139952Y-67311880D01*
X169949476Y-67311880D02*
X169473285Y-67311880D01*
X169473285Y-66311880D01*
X170473285Y-66311880D02*
X170663761Y-66311880D01*
X170759000Y-66359500D01*
X170854238Y-66454738D01*
X170901857Y-66645214D01*
X170901857Y-66978547D01*
X170854238Y-67169023D01*
X170759000Y-67264261D01*
X170663761Y-67311880D01*
X170473285Y-67311880D01*
X170378047Y-67264261D01*
X170282809Y-67169023D01*
X170235190Y-66978547D01*
X170235190Y-66645214D01*
X170282809Y-66454738D01*
X170378047Y-66359500D01*
X170473285Y-66311880D01*
X171854238Y-66359500D02*
X171759000Y-66311880D01*
X171616142Y-66311880D01*
X171473285Y-66359500D01*
X171378047Y-66454738D01*
X171330428Y-66549976D01*
X171282809Y-66740452D01*
X171282809Y-66883309D01*
X171330428Y-67073785D01*
X171378047Y-67169023D01*
X171473285Y-67264261D01*
X171616142Y-67311880D01*
X171711380Y-67311880D01*
X171854238Y-67264261D01*
X171901857Y-67216642D01*
X171901857Y-66883309D01*
X171711380Y-66883309D01*
X172854238Y-67311880D02*
X172282809Y-67311880D01*
X172568523Y-67311880D02*
X172568523Y-66311880D01*
X172473285Y-66454738D01*
X172378047Y-66549976D01*
X172282809Y-66597595D01*
%TO.C,PWM4*%
X145034547Y-124727880D02*
X145034547Y-123727880D01*
X145415500Y-123727880D01*
X145510738Y-123775500D01*
X145558357Y-123823119D01*
X145605976Y-123918357D01*
X145605976Y-124061214D01*
X145558357Y-124156452D01*
X145510738Y-124204071D01*
X145415500Y-124251690D01*
X145034547Y-124251690D01*
X145939309Y-123727880D02*
X146177404Y-124727880D01*
X146367880Y-124013595D01*
X146558357Y-124727880D01*
X146796452Y-123727880D01*
X147177404Y-124727880D02*
X147177404Y-123727880D01*
X147510738Y-124442166D01*
X147844071Y-123727880D01*
X147844071Y-124727880D01*
X148748833Y-124061214D02*
X148748833Y-124727880D01*
X148510738Y-123680261D02*
X148272642Y-124394547D01*
X148891690Y-124394547D01*
%TO.C,PWM3*%
X121858380Y-91011452D02*
X120858380Y-91011452D01*
X120858380Y-90630500D01*
X120906000Y-90535261D01*
X120953619Y-90487642D01*
X121048857Y-90440023D01*
X121191714Y-90440023D01*
X121286952Y-90487642D01*
X121334571Y-90535261D01*
X121382190Y-90630500D01*
X121382190Y-91011452D01*
X120858380Y-90106690D02*
X121858380Y-89868595D01*
X121144095Y-89678119D01*
X121858380Y-89487642D01*
X120858380Y-89249547D01*
X121858380Y-88868595D02*
X120858380Y-88868595D01*
X121572666Y-88535261D01*
X120858380Y-88201928D01*
X121858380Y-88201928D01*
X120858380Y-87820976D02*
X120858380Y-87201928D01*
X121239333Y-87535261D01*
X121239333Y-87392404D01*
X121286952Y-87297166D01*
X121334571Y-87249547D01*
X121429809Y-87201928D01*
X121667904Y-87201928D01*
X121763142Y-87249547D01*
X121810761Y-87297166D01*
X121858380Y-87392404D01*
X121858380Y-87678119D01*
X121810761Y-87773357D01*
X121763142Y-87820976D01*
%TO.C,UART1*%
X134918071Y-123727880D02*
X134918071Y-124537404D01*
X134965690Y-124632642D01*
X135013309Y-124680261D01*
X135108547Y-124727880D01*
X135299023Y-124727880D01*
X135394261Y-124680261D01*
X135441880Y-124632642D01*
X135489500Y-124537404D01*
X135489500Y-123727880D01*
X135918071Y-124442166D02*
X136394261Y-124442166D01*
X135822833Y-124727880D02*
X136156166Y-123727880D01*
X136489500Y-124727880D01*
X137394261Y-124727880D02*
X137060928Y-124251690D01*
X136822833Y-124727880D02*
X136822833Y-123727880D01*
X137203785Y-123727880D01*
X137299023Y-123775500D01*
X137346642Y-123823119D01*
X137394261Y-123918357D01*
X137394261Y-124061214D01*
X137346642Y-124156452D01*
X137299023Y-124204071D01*
X137203785Y-124251690D01*
X136822833Y-124251690D01*
X137679976Y-123727880D02*
X138251404Y-123727880D01*
X137965690Y-124727880D02*
X137965690Y-123727880D01*
X139108547Y-124727880D02*
X138537119Y-124727880D01*
X138822833Y-124727880D02*
X138822833Y-123727880D01*
X138727595Y-123870738D01*
X138632357Y-123965976D01*
X138537119Y-124013595D01*
%TO.C,solenoid1*%
X122007261Y-115887071D02*
X122054880Y-115791833D01*
X122054880Y-115601357D01*
X122007261Y-115506119D01*
X121912023Y-115458500D01*
X121864404Y-115458500D01*
X121769166Y-115506119D01*
X121721547Y-115601357D01*
X121721547Y-115744214D01*
X121673928Y-115839452D01*
X121578690Y-115887071D01*
X121531071Y-115887071D01*
X121435833Y-115839452D01*
X121388214Y-115744214D01*
X121388214Y-115601357D01*
X121435833Y-115506119D01*
X122054880Y-114887071D02*
X122007261Y-114982309D01*
X121959642Y-115029928D01*
X121864404Y-115077547D01*
X121578690Y-115077547D01*
X121483452Y-115029928D01*
X121435833Y-114982309D01*
X121388214Y-114887071D01*
X121388214Y-114744214D01*
X121435833Y-114648976D01*
X121483452Y-114601357D01*
X121578690Y-114553738D01*
X121864404Y-114553738D01*
X121959642Y-114601357D01*
X122007261Y-114648976D01*
X122054880Y-114744214D01*
X122054880Y-114887071D01*
X122054880Y-113982309D02*
X122007261Y-114077547D01*
X121912023Y-114125166D01*
X121054880Y-114125166D01*
X122007261Y-113220404D02*
X122054880Y-113315642D01*
X122054880Y-113506119D01*
X122007261Y-113601357D01*
X121912023Y-113648976D01*
X121531071Y-113648976D01*
X121435833Y-113601357D01*
X121388214Y-113506119D01*
X121388214Y-113315642D01*
X121435833Y-113220404D01*
X121531071Y-113172785D01*
X121626309Y-113172785D01*
X121721547Y-113648976D01*
X121388214Y-112744214D02*
X122054880Y-112744214D01*
X121483452Y-112744214D02*
X121435833Y-112696595D01*
X121388214Y-112601357D01*
X121388214Y-112458500D01*
X121435833Y-112363261D01*
X121531071Y-112315642D01*
X122054880Y-112315642D01*
X122054880Y-111696595D02*
X122007261Y-111791833D01*
X121959642Y-111839452D01*
X121864404Y-111887071D01*
X121578690Y-111887071D01*
X121483452Y-111839452D01*
X121435833Y-111791833D01*
X121388214Y-111696595D01*
X121388214Y-111553738D01*
X121435833Y-111458500D01*
X121483452Y-111410880D01*
X121578690Y-111363261D01*
X121864404Y-111363261D01*
X121959642Y-111410880D01*
X122007261Y-111458500D01*
X122054880Y-111553738D01*
X122054880Y-111696595D01*
X122054880Y-110934690D02*
X121388214Y-110934690D01*
X121054880Y-110934690D02*
X121102500Y-110982309D01*
X121150119Y-110934690D01*
X121102500Y-110887071D01*
X121054880Y-110934690D01*
X121150119Y-110934690D01*
X122054880Y-110029928D02*
X121054880Y-110029928D01*
X122007261Y-110029928D02*
X122054880Y-110125166D01*
X122054880Y-110315642D01*
X122007261Y-110410880D01*
X121959642Y-110458500D01*
X121864404Y-110506119D01*
X121578690Y-110506119D01*
X121483452Y-110458500D01*
X121435833Y-110410880D01*
X121388214Y-110315642D01*
X121388214Y-110125166D01*
X121435833Y-110029928D01*
X122054880Y-109029928D02*
X122054880Y-109601357D01*
X122054880Y-109315642D02*
X121054880Y-109315642D01*
X121197738Y-109410880D01*
X121292976Y-109506119D01*
X121340595Y-109601357D01*
%TO.C,Sharp1*%
X193577761Y-81700071D02*
X193625380Y-81557214D01*
X193625380Y-81319119D01*
X193577761Y-81223880D01*
X193530142Y-81176261D01*
X193434904Y-81128642D01*
X193339666Y-81128642D01*
X193244428Y-81176261D01*
X193196809Y-81223880D01*
X193149190Y-81319119D01*
X193101571Y-81509595D01*
X193053952Y-81604833D01*
X193006333Y-81652452D01*
X192911095Y-81700071D01*
X192815857Y-81700071D01*
X192720619Y-81652452D01*
X192673000Y-81604833D01*
X192625380Y-81509595D01*
X192625380Y-81271500D01*
X192673000Y-81128642D01*
X193625380Y-80700071D02*
X192625380Y-80700071D01*
X193625380Y-80271500D02*
X193101571Y-80271500D01*
X193006333Y-80319119D01*
X192958714Y-80414357D01*
X192958714Y-80557214D01*
X193006333Y-80652452D01*
X193053952Y-80700071D01*
X193625380Y-79366738D02*
X193101571Y-79366738D01*
X193006333Y-79414357D01*
X192958714Y-79509595D01*
X192958714Y-79700071D01*
X193006333Y-79795309D01*
X193577761Y-79366738D02*
X193625380Y-79461976D01*
X193625380Y-79700071D01*
X193577761Y-79795309D01*
X193482523Y-79842928D01*
X193387285Y-79842928D01*
X193292047Y-79795309D01*
X193244428Y-79700071D01*
X193244428Y-79461976D01*
X193196809Y-79366738D01*
X193625380Y-78890547D02*
X192958714Y-78890547D01*
X193149190Y-78890547D02*
X193053952Y-78842928D01*
X193006333Y-78795309D01*
X192958714Y-78700071D01*
X192958714Y-78604833D01*
X192958714Y-78271500D02*
X193958714Y-78271500D01*
X193006333Y-78271500D02*
X192958714Y-78176261D01*
X192958714Y-77985785D01*
X193006333Y-77890547D01*
X193053952Y-77842928D01*
X193149190Y-77795309D01*
X193434904Y-77795309D01*
X193530142Y-77842928D01*
X193577761Y-77890547D01*
X193625380Y-77985785D01*
X193625380Y-78176261D01*
X193577761Y-78271500D01*
X193625380Y-76842928D02*
X193625380Y-77414357D01*
X193625380Y-77128642D02*
X192625380Y-77128642D01*
X192768238Y-77223880D01*
X192863476Y-77319119D01*
X192911095Y-77414357D01*
%TO.C,UART_to_raspberry1*%
X195693380Y-99276928D02*
X196502904Y-99276928D01*
X196598142Y-99229309D01*
X196645761Y-99181690D01*
X196693380Y-99086452D01*
X196693380Y-98895976D01*
X196645761Y-98800738D01*
X196598142Y-98753119D01*
X196502904Y-98705500D01*
X195693380Y-98705500D01*
X196407666Y-98276928D02*
X196407666Y-97800738D01*
X196693380Y-98372166D02*
X195693380Y-98038833D01*
X196693380Y-97705500D01*
X196693380Y-96800738D02*
X196217190Y-97134071D01*
X196693380Y-97372166D02*
X195693380Y-97372166D01*
X195693380Y-96991214D01*
X195741000Y-96895976D01*
X195788619Y-96848357D01*
X195883857Y-96800738D01*
X196026714Y-96800738D01*
X196121952Y-96848357D01*
X196169571Y-96895976D01*
X196217190Y-96991214D01*
X196217190Y-97372166D01*
X195693380Y-96515023D02*
X195693380Y-95943595D01*
X196693380Y-96229309D02*
X195693380Y-96229309D01*
X196788619Y-95848357D02*
X196788619Y-95086452D01*
X196026714Y-94991214D02*
X196026714Y-94610261D01*
X195693380Y-94848357D02*
X196550523Y-94848357D01*
X196645761Y-94800738D01*
X196693380Y-94705500D01*
X196693380Y-94610261D01*
X196693380Y-94134071D02*
X196645761Y-94229309D01*
X196598142Y-94276928D01*
X196502904Y-94324547D01*
X196217190Y-94324547D01*
X196121952Y-94276928D01*
X196074333Y-94229309D01*
X196026714Y-94134071D01*
X196026714Y-93991214D01*
X196074333Y-93895976D01*
X196121952Y-93848357D01*
X196217190Y-93800738D01*
X196502904Y-93800738D01*
X196598142Y-93848357D01*
X196645761Y-93895976D01*
X196693380Y-93991214D01*
X196693380Y-94134071D01*
X196788619Y-93610261D02*
X196788619Y-92848357D01*
X196693380Y-92610261D02*
X196026714Y-92610261D01*
X196217190Y-92610261D02*
X196121952Y-92562642D01*
X196074333Y-92515023D01*
X196026714Y-92419785D01*
X196026714Y-92324547D01*
X196693380Y-91562642D02*
X196169571Y-91562642D01*
X196074333Y-91610261D01*
X196026714Y-91705500D01*
X196026714Y-91895976D01*
X196074333Y-91991214D01*
X196645761Y-91562642D02*
X196693380Y-91657880D01*
X196693380Y-91895976D01*
X196645761Y-91991214D01*
X196550523Y-92038833D01*
X196455285Y-92038833D01*
X196360047Y-91991214D01*
X196312428Y-91895976D01*
X196312428Y-91657880D01*
X196264809Y-91562642D01*
X196645761Y-91134071D02*
X196693380Y-91038833D01*
X196693380Y-90848357D01*
X196645761Y-90753119D01*
X196550523Y-90705500D01*
X196502904Y-90705500D01*
X196407666Y-90753119D01*
X196360047Y-90848357D01*
X196360047Y-90991214D01*
X196312428Y-91086452D01*
X196217190Y-91134071D01*
X196169571Y-91134071D01*
X196074333Y-91086452D01*
X196026714Y-90991214D01*
X196026714Y-90848357D01*
X196074333Y-90753119D01*
X196026714Y-90276928D02*
X197026714Y-90276928D01*
X196074333Y-90276928D02*
X196026714Y-90181690D01*
X196026714Y-89991214D01*
X196074333Y-89895976D01*
X196121952Y-89848357D01*
X196217190Y-89800738D01*
X196502904Y-89800738D01*
X196598142Y-89848357D01*
X196645761Y-89895976D01*
X196693380Y-89991214D01*
X196693380Y-90181690D01*
X196645761Y-90276928D01*
X196693380Y-89372166D02*
X195693380Y-89372166D01*
X196074333Y-89372166D02*
X196026714Y-89276928D01*
X196026714Y-89086452D01*
X196074333Y-88991214D01*
X196121952Y-88943595D01*
X196217190Y-88895976D01*
X196502904Y-88895976D01*
X196598142Y-88943595D01*
X196645761Y-88991214D01*
X196693380Y-89086452D01*
X196693380Y-89276928D01*
X196645761Y-89372166D01*
X196645761Y-88086452D02*
X196693380Y-88181690D01*
X196693380Y-88372166D01*
X196645761Y-88467404D01*
X196550523Y-88515023D01*
X196169571Y-88515023D01*
X196074333Y-88467404D01*
X196026714Y-88372166D01*
X196026714Y-88181690D01*
X196074333Y-88086452D01*
X196169571Y-88038833D01*
X196264809Y-88038833D01*
X196360047Y-88515023D01*
X196693380Y-87610261D02*
X196026714Y-87610261D01*
X196217190Y-87610261D02*
X196121952Y-87562642D01*
X196074333Y-87515023D01*
X196026714Y-87419785D01*
X196026714Y-87324547D01*
X196693380Y-86991214D02*
X196026714Y-86991214D01*
X196217190Y-86991214D02*
X196121952Y-86943595D01*
X196074333Y-86895976D01*
X196026714Y-86800738D01*
X196026714Y-86705500D01*
X196026714Y-86467404D02*
X196693380Y-86229309D01*
X196026714Y-85991214D02*
X196693380Y-86229309D01*
X196931476Y-86324547D01*
X196979095Y-86372166D01*
X197026714Y-86467404D01*
X196693380Y-85086452D02*
X196693380Y-85657880D01*
X196693380Y-85372166D02*
X195693380Y-85372166D01*
X195836238Y-85467404D01*
X195931476Y-85562642D01*
X195979095Y-85657880D01*
%TO.C,J2*%
X173196166Y-94420380D02*
X173196166Y-95134666D01*
X173148547Y-95277523D01*
X173053309Y-95372761D01*
X172910452Y-95420380D01*
X172815214Y-95420380D01*
X173624738Y-94515619D02*
X173672357Y-94468000D01*
X173767595Y-94420380D01*
X174005690Y-94420380D01*
X174100928Y-94468000D01*
X174148547Y-94515619D01*
X174196166Y-94610857D01*
X174196166Y-94706095D01*
X174148547Y-94848952D01*
X173577119Y-95420380D01*
X174196166Y-95420380D01*
%TO.C,H4*%
X123825095Y-118745380D02*
X123825095Y-117745380D01*
X123825095Y-118221571D02*
X124396523Y-118221571D01*
X124396523Y-118745380D02*
X124396523Y-117745380D01*
X125301285Y-118078714D02*
X125301285Y-118745380D01*
X125063190Y-117697761D02*
X124825095Y-118412047D01*
X125444142Y-118412047D01*
%TO.C,H3*%
X190246095Y-118237380D02*
X190246095Y-117237380D01*
X190246095Y-117713571D02*
X190817523Y-117713571D01*
X190817523Y-118237380D02*
X190817523Y-117237380D01*
X191198476Y-117237380D02*
X191817523Y-117237380D01*
X191484190Y-117618333D01*
X191627047Y-117618333D01*
X191722285Y-117665952D01*
X191769904Y-117713571D01*
X191817523Y-117808809D01*
X191817523Y-118046904D01*
X191769904Y-118142142D01*
X191722285Y-118189761D01*
X191627047Y-118237380D01*
X191341333Y-118237380D01*
X191246095Y-118189761D01*
X191198476Y-118142142D01*
%TO.C,H2*%
X190182595Y-65976880D02*
X190182595Y-64976880D01*
X190182595Y-65453071D02*
X190754023Y-65453071D01*
X190754023Y-65976880D02*
X190754023Y-64976880D01*
X191182595Y-65072119D02*
X191230214Y-65024500D01*
X191325452Y-64976880D01*
X191563547Y-64976880D01*
X191658785Y-65024500D01*
X191706404Y-65072119D01*
X191754023Y-65167357D01*
X191754023Y-65262595D01*
X191706404Y-65405452D01*
X191134976Y-65976880D01*
X191754023Y-65976880D01*
%TO.C,H1*%
X124015595Y-65786380D02*
X124015595Y-64786380D01*
X124015595Y-65262571D02*
X124587023Y-65262571D01*
X124587023Y-65786380D02*
X124587023Y-64786380D01*
X125587023Y-65786380D02*
X125015595Y-65786380D01*
X125301309Y-65786380D02*
X125301309Y-64786380D01*
X125206071Y-64929238D01*
X125110833Y-65024476D01*
X125015595Y-65072095D01*
%TO.C,D5*%
X149142880Y-106719595D02*
X148142880Y-106719595D01*
X148142880Y-106481500D01*
X148190500Y-106338642D01*
X148285738Y-106243404D01*
X148380976Y-106195785D01*
X148571452Y-106148166D01*
X148714309Y-106148166D01*
X148904785Y-106195785D01*
X149000023Y-106243404D01*
X149095261Y-106338642D01*
X149142880Y-106481500D01*
X149142880Y-106719595D01*
X148142880Y-105243404D02*
X148142880Y-105719595D01*
X148619071Y-105767214D01*
X148571452Y-105719595D01*
X148523833Y-105624357D01*
X148523833Y-105386261D01*
X148571452Y-105291023D01*
X148619071Y-105243404D01*
X148714309Y-105195785D01*
X148952404Y-105195785D01*
X149047642Y-105243404D01*
X149095261Y-105291023D01*
X149142880Y-105386261D01*
X149142880Y-105624357D01*
X149095261Y-105719595D01*
X149047642Y-105767214D01*
X148022880Y-98623404D02*
X147022880Y-98623404D01*
X148022880Y-98051976D02*
X147451452Y-98480547D01*
X147022880Y-98051976D02*
X147594309Y-98623404D01*
%TO.C,D4*%
X134008904Y-100839380D02*
X134008904Y-99839380D01*
X134247000Y-99839380D01*
X134389857Y-99887000D01*
X134485095Y-99982238D01*
X134532714Y-100077476D01*
X134580333Y-100267952D01*
X134580333Y-100410809D01*
X134532714Y-100601285D01*
X134485095Y-100696523D01*
X134389857Y-100791761D01*
X134247000Y-100839380D01*
X134008904Y-100839380D01*
X135437476Y-100172714D02*
X135437476Y-100839380D01*
X135199380Y-99791761D02*
X134961285Y-100506047D01*
X135580333Y-100506047D01*
X139565095Y-100469380D02*
X139565095Y-99469380D01*
X140136523Y-100469380D02*
X139707952Y-99897952D01*
X140136523Y-99469380D02*
X139565095Y-100040809D01*
%TO.C,D2*%
X133881904Y-96013380D02*
X133881904Y-95013380D01*
X134120000Y-95013380D01*
X134262857Y-95061000D01*
X134358095Y-95156238D01*
X134405714Y-95251476D01*
X134453333Y-95441952D01*
X134453333Y-95584809D01*
X134405714Y-95775285D01*
X134358095Y-95870523D01*
X134262857Y-95965761D01*
X134120000Y-96013380D01*
X133881904Y-96013380D01*
X134834285Y-95108619D02*
X134881904Y-95061000D01*
X134977142Y-95013380D01*
X135215238Y-95013380D01*
X135310476Y-95061000D01*
X135358095Y-95108619D01*
X135405714Y-95203857D01*
X135405714Y-95299095D01*
X135358095Y-95441952D01*
X134786666Y-96013380D01*
X135405714Y-96013380D01*
X139438095Y-95643380D02*
X139438095Y-94643380D01*
X140009523Y-95643380D02*
X139580952Y-95071952D01*
X140009523Y-94643380D02*
X139438095Y-95214809D01*
%TO.C,D1*%
X179157404Y-84631880D02*
X179157404Y-83631880D01*
X179395500Y-83631880D01*
X179538357Y-83679500D01*
X179633595Y-83774738D01*
X179681214Y-83869976D01*
X179728833Y-84060452D01*
X179728833Y-84203309D01*
X179681214Y-84393785D01*
X179633595Y-84489023D01*
X179538357Y-84584261D01*
X179395500Y-84631880D01*
X179157404Y-84631880D01*
X180681214Y-84631880D02*
X180109785Y-84631880D01*
X180395500Y-84631880D02*
X180395500Y-83631880D01*
X180300261Y-83774738D01*
X180205023Y-83869976D01*
X180109785Y-83917595D01*
%TO.C,C10*%
X174109142Y-96330642D02*
X174061523Y-96378261D01*
X173918666Y-96425880D01*
X173823428Y-96425880D01*
X173680571Y-96378261D01*
X173585333Y-96283023D01*
X173537714Y-96187785D01*
X173490095Y-95997309D01*
X173490095Y-95854452D01*
X173537714Y-95663976D01*
X173585333Y-95568738D01*
X173680571Y-95473500D01*
X173823428Y-95425880D01*
X173918666Y-95425880D01*
X174061523Y-95473500D01*
X174109142Y-95521119D01*
X175061523Y-96425880D02*
X174490095Y-96425880D01*
X174775809Y-96425880D02*
X174775809Y-95425880D01*
X174680571Y-95568738D01*
X174585333Y-95663976D01*
X174490095Y-95711595D01*
X175680571Y-95425880D02*
X175775809Y-95425880D01*
X175871047Y-95473500D01*
X175918666Y-95521119D01*
X175966285Y-95616357D01*
X176013904Y-95806833D01*
X176013904Y-96044928D01*
X175966285Y-96235404D01*
X175918666Y-96330642D01*
X175871047Y-96378261D01*
X175775809Y-96425880D01*
X175680571Y-96425880D01*
X175585333Y-96378261D01*
X175537714Y-96330642D01*
X175490095Y-96235404D01*
X175442476Y-96044928D01*
X175442476Y-95806833D01*
X175490095Y-95616357D01*
X175537714Y-95521119D01*
X175585333Y-95473500D01*
X175680571Y-95425880D01*
%TO.C,C9*%
X171493142Y-84034166D02*
X171540761Y-84081785D01*
X171588380Y-84224642D01*
X171588380Y-84319880D01*
X171540761Y-84462738D01*
X171445523Y-84557976D01*
X171350285Y-84605595D01*
X171159809Y-84653214D01*
X171016952Y-84653214D01*
X170826476Y-84605595D01*
X170731238Y-84557976D01*
X170636000Y-84462738D01*
X170588380Y-84319880D01*
X170588380Y-84224642D01*
X170636000Y-84081785D01*
X170683619Y-84034166D01*
X171588380Y-83557976D02*
X171588380Y-83367500D01*
X171540761Y-83272261D01*
X171493142Y-83224642D01*
X171350285Y-83129404D01*
X171159809Y-83081785D01*
X170778857Y-83081785D01*
X170683619Y-83129404D01*
X170636000Y-83177023D01*
X170588380Y-83272261D01*
X170588380Y-83462738D01*
X170636000Y-83557976D01*
X170683619Y-83605595D01*
X170778857Y-83653214D01*
X171016952Y-83653214D01*
X171112190Y-83605595D01*
X171159809Y-83557976D01*
X171207428Y-83462738D01*
X171207428Y-83272261D01*
X171159809Y-83177023D01*
X171112190Y-83129404D01*
X171016952Y-83081785D01*
%TO.C,C6*%
X171429642Y-78128666D02*
X171477261Y-78176285D01*
X171524880Y-78319142D01*
X171524880Y-78414380D01*
X171477261Y-78557238D01*
X171382023Y-78652476D01*
X171286785Y-78700095D01*
X171096309Y-78747714D01*
X170953452Y-78747714D01*
X170762976Y-78700095D01*
X170667738Y-78652476D01*
X170572500Y-78557238D01*
X170524880Y-78414380D01*
X170524880Y-78319142D01*
X170572500Y-78176285D01*
X170620119Y-78128666D01*
X170524880Y-77271523D02*
X170524880Y-77462000D01*
X170572500Y-77557238D01*
X170620119Y-77604857D01*
X170762976Y-77700095D01*
X170953452Y-77747714D01*
X171334404Y-77747714D01*
X171429642Y-77700095D01*
X171477261Y-77652476D01*
X171524880Y-77557238D01*
X171524880Y-77366761D01*
X171477261Y-77271523D01*
X171429642Y-77223904D01*
X171334404Y-77176285D01*
X171096309Y-77176285D01*
X171001071Y-77223904D01*
X170953452Y-77271523D01*
X170905833Y-77366761D01*
X170905833Y-77557238D01*
X170953452Y-77652476D01*
X171001071Y-77700095D01*
X171096309Y-77747714D01*
%TO.C,C5*%
X157163642Y-95988166D02*
X157211261Y-96035785D01*
X157258880Y-96178642D01*
X157258880Y-96273880D01*
X157211261Y-96416738D01*
X157116023Y-96511976D01*
X157020785Y-96559595D01*
X156830309Y-96607214D01*
X156687452Y-96607214D01*
X156496976Y-96559595D01*
X156401738Y-96511976D01*
X156306500Y-96416738D01*
X156258880Y-96273880D01*
X156258880Y-96178642D01*
X156306500Y-96035785D01*
X156354119Y-95988166D01*
X156258880Y-95083404D02*
X156258880Y-95559595D01*
X156735071Y-95607214D01*
X156687452Y-95559595D01*
X156639833Y-95464357D01*
X156639833Y-95226261D01*
X156687452Y-95131023D01*
X156735071Y-95083404D01*
X156830309Y-95035785D01*
X157068404Y-95035785D01*
X157163642Y-95083404D01*
X157211261Y-95131023D01*
X157258880Y-95226261D01*
X157258880Y-95464357D01*
X157211261Y-95559595D01*
X157163642Y-95607214D01*
%TO.C,C4*%
X142771833Y-84406142D02*
X142724214Y-84453761D01*
X142581357Y-84501380D01*
X142486119Y-84501380D01*
X142343261Y-84453761D01*
X142248023Y-84358523D01*
X142200404Y-84263285D01*
X142152785Y-84072809D01*
X142152785Y-83929952D01*
X142200404Y-83739476D01*
X142248023Y-83644238D01*
X142343261Y-83549000D01*
X142486119Y-83501380D01*
X142581357Y-83501380D01*
X142724214Y-83549000D01*
X142771833Y-83596619D01*
X143628976Y-83834714D02*
X143628976Y-84501380D01*
X143390880Y-83453761D02*
X143152785Y-84168047D01*
X143771833Y-84168047D01*
%TO.C,C3*%
X147534333Y-92106142D02*
X147486714Y-92153761D01*
X147343857Y-92201380D01*
X147248619Y-92201380D01*
X147105761Y-92153761D01*
X147010523Y-92058523D01*
X146962904Y-91963285D01*
X146915285Y-91772809D01*
X146915285Y-91629952D01*
X146962904Y-91439476D01*
X147010523Y-91344238D01*
X147105761Y-91249000D01*
X147248619Y-91201380D01*
X147343857Y-91201380D01*
X147486714Y-91249000D01*
X147534333Y-91296619D01*
X147867666Y-91201380D02*
X148486714Y-91201380D01*
X148153380Y-91582333D01*
X148296238Y-91582333D01*
X148391476Y-91629952D01*
X148439095Y-91677571D01*
X148486714Y-91772809D01*
X148486714Y-92010904D01*
X148439095Y-92106142D01*
X148391476Y-92153761D01*
X148296238Y-92201380D01*
X148010523Y-92201380D01*
X147915285Y-92153761D01*
X147867666Y-92106142D01*
%TD*%
M02*
