%TF.GenerationSoftware,KiCad,Pcbnew,(5.1.8)-1*%
%TF.CreationDate,2021-09-09T16:11:34+01:00*%
%TF.ProjectId,OSC21,4f534332-312e-46b6-9963-61645f706362,rev?*%
%TF.SameCoordinates,Original*%
%TF.FileFunction,Soldermask,Bot*%
%TF.FilePolarity,Negative*%
%FSLAX46Y46*%
G04 Gerber Fmt 4.6, Leading zero omitted, Abs format (unit mm)*
G04 Created by KiCad (PCBNEW (5.1.8)-1) date 2021-09-09 16:11:34*
%MOMM*%
%LPD*%
G01*
G04 APERTURE LIST*
%ADD10O,1.950000X1.700000*%
%ADD11C,2.600000*%
%ADD12R,2.600000X2.600000*%
%ADD13O,1.700000X1.950000*%
%ADD14C,1.600000*%
%ADD15C,1.500000*%
%ADD16C,2.000000*%
%ADD17R,1.050000X1.500000*%
%ADD18O,1.050000X1.500000*%
%ADD19O,2.000000X1.905000*%
%ADD20R,2.000000X1.905000*%
%ADD21O,1.905000X2.000000*%
%ADD22R,1.905000X2.000000*%
%ADD23O,1.700000X2.000000*%
%ADD24O,1.350000X1.350000*%
%ADD25R,1.350000X1.350000*%
%ADD26C,5.000000*%
%ADD27O,3.200000X3.200000*%
%ADD28R,3.200000X3.200000*%
%ADD29O,2.200000X2.200000*%
%ADD30R,2.200000X2.200000*%
%ADD31C,1.200000*%
G04 APERTURE END LIST*
D10*
%TO.C,DIGITAL3*%
X124206000Y-97893500D03*
X124206000Y-100393500D03*
G36*
G01*
X124931000Y-103743500D02*
X123481000Y-103743500D01*
G75*
G02*
X123231000Y-103493500I0J250000D01*
G01*
X123231000Y-102293500D01*
G75*
G02*
X123481000Y-102043500I250000J0D01*
G01*
X124931000Y-102043500D01*
G75*
G02*
X125181000Y-102293500I0J-250000D01*
G01*
X125181000Y-103493500D01*
G75*
G02*
X124931000Y-103743500I-250000J0D01*
G01*
G37*
%TD*%
D11*
%TO.C,PWM2*%
X191325500Y-103124000D03*
X191325500Y-108204000D03*
D12*
X191325500Y-113284000D03*
%TD*%
D13*
%TO.C,PWM1*%
X177943500Y-121475500D03*
X180443500Y-121475500D03*
G36*
G01*
X183793500Y-120750500D02*
X183793500Y-122200500D01*
G75*
G02*
X183543500Y-122450500I-250000J0D01*
G01*
X182343500Y-122450500D01*
G75*
G02*
X182093500Y-122200500I0J250000D01*
G01*
X182093500Y-120750500D01*
G75*
G02*
X182343500Y-120500500I250000J0D01*
G01*
X183543500Y-120500500D01*
G75*
G02*
X183793500Y-120750500I0J-250000D01*
G01*
G37*
%TD*%
D11*
%TO.C,J1*%
X128714500Y-80565000D03*
D12*
X128714500Y-75565000D03*
%TD*%
D13*
%TO.C,DIGITAL2*%
X166704000Y-121475500D03*
X169204000Y-121475500D03*
G36*
G01*
X172554000Y-120750500D02*
X172554000Y-122200500D01*
G75*
G02*
X172304000Y-122450500I-250000J0D01*
G01*
X171104000Y-122450500D01*
G75*
G02*
X170854000Y-122200500I0J250000D01*
G01*
X170854000Y-120750500D01*
G75*
G02*
X171104000Y-120500500I250000J0D01*
G01*
X172304000Y-120500500D01*
G75*
G02*
X172554000Y-120750500I0J-250000D01*
G01*
G37*
%TD*%
D14*
%TO.C,C2*%
X158646500Y-108712000D03*
X156146500Y-108712000D03*
%TD*%
%TO.C,C1*%
X158519500Y-105664000D03*
X156019500Y-105664000D03*
%TD*%
D15*
%TO.C,Y1*%
X151828500Y-111179000D03*
X151828500Y-106299000D03*
%TD*%
D16*
%TO.C,SW1*%
X175156000Y-104775000D03*
X175156000Y-109275000D03*
X168656000Y-104775000D03*
X168656000Y-109275000D03*
%TD*%
D17*
%TO.C,Q4*%
X181927500Y-104521000D03*
D18*
X179387500Y-104521000D03*
X180657500Y-104521000D03*
%TD*%
D17*
%TO.C,Q3*%
X182753000Y-90995500D03*
D18*
X180213000Y-90995500D03*
X181483000Y-90995500D03*
%TD*%
D19*
%TO.C,Q2*%
X137160000Y-112649000D03*
X137160000Y-110109000D03*
D20*
X137160000Y-107569000D03*
%TD*%
D21*
%TO.C,Q1*%
X135826500Y-88074500D03*
X133286500Y-88074500D03*
D22*
X130746500Y-88074500D03*
%TD*%
D16*
%TO.C,L1*%
X152780500Y-88519000D03*
X148780500Y-88519000D03*
%TD*%
D13*
%TO.C,ANALOG4*%
X149907000Y-69659500D03*
X147407000Y-69659500D03*
G36*
G01*
X144057000Y-70384500D02*
X144057000Y-68934500D01*
G75*
G02*
X144307000Y-68684500I250000J0D01*
G01*
X145507000Y-68684500D01*
G75*
G02*
X145757000Y-68934500I0J-250000D01*
G01*
X145757000Y-70384500D01*
G75*
G02*
X145507000Y-70634500I-250000J0D01*
G01*
X144307000Y-70634500D01*
G75*
G02*
X144057000Y-70384500I0J250000D01*
G01*
G37*
%TD*%
%TO.C,ANALOG3*%
X161083000Y-69659500D03*
X158583000Y-69659500D03*
G36*
G01*
X155233000Y-70384500D02*
X155233000Y-68934500D01*
G75*
G02*
X155483000Y-68684500I250000J0D01*
G01*
X156683000Y-68684500D01*
G75*
G02*
X156933000Y-68934500I0J-250000D01*
G01*
X156933000Y-70384500D01*
G75*
G02*
X156683000Y-70634500I-250000J0D01*
G01*
X155483000Y-70634500D01*
G75*
G02*
X155233000Y-70384500I0J250000D01*
G01*
G37*
%TD*%
%TO.C,DIGITAL4*%
X155528000Y-121475500D03*
X158028000Y-121475500D03*
G36*
G01*
X161378000Y-120750500D02*
X161378000Y-122200500D01*
G75*
G02*
X161128000Y-122450500I-250000J0D01*
G01*
X159928000Y-122450500D01*
G75*
G02*
X159678000Y-122200500I0J250000D01*
G01*
X159678000Y-120750500D01*
G75*
G02*
X159928000Y-120500500I250000J0D01*
G01*
X161128000Y-120500500D01*
G75*
G02*
X161378000Y-120750500I0J-250000D01*
G01*
G37*
%TD*%
%TO.C,DIGITAL1*%
X138477000Y-69659500D03*
X135977000Y-69659500D03*
G36*
G01*
X132627000Y-70384500D02*
X132627000Y-68934500D01*
G75*
G02*
X132877000Y-68684500I250000J0D01*
G01*
X134077000Y-68684500D01*
G75*
G02*
X134327000Y-68934500I0J-250000D01*
G01*
X134327000Y-70384500D01*
G75*
G02*
X134077000Y-70634500I-250000J0D01*
G01*
X132877000Y-70634500D01*
G75*
G02*
X132627000Y-70384500I0J250000D01*
G01*
G37*
%TD*%
%TO.C,ANALOG2*%
X183451500Y-69659500D03*
X180951500Y-69659500D03*
G36*
G01*
X177601500Y-70384500D02*
X177601500Y-68934500D01*
G75*
G02*
X177851500Y-68684500I250000J0D01*
G01*
X179051500Y-68684500D01*
G75*
G02*
X179301500Y-68934500I0J-250000D01*
G01*
X179301500Y-70384500D01*
G75*
G02*
X179051500Y-70634500I-250000J0D01*
G01*
X177851500Y-70634500D01*
G75*
G02*
X177601500Y-70384500I0J250000D01*
G01*
G37*
%TD*%
%TO.C,ANALOG1*%
X172259000Y-69659500D03*
X169759000Y-69659500D03*
G36*
G01*
X166409000Y-70384500D02*
X166409000Y-68934500D01*
G75*
G02*
X166659000Y-68684500I250000J0D01*
G01*
X167859000Y-68684500D01*
G75*
G02*
X168109000Y-68934500I0J-250000D01*
G01*
X168109000Y-70384500D01*
G75*
G02*
X167859000Y-70634500I-250000J0D01*
G01*
X166659000Y-70634500D01*
G75*
G02*
X166409000Y-70384500I0J250000D01*
G01*
G37*
%TD*%
%TO.C,PWM4*%
X144415500Y-121475500D03*
X146915500Y-121475500D03*
G36*
G01*
X150265500Y-120750500D02*
X150265500Y-122200500D01*
G75*
G02*
X150015500Y-122450500I-250000J0D01*
G01*
X148815500Y-122450500D01*
G75*
G02*
X148565500Y-122200500I0J250000D01*
G01*
X148565500Y-120750500D01*
G75*
G02*
X148815500Y-120500500I250000J0D01*
G01*
X150015500Y-120500500D01*
G75*
G02*
X150265500Y-120750500I0J-250000D01*
G01*
G37*
%TD*%
D10*
%TO.C,PWM3*%
X124206000Y-86630500D03*
X124206000Y-89130500D03*
G36*
G01*
X124931000Y-92480500D02*
X123481000Y-92480500D01*
G75*
G02*
X123231000Y-92230500I0J250000D01*
G01*
X123231000Y-91030500D01*
G75*
G02*
X123481000Y-90780500I250000J0D01*
G01*
X124931000Y-90780500D01*
G75*
G02*
X125181000Y-91030500I0J-250000D01*
G01*
X125181000Y-92230500D01*
G75*
G02*
X124931000Y-92480500I-250000J0D01*
G01*
G37*
%TD*%
D23*
%TO.C,UART1*%
X135739500Y-121475500D03*
G36*
G01*
X139089500Y-120725500D02*
X139089500Y-122225500D01*
G75*
G02*
X138839500Y-122475500I-250000J0D01*
G01*
X137639500Y-122475500D01*
G75*
G02*
X137389500Y-122225500I0J250000D01*
G01*
X137389500Y-120725500D01*
G75*
G02*
X137639500Y-120475500I250000J0D01*
G01*
X138839500Y-120475500D01*
G75*
G02*
X139089500Y-120725500I0J-250000D01*
G01*
G37*
%TD*%
D11*
%TO.C,solenoid1*%
X127254000Y-114537500D03*
D12*
X127254000Y-109537500D03*
%TD*%
D10*
%TO.C,Sharp1*%
X190373000Y-81771500D03*
X190373000Y-79271500D03*
G36*
G01*
X189648000Y-75921500D02*
X191098000Y-75921500D01*
G75*
G02*
X191348000Y-76171500I0J-250000D01*
G01*
X191348000Y-77371500D01*
G75*
G02*
X191098000Y-77621500I-250000J0D01*
G01*
X189648000Y-77621500D01*
G75*
G02*
X189398000Y-77371500I0J250000D01*
G01*
X189398000Y-76171500D01*
G75*
G02*
X189648000Y-75921500I250000J0D01*
G01*
G37*
%TD*%
%TO.C,UART_to_raspberry1*%
X188341000Y-95955500D03*
X188341000Y-93455500D03*
X188341000Y-90955500D03*
G36*
G01*
X187616000Y-87605500D02*
X189066000Y-87605500D01*
G75*
G02*
X189316000Y-87855500I0J-250000D01*
G01*
X189316000Y-89055500D01*
G75*
G02*
X189066000Y-89305500I-250000J0D01*
G01*
X187616000Y-89305500D01*
G75*
G02*
X187366000Y-89055500I0J250000D01*
G01*
X187366000Y-87855500D01*
G75*
G02*
X187616000Y-87605500I250000J0D01*
G01*
G37*
%TD*%
D24*
%TO.C,J2*%
X174529500Y-101028000D03*
X172529500Y-101028000D03*
X174529500Y-99028000D03*
X172529500Y-99028000D03*
X174529500Y-97028000D03*
D25*
X172529500Y-97028000D03*
%TD*%
D26*
%TO.C,H4*%
X124587000Y-121793000D03*
%TD*%
%TO.C,H3*%
X191008000Y-121285000D03*
%TD*%
%TO.C,H2*%
X190944500Y-69024500D03*
%TD*%
%TO.C,H1*%
X124777500Y-68834000D03*
%TD*%
D27*
%TO.C,D5*%
X144970500Y-113601500D03*
D28*
X144970500Y-98361500D03*
%TD*%
D29*
%TO.C,D4*%
X129667000Y-97917000D03*
D30*
X139827000Y-97917000D03*
%TD*%
D29*
%TO.C,D2*%
X129540000Y-93091000D03*
D30*
X139700000Y-93091000D03*
%TD*%
D31*
%TO.C,C9*%
X167386000Y-84867500D03*
X167386000Y-82867500D03*
%TD*%
%TO.C,C6*%
X167322500Y-78962000D03*
X167322500Y-76962000D03*
%TD*%
M02*
