M48
; DRILL file {KiCad (5.1.8)-1} date 09/09/21 16:11:39
; FORMAT={-:-/ absolute / inch / decimal}
; #@! TF.CreationDate,2021-09-09T16:11:39+01:00
; #@! TF.GenerationSoftware,Kicad,Pcbnew,(5.1.8)-1
; #@! TF.FileFunction,Plated,1,2,PTH
FMAT,2
INCH
T1C0.0157
T2C0.0236
T3C0.0295
T4C0.0315
T5C0.0374
T6C0.0394
T7C0.0433
T8C0.0512
T9C0.0630
T10C0.0984
%
G90
G05
T1
X5.4648Y-3.1402
X6.1675Y-3.5725
X6.1675Y-3.6625
X6.23Y-2.9725
X6.235Y-3.435
X6.345Y-3.66
X6.4Y-3.695
X6.4475Y-3.4725
X6.465Y-3.67
X6.5175Y-3.475
X6.6425Y-3.52
X6.6525Y-3.96
X6.6927Y-3.6298
X6.6975Y-3.5375
X6.9038Y-3.5338
T2
X6.5875Y-3.03
X6.5875Y-3.1087
X6.59Y-3.2625
X6.59Y-3.3412
T3
X7.0625Y-4.115
X7.1125Y-4.115
X7.1625Y-4.115
X7.095Y-3.5825
X7.145Y-3.5825
X7.195Y-3.5825
T4
X6.1425Y-4.16
X6.2409Y-4.16
X5.9775Y-4.185
X5.9775Y-4.3771
X6.1475Y-4.28
X6.2459Y-4.28
X6.7925Y-3.82
X6.7925Y-3.8987
X6.7925Y-3.9775
X6.8712Y-3.82
X6.8712Y-3.8987
X6.8712Y-3.9775
T5
X6.1231Y-4.7825
X6.2216Y-4.7825
X6.32Y-4.7825
X4.89Y-3.4106
X4.89Y-3.5091
X4.89Y-3.6075
X7.0056Y-4.7825
X7.1041Y-4.7825
X7.2025Y-4.7825
X6.145Y-2.7425
X6.2434Y-2.7425
X6.3419Y-2.7425
X7.495Y-3.0225
X7.495Y-3.1209
X7.495Y-3.2194
X4.89Y-3.8541
X4.89Y-3.9525
X4.89Y-4.0509
X5.705Y-2.7425
X5.8034Y-2.7425
X5.9019Y-2.7425
X7.0256Y-2.7425
X7.1241Y-2.7425
X7.2225Y-2.7425
X6.585Y-2.7425
X6.6834Y-2.7425
X6.7819Y-2.7425
X5.255Y-2.7425
X5.3534Y-2.7425
X5.4519Y-2.7425
X6.5631Y-4.7825
X6.6616Y-4.7825
X6.76Y-4.7825
X5.6856Y-4.7825
X5.7841Y-4.7825
X5.8825Y-4.7825
X7.415Y-3.4825
X7.415Y-3.5809
X7.415Y-3.6794
X7.415Y-3.7778
T6
X5.8575Y-3.485
X6.015Y-3.485
X5.3441Y-4.7825
X5.4425Y-4.7825
T7
X5.1Y-3.665
X5.5Y-3.665
X5.105Y-3.855
X5.505Y-3.855
X5.1475Y-3.4675
X5.2475Y-3.4675
X5.3475Y-3.4675
X5.4Y-4.235
X5.4Y-4.335
X5.4Y-4.435
X6.64Y-4.125
X6.64Y-4.3022
X6.8959Y-4.125
X6.8959Y-4.3022
T8
X5.0675Y-2.975
X5.0675Y-3.1719
X7.5325Y-4.06
X7.5325Y-4.26
X7.5325Y-4.46
X5.01Y-4.3125
X5.01Y-4.5094
T9
X5.7075Y-3.8725
X5.7075Y-4.4725
T10
X4.9125Y-2.71
X7.52Y-4.775
X7.5175Y-2.7175
X4.905Y-4.795
T0
M30
